<svg width="1693" height="970" xmlns="http://www.w3.org/2000/svg" xmlns:xlink="http://www.w3.org/1999/xlink" xml:space="preserve" overflow="hidden"><defs><clipPath id="clip0"><rect x="184" y="429" width="1693" height="970"/></clipPath></defs><g clip-path="url(#clip0)" transform="translate(-184 -429)"><rect x="184" y="429" width="1693" height="970" fill="#FFFFFF"/><g><path d="M377 1037.03 1798 1037.03M377 1014.03 1798 1014.03M377 990.032 1798 990.032M377 966.032 1798 966.032M377 919.03 1798 919.03M377 895.029 1798 895.029M377 872.029 1798 872.029M377 848.028 1798 848.028M377 801.026 1798 801.026M377 777.026 1798 777.026M377 754.025 1798 754.025M377 730.024 1798 730.024M377 683.022 1798 683.022M377 659.022 1798 659.022M377 636.021 1798 636.021M377 612.02 1798 612.02M377 565.019 1798 565.019M377 541.018 1798 541.018M377 518.017 1798 518.017M377 494.016 1798 494.016" stroke="#F2F2F2" stroke-width="2.29167" stroke-linejoin="round" stroke-miterlimit="10" fill="none"/></g><g><path d="M377 943.031 1798 943.031M377 825.027 1798 825.027M377 707.023 1798 707.023M377 589.019 1798 589.019M377 471 1798 471" stroke="#D9D9D9" stroke-width="2.29167" stroke-linejoin="round" stroke-miterlimit="10" fill="none"/></g><g><rect x="377" y="471" width="1421" height="590" stroke="#000000" stroke-width="2.29167" stroke-linejoin="round" stroke-miterlimit="10" fill="none"/></g><g><path d="M407.013 657.022 489.016 657.022 489.016 1061 407.013 1061ZM549.018 678.022 631.021 678.022 631.021 1061 549.018 1061ZM691.023 723.024 773.025 723.024 773.025 1061 691.023 1061ZM833.027 744.024 915.03 744.024 915.03 1061 833.027 1061ZM975.032 1022.03 1058.03 1022.03 1058.03 1061 975.032 1061ZM1118.04 1036.03 1200.04 1036.03 1200.04 1061 1118.04 1061ZM1260.04 1031.03 1342.04 1031.03 1342.04 1061 1260.04 1061ZM1402.05 1035.03 1484.05 1035.03 1484.05 1061 1402.05 1061ZM1544.05 703.023 1626.05 703.023 1626.05 1061 1544.05 1061ZM1686.06 720.024 1768.06 720.024 1768.06 1061 1686.06 1061Z" stroke="#000000" stroke-width="2.29167" stroke-linejoin="round" stroke-miterlimit="10" fill="#404040"/></g><g><path d="M549.018 676.022 631.021 676.022 631.021 678.022 549.018 678.022ZM833.027 738.024 915.03 738.024 915.03 744.024 833.027 744.024ZM1118.04 1030.03 1200.04 1030.03 1200.04 1036.03 1118.04 1036.03ZM1402.05 1025.03 1484.05 1025.03 1484.05 1035.03 1402.05 1035.03ZM1686.06 712.023 1768.06 712.023 1768.06 720.024 1686.06 720.024Z" stroke="#000000" stroke-width="2.29167" stroke-linejoin="round" stroke-miterlimit="10" fill="#FFFFFF"/></g><g><path d="M407.013 622.02 489.016 622.02 489.016 657.022 407.013 657.022ZM549.018 638.021 631.021 638.021 631.021 676.022 549.018 676.022ZM691.023 674.022 773.025 674.022 773.025 723.024 691.023 723.024ZM833.027 675.022 915.03 675.022 915.03 738.024 833.027 738.024ZM975.032 997.033 1058.03 997.033 1058.03 1022.03 975.032 1022.03ZM1118.04 1001.03 1200.04 1001.03 1200.04 1030.03 1118.04 1030.03ZM1260.04 988.032 1342.04 988.032 1342.04 1031.03 1260.04 1031.03ZM1402.05 970.032 1484.05 970.032 1484.05 1025.03 1402.05 1025.03ZM1544.05 685.022 1626.05 685.022 1626.05 703.023 1544.05 703.023ZM1686.06 697.023 1768.06 697.023 1768.06 712.023 1686.06 712.023Z" stroke="#000000" stroke-width="2.29167" stroke-linejoin="round" stroke-miterlimit="10" fill="#A6A6A6"/></g><g><path d="M549.018 597.02 631.021 597.02 631.021 638.021 549.018 638.021ZM833.027 618.02 915.03 618.02 915.03 675.022 833.027 675.022ZM1118.04 974.032 1200.04 974.032 1200.04 1001.03 1118.04 1001.03ZM1402.05 938.031 1484.05 938.031 1484.05 970.032 1402.05 970.032ZM1686.06 670.022 1768.06 670.022 1768.06 697.023 1686.06 697.023Z" stroke="#000000" stroke-width="2.29167" stroke-linejoin="round" stroke-miterlimit="10" fill="#D9D9D9"/></g><g><path d="M0 0 0.000360892 590" stroke="#000000" stroke-width="3.4375" stroke-linejoin="round" stroke-miterlimit="10" fill="none" fill-rule="evenodd" transform="matrix(1 0 0 -1 376.5 1060.5)"/></g><g><path d="M362.5 1060.5 376.5 1060.5M362.5 942.531 376.5 942.531M362.5 824.527 376.5 824.527M362.5 706.523 376.5 706.523M362.5 588.519 376.5 588.519M362.5 470.5 376.5 470.5" stroke="#000000" stroke-width="3.4375" stroke-linejoin="round" stroke-miterlimit="10" fill="none"/></g><g><path d="M376.5 1060.5 1798.5 1060.5" stroke="#000000" stroke-width="3.4375" stroke-linejoin="round" stroke-miterlimit="10" fill="none" fill-rule="evenodd"/></g><g><path d="M376.5 1060.5 376.5 1302.5M661.522 1060.5 661.522 1302.5M945.531 1060.5 945.531 1302.5M1229.54 1060.5 1229.54 1302.5M1514.55 1060.5 1514.55 1302.5M1798.5 1060.5 1798.5 1302.5" stroke="#000000" stroke-width="3.4375" stroke-linejoin="round" stroke-miterlimit="10" fill="none"/></g><g><path d="M376.5 1302.5 376.5 1370.5M661.522 1302.5 661.522 1370.5M945.531 1302.5 945.531 1370.5M1229.54 1302.5 1229.54 1370.5M1514.55 1302.5 1514.55 1370.5M1798.5 1302.5 1798.5 1370.5" stroke="#000000" stroke-width="3.4375" stroke-linejoin="round" stroke-miterlimit="10" fill="none"/></g><g><text font-family="Arial,Arial_MSFontService,sans-serif" font-weight="400" font-size="46" transform="matrix(1 0 0 1 286.266 1076)">20</text></g><g><text font-family="Arial,Arial_MSFontService,sans-serif" font-weight="400" font-size="46" transform="matrix(1 0 0 1 286.266 958)">25</text></g><g><text font-family="Arial,Arial_MSFontService,sans-serif" font-weight="400" font-size="46" transform="matrix(1 0 0 1 286.266 840)">30</text></g><g><text font-family="Arial,Arial_MSFontService,sans-serif" font-weight="400" font-size="46" transform="matrix(1 0 0 1 286.266 722)">35</text></g><g><text font-family="Arial,Arial_MSFontService,sans-serif" font-weight="400" font-size="46" transform="matrix(1 0 0 1 286.266 604)">40</text></g><g><text font-family="Arial,Arial_MSFontService,sans-serif" font-weight="400" font-size="46" transform="matrix(1 0 0 1 286.266 486)">45</text></g><g><text font-family="Arial,Arial_MSFontService,sans-serif" font-weight="400" font-size="46" transform="matrix(6.12323e-17 -1 1 6.12323e-17 464.157 1294)">On-access</text></g><g><text font-family="Arial,Arial_MSFontService,sans-serif" font-weight="400" font-size="46" transform="matrix(6.12323e-17 -1 1 6.12323e-17 606.336 1299)">On-commit</text></g><g><text font-family="Arial,Arial_MSFontService,sans-serif" font-weight="400" font-size="46" transform="matrix(6.12323e-17 -1 1 6.12323e-17 748.516 1294)">On-access</text></g><g><text font-family="Arial,Arial_MSFontService,sans-serif" font-weight="400" font-size="46" transform="matrix(6.12323e-17 -1 1 6.12323e-17 890.696 1299)">On-commit</text></g><g><text font-family="Arial,Arial_MSFontService,sans-serif" font-weight="400" font-size="46" transform="matrix(6.12323e-17 -1 1 6.12323e-17 1032.88 1294)">On-access</text></g><g><text font-family="Arial,Arial_MSFontService,sans-serif" font-weight="400" font-size="46" transform="matrix(6.12323e-17 -1 1 6.12323e-17 1175.05 1299)">On-commit</text></g><g><text font-family="Arial,Arial_MSFontService,sans-serif" font-weight="400" font-size="46" transform="matrix(6.12323e-17 -1 1 6.12323e-17 1317.23 1294)">On-access</text></g><g><text font-family="Arial,Arial_MSFontService,sans-serif" font-weight="400" font-size="46" transform="matrix(6.12323e-17 -1 1 6.12323e-17 1459.41 1299)">On-commit</text></g><g><text font-family="Arial,Arial_MSFontService,sans-serif" font-weight="400" font-size="46" transform="matrix(6.12323e-17 -1 1 6.12323e-17 1601.59 1294)">On-access</text></g><g><text font-family="Arial,Arial_MSFontService,sans-serif" font-weight="400" font-size="46" transform="matrix(6.12323e-17 -1 1 6.12323e-17 1743.77 1299)">On-commit</text></g><g><text font-family="Arial,Arial_MSFontService,sans-serif" font-weight="400" font-size="46" transform="matrix(1 0 0 1 429.71 1358)">IP-Stride</text></g><g><text font-family="Arial,Arial_MSFontService,sans-serif" font-weight="400" font-size="46" transform="matrix(1 0 0 1 749.727 1358)">IPCP</text></g><g><text font-family="Arial,Arial_MSFontService,sans-serif" font-weight="400" font-size="46" transform="matrix(1 0 0 1 1028.98 1358)">Bingo</text></g><g><text font-family="Arial,Arial_MSFontService,sans-serif" font-weight="400" font-size="46" transform="matrix(1 0 0 1 1268.12 1358)">SPP+PPF</text></g><g><text font-family="Arial,Arial_MSFontService,sans-serif" font-weight="400" font-size="46" transform="matrix(1 0 0 1 1609.18 1358)">Berti</text></g><g><text font-family="Arial,Arial_MSFontService,sans-serif" font-weight="400" font-size="46" transform="matrix(6.12323e-17 -1 1 6.12323e-17 249.281 885)">L1D/L2 MPKI</text></g><g><rect x="598" y="485" width="1017" height="105" fill="#FFFFFF"/></g><g><rect x="622" y="500" width="23.0001" height="22.9997" stroke="#000000" stroke-width="2.29167" stroke-linejoin="round" stroke-miterlimit="10" fill="#404040"/></g><g><text font-family="Arial,Arial_MSFontService,sans-serif" font-weight="400" font-size="46" transform="matrix(1 0 0 1 655.133 527)">Uncovered</text></g><g><rect x="1131" y="500" width="23" height="22.9997" stroke="#000000" stroke-width="2.29167" stroke-linejoin="round" stroke-miterlimit="10" fill="#FFFFFF"/></g><g><text font-family="Arial,Arial_MSFontService,sans-serif" font-weight="400" font-size="46" transform="matrix(1 0 0 1 1163.93 527)">Missed Opportunity</text></g><g><rect x="622" y="553" width="23.0001" height="23.0001" stroke="#000000" stroke-width="2.29167" stroke-linejoin="round" stroke-miterlimit="10" fill="#A6A6A6"/></g><g><text font-family="Arial,Arial_MSFontService,sans-serif" font-weight="400" font-size="46" transform="matrix(1 0 0 1 655.133 579)">Late Prefetch</text></g><g><rect x="1131" y="553" width="23" height="23.0001" stroke="#000000" stroke-width="2.29167" stroke-linejoin="round" stroke-miterlimit="10" fill="#D9D9D9"/></g><g><text font-family="Arial,Arial_MSFontService,sans-serif" font-weight="400" font-size="46" transform="matrix(1 0 0 1 1163.93 579)">Commit Late Prefetch</text></g></g></svg>