<svg width="1698" height="828" xmlns="http://www.w3.org/2000/svg" xmlns:xlink="http://www.w3.org/1999/xlink" xml:space="preserve" overflow="hidden"><defs><clipPath id="clip0"><rect x="1552" y="517" width="1698" height="828"/></clipPath><clipPath id="clip1"><rect x="1552" y="517" width="1698" height="828"/></clipPath></defs><g clip-path="url(#clip0)" transform="translate(-1552 -517)"><rect x="1552" y="517" width="1698" height="828" fill="#FFFFFF"/><g><path d="M1726 1238.04 3230 1238.04M1726 1214.04 3230 1214.04M1726 1190.04 3230 1190.04M1726 1166.04 3230 1166.04M1726 1118.04 3230 1118.04M1726 1094.04 3230 1094.04M1726 1071.04 3230 1071.04M1726 1047.03 3230 1047.03M1726 999.033 3230 999.033M1726 975.032 3230 975.032M1726 951.031 3230 951.031M1726 927.03 3230 927.03M1726 879.029 3230 879.029M1726 855.028 3230 855.028M1726 831.027 3230 831.027M1726 807.026 3230 807.026M1726 759.025 3230 759.025M1726 735.024 3230 735.024M1726 711.023 3230 711.023M1726 687.023 3230 687.023M1726 639.021 3230 639.021M1726 615.02 3230 615.02M1726 591.019 3230 591.019M1726 567.019 3230 567.019" stroke="#F2F2F2" stroke-width="2.29167" stroke-linejoin="round" stroke-miterlimit="10" fill="none"/></g><g><path d="M1726 1142.04 3230 1142.04M1726 1023.03 3230 1023.03M1726 903.03 3230 903.03M1726 783.026 3230 783.026M1726 663.022 3230 663.022M1726 543 3230 543" stroke="#D9D9D9" stroke-width="2.29167" stroke-linejoin="round" stroke-miterlimit="10" fill="none"/></g><g><rect x="1726" y="543" width="1504" height="719" stroke="#000000" stroke-width="2.29167" stroke-linejoin="round" stroke-miterlimit="10" fill="none"/></g><g><path d="M1764.06 846.028 1839.06 846.028 1839.06 1262 1764.06 1262ZM2065.07 816.027 2140.07 816.027 2140.07 1262 2065.07 1262ZM2366.08 790.026 2441.08 790.026 2441.08 1262 2366.08 1262ZM2666.09 790.026 2742.09 790.026 2742.09 1262 2666.09 1262ZM2967.1 769.025 3042.1 769.025 3042.1 1262 2967.1 1262Z" stroke="#000000" stroke-width="2.29167" stroke-linejoin="round" stroke-miterlimit="10" fill="#FFFFFF"/></g><g><path d="M1839.06 922.03 1914.06 922.03 1914.06 1262 1839.06 1262ZM2140.07 925.03 2215.07 925.03 2215.07 1262 2140.07 1262ZM2441.08 881.029 2516.08 881.029 2516.08 1262 2441.08 1262ZM2742.09 854.028 2817.09 854.028 2817.09 1262 2742.09 1262ZM3042.1 862.028 3118.1 862.028 3118.1 1262 3042.1 1262Z" stroke="#000000" stroke-width="2.29167" stroke-linejoin="round" stroke-miterlimit="10" fill="#A6A6A6"/></g><g><path d="M1914.06 956.031 1989.07 956.031 1989.07 1262 1914.06 1262ZM2215.07 963.032 2290.08 963.032 2290.08 1262 2215.07 1262ZM2516.08 917.03 2591.08 917.03 2591.08 1262 2516.08 1262ZM2817.09 931.031 2892.09 931.031 2892.09 1262 2817.09 1262ZM3118.1 894.029 3193.1 894.029 3193.1 1262 3118.1 1262Z" stroke="#000000" stroke-width="2.29167" stroke-linejoin="round" stroke-miterlimit="10" fill="#404040"/></g><g><path d="M0 0 0.000360892 720" stroke="#000000" stroke-width="3.4375" stroke-linejoin="round" stroke-miterlimit="10" fill="none" fill-rule="evenodd" transform="matrix(1 0 0 -1 1726.5 1262.5)"/></g><g><path d="M1712.5 1262.5 1726.5 1262.5M1712.5 1142.54 1726.5 1142.54M1712.5 1022.53 1726.5 1022.53M1712.5 902.53 1726.5 902.53M1712.5 782.526 1726.5 782.526M1712.5 662.522 1726.5 662.522M1712.5 542.5 1726.5 542.5" stroke="#000000" stroke-width="3.4375" stroke-linejoin="round" stroke-miterlimit="10" fill="none"/></g><g><path d="M1726.5 1262.5 3230.5 1262.5" stroke="#000000" stroke-width="3.4375" stroke-linejoin="round" stroke-miterlimit="10" fill="none" fill-rule="evenodd"/></g><g><text font-family="Arial,Arial_MSFontService,sans-serif" font-weight="400" font-size="46" transform="matrix(1 0 0 1 1623.2 1277)">0.9</text></g><g><text font-family="Arial,Arial_MSFontService,sans-serif" font-weight="400" font-size="46" transform="matrix(1 0 0 1 1623.2 1158)">1.0</text></g><g><text font-family="Arial,Arial_MSFontService,sans-serif" font-weight="400" font-size="46" transform="matrix(1 0 0 1 1623.2 1038)">1.1</text></g><g><text font-family="Arial,Arial_MSFontService,sans-serif" font-weight="400" font-size="46" transform="matrix(1 0 0 1 1623.2 918)">1.2</text></g><g><text font-family="Arial,Arial_MSFontService,sans-serif" font-weight="400" font-size="46" transform="matrix(1 0 0 1 1623.2 798)">1.3</text></g><g><text font-family="Arial,Arial_MSFontService,sans-serif" font-weight="400" font-size="46" transform="matrix(1 0 0 1 1623.2 678)">1.4</text></g><g clip-path="url(#clip1)"><text font-family="Arial,Arial_MSFontService,sans-serif" font-weight="400" font-size="46" transform="matrix(1 0 0 1 1623.2 558)">1.5</text></g><g><text font-family="Arial,Arial_MSFontService,sans-serif" font-weight="400" font-size="46" transform="matrix(1 0 0 1 1787.61 1318)">IP-Stride</text></g><g><text font-family="Arial,Arial_MSFontService,sans-serif" font-weight="400" font-size="46" transform="matrix(1 0 0 1 2124.08 1318)">IPCP</text></g><g><text font-family="Arial,Arial_MSFontService,sans-serif" font-weight="400" font-size="46" transform="matrix(1 0 0 1 2419.79 1318)">Bingo</text></g><g><text font-family="Arial,Arial_MSFontService,sans-serif" font-weight="400" font-size="46" transform="matrix(1 0 0 1 2675.39 1318)">SPP+PPF</text></g><g><text font-family="Arial,Arial_MSFontService,sans-serif" font-weight="400" font-size="46" transform="matrix(1 0 0 1 3032.9 1318)">Berti</text></g><g><text font-family="Arial,Arial_MSFontService,sans-serif" font-weight="400" font-size="46" transform="matrix(6.12323e-17 -1 1 6.12323e-17 1603.85 996)">Speedup </text></g><g><rect x="1764" y="606" width="908" height="159" fill="#FFFFFF"/></g><g><rect x="1814" y="621" width="23" height="22.9997" stroke="#000000" stroke-width="2.29167" stroke-linejoin="round" stroke-miterlimit="10" fill="#FFFFFF"/></g><g><text font-family="Arial,Arial_MSFontService,sans-serif" font-weight="400" font-size="46" transform="matrix(1 0 0 1 1846.8 648)">On-access (Non-secure cache system)</text></g><g><rect x="1814" y="674" width="23" height="23.0001" stroke="#000000" stroke-width="2.29167" stroke-linejoin="round" stroke-miterlimit="10" fill="#A6A6A6"/></g><g><text font-family="Arial,Arial_MSFontService,sans-serif" font-weight="400" font-size="46" transform="matrix(1 0 0 1 1846.8 701)">On-access (Secure cache system)</text></g><g><rect x="1814" y="727" width="23" height="23.0001" stroke="#000000" stroke-width="2.29167" stroke-linejoin="round" stroke-miterlimit="10" fill="#404040"/></g><g><text font-family="Arial,Arial_MSFontService,sans-serif" font-weight="400" font-size="46" transform="matrix(1 0 0 1 1846.8 754)">On-commit (Secure cache system)</text></g><g><path d="M0 0 1500 5.76093" stroke="#FF0000" stroke-width="3.4375" stroke-miterlimit="8" fill="none" fill-rule="evenodd" transform="matrix(1 0 0 -1 1729.5 1200.26)"/></g><g><rect x="1769" y="558" width="908" height="45.0001" fill="#FFFFFF"/></g><g><text font-family="Arial,Arial_MSFontService,sans-serif" font-weight="400" font-size="46" transform="matrix(1 0 0 1 1852.27 601)">No Pref (Secure cache system)</text></g><g><path d="M1814.5 586.5 1840.6 586.5" stroke="#FF0000" stroke-width="3.4375" stroke-miterlimit="8" fill="none" fill-rule="evenodd"/></g></g></svg>