<svg width="1234" height="650" xmlns="http://www.w3.org/2000/svg" xmlns:xlink="http://www.w3.org/1999/xlink" xml:space="preserve" overflow="hidden"><defs><clipPath id="clip0"><rect x="92" y="423" width="1234" height="650"/></clipPath></defs><g clip-path="url(#clip0)" transform="translate(-92 -423)"><rect x="92.0001" y="423" width="1234" height="650" fill="#FFFFFF"/><g><path d="M256 796.026 1322 796.026M256 783.026 1322 783.026M256 769.025 1322 769.025M256 756.025 1322 756.025M256 730.024 1322 730.024M256 716.023 1322 716.023M256 703.023 1322 703.023M256 690.023 1322 690.023M256 663.022 1322 663.022M256 650.021 1322 650.021M256 636.021 1322 636.021M256 623.02 1322 623.02M256 596.02 1322 596.02M256 583.019 1322 583.019M256 570.019 1322 570.019M256 557.018 1322 557.018M256 530.017 1322 530.017M256 517.017 1322 517.017M256 503.017 1322 503.017M256 490.016 1322 490.016M256 463.015 1322 463.015M256 450 1322 450" stroke="#F2F2F2" stroke-width="2.29167" stroke-linejoin="round" stroke-miterlimit="10" fill="none"/></g><g><path d="M256 743.024 1322 743.024M256 676.022 1322 676.022M256 610.02 1322 610.02M256 543.018 1322 543.018M256 477 1322 477" stroke="#D9D9D9" stroke-width="2.29167" stroke-linejoin="round" stroke-miterlimit="10" fill="none"/></g><g><rect x="256" y="443" width="1066" height="366" stroke="#000000" stroke-width="2.29167" stroke-linejoin="round" stroke-miterlimit="10" fill="none"/></g><g><path d="M274.009 707.023 326.011 707.023 326.011 809 274.009 809ZM363.012 727.024 414.014 727.024 414.014 809 363.012 809ZM452.015 705.023 503.016 705.023 503.016 809 452.015 809ZM541.018 728.024 592.019 728.024 592.019 809 541.018 809ZM630.021 702.023 681.022 702.023 681.022 809 630.021 809ZM718.024 723.024 770.025 723.024 770.025 809 718.024 809ZM807.026 704.023 859.028 704.023 859.028 809 807.026 809ZM896.029 724.024 947.031 724.024 947.031 809 896.029 809ZM985.032 703.023 1036.03 703.023 1036.03 809 985.032 809ZM1074.04 725.024 1125.04 725.024 1125.04 809 1074.04 809ZM1163.04 703.023 1214.04 703.023 1214.04 809 1163.04 809ZM1251.04 723.024 1303.04 723.024 1303.04 809 1251.04 809Z" stroke="#000000" stroke-width="2.29167" stroke-linejoin="round" stroke-miterlimit="10" fill="#FFFFFF"/></g><g><path d="M452.015 677.022 503.016 677.022 503.016 705.023 452.015 705.023ZM541.018 705.023 592.019 705.023 592.019 728.024 541.018 728.024ZM630.021 594.019 681.022 594.019 681.022 702.023 630.021 702.023ZM718.024 625.021 770.025 625.021 770.025 723.024 718.024 723.024ZM1163.04 566.019 1214.04 566.019 1214.04 703.023 1163.04 703.023ZM1251.04 633.021 1303.04 633.021 1303.04 723.024 1251.04 723.024Z" stroke="#000000" stroke-width="2.29167" stroke-linejoin="round" stroke-miterlimit="10" fill="#A6A6A6"/></g><g><path d="M363.012 622.02 414.014 622.02 414.014 727.024 363.012 727.024ZM541.018 599.02 592.019 599.02 592.019 705.023 541.018 705.023ZM718.024 519.017 770.025 519.017 770.025 625.021 718.024 625.021ZM896.029 618.02 947.031 618.02 947.031 724.024 896.029 724.024ZM1074.04 619.02 1125.04 619.02 1125.04 725.024 1074.04 725.024ZM1251.04 527.017 1303.04 527.017 1303.04 633.021 1251.04 633.021Z" stroke="#000000" stroke-width="2.29167" stroke-linejoin="round" stroke-miterlimit="10" fill="#404040"/></g><g><path d="M0 0 0.000360892 366" stroke="#000000" stroke-width="3.4375" stroke-linejoin="round" stroke-miterlimit="10" fill="none" fill-rule="evenodd" transform="matrix(1 0 0 -1 255.5 809.5)"/></g><g><path d="M244.5 809.5 255.5 809.5M244.5 742.525 255.5 742.525M244.5 676.522 255.5 676.522M244.5 609.52 255.5 609.52M244.5 543.518 255.5 543.518M244.5 476.5 255.5 476.5" stroke="#000000" stroke-width="3.4375" stroke-linejoin="round" stroke-miterlimit="10" fill="none"/></g><g><path d="M255.5 809.5 1321.5 809.5" stroke="#000000" stroke-width="3.4375" stroke-linejoin="round" stroke-miterlimit="10" fill="none" fill-rule="evenodd"/></g><g><path d="M255.5 809.5 255.5 1016.5M433.514 809.5 433.514 1016.5M610.52 809.5 610.52 1016.5M788.526 809.5 788.526 1016.5M966.532 809.5 966.532 1016.5M1143.54 809.5 1143.54 1016.5M1321.5 809.5 1321.5 1016.5" stroke="#000000" stroke-width="3.4375" stroke-linejoin="round" stroke-miterlimit="10" fill="none"/></g><g><path d="M255.5 1016.5 255.5 1069.5M433.514 1016.5 433.514 1069.5M610.52 1016.5 610.52 1069.5M788.526 1016.5 788.526 1069.5M966.532 1016.5 966.532 1069.5M1143.54 1016.5 1143.54 1069.5M1321.5 1016.5 1321.5 1069.5" stroke="#000000" stroke-width="3.4375" stroke-linejoin="round" stroke-miterlimit="10" fill="none"/></g><g><text font-family="Arial,Arial_MSFontService,sans-serif" font-weight="400" font-size="37" transform="matrix(1 0 0 1 203.599 821)">0</text></g><g><text font-family="Arial,Arial_MSFontService,sans-serif" font-weight="400" font-size="37" transform="matrix(1 0 0 1 162.807 754)">200</text></g><g><text font-family="Arial,Arial_MSFontService,sans-serif" font-weight="400" font-size="37" transform="matrix(1 0 0 1 162.807 688)">400</text></g><g><text font-family="Arial,Arial_MSFontService,sans-serif" font-weight="400" font-size="37" transform="matrix(1 0 0 1 162.807 621)">600</text></g><g><text font-family="Arial,Arial_MSFontService,sans-serif" font-weight="400" font-size="37" transform="matrix(1 0 0 1 162.807 555)">800</text></g><g><text font-family="Arial,Arial_MSFontService,sans-serif" font-weight="400" font-size="37" transform="matrix(1 0 0 1 142.411 488)">1000</text></g><g><text font-family="Arial,Arial_MSFontService,sans-serif" font-weight="400" font-size="37" transform="matrix(6.12323e-17 -1 1 6.12323e-17 312.472 1013)">Non-Secure</text></g><g><text font-family="Arial,Arial_MSFontService,sans-serif" font-weight="400" font-size="37" transform="matrix(6.12323e-17 -1 1 6.12323e-17 401.306 934)">Secure</text></g><g><text font-family="Arial,Arial_MSFontService,sans-serif" font-weight="400" font-size="37" transform="matrix(6.12323e-17 -1 1 6.12323e-17 490.14 1013)">Non-Secure</text></g><g><text font-family="Arial,Arial_MSFontService,sans-serif" font-weight="400" font-size="37" transform="matrix(6.12323e-17 -1 1 6.12323e-17 578.974 934)">Secure</text></g><g><text font-family="Arial,Arial_MSFontService,sans-serif" font-weight="400" font-size="37" transform="matrix(6.12323e-17 -1 1 6.12323e-17 667.807 1013)">Non-Secure</text></g><g><text font-family="Arial,Arial_MSFontService,sans-serif" font-weight="400" font-size="37" transform="matrix(6.12323e-17 -1 1 6.12323e-17 756.641 934)">Secure</text></g><g><text font-family="Arial,Arial_MSFontService,sans-serif" font-weight="400" font-size="37" transform="matrix(6.12323e-17 -1 1 6.12323e-17 845.475 1013)">Non-Secure</text></g><g><text font-family="Arial,Arial_MSFontService,sans-serif" font-weight="400" font-size="37" transform="matrix(6.12323e-17 -1 1 6.12323e-17 934.309 934)">Secure</text></g><g><text font-family="Arial,Arial_MSFontService,sans-serif" font-weight="400" font-size="37" transform="matrix(6.12323e-17 -1 1 6.12323e-17 1023.14 1013)">Non-Secure</text></g><g><text font-family="Arial,Arial_MSFontService,sans-serif" font-weight="400" font-size="37" transform="matrix(6.12323e-17 -1 1 6.12323e-17 1111.98 934)">Secure</text></g><g><text font-family="Arial,Arial_MSFontService,sans-serif" font-weight="400" font-size="37" transform="matrix(6.12323e-17 -1 1 6.12323e-17 1200.81 1013)">Non-Secure</text></g><g><text font-family="Arial,Arial_MSFontService,sans-serif" font-weight="400" font-size="37" transform="matrix(6.12323e-17 -1 1 6.12323e-17 1289.64 934)">Secure</text></g><g><text font-family="Arial,Arial_MSFontService,sans-serif" font-weight="400" font-size="37" transform="matrix(1 0 0 1 282.203 1058)">No Pref</text></g><g><text font-family="Arial,Arial_MSFontService,sans-serif" font-weight="400" font-size="37" transform="matrix(1 0 0 1 451.712 1058)">IP Stride</text></g><g><text font-family="Arial,Arial_MSFontService,sans-serif" font-weight="400" font-size="37" transform="matrix(1 0 0 1 656.915 1058)">IPCP</text></g><g><text font-family="Arial,Arial_MSFontService,sans-serif" font-weight="400" font-size="37" transform="matrix(1 0 0 1 830.48 1058)">Bingo</text></g><g><text font-family="Arial,Arial_MSFontService,sans-serif" font-weight="400" font-size="37" transform="matrix(1 0 0 1 972.008 1058)">SPP+PPF</text></g><g><text font-family="Arial,Arial_MSFontService,sans-serif" font-weight="400" font-size="37" transform="matrix(1 0 0 1 1195 1058)">Berti</text></g><g><text font-family="Arial,Arial_MSFontService,sans-serif" font-weight="400" font-size="37" transform="matrix(6.12323e-17 -1 1 6.12323e-17 133.703 758)">L1D accesses</text></g><g><rect x="397" y="456" width="799" height="44.9997" fill="#FFFFFF"/></g><g><rect x="454" y="470" width="17.9999" height="18.0002" stroke="#000000" stroke-width="2.29167" stroke-linejoin="round" stroke-miterlimit="10" fill="#FFFFFF"/></g><g><text font-family="Arial,Arial_MSFontService,sans-serif" font-weight="400" font-size="37" transform="matrix(1 0 0 1 479.962 490)">Load</text></g><g><rect x="617" y="470" width="18.9999" height="18.0002" stroke="#000000" stroke-width="2.29167" stroke-linejoin="round" stroke-miterlimit="10" fill="#A6A6A6"/></g><g><text font-family="Arial,Arial_MSFontService,sans-serif" font-weight="400" font-size="37" transform="matrix(1 0 0 1 643.194 490)">Prefetch</text></g><g><rect x="836" y="470" width="17.9999" height="18.0002" stroke="#000000" stroke-width="2.29167" stroke-linejoin="round" stroke-miterlimit="10" fill="#404040"/></g><g><text font-family="Arial,Arial_MSFontService,sans-serif" font-weight="400" font-size="37" transform="matrix(1 0 0 1 861.428 490)">Commit Requests</text></g></g></svg>