<svg width="1693" height="839" xmlns="http://www.w3.org/2000/svg" xmlns:xlink="http://www.w3.org/1999/xlink" xml:space="preserve" overflow="hidden"><defs><clipPath id="clip0"><rect x="1550" y="518" width="1693" height="839"/></clipPath><clipPath id="clip1"><rect x="1550" y="518" width="1693" height="838"/></clipPath></defs><g clip-path="url(#clip0)" transform="translate(-1550 -518)"><rect x="1551" y="519" width="1692" height="838" fill="#FFFFFF"/><g><path d="M1724 1249.04 3224 1249.04M1724 1224.04 3224 1224.04M1724 1200.04 3224 1200.04M1724 1176.04 3224 1176.04M1724 1127.04 3224 1127.04M1724 1103.04 3224 1103.04M1724 1079.04 3224 1079.04M1724 1054.03 3224 1054.03M1724 1006.03 3224 1006.03M1724 981.032 3224 981.032M1724 957.031 3224 957.031M1724 933.031 3224 933.031M1724 884.029 3224 884.029M1724 860.028 3224 860.028M1724 836.027 3224 836.027M1724 811.027 3224 811.027M1724 763.025 3224 763.025M1724 739.024 3224 739.024M1724 714.023 3224 714.023M1724 690.023 3224 690.023M1724 642.021 3224 642.021M1724 617.02 3224 617.02M1724 593.019 3224 593.019M1724 569.019 3224 569.019" stroke="#F2F2F2" stroke-width="2.29167" stroke-linejoin="round" stroke-miterlimit="10" fill="none"/></g><g><path d="M1724 1151.04 3224 1151.04M1724 1030.03 3224 1030.03M1724 909.03 3224 909.03M1724 787.026 3224 787.026M1724 666.022 3224 666.022M1724 544 3224 544" stroke="#D9D9D9" stroke-width="2.29167" stroke-linejoin="round" stroke-miterlimit="10" fill="none"/></g><g><rect x="1724" y="544" width="1500" height="729" stroke="#000000" stroke-width="2.29167" stroke-linejoin="round" stroke-miterlimit="10" fill="none"/></g><g><path d="M1762.06 851.028 1837.06 851.028 1837.06 1273 1762.06 1273ZM2062.07 821.027 2137.07 821.027 2137.07 1273 2062.07 1273ZM2362.08 795.026 2437.08 795.026 2437.08 1273 2362.08 1273ZM2661.09 795.026 2736.09 795.026 2736.09 1273 2661.09 1273ZM2961.1 773.025 3036.1 773.025 3036.1 1273 2961.1 1273Z" stroke="#000000" stroke-width="2.29167" stroke-linejoin="round" stroke-miterlimit="10" fill="#FFFFFF"/></g><g><path d="M1837.06 928.03 1912.06 928.03 1912.06 1273 1837.06 1273ZM2137.07 931.031 2212.07 931.031 2212.07 1273 2137.07 1273ZM2437.08 887.029 2511.08 887.029 2511.08 1273 2437.08 1273ZM2736.09 860.028 2811.09 860.028 2811.09 1273 2736.09 1273ZM3036.1 867.028 3111.1 867.028 3111.1 1273 3036.1 1273Z" stroke="#000000" stroke-width="2.29167" stroke-linejoin="round" stroke-miterlimit="10" fill="#A6A6A6"/></g><g><path d="M1912.06 962.032 1987.07 962.032 1987.07 1273 1912.06 1273ZM2212.07 970.032 2287.07 970.032 2287.07 1273 2212.07 1273ZM2511.08 923.03 2586.08 923.03 2586.08 1273 2511.08 1273ZM2811.09 937.031 2886.09 937.031 2886.09 1273 2811.09 1273ZM3111.1 900.03 3186.1 900.03 3186.1 1273 3111.1 1273Z" stroke="#000000" stroke-width="2.29167" stroke-linejoin="round" stroke-miterlimit="10" fill="#404040"/></g><g><path d="M0 0 0.000360892 728" stroke="#000000" stroke-width="3.4375" stroke-linejoin="round" stroke-miterlimit="10" fill="none" fill-rule="evenodd" transform="matrix(1 0 0 -1 1724.5 1272.5)"/></g><g><path d="M1710.5 1272.5 1724.5 1272.5M1710.5 1151.54 1724.5 1151.54M1710.5 1030.53 1724.5 1030.53M1710.5 908.53 1724.5 908.53M1710.5 787.526 1724.5 787.526M1710.5 665.522 1724.5 665.522M1710.5 544.5 1724.5 544.5" stroke="#000000" stroke-width="3.4375" stroke-linejoin="round" stroke-miterlimit="10" fill="none"/></g><g><path d="M1724.5 1272.5 3223.5 1272.5" stroke="#000000" stroke-width="3.4375" stroke-linejoin="round" stroke-miterlimit="10" fill="none" fill-rule="evenodd"/></g><g><text font-family="Arial,Arial_MSFontService,sans-serif" font-weight="400" font-size="46" transform="matrix(1 0 0 1 1621.1 1288)">0.9</text></g><g><text font-family="Arial,Arial_MSFontService,sans-serif" font-weight="400" font-size="46" transform="matrix(1 0 0 1 1621.1 1167)">1.0</text></g><g><text font-family="Arial,Arial_MSFontService,sans-serif" font-weight="400" font-size="46" transform="matrix(1 0 0 1 1621.1 1045)">1.1</text></g><g><text font-family="Arial,Arial_MSFontService,sans-serif" font-weight="400" font-size="46" transform="matrix(1 0 0 1 1621.1 924)">1.2</text></g><g><text font-family="Arial,Arial_MSFontService,sans-serif" font-weight="400" font-size="46" transform="matrix(1 0 0 1 1621.1 802)">1.3</text></g><g><text font-family="Arial,Arial_MSFontService,sans-serif" font-weight="400" font-size="46" transform="matrix(1 0 0 1 1621.1 681)">1.4</text></g><g clip-path="url(#clip1)"><text font-family="Arial,Arial_MSFontService,sans-serif" font-weight="400" font-size="46" transform="matrix(1 0 0 1 1621.1 559)">1.5</text></g><g><text font-family="Arial,Arial_MSFontService,sans-serif" font-weight="400" font-size="46" transform="matrix(1 0 0 1 1785.07 1329)">IP-Stride</text></g><g><text font-family="Arial,Arial_MSFontService,sans-serif" font-weight="400" font-size="46" transform="matrix(1 0 0 1 2120.66 1329)">IPCP</text></g><g><text font-family="Arial,Arial_MSFontService,sans-serif" font-weight="400" font-size="46" transform="matrix(1 0 0 1 2415.48 1329)">Bingo</text></g><g><text font-family="Arial,Arial_MSFontService,sans-serif" font-weight="400" font-size="46" transform="matrix(1 0 0 1 2670.19 1329)">SPP+PPF</text></g><g><text font-family="Arial,Arial_MSFontService,sans-serif" font-weight="400" font-size="46" transform="matrix(1 0 0 1 3026.81 1329)">Berti</text></g><g><text font-family="Arial,Arial_MSFontService,sans-serif" font-weight="400" font-size="46" transform="matrix(6.12323e-17 -1 1 6.12323e-17 1602.26 1001)">Speedup </text></g><g><rect x="1762" y="609" width="997" height="161" fill="#FFFFFF"/></g><g><rect x="1808" y="624" width="23" height="23.0001" stroke="#000000" stroke-width="2.29167" stroke-linejoin="round" stroke-miterlimit="10" fill="#FFFFFF"/></g><g><text font-family="Arial,Arial_MSFontService,sans-serif" font-weight="400" font-size="46" transform="matrix(1 0 0 1 1840.68 651)">On-access Pref (Non-secure cache system)</text></g><g><rect x="1808" y="678" width="23" height="23.0001" stroke="#000000" stroke-width="2.29167" stroke-linejoin="round" stroke-miterlimit="10" fill="#A6A6A6"/></g><g><text font-family="Arial,Arial_MSFontService,sans-serif" font-weight="400" font-size="46" transform="matrix(1 0 0 1 1840.68 704)">On-access Pref (Secure cache system)</text></g><g><rect x="1808" y="732" width="23" height="23.0001" stroke="#000000" stroke-width="2.29167" stroke-linejoin="round" stroke-miterlimit="10" fill="#404040"/></g><g><text font-family="Arial,Arial_MSFontService,sans-serif" font-weight="400" font-size="46" transform="matrix(1 0 0 1 1840.68 758)">On-commit Pref (Secure cache system)</text></g><g><path d="M0 0 1495.57 5.83346" stroke="#FF0000" stroke-width="3.4375" stroke-miterlimit="8" fill="none" fill-rule="evenodd" transform="matrix(1 0 0 -1 1727.5 1210.33)"/></g><g><rect x="1761" y="560" width="998" height="55" fill="#FFFFFF"/></g><g><text font-family="Arial,Arial_MSFontService,sans-serif" font-weight="400" font-size="46" transform="matrix(1 0 0 1 1844.5 603)">No Pref (Secure cache system)</text></g><g><path d="M1805.5 593.5 1833.47 593.501" stroke="#FF0000" stroke-width="3.4375" stroke-miterlimit="8" fill="none" fill-rule="evenodd"/></g></g></svg>