<svg width="1687" height="840" xmlns="http://www.w3.org/2000/svg" xmlns:xlink="http://www.w3.org/1999/xlink" xml:space="preserve" overflow="hidden"><defs><clipPath id="clip0"><rect x="90" y="450" width="1687" height="840"/></clipPath></defs><g clip-path="url(#clip0)" transform="translate(-90 -450)"><rect x="90.0001" y="450" width="1687" height="840" fill="#FFFFFF"/><g><path d="M297 941.031 1744 941.031M297 925.03 1744 925.03M297 909.03 1744 909.03M297 894.029 1744 894.029M297 862.028 1744 862.028M297 846.028 1744 846.028M297 830.027 1744 830.027M297 814.027 1744 814.027M297 782.026 1744 782.026M297 767.025 1744 767.025M297 751.025 1744 751.025M297 735.024 1744 735.024M297 703.023 1744 703.023M297 687.023 1744 687.023M297 671.022 1744 671.022M297 655.021 1744 655.021M297 624.021 1744 624.021M297 608.02 1744 608.02M297 592.019 1744 592.019M297 576.019 1744 576.019M297 544.018 1744 544.018M297 529.017 1744 529.017M297 513.017 1744 513.017M297 497.016 1744 497.016" stroke="#F2F2F2" stroke-width="2.29167" stroke-linejoin="round" stroke-miterlimit="10" fill="none"/></g><g><path d="M297 878.029 1744 878.029M297 798.026 1744 798.026M297 719.024 1744 719.024M297 640.021 1744 640.021M297 560.018 1744 560.018M297 481 1744 481" stroke="#D9D9D9" stroke-width="2.29167" stroke-linejoin="round" stroke-miterlimit="10" fill="none"/></g><g><rect x="297" y="481" width="1447" height="476" stroke="#000000" stroke-width="2.29167" stroke-linejoin="round" stroke-miterlimit="10" fill="none"/></g><g><path d="M323.011 799.026 392.013 799.026 392.013 957 323.011 957ZM443.015 820.027 513.017 820.027 513.017 957 443.015 957ZM564.018 786.026 634.021 786.026 634.021 957 564.018 957ZM684.022 808.026 754.025 808.026 754.025 957 684.022 957ZM805.026 785.026 875.029 785.026 875.029 957 805.026 957ZM925.03 804.026 995.033 804.026 995.033 957 925.03 957ZM1046.03 787.026 1116.04 787.026 1116.04 957 1046.03 957ZM1167.04 807.026 1236.04 807.026 1236.04 957 1167.04 957ZM1287.04 786.026 1357.04 786.026 1357.04 957 1287.04 957ZM1408.05 807.026 1477.05 807.026 1477.05 957 1408.05 957ZM1528.05 784.026 1598.05 784.026 1598.05 957 1528.05 957ZM1649.05 804.026 1718.06 804.026 1718.06 957 1649.05 957Z" stroke="#000000" stroke-width="2.29167" stroke-linejoin="round" stroke-miterlimit="10" fill="#FFFFFF"/></g><g><path d="M564.018 759.025 634.021 759.025 634.021 786.026 564.018 786.026ZM684.022 783.026 754.025 783.026 754.025 808.026 684.022 808.026ZM805.026 725.024 875.029 725.024 875.029 785.026 805.026 785.026ZM925.03 746.024 995.033 746.024 995.033 804.026 925.03 804.026ZM1528.05 596.02 1598.05 596.02 1598.05 784.026 1528.05 784.026ZM1649.05 673.022 1718.06 673.022 1718.06 804.026 1649.05 804.026Z" stroke="#000000" stroke-width="2.29167" stroke-linejoin="round" stroke-miterlimit="10" fill="#A6A6A6"/></g><g><path d="M443.015 659.022 513.017 659.022 513.017 820.027 443.015 820.027ZM684.022 618.02 754.025 618.02 754.025 783.026 684.022 783.026ZM925.03 578.019 995.033 578.019 995.033 746.024 925.03 746.024ZM1167.04 640.021 1236.04 640.021 1236.04 807.026 1167.04 807.026ZM1408.05 639.021 1477.05 639.021 1477.05 807.026 1408.05 807.026ZM1649.05 506.017 1718.06 506.017 1718.06 673.022 1649.05 673.022Z" stroke="#000000" stroke-width="2.29167" stroke-linejoin="round" stroke-miterlimit="10" fill="#404040"/></g><g><path d="M0 0 0.000360892 477" stroke="#000000" stroke-width="3.4375" stroke-linejoin="round" stroke-miterlimit="10" fill="none" fill-rule="evenodd" transform="matrix(1 0 0 -1 297.5 957.5)"/></g><g><path d="M283.5 957.5 297.5 957.5M283.5 877.529 297.5 877.529M283.5 798.526 297.5 798.526M283.5 718.524 297.5 718.524M283.5 639.521 297.5 639.521M283.5 560.519 297.5 560.519M283.5 480.5 297.5 480.5" stroke="#000000" stroke-width="3.4375" stroke-linejoin="round" stroke-miterlimit="10" fill="none"/></g><g><path d="M297.5 957.5 1743.5 957.5" stroke="#000000" stroke-width="3.4375" stroke-linejoin="round" stroke-miterlimit="10" fill="none" fill-rule="evenodd"/></g><g><path d="M297.5 957.5 297.5 1218.5M538.518 957.5 538.518 1218.5M779.526 957.5 779.526 1218.5M1020.53 957.5 1020.53 1218.5M1261.54 957.5 1261.54 1218.5M1502.55 957.5 1502.55 1218.5M1743.5 957.5 1743.5 1218.5" stroke="#000000" stroke-width="3.4375" stroke-linejoin="round" stroke-miterlimit="10" fill="none"/></g><g><path d="M297.5 1218.5 297.5 1287.5M538.518 1218.5 538.518 1287.5M779.526 1218.5 779.526 1287.5M1020.53 1218.5 1020.53 1287.5M1261.54 1218.5 1261.54 1287.5M1502.55 1218.5 1502.55 1287.5M1743.5 1218.5 1743.5 1287.5" stroke="#000000" stroke-width="3.4375" stroke-linejoin="round" stroke-miterlimit="10" fill="none"/></g><g><text font-family="Arial,Arial_MSFontService,sans-serif" font-weight="400" font-size="46" transform="matrix(1 0 0 1 232.413 972)">0</text></g><g><text font-family="Arial,Arial_MSFontService,sans-serif" font-weight="400" font-size="46" transform="matrix(1 0 0 1 181.447 893)">100</text></g><g><text font-family="Arial,Arial_MSFontService,sans-serif" font-weight="400" font-size="46" transform="matrix(1 0 0 1 181.447 813)">200</text></g><g><text font-family="Arial,Arial_MSFontService,sans-serif" font-weight="400" font-size="46" transform="matrix(1 0 0 1 181.447 734)">300</text></g><g><text font-family="Arial,Arial_MSFontService,sans-serif" font-weight="400" font-size="46" transform="matrix(1 0 0 1 181.447 655)">400</text></g><g><text font-family="Arial,Arial_MSFontService,sans-serif" font-weight="400" font-size="46" transform="matrix(1 0 0 1 181.447 575)">500</text></g><g><text font-family="Arial,Arial_MSFontService,sans-serif" font-weight="400" font-size="46" transform="matrix(1 0 0 1 181.447 496)">600</text></g><g><text font-family="Arial,Arial_MSFontService,sans-serif" font-weight="400" font-size="46" transform="matrix(6.12323e-17 -1 1 6.12323e-17 374 1215)">Non-Secure</text></g><g><text font-family="Arial,Arial_MSFontService,sans-serif" font-weight="400" font-size="46" transform="matrix(6.12323e-17 -1 1 6.12323e-17 494.54 1116)">Secure</text></g><g><text font-family="Arial,Arial_MSFontService,sans-serif" font-weight="400" font-size="46" transform="matrix(6.12323e-17 -1 1 6.12323e-17 615.079 1215)">Non-Secure</text></g><g><text font-family="Arial,Arial_MSFontService,sans-serif" font-weight="400" font-size="46" transform="matrix(6.12323e-17 -1 1 6.12323e-17 735.618 1116)">Secure</text></g><g><text font-family="Arial,Arial_MSFontService,sans-serif" font-weight="400" font-size="46" transform="matrix(6.12323e-17 -1 1 6.12323e-17 856.157 1215)">Non-Secure</text></g><g><text font-family="Arial,Arial_MSFontService,sans-serif" font-weight="400" font-size="46" transform="matrix(6.12323e-17 -1 1 6.12323e-17 976.696 1116)">Secure</text></g><g><text font-family="Arial,Arial_MSFontService,sans-serif" font-weight="400" font-size="46" transform="matrix(6.12323e-17 -1 1 6.12323e-17 1097.24 1215)">Non-Secure</text></g><g><text font-family="Arial,Arial_MSFontService,sans-serif" font-weight="400" font-size="46" transform="matrix(6.12323e-17 -1 1 6.12323e-17 1217.78 1116)">Secure</text></g><g><text font-family="Arial,Arial_MSFontService,sans-serif" font-weight="400" font-size="46" transform="matrix(6.12323e-17 -1 1 6.12323e-17 1338.31 1215)">Non-Secure</text></g><g><text font-family="Arial,Arial_MSFontService,sans-serif" font-weight="400" font-size="46" transform="matrix(6.12323e-17 -1 1 6.12323e-17 1458.85 1116)">Secure</text></g><g><text font-family="Arial,Arial_MSFontService,sans-serif" font-weight="400" font-size="46" transform="matrix(6.12323e-17 -1 1 6.12323e-17 1579.39 1215)">Non-Secure</text></g><g><text font-family="Arial,Arial_MSFontService,sans-serif" font-weight="400" font-size="46" transform="matrix(6.12323e-17 -1 1 6.12323e-17 1699.93 1116)">Secure</text></g><g><text font-family="Arial,Arial_MSFontService,sans-serif" font-weight="400" font-size="46" transform="matrix(1 0 0 1 340.192 1275)">No Pref</text></g><g><text font-family="Arial,Arial_MSFontService,sans-serif" font-weight="400" font-size="46" transform="matrix(1 0 0 1 569.812 1275)">IP-Stride</text></g><g><text font-family="Arial,Arial_MSFontService,sans-serif" font-weight="400" font-size="46" transform="matrix(1 0 0 1 846.549 1275)">IPCP</text></g><g><text font-family="Arial,Arial_MSFontService,sans-serif" font-weight="400" font-size="46" transform="matrix(1 0 0 1 1082.52 1275)">Bingo</text></g><g><text font-family="Arial,Arial_MSFontService,sans-serif" font-weight="400" font-size="46" transform="matrix(1 0 0 1 1278.38 1275)">SPP+PPF</text></g><g><text font-family="Arial,Arial_MSFontService,sans-serif" font-weight="400" font-size="46" transform="matrix(1 0 0 1 1576.16 1275)">Berti</text></g><g><text font-family="Arial,Arial_MSFontService,sans-serif" font-weight="400" font-size="46" transform="matrix(6.12323e-17 -1 1 6.12323e-17 143.483 846)">L1D accesses</text></g><g><rect x="583" y="497" width="890" height="58.9998" fill="#FFFFFF"/></g><g><rect x="627" y="515" width="23.0001" height="23.0001" stroke="#000000" stroke-width="2.29167" stroke-linejoin="round" stroke-miterlimit="10" fill="#FFFFFF"/></g><g><text font-family="Arial,Arial_MSFontService,sans-serif" font-weight="400" font-size="46" transform="matrix(1 0 0 1 659.919 541)">Load</text></g><g><rect x="804" y="515" width="23.0001" height="23.0001" stroke="#000000" stroke-width="2.29167" stroke-linejoin="round" stroke-miterlimit="10" fill="#A6A6A6"/></g><g><text font-family="Arial,Arial_MSFontService,sans-serif" font-weight="400" font-size="46" transform="matrix(1 0 0 1 836.708 541)">Prefetch</text></g><g><rect x="1049" y="515" width="23" height="23.0001" stroke="#000000" stroke-width="2.29167" stroke-linejoin="round" stroke-miterlimit="10" fill="#404040"/></g><g><text font-family="Arial,Arial_MSFontService,sans-serif" font-weight="400" font-size="46" transform="matrix(1 0 0 1 1082.25 541)">Commit Requests</text></g></g></svg>