<svg width="1072" height="635" xmlns="http://www.w3.org/2000/svg" xmlns:xlink="http://www.w3.org/1999/xlink" xml:space="preserve" overflow="hidden"><defs><clipPath id="clip0"><rect x="1250" y="443" width="1072" height="635"/></clipPath><clipPath id="clip1"><rect x="1250" y="443" width="1072" height="635"/></clipPath></defs><g clip-path="url(#clip0)" transform="translate(-1250 -443)"><rect x="1251" y="443" width="1071" height="635" fill="#FFFFFF"/><g><path d="M1400 1003.03 2300 1003.03M1400 985.032 2300 985.032M1400 966.032 2300 966.032M1400 947.031 2300 947.031M1400 910.03 2300 910.03M1400 892.029 2300 892.029M1400 873.029 2300 873.029M1400 854.028 2300 854.028M1400 817.027 2300 817.027M1400 799.026 2300 799.026M1400 780.026 2300 780.026M1400 761.025 2300 761.025M1400 724.024 2300 724.024M1400 706.023 2300 706.023M1400 687.023 2300 687.023M1400 668.022 2300 668.022M1400 631.021 2300 631.021M1400 612.02 2300 612.02M1400 594.019 2300 594.019M1400 575.019 2300 575.019M1400 538.018 2300 538.018M1400 519.017 2300 519.017M1400 501.016 2300 501.016M1400 482.016 2300 482.016" stroke="#F2F2F2" stroke-width="2.29167" stroke-linejoin="round" stroke-miterlimit="10" fill="none"/></g><g><path d="M1400 929.031 2300 929.031M1400 836.027 2300 836.027M1400 743.024 2300 743.024M1400 650.021 2300 650.021M1400 557.018 2300 557.018M1400 464 2300 464" stroke="#D9D9D9" stroke-width="2.29167" stroke-linejoin="round" stroke-miterlimit="10" fill="none"/></g><g><rect x="1400" y="464" width="900" height="558" stroke="#000000" stroke-width="2.29167" stroke-linejoin="round" stroke-miterlimit="10" fill="none"/></g><g><path d="M1430.05 842.028 1490.05 842.028 1490.05 1022 1430.05 1022ZM1610.05 755.025 1670.05 755.025 1670.05 1022 1610.05 1022ZM1790.06 654.021 1850.06 654.021 1850.06 1022 1790.06 1022ZM1970.06 746.024 2030.07 746.024 2030.07 1022 1970.06 1022ZM2150.07 536.018 2210.07 536.018 2210.07 1022 2150.07 1022Z" stroke="#000000" stroke-width="2.29167" stroke-linejoin="round" stroke-miterlimit="10" fill="#FFFFFF"/></g><g><path d="M1490.05 962.032 1550.05 962.032 1550.05 1022 1490.05 1022ZM1670.05 964.032 1730.06 964.032 1730.06 1022 1670.05 1022ZM1850.06 913.03 1910.06 913.03 1910.06 1022 1850.06 1022ZM2030.07 944.031 2090.07 944.031 2090.07 1022 2030.07 1022ZM2210.07 920.03 2270.07 920.03 2270.07 1022 2210.07 1022Z" stroke="#000000" stroke-width="2.29167" stroke-linejoin="round" stroke-miterlimit="10" fill="#595959"/></g><g><path d="M0 0 0.000360892 558" stroke="#000000" stroke-width="3.4375" stroke-linejoin="round" stroke-miterlimit="10" fill="none" fill-rule="evenodd" transform="matrix(1 0 0 -1 1399.5 1021.5)"/></g><g><path d="M1388.5 1021.5 1399.5 1021.5M1388.5 928.531 1399.5 928.531M1388.5 835.528 1399.5 835.528M1388.5 742.525 1399.5 742.525M1388.5 649.521 1399.5 649.521M1388.5 556.518 1399.5 556.518M1388.5 463.5 1399.5 463.5" stroke="#000000" stroke-width="3.4375" stroke-linejoin="round" stroke-miterlimit="10" fill="none"/></g><g><path d="M1399.5 1021.5 2300.5 1021.5" stroke="#000000" stroke-width="3.4375" stroke-linejoin="round" stroke-miterlimit="10" fill="none" fill-rule="evenodd"/></g><g><text font-family="Arial,Arial_MSFontService,sans-serif" font-weight="400" font-size="37" transform="matrix(1 0 0 1 1317.17 1033)">0.5</text></g><g><text font-family="Arial,Arial_MSFontService,sans-serif" font-weight="400" font-size="37" transform="matrix(1 0 0 1 1317.17 940)">1.0</text></g><g><text font-family="Arial,Arial_MSFontService,sans-serif" font-weight="400" font-size="37" transform="matrix(1 0 0 1 1317.17 847)">1.5</text></g><g><text font-family="Arial,Arial_MSFontService,sans-serif" font-weight="400" font-size="37" transform="matrix(1 0 0 1 1317.17 754)">2.0</text></g><g><text font-family="Arial,Arial_MSFontService,sans-serif" font-weight="400" font-size="37" transform="matrix(1 0 0 1 1317.17 661)">2.5</text></g><g><text font-family="Arial,Arial_MSFontService,sans-serif" font-weight="400" font-size="37" transform="matrix(1 0 0 1 1317.17 568)">3.0</text></g><g clip-path="url(#clip1)"><text font-family="Arial,Arial_MSFontService,sans-serif" font-weight="400" font-size="37" transform="matrix(1 0 0 1 1317.17 475)">3.5</text></g><g><text font-family="Arial,Arial_MSFontService,sans-serif" font-weight="400" font-size="37" transform="matrix(1 0 0 1 1418.43 1063)">IP-Stride</text></g><g><text font-family="Arial,Arial_MSFontService,sans-serif" font-weight="400" font-size="37" transform="matrix(1 0 0 1 1627.1 1063)">IPCP</text></g><g><text font-family="Arial,Arial_MSFontService,sans-serif" font-weight="400" font-size="37" transform="matrix(1 0 0 1 1803.13 1063)">Bingo</text></g><g><text font-family="Arial,Arial_MSFontService,sans-serif" font-weight="400" font-size="37" transform="matrix(1 0 0 1 1947.12 1063)">SPP+PPF</text></g><g><text font-family="Arial,Arial_MSFontService,sans-serif" font-weight="400" font-size="37" transform="matrix(1 0 0 1 2172.57 1063)">Berti</text></g><g><text font-family="Arial,Arial_MSFontService,sans-serif" font-weight="400" font-size="37" transform="matrix(6.12323e-17 -1 1 6.12323e-17 1295.24 808)">Speedup </text></g><g><rect x="1425" y="561" width="536" height="82.9998" fill="#FFFFFF"/></g><g><rect x="1449" y="573" width="18.0002" height="17.9999" stroke="#000000" stroke-width="2.29167" stroke-linejoin="round" stroke-miterlimit="10" fill="#FFFFFF"/></g><g><text font-family="Arial,Arial_MSFontService,sans-serif" font-weight="400" font-size="37" transform="matrix(1 0 0 1 1474.5 593)">On-access Pref (Non-secure)</text></g><g><rect x="1449" y="614" width="18.0002" height="18.0002" stroke="#000000" stroke-width="2.29167" stroke-linejoin="round" stroke-miterlimit="10" fill="#595959"/></g><g><text font-family="Arial,Arial_MSFontService,sans-serif" font-weight="400" font-size="37" transform="matrix(1 0 0 1 1474.5 634)">On-access Pref (Secure)</text></g><g><path d="M1401.5 929.5 2299.61 929.5" stroke="#000000" stroke-width="3.4375" stroke-miterlimit="8" fill="none" fill-rule="evenodd"/></g><g><path d="M1401.5 938.5 2299.41 938.5" stroke="#FF0000" stroke-width="3.4375" stroke-miterlimit="8" fill="none" fill-rule="evenodd"/></g><g><rect x="1424" y="476" width="535" height="83.9998" fill="#FFFFFF"/></g><g><text font-family="Arial,Arial_MSFontService,sans-serif" font-weight="400" font-size="37" transform="matrix(1 0 0 1 1476.38 510)">No Pref (Non</text></g><g><text font-family="Arial,Arial_MSFontService,sans-serif" font-weight="400" font-size="37" transform="matrix(1 0 0 1 1690.37 510)">-</text></g><g><text font-family="Arial,Arial_MSFontService,sans-serif" font-weight="400" font-size="37" transform="matrix(1 0 0 1 1702.59 510)">secure)</text></g><g><text font-family="Arial,Arial_MSFontService,sans-serif" font-weight="400" font-size="37" transform="matrix(1 0 0 1 1476.38 553)">No Pref (Secure)</text></g><g><path d="M1448.5 500.5 1469.28 500.5" stroke="#000000" stroke-width="3.4375" stroke-miterlimit="8" fill="none" fill-rule="evenodd"/></g><g><path d="M1448.5 542.5 1469.28 542.5" stroke="#FF0000" stroke-width="3.4375" stroke-miterlimit="8" fill="none" fill-rule="evenodd"/></g></g></svg>