<svg width="1070" height="659" xmlns="http://www.w3.org/2000/svg" xmlns:xlink="http://www.w3.org/1999/xlink" xml:space="preserve" overflow="hidden"><defs><clipPath id="clip0"><rect x="666" y="502" width="1070" height="659"/></clipPath><clipPath id="clip1"><rect x="666" y="502" width="1069" height="659"/></clipPath></defs><g clip-path="url(#clip0)" transform="translate(-666 -502)"><rect x="666" y="502" width="1070" height="659" fill="#FFFFFF"/><g><path d="M854 1084.04 1715 1084.04M854 1065.03 1715 1065.03M854 1045.03 1715 1045.03M854 1026.03 1715 1026.03M854 987.032 1715 987.032M854 968.032 1715 968.032M854 949.031 1715 949.031M854 929.03 1715 929.03M854 891.029 1715 891.029M854 871.029 1715 871.029M854 852.028 1715 852.028M854 833.027 1715 833.027M854 794.026 1715 794.026M854 775.025 1715 775.025M854 755.025 1715 755.025M854 736.024 1715 736.024M854 697.023 1715 697.023M854 678.022 1715 678.022M854 659.022 1715 659.022M854 639.021 1715 639.021M854 600.02 1715 600.02M854 581.019 1715 581.019M854 562.018 1715 562.018M854 542.018 1715 542.018" stroke="#F2F2F2" stroke-width="2.29167" stroke-linejoin="round" stroke-miterlimit="10" fill="none"/></g><g><path d="M854 1007.03 1715 1007.03M854 910.03 1715 910.03M854 813.027 1715 813.027M854 717.023 1715 717.023M854 620.02 1715 620.02M854 523 1715 523" stroke="#D9D9D9" stroke-width="2.29167" stroke-linejoin="round" stroke-miterlimit="10" fill="none"/></g><g><rect x="854" y="523" width="861" height="581" stroke="#000000" stroke-width="2.29167" stroke-linejoin="round" stroke-miterlimit="10" fill="none"/></g><g><path d="M883.029 833.027 940.031 833.027 940.031 1104 883.029 1104ZM1055.03 935.031 1112.04 935.031 1112.04 1104 1055.03 1104ZM1227.04 1017.03 1284.04 1017.03 1284.04 1104 1227.04 1104ZM1399.05 970.032 1456.05 970.032 1456.05 1104 1399.05 1104ZM1571.05 1049.03 1629.05 1049.03 1629.05 1104 1571.05 1104Z" stroke="#000000" stroke-width="2.29167" stroke-linejoin="round" stroke-miterlimit="10" fill="#FFFFFF"/></g><g><path d="M940.031 680.022 997.033 680.022 997.033 1104 940.031 1104ZM1112.04 573.019 1170.04 573.019 1170.04 1104 1112.04 1104ZM1284.04 854.028 1342.04 854.028 1342.04 1104 1284.04 1104ZM1456.05 785.026 1514.05 785.026 1514.05 1104 1456.05 1104ZM1629.05 718.024 1686.06 718.024 1686.06 1104 1629.05 1104Z" stroke="#000000" stroke-width="2.29167" stroke-linejoin="round" stroke-miterlimit="10" fill="#595959"/></g><g><path d="M0 0 0.000360892 580" stroke="#000000" stroke-width="3.4375" stroke-linejoin="round" stroke-miterlimit="10" fill="none" fill-rule="evenodd" transform="matrix(1 0 0 -1 854.5 1103.5)"/></g><g><path d="M842.5 1103.5 854.5 1103.5M842.5 1006.53 854.5 1006.53M842.5 910.53 854.5 910.53M842.5 813.527 854.5 813.527M842.5 716.524 854.5 716.524M842.5 619.521 854.5 619.521M842.5 523.5 854.5 523.5" stroke="#000000" stroke-width="3.4375" stroke-linejoin="round" stroke-miterlimit="10" fill="none"/></g><g><path d="M854.5 1103.5 1714.5 1103.5" stroke="#000000" stroke-width="3.4375" stroke-linejoin="round" stroke-miterlimit="10" fill="none" fill-rule="evenodd"/></g><g><text font-family="Arial,Arial_MSFontService,sans-serif" font-weight="400" font-size="37" transform="matrix(1 0 0 1 802.072 1115)">0</text></g><g><text font-family="Arial,Arial_MSFontService,sans-serif" font-weight="400" font-size="37" transform="matrix(1 0 0 1 781.677 1018)">50</text></g><g><text font-family="Arial,Arial_MSFontService,sans-serif" font-weight="400" font-size="37" transform="matrix(1 0 0 1 761.281 922)">100</text></g><g><text font-family="Arial,Arial_MSFontService,sans-serif" font-weight="400" font-size="37" transform="matrix(1 0 0 1 761.281 825)">150</text></g><g><text font-family="Arial,Arial_MSFontService,sans-serif" font-weight="400" font-size="37" transform="matrix(1 0 0 1 761.281 728)">200</text></g><g><text font-family="Arial,Arial_MSFontService,sans-serif" font-weight="400" font-size="37" transform="matrix(1 0 0 1 761.281 631)">250</text></g><g clip-path="url(#clip1)"><text font-family="Arial,Arial_MSFontService,sans-serif" font-weight="400" font-size="37" transform="matrix(1 0 0 1 761.281 535)">300</text></g><g><text font-family="Arial,Arial_MSFontService,sans-serif" font-weight="400" font-size="37" transform="matrix(1 0 0 1 868.751 1145)">IP-Stride</text></g><g><text font-family="Arial,Arial_MSFontService,sans-serif" font-weight="400" font-size="37" transform="matrix(1 0 0 1 1069.44 1145)">IPCP</text></g><g><text font-family="Arial,Arial_MSFontService,sans-serif" font-weight="400" font-size="37" transform="matrix(1 0 0 1 1237.49 1145)">Bingo</text></g><g><text font-family="Arial,Arial_MSFontService,sans-serif" font-weight="400" font-size="37" transform="matrix(1 0 0 1 1373.5 1145)">SPP+PPF</text></g><g><text font-family="Arial,Arial_MSFontService,sans-serif" font-weight="400" font-size="37" transform="matrix(1 0 0 1 1590.98 1145)">Berti</text></g><g><text font-family="Arial,Arial_MSFontService,sans-serif" font-weight="400" font-size="37" transform="matrix(6.12323e-17 -1 1 6.12323e-17 707.843 981)">L1D Load Miss Latency </text></g><g><text font-family="Arial,Arial_MSFontService,sans-serif" font-weight="400" font-size="37" transform="matrix(6.12323e-17 -1 1 6.12323e-17 750.829 856)">(Cycles)</text></g><g><rect x="1180" y="622" width="522" height="80.0001" fill="#FFFFFF"/></g><g><rect x="1196" y="633" width="19.0002" height="18.0002" stroke="#000000" stroke-width="2.29167" stroke-linejoin="round" stroke-miterlimit="10" fill="#FFFFFF"/></g><g><text font-family="Arial,Arial_MSFontService,sans-serif" font-weight="400" font-size="37" transform="matrix(1 0 0 1 1222.42 653)">On-access Pref (Non-secure)</text></g><g><rect x="1196" y="673" width="19.0002" height="17.9999" stroke="#000000" stroke-width="2.29167" stroke-linejoin="round" stroke-miterlimit="10" fill="#595959"/></g><g><text font-family="Arial,Arial_MSFontService,sans-serif" font-weight="400" font-size="37" transform="matrix(1 0 0 1 1222.42 694)">On-access Pref (Secure)</text></g><g><path d="M855.5 828.5 1715 828.5" stroke="#000000" stroke-width="3.4375" stroke-miterlimit="8" fill="none" fill-rule="evenodd"/></g><g><path d="M856.5 866.5 1714.1 866.5" stroke="#FF0000" stroke-width="3.4375" stroke-miterlimit="8" fill="none" fill-rule="evenodd"/></g><g><rect x="1180" y="538" width="521" height="86.9999" fill="#FFFFFF"/></g><g><text font-family="Arial,Arial_MSFontService,sans-serif" font-weight="400" font-size="37" transform="matrix(1 0 0 1 1222.69 572)">No Pref (Non</text></g><g><text font-family="Arial,Arial_MSFontService,sans-serif" font-weight="400" font-size="37" transform="matrix(1 0 0 1 1436.69 572)">-</text></g><g><text font-family="Arial,Arial_MSFontService,sans-serif" font-weight="400" font-size="37" transform="matrix(1 0 0 1 1448.9 572)">secure)</text></g><g><text font-family="Arial,Arial_MSFontService,sans-serif" font-weight="400" font-size="37" transform="matrix(1 0 0 1 1222.69 615)">No Pref (Secure)</text></g><g><path d="M1196.5 560.5 1217.29 560.501" stroke="#000000" stroke-width="3.4375" stroke-miterlimit="8" fill="none" fill-rule="evenodd"/></g><g><path d="M1195.5 602.5 1216.29 602.5" stroke="#FF0000" stroke-width="3.4375" stroke-miterlimit="8" fill="none" fill-rule="evenodd"/></g></g></svg>