<svg width="1692" height="742" xmlns="http://www.w3.org/2000/svg" xmlns:xlink="http://www.w3.org/1999/xlink" xml:space="preserve" overflow="hidden"><defs><clipPath id="clip0"><rect x="1306" y="598" width="1692" height="742"/></clipPath></defs><g clip-path="url(#clip0)" transform="translate(-1306 -598)"><rect x="1306" y="598" width="1692" height="742" fill="#FFFFFF"/><g><path d="M1580 1253.04 2941 1253.04M1580 1234.04 2941 1234.04M1580 1216.04 2941 1216.04M1580 1198.04 2941 1198.04M1580 1161.04 2941 1161.04M1580 1143.04 2941 1143.04M1580 1124.04 2941 1124.04M1580 1106.04 2941 1106.04M1580 1070.04 2941 1070.04M1580 1051.03 2941 1051.03M1580 1033.03 2941 1033.03M1580 1015.03 2941 1015.03M1580 978.032 2941 978.032M1580 960.031 2941 960.031M1580 941.031 2941 941.031M1580 923.03 2941 923.03M1580 886.029 2941 886.029M1580 868.029 2941 868.029M1580 850.028 2941 850.028M1580 831.027 2941 831.027M1580 795.026 2941 795.026M1580 777.026 2941 777.026M1580 758.025 2941 758.025M1580 740.024 2941 740.024M1580 703.023 2941 703.023M1580 685.023 2941 685.023M1580 667.022 2941 667.022M1580 648.021 2941 648.021" stroke="#F2F2F2" stroke-width="2.29167" stroke-linejoin="round" stroke-miterlimit="10" fill="none"/></g><g><path d="M1580 1179.04 2941 1179.04M1580 1088.04 2941 1088.04M1580 996.033 2941 996.033M1580 905.03 2941 905.03M1580 813.027 2941 813.027M1580 722.024 2941 722.024M1580 630 2941 630" stroke="#D9D9D9" stroke-width="2.29167" stroke-linejoin="round" stroke-miterlimit="10" fill="none"/></g><g><rect x="1580" y="630" width="1361" height="641" stroke="#000000" stroke-width="2.29167" stroke-linejoin="round" stroke-miterlimit="10" fill="none"/></g><g><path d="M1625.05 1001.03 1716.06 1001.03 1716.06 1271 1625.05 1271ZM1898.06 932.031 1988.07 932.031 1988.07 1271 1898.06 1271ZM2170.07 1187.04 2261.07 1187.04 2261.07 1271 2170.07 1271ZM2442.08 1196.04 2533.08 1196.04 2533.08 1271 2442.08 1271ZM2714.09 1052.03 2805.09 1052.03 2805.09 1271 2714.09 1271Z" stroke="#000000" stroke-width="2.29167" stroke-linejoin="round" stroke-miterlimit="10" fill="#FFFFFF"/></g><g><path d="M1716.06 889.029 1807.06 889.029 1807.06 1271 1716.06 1271ZM1988.07 640.021 2079.07 640.021 2079.07 1271 1988.07 1271ZM2261.07 1173.04 2351.08 1173.04 2351.08 1271 2261.07 1271ZM2533.08 1186.04 2624.09 1186.04 2624.09 1271 2533.08 1271ZM2805.09 929.031 2896.09 929.031 2896.09 1271 2805.09 1271Z" stroke="#000000" stroke-width="2.29167" stroke-linejoin="round" stroke-miterlimit="10" fill="#404040"/></g><g><path d="M0 0 0.000360892 641" stroke="#000000" stroke-width="3.4375" stroke-linejoin="round" stroke-miterlimit="10" fill="none" fill-rule="evenodd" transform="matrix(1 0 0 -1 1580.5 1271.5)"/></g><g><path d="M1566.5 1271.5 1580.5 1271.5M1566.5 1179.54 1580.5 1179.54M1566.5 1087.54 1580.5 1087.54M1566.5 996.533 1580.5 996.533M1566.5 904.53 1580.5 904.53M1566.5 813.527 1580.5 813.527M1566.5 721.524 1580.5 721.524M1566.5 630.5 1580.5 630.5" stroke="#000000" stroke-width="3.4375" stroke-linejoin="round" stroke-miterlimit="10" fill="none"/></g><g><path d="M1580.5 1271.5 2941.5 1271.5" stroke="#000000" stroke-width="3.4375" stroke-linejoin="round" stroke-miterlimit="10" fill="none" fill-rule="evenodd"/></g><g><text font-family="Arial,Arial_MSFontService,sans-serif" font-weight="400" font-size="46" transform="matrix(1 0 0 1 1489.71 1286)">40</text></g><g><text font-family="Arial,Arial_MSFontService,sans-serif" font-weight="400" font-size="46" transform="matrix(1 0 0 1 1489.71 1195)">60</text></g><g><text font-family="Arial,Arial_MSFontService,sans-serif" font-weight="400" font-size="46" transform="matrix(1 0 0 1 1489.71 1103)">80</text></g><g><text font-family="Arial,Arial_MSFontService,sans-serif" font-weight="400" font-size="46" transform="matrix(1 0 0 1 1464.23 1011)">100</text></g><g><text font-family="Arial,Arial_MSFontService,sans-serif" font-weight="400" font-size="46" transform="matrix(1 0 0 1 1464.23 920)">120</text></g><g><text font-family="Arial,Arial_MSFontService,sans-serif" font-weight="400" font-size="46" transform="matrix(1 0 0 1 1464.23 828)">140</text></g><g><text font-family="Arial,Arial_MSFontService,sans-serif" font-weight="400" font-size="46" transform="matrix(1 0 0 1 1464.23 737)">160</text></g><g><text font-family="Arial,Arial_MSFontService,sans-serif" font-weight="400" font-size="46" transform="matrix(1 0 0 1 1464.23 645)">180</text></g><g><text font-family="Arial,Arial_MSFontService,sans-serif" font-weight="400" font-size="46" transform="matrix(1 0 0 1 1627.09 1327)">IP-Stride</text></g><g><text font-family="Arial,Arial_MSFontService,sans-serif" font-weight="400" font-size="46" transform="matrix(1 0 0 1 1934.99 1327)">IPCP</text></g><g><text font-family="Arial,Arial_MSFontService,sans-serif" font-weight="400" font-size="46" transform="matrix(1 0 0 1 2202.12 1327)">Bingo</text></g><g><text font-family="Arial,Arial_MSFontService,sans-serif" font-weight="400" font-size="46" transform="matrix(1 0 0 1 2429.14 1327)">SPP+PPF</text></g><g><text font-family="Arial,Arial_MSFontService,sans-serif" font-weight="400" font-size="46" transform="matrix(1 0 0 1 2758.07 1327)">Berti</text></g><g><text font-family="Arial,Arial_MSFontService,sans-serif" font-weight="400" font-size="46" transform="matrix(6.12323e-17 -1 1 6.12323e-17 1375.48 1180)">L1D Load Miss Latency </text></g><g><text font-family="Arial,Arial_MSFontService,sans-serif" font-weight="400" font-size="46" transform="matrix(6.12323e-17 -1 1 6.12323e-17 1428.48 1025)">(Cycles)</text></g><g><rect x="2189" y="762" width="692" height="104" fill="#FFFFFF"/></g><g><rect x="2222" y="777" width="23" height="23.0001" stroke="#000000" stroke-width="2.29167" stroke-linejoin="round" stroke-miterlimit="10" fill="#FFFFFF"/></g><g><text font-family="Arial,Arial_MSFontService,sans-serif" font-weight="400" font-size="46" transform="matrix(1 0 0 1 2255.03 803)">On-access Pref (Non-secure)</text></g><g><rect x="2222" y="829" width="23" height="23.0001" stroke="#000000" stroke-width="2.29167" stroke-linejoin="round" stroke-miterlimit="10" fill="#404040"/></g><g><text font-family="Arial,Arial_MSFontService,sans-serif" font-weight="400" font-size="46" transform="matrix(1 0 0 1 2255.03 855)">On-access Pref (Secure)</text></g><g><rect x="2189" y="653" width="692" height="113" fill="#FFFFFF"/></g><g><text font-family="Arial,Arial_MSFontService,sans-serif" font-weight="400" font-size="46" transform="matrix(1 0 0 1 2259.57 696)">No Pref (Non</text></g><g><text font-family="Arial,Arial_MSFontService,sans-serif" font-weight="400" font-size="46" transform="matrix(1 0 0 1 2527.01 696)">-</text></g><g><text font-family="Arial,Arial_MSFontService,sans-serif" font-weight="400" font-size="46" transform="matrix(1 0 0 1 2542.27 696)">secure)</text></g><g><text font-family="Arial,Arial_MSFontService,sans-serif" font-weight="400" font-size="46" transform="matrix(1 0 0 1 2259.57 749)">No Pref (Secure)</text></g><g><path d="M2224.5 682.5 2249.36 682.5" stroke="#000000" stroke-width="3.4375" stroke-miterlimit="8" fill="none" fill-rule="evenodd"/></g><g><path d="M2222.5 736.5 2247.36 736.501" stroke="#FF0000" stroke-width="3.4375" stroke-miterlimit="8" fill="none" fill-rule="evenodd"/></g><g><path d="M1580.5 773.5 2188.65 773.5" stroke="#FF0000" stroke-width="3.4375" stroke-miterlimit="8" fill="none" fill-rule="evenodd"/></g><g><path d="M1580.5 783.5 2189.77 783.5" stroke="#000000" stroke-width="3.4375" stroke-miterlimit="8" fill="none" fill-rule="evenodd"/></g><g><path d="M2879.5 784.5 2941.27 784.5" stroke="#000000" stroke-width="3.4375" stroke-miterlimit="8" fill="none" fill-rule="evenodd"/></g><g><path d="M2879.5 774.5 2941.49 774.5" stroke="#FF0000" stroke-width="3.4375" stroke-miterlimit="8" fill="none" fill-rule="evenodd"/></g></g></svg>