<svg width="1689" height="706" xmlns="http://www.w3.org/2000/svg" xmlns:xlink="http://www.w3.org/1999/xlink" xml:space="preserve" overflow="hidden"><defs><clipPath id="clip0"><rect x="561" y="502" width="1689" height="706"/></clipPath></defs><g clip-path="url(#clip0)" transform="translate(-561 -502)"><rect x="561" y="502" width="1689" height="706" fill="#FFFFFF"/><g><path d="M741.5 892.529 2226.5 892.529M741.5 802.527 2226.5 802.527M741.5 713.524 2226.5 713.524M741.5 623.521 2226.5 623.521M741.5 534.5 2226.5 534.5" stroke="#D9D9D9" stroke-width="3.4375" stroke-linejoin="round" stroke-miterlimit="10" fill="none"/></g><g><rect x="741.5" y="534.5" width="1485" height="448" stroke="#000000" stroke-width="3.4375" stroke-linejoin="round" stroke-miterlimit="10" fill="none"/></g><g><path d="M768.525 585.519 823.527 585.519 823.527 982.5 768.525 982.5ZM933.531 644.521 988.533 644.521 988.533 982.5 933.531 982.5ZM1098.54 659.522 1153.54 659.522 1153.54 982.5 1098.54 982.5ZM1263.54 779.526 1318.54 779.526 1318.54 982.5 1263.54 982.5ZM1428.55 826.527 1483.55 826.527 1483.55 982.5 1428.55 982.5ZM1593.55 854.528 1648.55 854.528 1648.55 982.5 1593.55 982.5ZM1758.56 847.528 1813.56 847.528 1813.56 982.5 1758.56 982.5ZM1923.56 888.529 1978.56 888.529 1978.56 982.5 1923.56 982.5ZM2088.57 919.53 2143.57 919.53 2143.57 982.5 2088.57 982.5Z" stroke="#000000" stroke-width="3.4375" stroke-linejoin="round" stroke-miterlimit="10" fill="#F2F2F2"/></g><g><path d="M823.527 561.519 878.529 561.519 878.529 982.5 823.527 982.5ZM988.533 593.52 1043.53 593.52 1043.53 982.5 988.533 982.5ZM1153.54 647.521 1208.54 647.521 1208.54 982.5 1153.54 982.5ZM1318.54 755.525 1373.55 755.525 1373.55 982.5 1318.54 982.5ZM1483.55 779.526 1538.55 779.526 1538.55 982.5 1483.55 982.5ZM1648.55 828.527 1703.56 828.527 1703.56 982.5 1648.55 982.5ZM1813.56 817.527 1868.56 817.527 1868.56 982.5 1813.56 982.5ZM1978.56 845.528 2033.57 845.528 2033.57 982.5 1978.56 982.5ZM2143.57 894.53 2198.57 894.53 2198.57 982.5 2143.57 982.5Z" stroke="#000000" stroke-width="3.4375" stroke-linejoin="round" stroke-miterlimit="10" fill="#7F7F7F"/></g><g><path d="M741.5 982.5 2226.5 982.5" stroke="#000000" stroke-width="3.4375" stroke-linejoin="round" stroke-miterlimit="10" fill="none" fill-rule="evenodd"/></g><g><path d="M741.5 982.5 741.5 1117.5M1236.54 982.5 1236.54 1117.5M1731.56 982.5 1731.56 1117.5M2226.5 982.5 2226.5 1117.5" stroke="#000000" stroke-width="3.4375" stroke-linejoin="round" stroke-miterlimit="10" fill="none"/></g><g><path d="M741.5 1117.5 741.5 1199.5M1236.54 1117.5 1236.54 1199.5M1731.56 1117.5 1731.56 1199.5M2226.5 1117.5 2226.5 1199.5" stroke="#000000" stroke-width="3.4375" stroke-linejoin="round" stroke-miterlimit="10" fill="none"/></g><g><text font-family="Arial,Arial_MSFontService,sans-serif" font-weight="400" font-size="46" transform="matrix(1 0 0 1 676.104 997)">0</text></g><g><text font-family="Arial,Arial_MSFontService,sans-serif" font-weight="400" font-size="46" transform="matrix(1 0 0 1 676.104 908)">5</text></g><g><text font-family="Arial,Arial_MSFontService,sans-serif" font-weight="400" font-size="46" transform="matrix(1 0 0 1 650.621 818)">10</text></g><g><text font-family="Arial,Arial_MSFontService,sans-serif" font-weight="400" font-size="46" transform="matrix(1 0 0 1 650.621 729)">15</text></g><g><text font-family="Arial,Arial_MSFontService,sans-serif" font-weight="400" font-size="46" transform="matrix(1 0 0 1 650.621 639)">20</text></g><g><text font-family="Arial,Arial_MSFontService,sans-serif" font-weight="400" font-size="46" transform="matrix(1 0 0 1 650.621 549)">25</text></g><g><text font-family="Arial,Arial_MSFontService,sans-serif" font-weight="400" font-size="46" transform="matrix(1 0 0 1 801.878 1052)">IP</text></g><g><text font-family="Arial,Arial_MSFontService,sans-serif" font-weight="400" font-size="46" transform="matrix(1 0 0 1 763.676 1104)">Stride</text></g><g><text font-family="Arial,Arial_MSFontService,sans-serif" font-weight="400" font-size="46" transform="matrix(1 0 0 1 935.054 1052)">IPCP</text></g><g><text font-family="Arial,Arial_MSFontService,sans-serif" font-weight="400" font-size="46" transform="matrix(1 0 0 1 1106.43 1052)">Berti</text></g><g><text font-family="Arial,Arial_MSFontService,sans-serif" font-weight="400" font-size="46" transform="matrix(1 0 0 1 1296.9 1052)">IP</text></g><g><text font-family="Arial,Arial_MSFontService,sans-serif" font-weight="400" font-size="46" transform="matrix(1 0 0 1 1258.7 1104)">Stride</text></g><g><text font-family="Arial,Arial_MSFontService,sans-serif" font-weight="400" font-size="46" transform="matrix(1 0 0 1 1430.07 1052)">IPCP</text></g><g><text font-family="Arial,Arial_MSFontService,sans-serif" font-weight="400" font-size="46" transform="matrix(1 0 0 1 1601.45 1052)">Berti</text></g><g><text font-family="Arial,Arial_MSFontService,sans-serif" font-weight="400" font-size="46" transform="matrix(1 0 0 1 1791.92 1052)">IP</text></g><g><text font-family="Arial,Arial_MSFontService,sans-serif" font-weight="400" font-size="46" transform="matrix(1 0 0 1 1753.72 1104)">Stride</text></g><g><text font-family="Arial,Arial_MSFontService,sans-serif" font-weight="400" font-size="46" transform="matrix(1 0 0 1 1925.1 1052)">IPCP</text></g><g><text font-family="Arial,Arial_MSFontService,sans-serif" font-weight="400" font-size="46" transform="matrix(1 0 0 1 2096.47 1052)">Berti</text></g><g><text font-family="Arial,Arial_MSFontService,sans-serif" font-weight="400" font-size="46" transform="matrix(1 0 0 1 946.512 1187)">L1D</text></g><g><text font-family="Arial,Arial_MSFontService,sans-serif" font-weight="400" font-size="46" transform="matrix(1 0 0 1 1441.53 1187)">L2C</text></g><g><text font-family="Arial,Arial_MSFontService,sans-serif" font-weight="400" font-size="46" transform="matrix(1 0 0 1 1936.55 1187)">LLC</text></g><g><text font-family="Arial,Arial_MSFontService,sans-serif" font-weight="400" font-size="46" transform="matrix(6.12323e-17 -1 1 6.12323e-17 621.379 855)">Load MPKI</text></g><g><rect x="1618.5" y="559.5" width="23" height="23.0001" stroke="#000000" stroke-width="3.4375" stroke-linejoin="round" stroke-miterlimit="10" fill="#F2F2F2"/></g><g><text font-family="Arial,Arial_MSFontService,sans-serif" font-weight="400" font-size="46" transform="matrix(1 0 0 1 1651.69 586)">On-access</text></g><g><rect x="1911.5" y="559.5" width="23" height="23.0001" stroke="#000000" stroke-width="3.4375" stroke-linejoin="round" stroke-miterlimit="10" fill="#7F7F7F"/></g><g><text font-family="Arial,Arial_MSFontService,sans-serif" font-weight="400" font-size="46" transform="matrix(1 0 0 1 1944.23 586)">On-commit</text></g></g></svg>