<svg width="3784" height="1125" xmlns="http://www.w3.org/2000/svg" xmlns:xlink="http://www.w3.org/1999/xlink" xml:space="preserve" overflow="hidden"><defs><clipPath id="clip0"><rect x="1050" y="281" width="3784" height="1125"/></clipPath><clipPath id="clip1"><rect x="1447" y="384" width="3343" height="442"/></clipPath><clipPath id="clip2"><rect x="1994" y="280" width="590" height="74"/></clipPath></defs><g clip-path="url(#clip0)" transform="translate(-1050 -281)"><rect x="1050" y="281" width="3784" height="1125" fill="#FFFFFF"/><g><path d="M1447.5 808.527 4787.5 808.527M1447.5 793.526 4787.5 793.526M1447.5 779.526 4787.5 779.526M1447.5 764.525 4787.5 764.525M1447.5 735.524 4787.5 735.524M1447.5 720.524 4787.5 720.524M1447.5 706.523 4787.5 706.523M1447.5 691.523 4787.5 691.523M1447.5 662.522 4787.5 662.522M1447.5 647.521 4787.5 647.521M1447.5 633.521 4787.5 633.521M1447.5 618.52 4787.5 618.52M1447.5 589.52 4787.5 589.52M1447.5 574.519 4787.5 574.519M1447.5 559.519 4787.5 559.519M1447.5 545.518 4787.5 545.518M1447.5 516.517 4787.5 516.517M1447.5 501.517 4787.5 501.517M1447.5 486.516 4787.5 486.516M1447.5 472.516 4787.5 472.516M1447.5 442.515 4787.5 442.515M1447.5 428.514 4787.5 428.514M1447.5 413.514 4787.5 413.514M1447.5 399.513 4787.5 399.513" stroke="#F2F2F2" stroke-width="3.4375" stroke-linejoin="round" stroke-miterlimit="10" fill="none"/></g><g><path d="M1447.5 750.525 4787.5 750.525M1447.5 676.522 4787.5 676.522M1447.5 603.52 4787.5 603.52M1447.5 530.518 4787.5 530.518M1447.5 457.515 4787.5 457.515M1447.5 384.5 4787.5 384.5" stroke="#D9D9D9" stroke-width="3.4375" stroke-linejoin="round" stroke-miterlimit="10" fill="none"/></g><g><rect x="1447.5" y="384.5" width="3340" height="439" stroke="#000000" stroke-width="3.4375" stroke-linejoin="round" stroke-miterlimit="10" fill="none"/></g><g><path d="M1532.55 787.526 1556.55 787.526 1556.55 823.5 1532.55 823.5ZM1605.55 631.521 1629.55 631.521 1629.55 823.5 1605.55 823.5ZM1677.56 769.525 1701.56 769.525 1701.56 823.5 1677.56 823.5ZM1750.56 592.52 1774.56 592.52 1774.56 823.5 1750.56 823.5ZM1822.56 591.52 1846.56 591.52 1846.56 823.5 1822.56 823.5ZM1895.56 666.522 1919.56 666.522 1919.56 823.5 1895.56 823.5ZM1967.56 547.518 1992.57 547.518 1992.57 823.5 1967.56 823.5ZM2040.57 722.524 2064.57 722.524 2064.57 823.5 2040.57 823.5ZM2113.57 676.522 2137.57 676.522 2137.57 823.5 2113.57 823.5ZM2185.57 542.518 2209.57 542.518 2209.57 823.5 2185.57 823.5ZM2258.57 693.523 2282.57 693.523 2282.57 823.5 2258.57 823.5ZM2330.58 574.519 2355.58 574.519 2355.58 823.5 2330.58 823.5ZM2403.58 578.519 2427.58 578.519 2427.58 823.5 2403.58 823.5ZM2476.58 742.525 2500.58 742.525 2500.58 823.5 2476.58 823.5ZM2548.58 686.523 2572.58 686.523 2572.58 823.5 2548.58 823.5ZM2621.59 692.523 2645.59 692.523 2645.59 823.5 2621.59 823.5ZM2693.59 781.526 2718.59 781.526 2718.59 823.5 2693.59 823.5ZM2766.59 797.526 2790.59 797.526 2790.59 823.5 2766.59 823.5ZM2839.59 797.526 2863.59 797.526 2863.59 823.5 2839.59 823.5ZM2911.6 651.522 2935.6 651.522 2935.6 823.5 2911.6 823.5ZM2984.6 578.519 3008.6 578.519 3008.6 823.5 2984.6 823.5ZM3056.6 593.52 3081.6 593.52 3081.6 823.5 3056.6 823.5ZM3129.6 578.519 3153.6 578.519 3153.6 823.5 3129.6 823.5ZM3202.61 659.522 3226.61 659.522 3226.61 823.5 3202.61 823.5ZM3274.61 675.522 3298.61 675.522 3298.61 823.5 3274.61 823.5ZM3347.61 619.521 3371.61 619.521 3371.61 823.5 3347.61 823.5ZM3419.61 639.521 3444.61 639.521 3444.61 823.5 3419.61 823.5ZM3492.61 621.521 3516.62 621.521 3516.62 823.5 3492.61 823.5ZM3565.62 773.526 3589.62 773.526 3589.62 823.5 3565.62 823.5ZM3637.62 596.52 3661.62 596.52 3661.62 823.5 3637.62 823.5ZM3710.62 773.526 3734.62 773.526 3734.62 823.5 3710.62 823.5ZM3782.62 765.525 3807.62 765.525 3807.62 823.5 3782.62 823.5ZM3855.63 669.522 3879.63 669.522 3879.63 823.5 3855.63 823.5ZM3928.63 609.52 3952.63 609.52 3952.63 823.5 3928.63 823.5ZM4000.63 500.517 4024.63 500.517 4024.63 823.5 4000.63 823.5ZM4073.63 610.52 4097.63 610.52 4097.63 823.5 4073.63 823.5ZM4145.64 457.515 4170.64 457.515 4170.64 823.5 4145.64 823.5ZM4218.64 465.515 4242.64 465.515 4242.64 823.5 4218.64 823.5ZM4291.64 557.518 4315.64 557.518 4315.64 823.5 4291.64 823.5ZM4363.64 403.513 4387.64 403.513 4387.64 823.5 4363.64 823.5ZM4436.65 651.522 4460.65 651.522 4460.65 823.5 4436.65 823.5ZM4508.65 646.521 4533.65 646.521 4533.65 823.5 4508.65 823.5ZM4581.65 507.517 4605.65 507.517 4605.65 823.5 4581.65 823.5ZM4654.65 747.525 4678.65 747.525 4678.65 823.5 4654.65 823.5ZM4726.66 643.521 4750.66 643.521 4750.66 823.5 4726.66 823.5Z" stroke="#000000" stroke-width="3.4375" stroke-linejoin="round" stroke-miterlimit="10" fill="#F2F2F2"/></g><g clip-path="url(#clip1)"><path d="M1484.55 804.527 1508.55 804.527 1508.55 823.5 1484.55 823.5ZM1556.55 815.527 1580.55 815.527 1580.55 823.5 1556.55 823.5ZM1629.55 810.527 1653.55 810.527 1653.55 823.5 1629.55 823.5ZM1701.56 814.527 1726.56 814.527 1726.56 823.5 1701.56 823.5ZM1774.56 751.525 1798.56 751.525 1798.56 823.5 1774.56 823.5ZM1847.56 751.525 1871.56 751.525 1871.56 823.5 1847.56 823.5ZM1919.56 678.522 1943.56 678.522 1943.56 823.5 1919.56 823.5ZM1992.57 816.527 2016.57 816.527 2016.57 823.5 1992.57 823.5ZM2064.57 807.527 2089.57 807.527 2089.57 823.5 2064.57 823.5ZM2137.57 813.527 2161.57 813.527 2161.57 823.5 2137.57 823.5ZM2210.57 806.527 2234.57 806.527 2234.57 823.5 2210.57 823.5ZM2282.57-397.5 2306.58-397.5 2306.58 823.5 2282.57 823.5ZM2355.58 804.527 2379.58 804.527 2379.58 823.5 2355.58 823.5ZM2427.58 795.526 2452.58 795.526 2452.58 823.5 2427.58 823.5ZM2500.58 802.526 2524.58 802.526 2524.58 823.5 2500.58 823.5ZM2573.58 808.527 2597.59 808.527 2597.59 823.5 2573.58 823.5ZM2645.59 813.527 2669.59 813.527 2669.59 823.5 2645.59 823.5ZM2718.59 807.527 2742.59 807.527 2742.59 823.5 2718.59 823.5ZM2790.59 794.526 2815.59 794.526 2815.59 823.5 2790.59 823.5ZM2863.59 794.526 2887.59 794.526 2887.59 823.5 2863.59 823.5ZM2936.6 518.517 2960.6 518.517 2960.6 823.5 2936.6 823.5ZM3008.6 465.515 3032.6 465.515 3032.6 823.5 3008.6 823.5ZM3081.6 490.516 3105.6 490.516 3105.6 823.5 3081.6 823.5ZM3153.6 471.516 3178.6 471.516 3178.6 823.5 3153.6 823.5ZM3226.61 786.526 3250.61 786.526 3250.61 823.5 3226.61 823.5ZM3299.61 791.526 3323.61 791.526 3323.61 823.5 3299.61 823.5ZM3371.61 753.525 3395.61 753.525 3395.61 823.5 3371.61 823.5ZM3444.61 745.525 3468.61 745.525 3468.61 823.5 3444.61 823.5ZM3516.62 812.527 3541.62 812.527 3541.62 823.5 3516.62 823.5ZM3589.62 813.527 3613.62 813.527 3613.62 823.5 3589.62 823.5ZM3662.62 815.527 3686.62 815.527 3686.62 823.5 3662.62 823.5ZM3734.62 782.526 3758.62 782.526 3758.62 823.5 3734.62 823.5ZM3807.62 749.525 3831.63 749.525 3831.63 823.5 3807.62 823.5ZM3879.63 806.527 3904.63 806.527 3904.63 823.5 3879.63 823.5ZM3952.63 815.527 3976.63 815.527 3976.63 823.5 3952.63 823.5ZM4025.63 814.527 4049.63 814.527 4049.63 823.5 4025.63 823.5ZM4097.63 814.527 4121.64 814.527 4121.64 823.5 4097.63 823.5ZM4170.64 691.523 4194.64 691.523 4194.64 823.5 4170.64 823.5ZM4242.64 536.518 4267.64 536.518 4267.64 823.5 4242.64 823.5ZM4315.64 667.522 4339.64 667.522 4339.64 823.5 4315.64 823.5ZM4388.64 792.526 4412.65 792.526 4412.65 823.5 4388.64 823.5ZM4460.65 752.525 4484.65 752.525 4484.65 823.5 4460.65 823.5ZM4533.65 780.526 4557.65 780.526 4557.65 823.5 4533.65 823.5ZM4605.65 513.517 4629.65 513.517 4629.65 823.5 4605.65 823.5ZM4678.65 805.527 4702.65 805.527 4702.65 823.5 4678.65 823.5ZM4751.66 721.524 4775.66 721.524 4775.66 823.5 4751.66 823.5Z" stroke="#000000" stroke-width="3.4375" stroke-linejoin="round" stroke-miterlimit="10" fill="#7F7F7F"/></g><g><path d="M0 0 0.000360892 439" stroke="#000000" stroke-width="3.4375" stroke-linejoin="round" stroke-miterlimit="10" fill="none" fill-rule="evenodd" transform="matrix(1 0 0 -1 1447.5 823.5)"/></g><g><path d="M1433.5 823.5 1447.5 823.5M1433.5 750.525 1447.5 750.525M1433.5 676.522 1447.5 676.522M1433.5 603.52 1447.5 603.52M1433.5 530.518 1447.5 530.518M1433.5 457.515 1447.5 457.515M1433.5 384.5 1447.5 384.5" stroke="#000000" stroke-width="3.4375" stroke-linejoin="round" stroke-miterlimit="10" fill="none"/></g><g><path d="M1447.5 823.5 4787.5 823.5" stroke="#000000" stroke-width="3.4375" stroke-linejoin="round" stroke-miterlimit="10" fill="none" fill-rule="evenodd"/></g><g><text font-family="Arial,Arial_MSFontService,sans-serif" font-weight="400" font-size="46" transform="matrix(1 0 0 1 1382.87 838)">0</text></g><g><text font-family="Arial,Arial_MSFontService,sans-serif" font-weight="400" font-size="46" transform="matrix(1 0 0 1 1357.38 765)">50</text></g><g><text font-family="Arial,Arial_MSFontService,sans-serif" font-weight="400" font-size="46" transform="matrix(1 0 0 1 1331.9 692)">100</text></g><g><text font-family="Arial,Arial_MSFontService,sans-serif" font-weight="400" font-size="46" transform="matrix(1 0 0 1 1331.9 619)">150</text></g><g><text font-family="Arial,Arial_MSFontService,sans-serif" font-weight="400" font-size="46" transform="matrix(1 0 0 1 1331.9 546)">200</text></g><g><text font-family="Arial,Arial_MSFontService,sans-serif" font-weight="400" font-size="46" transform="matrix(1 0 0 1 1331.9 473)">250</text></g><g><text font-family="Arial,Arial_MSFontService,sans-serif" font-weight="400" font-size="46" transform="matrix(1 0 0 1 1331.9 399)">300</text></g><g><text font-family="Arial,Arial_MSFontService,sans-serif" font-weight="400" font-size="46" transform="matrix(0.707107 -0.707107 0.707107 0.707107 1169.62 1207)">600.perlbench_s-570B</text></g><g><text font-family="Arial,Arial_MSFontService,sans-serif" font-weight="400" font-size="46" transform="matrix(0.707107 -0.707107 0.707107 0.707107 1316.08 1133)">602.gcc_s-1850B</text></g><g><text font-family="Arial,Arial_MSFontService,sans-serif" font-weight="400" font-size="46" transform="matrix(0.707107 -0.707107 0.707107 0.707107 1388.68 1133)">602.gcc_s-2226B</text></g><g><text font-family="Arial,Arial_MSFontService,sans-serif" font-weight="400" font-size="46" transform="matrix(0.707107 -0.707107 0.707107 0.707107 1479.3 1115)">602.gcc_s-734B</text></g><g><text font-family="Arial,Arial_MSFontService,sans-serif" font-weight="400" font-size="46" transform="matrix(0.707107 -0.707107 0.707107 0.707107 1474.44 1192)">603.bwaves_s-1740B</text></g><g><text font-family="Arial,Arial_MSFontService,sans-serif" font-weight="400" font-size="46" transform="matrix(0.707107 -0.707107 0.707107 0.707107 1547.04 1192)">603.bwaves_s-2609B</text></g><g><text font-family="Arial,Arial_MSFontService,sans-serif" font-weight="400" font-size="46" transform="matrix(0.707107 -0.707107 0.707107 0.707107 1619.64 1192)">603.bwaves_s-2931B</text></g><g><text font-family="Arial,Arial_MSFontService,sans-serif" font-weight="400" font-size="46" transform="matrix(0.707107 -0.707107 0.707107 0.707107 1710.26 1174)">603.bwaves_s-891B</text></g><g><text font-family="Arial,Arial_MSFontService,sans-serif" font-weight="400" font-size="46" transform="matrix(0.707107 -0.707107 0.707107 0.707107 1822.5 1135)">605.mcf_s-1152B</text></g><g><text font-family="Arial,Arial_MSFontService,sans-serif" font-weight="400" font-size="46" transform="matrix(0.707107 -0.707107 0.707107 0.707107 1895.1 1135)">605.mcf_s-1536B</text></g><g><text font-family="Arial,Arial_MSFontService,sans-serif" font-weight="400" font-size="46" transform="matrix(0.707107 -0.707107 0.707107 0.707107 1967.7 1135)">605.mcf_s-1554B</text></g><g><text font-family="Arial,Arial_MSFontService,sans-serif" font-weight="400" font-size="46" transform="matrix(0.707107 -0.707107 0.707107 0.707107 2040.3 1135)">605.mcf_s-1644B</text></g><g><text font-family="Arial,Arial_MSFontService,sans-serif" font-weight="400" font-size="46" transform="matrix(0.707107 -0.707107 0.707107 0.707107 2130.92 1117)">605.mcf_s-472B</text></g><g><text font-family="Arial,Arial_MSFontService,sans-serif" font-weight="400" font-size="46" transform="matrix(0.707107 -0.707107 0.707107 0.707107 2203.52 1117)">605.mcf_s-484B</text></g><g><text font-family="Arial,Arial_MSFontService,sans-serif" font-weight="400" font-size="46" transform="matrix(0.707107 -0.707107 0.707107 0.707107 2276.12 1117)">605.mcf_s-665B</text></g><g><text font-family="Arial,Arial_MSFontService,sans-serif" font-weight="400" font-size="46" transform="matrix(0.707107 -0.707107 0.707107 0.707107 2348.72 1117)">605.mcf_s-782B</text></g><g><text font-family="Arial,Arial_MSFontService,sans-serif" font-weight="400" font-size="46" transform="matrix(0.707107 -0.707107 0.707107 0.707107 2421.32 1117)">605.mcf_s-994B</text></g><g><text font-family="Arial,Arial_MSFontService,sans-serif" font-weight="400" font-size="46" transform="matrix(0.707107 -0.707107 0.707107 0.707107 2362.4 1248)">607.cactuBSSN_s-2421B</text></g><g><text font-family="Arial,Arial_MSFontService,sans-serif" font-weight="400" font-size="46" transform="matrix(0.707107 -0.707107 0.707107 0.707107 2435 1248)">607.cactuBSSN_s-3477B</text></g><g><text font-family="Arial,Arial_MSFontService,sans-serif" font-weight="400" font-size="46" transform="matrix(0.707107 -0.707107 0.707107 0.707107 2507.6 1248)">607.cactuBSSN_s-4004B</text></g><g><text font-family="Arial,Arial_MSFontService,sans-serif" font-weight="400" font-size="46" transform="matrix(0.707107 -0.707107 0.707107 0.707107 2693.7 1135)">619.lbm_s-2676B</text></g><g><text font-family="Arial,Arial_MSFontService,sans-serif" font-weight="400" font-size="46" transform="matrix(0.707107 -0.707107 0.707107 0.707107 2766.3 1135)">619.lbm_s-2677B</text></g><g><text font-family="Arial,Arial_MSFontService,sans-serif" font-weight="400" font-size="46" transform="matrix(0.707107 -0.707107 0.707107 0.707107 2838.9 1135)">619.lbm_s-3766B</text></g><g><text font-family="Arial,Arial_MSFontService,sans-serif" font-weight="400" font-size="46" transform="matrix(0.707107 -0.707107 0.707107 0.707107 2911.5 1135)">619.lbm_s-4268B</text></g><g><text font-family="Arial,Arial_MSFontService,sans-serif" font-weight="400" font-size="46" transform="matrix(0.707107 -0.707107 0.707107 0.707107 2928.23 1190)">620.omnetpp_s-141B</text></g><g><text font-family="Arial,Arial_MSFontService,sans-serif" font-weight="400" font-size="46" transform="matrix(0.707107 -0.707107 0.707107 0.707107 3000.83 1190)">620.omnetpp_s-874B</text></g><g><text font-family="Arial,Arial_MSFontService,sans-serif" font-weight="400" font-size="46" transform="matrix(0.707107 -0.707107 0.707107 0.707107 3138.31 1126)">621.wrf_s-6673B</text></g><g><text font-family="Arial,Arial_MSFontService,sans-serif" font-weight="400" font-size="46" transform="matrix(0.707107 -0.707107 0.707107 0.707107 3210.91 1126)">621.wrf_s-8065B</text></g><g><text font-family="Arial,Arial_MSFontService,sans-serif" font-weight="400" font-size="46" transform="matrix(0.707107 -0.707107 0.707107 0.707107 3207.87 1201)">623.xalancbmk_s-10B</text></g><g><text font-family="Arial,Arial_MSFontService,sans-serif" font-weight="400" font-size="46" transform="matrix(0.707107 -0.707107 0.707107 0.707107 3262.45 1219)">623.xalancbmk_s-165B</text></g><g><text font-family="Arial,Arial_MSFontService,sans-serif" font-weight="400" font-size="46" transform="matrix(0.707107 -0.707107 0.707107 0.707107 3335.05 1219)">623.xalancbmk_s-202B</text></g><g><text font-family="Arial,Arial_MSFontService,sans-serif" font-weight="400" font-size="46" transform="matrix(0.707107 -0.707107 0.707107 0.707107 3508.47 1118)">628.pop2_s-17B</text></g><g><text font-family="Arial,Arial_MSFontService,sans-serif" font-weight="400" font-size="46" transform="matrix(0.707107 -0.707107 0.707107 0.707107 3548.66 1151)">641.leela_s-1083B</text></g><g><text font-family="Arial,Arial_MSFontService,sans-serif" font-weight="400" font-size="46" transform="matrix(0.707107 -0.707107 0.707107 0.707107 3540.18 1232)">649.fotonik3d_s-10881B</text></g><g><text font-family="Arial,Arial_MSFontService,sans-serif" font-weight="400" font-size="46" transform="matrix(0.707107 -0.707107 0.707107 0.707107 3630.8 1214)">649.fotonik3d_s-1176B</text></g><g><text font-family="Arial,Arial_MSFontService,sans-serif" font-weight="400" font-size="46" transform="matrix(0.707107 -0.707107 0.707107 0.707107 3703.4 1214)">649.fotonik3d_s-7084B</text></g><g><text font-family="Arial,Arial_MSFontService,sans-serif" font-weight="400" font-size="46" transform="matrix(0.707107 -0.707107 0.707107 0.707107 3776 1214)">649.fotonik3d_s-8225B</text></g><g><text font-family="Arial,Arial_MSFontService,sans-serif" font-weight="400" font-size="46" transform="matrix(0.707107 -0.707107 0.707107 0.707107 3908.1 1154)">654.roms_s-1007B</text></g><g><text font-family="Arial,Arial_MSFontService,sans-serif" font-weight="400" font-size="46" transform="matrix(0.707107 -0.707107 0.707107 0.707107 3980.7 1154)">654.roms_s-1070B</text></g><g><text font-family="Arial,Arial_MSFontService,sans-serif" font-weight="400" font-size="46" transform="matrix(0.707107 -0.707107 0.707107 0.707107 4053.3 1154)">654.roms_s-1390B</text></g><g><text font-family="Arial,Arial_MSFontService,sans-serif" font-weight="400" font-size="46" transform="matrix(0.707107 -0.707107 0.707107 0.707107 4125.9 1154)">654.roms_s-1613B</text></g><g><text font-family="Arial,Arial_MSFontService,sans-serif" font-weight="400" font-size="46" transform="matrix(0.707107 -0.707107 0.707107 0.707107 4216.52 1136)">654.roms_s-293B</text></g><g><text font-family="Arial,Arial_MSFontService,sans-serif" font-weight="400" font-size="46" transform="matrix(0.707107 -0.707107 0.707107 0.707107 4289.12 1136)">654.roms_s-294B</text></g><g><text font-family="Arial,Arial_MSFontService,sans-serif" font-weight="400" font-size="46" transform="matrix(0.707107 -0.707107 0.707107 0.707107 4361.72 1136)">654.roms_s-523B</text></g><g><text font-family="Arial,Arial_MSFontService,sans-serif" font-weight="400" font-size="46" transform="matrix(0.707107 -0.707107 0.707107 0.707107 4455.9 1115)">657.xz_s-2302B</text></g><g><text font-family="Arial,Arial_MSFontService,sans-serif" font-weight="400" font-size="46" transform="matrix(0.707107 -0.707107 0.707107 0.707107 4681.64 962)">Mean</text></g><g><text font-family="Arial,Arial_MSFontService,sans-serif" font-weight="400" font-size="46" transform="matrix(6.12323e-17 -1 1 6.12323e-17 1219.06 828)">Fill latency as seen by</text></g><g><text font-family="Arial,Arial_MSFontService,sans-serif" font-weight="400" font-size="46" transform="matrix(6.12323e-17 -1 1 6.12323e-17 1272.06 785)">prefetcher (cycles)</text></g><g><rect x="2675.5" y="322.5" width="23" height="23" stroke="#000000" stroke-width="3.4375" stroke-linejoin="round" stroke-miterlimit="10" fill="#F2F2F2"/></g><g><text font-family="Arial,Arial_MSFontService,sans-serif" font-weight="400" font-size="46" transform="matrix(1 0 0 1 2708.18 349)">On-access</text></g><g><rect x="2975.5" y="322.5" width="23" height="23" stroke="#000000" stroke-width="3.4375" stroke-linejoin="round" stroke-miterlimit="10" fill="#7F7F7F"/></g><g><text font-family="Arial,Arial_MSFontService,sans-serif" font-weight="400" font-size="46" transform="matrix(1 0 0 1 3007.92 349)">On-commit</text></g><g><g clip-path="url(#clip2)"><text font-family="Arial,Arial_MSFontService,sans-serif" font-weight="400" font-size="50" transform="matrix(1 0 0 1 2246.73 344)">834</text></g></g><g><path d="M2295 353 2295 383.107" stroke="#000000" stroke-width="2.29167" stroke-miterlimit="8" fill="none" fill-rule="evenodd"/></g></g></svg>