<svg width="1691" height="911" xmlns="http://www.w3.org/2000/svg" xmlns:xlink="http://www.w3.org/1999/xlink" xml:space="preserve" overflow="hidden"><defs><clipPath id="clip0"><rect x="11" y="356" width="1691" height="911"/></clipPath></defs><g clip-path="url(#clip0)" transform="translate(-11 -356)"><rect x="11" y="356" width="1691" height="911" fill="#FFFFFF"/><g><path d="M267.5 1125.54 1572.5 1125.54M267.5 1101.54 1572.5 1101.54M267.5 1076.54 1572.5 1076.54M267.5 1052.53 1572.5 1052.53M267.5 1003.53 1572.5 1003.53M267.5 978.532 1572.5 978.532M267.5 954.531 1572.5 954.531M267.5 929.531 1572.5 929.531M267.5 881.529 1572.5 881.529M267.5 856.528 1572.5 856.528M267.5 832.527 1572.5 832.527M267.5 807.527 1572.5 807.527M267.5 758.525 1572.5 758.525M267.5 734.524 1572.5 734.524M267.5 709.523 1572.5 709.523M267.5 685.523 1572.5 685.523M267.5 636.521 1572.5 636.521M267.5 611.52 1572.5 611.52M267.5 587.519 1572.5 587.519M267.5 562.519 1572.5 562.519M267.5 513.517 1572.5 513.517M267.5 489.516 1572.5 489.516M267.5 464.515 1572.5 464.515M267.5 440.515 1572.5 440.515" stroke="#F2F2F2" stroke-width="3.4375" stroke-linejoin="round" stroke-miterlimit="10" fill="none"/></g><g><path d="M267.5 1027.53 1572.5 1027.53M267.5 905.53 1572.5 905.53M267.5 783.526 1572.5 783.526M267.5 660.522 1572.5 660.522M267.5 538.518 1572.5 538.518M267.5 415.5 1572.5 415.5" stroke="#BFBFBF" stroke-width="3.4375" stroke-linejoin="round" stroke-miterlimit="10" fill="none"/></g><g><rect x="267.5" y="415.5" width="1305" height="735" stroke="#000000" stroke-width="3.4375" stroke-linejoin="round" stroke-miterlimit="10" fill="none"/></g><g><path d="M310.51 1027.53 397.513 1027.53 397.513 1150.5 310.51 1150.5ZM571.519 726.524 658.522 726.524 658.522 1150.5 571.519 1150.5ZM832.527 657.522 919.53 657.522 919.53 1150.5 832.527 1150.5ZM1093.54 617.52 1180.54 617.52 1180.54 1150.5 1093.54 1150.5ZM1354.54 585.519 1441.55 585.519 1441.55 1150.5 1354.54 1150.5Z" stroke="#000000" stroke-width="3.4375" stroke-linejoin="round" stroke-miterlimit="10" fill="#F2F2F2"/></g><g><path d="M397.513 1025.53 484.516 1025.53 484.516 1150.5 397.513 1150.5ZM658.522 687.523 745.525 687.523 745.525 1150.5 658.522 1150.5ZM919.53 607.52 1006.53 607.52 1006.53 1150.5 919.53 1150.5ZM1180.54 586.519 1267.54 586.519 1267.54 1150.5 1180.54 1150.5ZM1441.55 497.516 1528.55 497.516 1528.55 1150.5 1441.55 1150.5Z" stroke="#000000" stroke-width="3.4375" stroke-linejoin="round" stroke-miterlimit="10" fill="#7F7F7F"/></g><g><path d="M0 0 0.000360892 734" stroke="#000000" stroke-width="2.29167" stroke-linejoin="round" stroke-miterlimit="10" fill="none" fill-rule="evenodd" transform="matrix(1 0 0 -1 267 1150)"/></g><g><path d="M253 1150 267 1150M253 1028.03 267 1028.03M253 905.03 267 905.03M253 783.026 267 783.026M253 661.022 267 661.022M253 538.018 267 538.018M253 416 267 416" stroke="#000000" stroke-width="2.29167" stroke-linejoin="round" stroke-miterlimit="10" fill="none"/></g><g><path d="M267.5 1150.5 1572.5 1150.5" stroke="#000000" stroke-width="3.4375" stroke-linejoin="round" stroke-miterlimit="10" fill="none" fill-rule="evenodd"/></g><g><g><text font-family="Arial,Arial_MSFontService,sans-serif" font-weight="400" font-size="46" transform="matrix(1 0 0 1 296.918 997)">1.00</text></g></g><g><g><text font-family="Arial,Arial_MSFontService,sans-serif" font-weight="400" font-size="46" transform="matrix(1 0 0 1 557.942 696)">1.25</text></g></g><g><g><text font-family="Arial,Arial_MSFontService,sans-serif" font-weight="400" font-size="46" transform="matrix(1 0 0 1 818.965 627)">1.30</text></g></g><g><g><text font-family="Arial,Arial_MSFontService,sans-serif" font-weight="400" font-size="46" transform="matrix(1 0 0 1 1079.99 587)">1.33</text></g></g><g><g><text font-family="Arial,Arial_MSFontService,sans-serif" font-weight="400" font-size="46" transform="matrix(1 0 0 1 1341.01 555)">1.36</text></g></g><g><text font-family="Arial,Arial_MSFontService,sans-serif" font-weight="400" font-size="46" transform="matrix(1 0 0 1 396.539 995)">1.00</text></g><g><text font-family="Arial,Arial_MSFontService,sans-serif" font-weight="400" font-size="46" transform="matrix(1 0 0 1 657.563 657)">1.28</text></g><g><text font-family="Arial,Arial_MSFontService,sans-serif" font-weight="400" font-size="46" transform="matrix(1 0 0 1 918.587 578)">1.34</text></g><g><text font-family="Arial,Arial_MSFontService,sans-serif" font-weight="400" font-size="46" transform="matrix(1 0 0 1 1179.61 557)">1.36</text></g><g><text font-family="Arial,Arial_MSFontService,sans-serif" font-weight="400" font-size="46" transform="matrix(1 0 0 1 1440.63 468)">1.43</text></g><g><text font-family="Arial,Arial_MSFontService,sans-serif" font-weight="400" font-size="46" transform="matrix(1 0 0 1 163.968 1165)">0.9</text></g><g><text font-family="Arial,Arial_MSFontService,sans-serif" font-weight="400" font-size="46" transform="matrix(1 0 0 1 202.193 1043)">1</text></g><g><text font-family="Arial,Arial_MSFontService,sans-serif" font-weight="400" font-size="46" transform="matrix(1 0 0 1 163.968 921)">1.1</text></g><g><text font-family="Arial,Arial_MSFontService,sans-serif" font-weight="400" font-size="46" transform="matrix(1 0 0 1 163.968 798)">1.2</text></g><g><text font-family="Arial,Arial_MSFontService,sans-serif" font-weight="400" font-size="46" transform="matrix(1 0 0 1 163.968 676)">1.3</text></g><g><text font-family="Arial,Arial_MSFontService,sans-serif" font-weight="400" font-size="46" transform="matrix(1 0 0 1 163.968 553)">1.4</text></g><g><text font-family="Arial,Arial_MSFontService,sans-serif" font-weight="400" font-size="46" transform="matrix(1 0 0 1 163.968 431)">1.5</text></g><g><text font-family="Arial,Arial_MSFontService,sans-serif" font-weight="400" font-size="46" transform="matrix(1 0 0 1 319.944 1220)">No Pref</text></g><g><text font-family="Arial,Arial_MSFontService,sans-serif" font-weight="400" font-size="46" transform="matrix(1 0 0 1 570.77 1220)">IP Stride</text></g><g><text font-family="Arial,Arial_MSFontService,sans-serif" font-weight="400" font-size="46" transform="matrix(1 0 0 1 866.191 1220)">IPCP</text></g><g><text font-family="Arial,Arial_MSFontService,sans-serif" font-weight="400" font-size="46" transform="matrix(1 0 0 1 1110.67 1220)">Berti-S</text></g><g><text font-family="Arial,Arial_MSFontService,sans-serif" font-weight="400" font-size="46" transform="matrix(1 0 0 1 1355.15 1220)">Berti-SH</text></g><g><text font-family="Arial,Arial_MSFontService,sans-serif" font-weight="400" font-size="46" transform="matrix(6.12323e-17 -1 1 6.12323e-17 113.257 844)">Speedup </text></g><g><rect x="324.5" y="469.5" width="23" height="23" stroke="#000000" stroke-width="3.4375" stroke-linejoin="round" stroke-miterlimit="10" fill="#F2F2F2"/></g><g><text font-family="Arial,Arial_MSFontService,sans-serif" font-weight="400" font-size="46" transform="matrix(1 0 0 1 357.645 496)">Filter OFF</text></g><g><rect x="614.5" y="469.5" width="23.0001" height="23" stroke="#000000" stroke-width="3.4375" stroke-linejoin="round" stroke-miterlimit="10" fill="#7F7F7F"/></g><g><text font-family="Arial,Arial_MSFontService,sans-serif" font-weight="400" font-size="46" transform="matrix(1 0 0 1 647.482 496)">Filter ON</text></g><g><path d="M0 0 1304.75 3.47034" stroke="#FF0000" stroke-width="4.58333" stroke-miterlimit="8" fill="none" fill-rule="evenodd" transform="matrix(1 0 0 -1 268.5 1027.97)"/></g></g></svg>