<svg width="3809" height="1115" xmlns="http://www.w3.org/2000/svg" xmlns:xlink="http://www.w3.org/1999/xlink" xml:space="preserve" overflow="hidden"><defs><clipPath id="clip0"><rect x="1563" y="162" width="3809" height="1115"/></clipPath><clipPath id="clip1"><rect x="1963" y="265" width="3365" height="540"/></clipPath><clipPath id="clip2"><rect x="1963" y="265" width="3365" height="540"/></clipPath><clipPath id="clip3"><rect x="1963" y="265" width="3365" height="540"/></clipPath></defs><g clip-path="url(#clip0)" transform="translate(-1563 -162)"><rect x="1563" y="162" width="3809" height="1115" fill="#FFFFFF"/><g><path d="M1963.5 789.526 5325.5 789.526M1963.5 777.526 5325.5 777.526M1963.5 765.525 5325.5 765.525M1963.5 753.525 5325.5 753.525M1963.5 740.524 5325.5 740.524M1963.5 728.524 5325.5 728.524M1963.5 716.524 5325.5 716.524M1963.5 692.523 5325.5 692.523M1963.5 679.522 5325.5 679.522M1963.5 667.522 5325.5 667.522M1963.5 655.522 5325.5 655.522M1963.5 643.521 5325.5 643.521M1963.5 631.521 5325.5 631.521M1963.5 618.521 5325.5 618.521M1963.5 594.52 5325.5 594.52M1963.5 582.519 5325.5 582.519M1963.5 570.519 5325.5 570.519M1963.5 557.518 5325.5 557.518M1963.5 545.518 5325.5 545.518M1963.5 533.518 5325.5 533.518M1963.5 521.517 5325.5 521.517M1963.5 496.516 5325.5 496.516M1963.5 484.516 5325.5 484.516M1963.5 472.516 5325.5 472.516M1963.5 460.515 5325.5 460.515M1963.5 448.515 5325.5 448.515M1963.5 435.514 5325.5 435.514M1963.5 423.514 5325.5 423.514M1963.5 399.513 5325.5 399.513M1963.5 387.513 5325.5 387.513M1963.5 374.512 5325.5 374.512M1963.5 362.512 5325.5 362.512M1963.5 350.512 5325.5 350.512M1963.5 338.511 5325.5 338.511M1963.5 326.511 5325.5 326.511M1963.5 301.51 5325.5 301.51M1963.5 289.51 5325.5 289.51M1963.5 277.509 5325.5 277.509M1963.5 265.5 5325.5 265.5" stroke="#F2F2F2" stroke-width="3.4375" stroke-linejoin="round" stroke-miterlimit="10" fill="none"/></g><g><path d="M1963.5 704.523 5325.5 704.523M1963.5 606.52 5325.5 606.52M1963.5 509.517 5325.5 509.517M1963.5 411.514 5325.5 411.514M1963.5 313.5 5325.5 313.5" stroke="#D9D9D9" stroke-width="3.4375" stroke-linejoin="round" stroke-miterlimit="10" fill="none"/></g><g><rect x="1963.5" y="265.5" width="3362" height="536" stroke="#000000" stroke-width="3.4375" stroke-linejoin="round" stroke-miterlimit="10" fill="none"/></g><g clip-path="url(#clip1)"><path d="M1972.56 752.525 1990.57 752.525 1990.57 801.5 1972.56 801.5ZM2045.57 483.516 2063.57 483.516 2063.57 801.5 2045.57 801.5ZM2118.57-580.5 2136.57-580.5 2136.57 801.5 2118.57 801.5ZM2191.57 649.521 2209.57 649.521 2209.57 801.5 2191.57 801.5ZM2264.57 303.51 2282.58 303.51 2282.58 801.5 2264.57 801.5ZM2337.58 302.51 2355.58 302.51 2355.58 801.5 2337.58 801.5ZM2410.58 670.522 2428.58 670.522 2428.58 801.5 2410.58 801.5ZM2483.58 569.519 2502.58 569.519 2502.58 801.5 2483.58 801.5ZM2556.58 706.523 2575.58 706.523 2575.58 801.5 2556.58 801.5ZM2630.59 756.525 2648.59 756.525 2648.59 801.5 2630.59 801.5ZM2703.59 742.525 2721.59 742.525 2721.59 801.5 2703.59 801.5ZM2776.59 763.525 2794.59 763.525 2794.59 801.5 2776.59 801.5ZM2849.59 630.521 2867.59 630.521 2867.59 801.5 2849.59 801.5ZM2922.6 657.522 2940.6 657.522 2940.6 801.5 2922.6 801.5ZM2995.6 726.524 3013.6 726.524 3013.6 801.5 2995.6 801.5ZM3068.6 679.522 3086.6 679.522 3086.6 801.5 3068.6 801.5ZM3141.6 748.525 3159.6 748.525 3159.6 801.5 3141.6 801.5ZM3214.61 751.525 3232.61 751.525 3232.61 801.5 3214.61 801.5ZM3287.61 754.525 3305.61 754.525 3305.61 801.5 3287.61 801.5ZM3360.61 753.525 3379.61 753.525 3379.61 801.5 3360.61 801.5ZM3433.61 753.525 3452.61 753.525 3452.61 801.5 3433.61 801.5ZM3506.62 753.525 3525.62 753.525 3525.62 801.5 3506.62 801.5ZM3580.62 752.525 3598.62 752.525 3598.62 801.5 3580.62 801.5ZM3653.62 753.525 3671.62 753.525 3671.62 801.5 3653.62 801.5ZM3726.62 753.525 3744.62 753.525 3744.62 801.5 3726.62 801.5ZM3799.62 753.525 3817.63 753.525 3817.63 801.5 3799.62 801.5ZM3872.63 696.523 3890.63 696.523 3890.63 801.5 3872.63 801.5ZM3945.63 715.524 3963.63 715.524 3963.63 801.5 3945.63 801.5ZM4018.63 760.525 4036.63 760.525 4036.63 801.5 4018.63 801.5ZM4091.63 686.523 4109.63 686.523 4109.63 801.5 4091.63 801.5ZM4164.64 429.514 4182.64 429.514 4182.64 801.5 4164.64 801.5ZM4237.64 740.524 4255.64 740.524 4255.64 801.5 4237.64 801.5ZM4310.64 728.524 4329.64 728.524 4329.64 801.5 4310.64 801.5ZM4383.64 704.523 4402.64 704.523 4402.64 801.5 4383.64 801.5ZM4457.65 645.521 4475.65 645.521 4475.65 801.5 4457.65 801.5ZM4530.65 565.519 4548.65 565.519 4548.65 801.5 4530.65 801.5ZM4603.65 644.521 4621.65 644.521 4621.65 801.5 4603.65 801.5ZM4676.65 718.524 4694.65 718.524 4694.65 801.5 4676.65 801.5ZM4749.66 572.519 4767.66 572.519 4767.66 801.5 4749.66 801.5ZM4822.66 561.519 4840.66 561.519 4840.66 801.5 4822.66 801.5ZM4895.66 731.524 4913.66 731.524 4913.66 801.5 4895.66 801.5ZM4968.66 668.522 4986.66 668.522 4986.66 801.5 4968.66 801.5ZM5041.67 623.521 5059.67 623.521 5059.67 801.5 5041.67 801.5ZM5114.67 552.518 5132.67 552.518 5132.67 801.5 5114.67 801.5ZM5187.67 753.525 5205.67 753.525 5205.67 801.5 5187.67 801.5ZM5260.67 671.522 5279.67 671.522 5279.67 801.5 5260.67 801.5Z" stroke="#000000" stroke-width="3.4375" stroke-linejoin="round" stroke-miterlimit="10" fill="#F2F2F2"/></g><g clip-path="url(#clip2)"><path d="M1990.57 751.525 2008.57 751.525 2008.57 801.5 1990.57 801.5ZM2063.57 484.516 2081.57 484.516 2081.57 801.5 2063.57 801.5ZM2136.57-575.5 2155.57-575.5 2155.57 801.5 2136.57 801.5ZM2209.57 646.521 2228.57 646.521 2228.57 801.5 2209.57 801.5ZM2282.58 305.51 2301.58 305.51 2301.58 801.5 2282.58 801.5ZM2356.58 304.51 2374.58 304.51 2374.58 801.5 2356.58 801.5ZM2429.58 588.519 2447.58 588.519 2447.58 801.5 2429.58 801.5ZM2502.58 568.519 2520.58 568.519 2520.58 801.5 2502.58 801.5ZM2575.58 707.523 2593.59 707.523 2593.59 801.5 2575.58 801.5ZM2648.59 769.525 2666.59 769.525 2666.59 801.5 2648.59 801.5ZM2721.59 736.524 2739.59 736.524 2739.59 801.5 2721.59 801.5ZM2794.59 750.525 2812.59 750.525 2812.59 801.5 2794.59 801.5ZM2867.59 615.52 2885.59 615.52 2885.59 801.5 2867.59 801.5ZM2940.6 650.522 2958.6 650.522 2958.6 801.5 2940.6 801.5ZM3013.6 726.524 3031.6 726.524 3031.6 801.5 3013.6 801.5ZM3086.6 681.523 3105.6 681.523 3105.6 801.5 3086.6 801.5ZM3159.6 748.525 3178.6 748.525 3178.6 801.5 3159.6 801.5ZM3233.61 752.525 3251.61 752.525 3251.61 801.5 3233.61 801.5ZM3306.61 752.525 3324.61 752.525 3324.61 801.5 3306.61 801.5ZM3379.61 752.525 3397.61 752.525 3397.61 801.5 3379.61 801.5ZM3452.61 717.524 3470.61 717.524 3470.61 801.5 3452.61 801.5ZM3525.62 747.525 3543.62 747.525 3543.62 801.5 3525.62 801.5ZM3598.62 739.524 3616.62 739.524 3616.62 801.5 3598.62 801.5ZM3671.62 747.525 3689.62 747.525 3689.62 801.5 3671.62 801.5ZM3744.62 753.525 3762.62 753.525 3762.62 801.5 3744.62 801.5ZM3817.63 753.525 3835.63 753.525 3835.63 801.5 3817.63 801.5ZM3890.63 686.523 3908.63 686.523 3908.63 801.5 3890.63 801.5ZM3963.63 710.523 3982.63 710.523 3982.63 801.5 3963.63 801.5ZM4036.63 747.525 4055.63 747.525 4055.63 801.5 4036.63 801.5ZM4109.63 686.523 4128.64 686.523 4128.64 801.5 4109.63 801.5ZM4183.64 429.514 4201.64 429.514 4201.64 801.5 4183.64 801.5ZM4256.64 739.524 4274.64 739.524 4274.64 801.5 4256.64 801.5ZM4329.64 726.524 4347.64 726.524 4347.64 801.5 4329.64 801.5ZM4402.64 679.523 4420.65 679.523 4420.65 801.5 4402.64 801.5ZM4475.65 647.521 4493.65 647.521 4493.65 801.5 4475.65 801.5ZM4548.65 563.519 4566.65 563.519 4566.65 801.5 4548.65 801.5ZM4621.65 647.521 4639.65 647.521 4639.65 801.5 4621.65 801.5ZM4694.65 712.523 4712.65 712.523 4712.65 801.5 4694.65 801.5ZM4767.66 558.518 4785.66 558.518 4785.66 801.5 4767.66 801.5ZM4840.66 529.518 4858.66 529.518 4858.66 801.5 4840.66 801.5ZM4913.66 729.524 4932.66 729.524 4932.66 801.5 4913.66 801.5ZM4986.66 667.522 5005.66 667.522 5005.66 801.5 4986.66 801.5ZM5060.67 622.521 5078.67 622.521 5078.67 801.5 5060.67 801.5ZM5133.67 544.518 5151.67 544.518 5151.67 801.5 5133.67 801.5ZM5206.67 752.525 5224.67 752.525 5224.67 801.5 5206.67 801.5ZM5279.67 664.522 5297.67 664.522 5297.67 801.5 5279.67 801.5Z" stroke="#000000" stroke-width="3.4375" stroke-linejoin="round" stroke-miterlimit="10" fill="#7F7F7F"/></g><g clip-path="url(#clip3)"><path d="M2009.57 751.525 2027.57 751.525 2027.57 801.5 2009.57 801.5ZM2082.57 474.516 2100.57 474.516 2100.57 801.5 2082.57 801.5ZM2155.57-815.5 2173.57-815.5 2173.57 801.5 2155.57 801.5ZM2228.57 644.521 2246.57 644.521 2246.57 801.5 2228.57 801.5ZM2301.58 299.51 2319.58 299.51 2319.58 801.5 2301.58 801.5ZM2374.58 298.51 2392.58 298.51 2392.58 801.5 2374.58 801.5ZM2447.58 582.519 2465.58 582.519 2465.58 801.5 2447.58 801.5ZM2520.58 567.519 2538.58 567.519 2538.58 801.5 2520.58 801.5ZM2593.59 691.523 2611.59 691.523 2611.59 801.5 2593.59 801.5ZM2666.59 767.525 2684.59 767.525 2684.59 801.5 2666.59 801.5ZM2739.59 550.518 2758.59 550.518 2758.59 801.5 2739.59 801.5ZM2812.59 747.525 2831.59 747.525 2831.59 801.5 2812.59 801.5ZM2885.59 506.517 2904.6 506.517 2904.6 801.5 2885.59 801.5ZM2959.6 601.52 2977.6 601.52 2977.6 801.5 2959.6 801.5ZM3032.6 723.524 3050.6 723.524 3050.6 801.5 3032.6 801.5ZM3105.6 646.521 3123.6 646.521 3123.6 801.5 3105.6 801.5ZM3178.6 748.525 3196.6 748.525 3196.6 801.5 3178.6 801.5ZM3251.61 753.525 3269.61 753.525 3269.61 801.5 3251.61 801.5ZM3324.61 752.525 3342.61 752.525 3342.61 801.5 3324.61 801.5ZM3397.61 748.525 3415.61 748.525 3415.61 801.5 3397.61 801.5ZM3470.61 700.523 3488.61 700.523 3488.61 801.5 3470.61 801.5ZM3543.62 718.524 3561.62 718.524 3561.62 801.5 3543.62 801.5ZM3616.62 714.524 3634.62 714.524 3634.62 801.5 3616.62 801.5ZM3689.62 719.524 3708.62 719.524 3708.62 801.5 3689.62 801.5ZM3762.62 753.525 3781.62 753.525 3781.62 801.5 3762.62 801.5ZM3836.63 753.525 3854.63 753.525 3854.63 801.5 3836.63 801.5ZM3909.63 670.522 3927.63 670.522 3927.63 801.5 3909.63 801.5ZM3982.63 705.523 4000.63 705.523 4000.63 801.5 3982.63 801.5ZM4055.63 744.525 4073.63 744.525 4073.63 801.5 4055.63 801.5ZM4128.64 685.523 4146.64 685.523 4146.64 801.5 4128.64 801.5ZM4201.64 425.514 4219.64 425.514 4219.64 801.5 4201.64 801.5ZM4274.64 739.524 4292.64 739.524 4292.64 801.5 4274.64 801.5ZM4347.64 726.524 4365.64 726.524 4365.64 801.5 4347.64 801.5ZM4420.65 671.522 4438.65 671.522 4438.65 801.5 4420.65 801.5ZM4493.65 644.521 4511.65 644.521 4511.65 801.5 4493.65 801.5ZM4566.65 555.518 4584.65 555.518 4584.65 801.5 4566.65 801.5ZM4639.65 643.521 4658.65 643.521 4658.65 801.5 4639.65 801.5ZM4712.65 702.523 4731.66 702.523 4731.66 801.5 4712.65 801.5ZM4786.66 513.517 4804.66 513.517 4804.66 801.5 4786.66 801.5ZM4859.66 446.515 4877.66 446.515 4877.66 801.5 4859.66 801.5ZM4932.66 727.524 4950.66 727.524 4950.66 801.5 4932.66 801.5ZM5005.66 664.522 5023.67 664.522 5023.67 801.5 5005.66 801.5ZM5078.67 618.521 5096.67 618.521 5096.67 801.5 5078.67 801.5ZM5151.67 485.516 5169.67 485.516 5169.67 801.5 5151.67 801.5ZM5224.67 752.525 5242.67 752.525 5242.67 801.5 5224.67 801.5ZM5297.67 647.521 5315.67 647.521 5315.67 801.5 5297.67 801.5Z" stroke="#000000" stroke-width="3.4375" stroke-linejoin="round" stroke-miterlimit="10" fill="#AFABAB"/></g><g><path d="M0 0 0.000360892 536" stroke="#000000" stroke-width="3.4375" stroke-linejoin="round" stroke-miterlimit="10" fill="none" fill-rule="evenodd" transform="matrix(1 0 0 -1 1963.5 801.5)"/></g><g><path d="M1949.5 801.5 1963.5 801.5M1949.5 704.523 1963.5 704.523M1949.5 606.52 1963.5 606.52M1949.5 509.517 1963.5 509.517M1949.5 411.514 1963.5 411.514M1949.5 313.5 1963.5 313.5" stroke="#000000" stroke-width="3.4375" stroke-linejoin="round" stroke-miterlimit="10" fill="none"/></g><g><path d="M1963.5 801.5 5325.5 801.5" stroke="#000000" stroke-width="3.4375" stroke-linejoin="round" stroke-miterlimit="10" fill="none" fill-rule="evenodd"/></g><g><text font-family="Arial,Arial_MSFontService,sans-serif" font-weight="400" font-size="46" transform="matrix(1 0 0 1 1860.14 817)">0.8</text></g><g><text font-family="Arial,Arial_MSFontService,sans-serif" font-weight="400" font-size="46" transform="matrix(1 0 0 1 1860.14 719)">1.2</text></g><g><text font-family="Arial,Arial_MSFontService,sans-serif" font-weight="400" font-size="46" transform="matrix(1 0 0 1 1860.14 622)">1.6</text></g><g><text font-family="Arial,Arial_MSFontService,sans-serif" font-weight="400" font-size="46" transform="matrix(1 0 0 1 1898.36 524)">2</text></g><g><text font-family="Arial,Arial_MSFontService,sans-serif" font-weight="400" font-size="46" transform="matrix(1 0 0 1 1860.14 427)">2.4</text></g><g><text font-family="Arial,Arial_MSFontService,sans-serif" font-weight="400" font-size="46" transform="matrix(1 0 0 1 1860.14 329)">2.8</text></g><g><text font-family="Arial,Arial_MSFontService,sans-serif" font-weight="400" font-size="46" transform="matrix(0.707107 -0.707107 0.707107 0.707107 1685.35 1185)">600.perlbench_s-570B</text></g><g><text font-family="Arial,Arial_MSFontService,sans-serif" font-weight="400" font-size="46" transform="matrix(0.707107 -0.707107 0.707107 0.707107 1832.3 1112)">602.gcc_s-1850B</text></g><g><text font-family="Arial,Arial_MSFontService,sans-serif" font-weight="400" font-size="46" transform="matrix(0.707107 -0.707107 0.707107 0.707107 1905.38 1112)">602.gcc_s-2226B</text></g><g><text font-family="Arial,Arial_MSFontService,sans-serif" font-weight="400" font-size="46" transform="matrix(0.707107 -0.707107 0.707107 0.707107 1996.48 1094)">602.gcc_s-734B</text></g><g><text font-family="Arial,Arial_MSFontService,sans-serif" font-weight="400" font-size="46" transform="matrix(0.707107 -0.707107 0.707107 0.707107 1992.1 1171)">603.bwaves_s-1740B</text></g><g><text font-family="Arial,Arial_MSFontService,sans-serif" font-weight="400" font-size="46" transform="matrix(0.707107 -0.707107 0.707107 0.707107 2065.19 1171)">603.bwaves_s-2609B</text></g><g><text font-family="Arial,Arial_MSFontService,sans-serif" font-weight="400" font-size="46" transform="matrix(0.707107 -0.707107 0.707107 0.707107 2138.27 1171)">603.bwaves_s-2931B</text></g><g><text font-family="Arial,Arial_MSFontService,sans-serif" font-weight="400" font-size="46" transform="matrix(0.707107 -0.707107 0.707107 0.707107 2229.37 1153)">603.bwaves_s-891B</text></g><g><text font-family="Arial,Arial_MSFontService,sans-serif" font-weight="400" font-size="46" transform="matrix(0.707107 -0.707107 0.707107 0.707107 2342.09 1113)">605.mcf_s-1152B</text></g><g><text font-family="Arial,Arial_MSFontService,sans-serif" font-weight="400" font-size="46" transform="matrix(0.707107 -0.707107 0.707107 0.707107 2415.17 1113)">605.mcf_s-1536B</text></g><g><text font-family="Arial,Arial_MSFontService,sans-serif" font-weight="400" font-size="46" transform="matrix(0.707107 -0.707107 0.707107 0.707107 2488.25 1113)">605.mcf_s-1554B</text></g><g><text font-family="Arial,Arial_MSFontService,sans-serif" font-weight="400" font-size="46" transform="matrix(0.707107 -0.707107 0.707107 0.707107 2561.33 1113)">605.mcf_s-1644B</text></g><g><text font-family="Arial,Arial_MSFontService,sans-serif" font-weight="400" font-size="46" transform="matrix(0.707107 -0.707107 0.707107 0.707107 2652.43 1095)">605.mcf_s-472B</text></g><g><text font-family="Arial,Arial_MSFontService,sans-serif" font-weight="400" font-size="46" transform="matrix(0.707107 -0.707107 0.707107 0.707107 2725.52 1095)">605.mcf_s-484B</text></g><g><text font-family="Arial,Arial_MSFontService,sans-serif" font-weight="400" font-size="46" transform="matrix(0.707107 -0.707107 0.707107 0.707107 2798.6 1095)">605.mcf_s-665B</text></g><g><text font-family="Arial,Arial_MSFontService,sans-serif" font-weight="400" font-size="46" transform="matrix(0.707107 -0.707107 0.707107 0.707107 2871.68 1095)">605.mcf_s-782B</text></g><g><text font-family="Arial,Arial_MSFontService,sans-serif" font-weight="400" font-size="46" transform="matrix(0.707107 -0.707107 0.707107 0.707107 2944.76 1095)">605.mcf_s-994B</text></g><g><text font-family="Arial,Arial_MSFontService,sans-serif" font-weight="400" font-size="46" transform="matrix(0.707107 -0.707107 0.707107 0.707107 2886.33 1227)">607.cactuBSSN_s-2421B</text></g><g><text font-family="Arial,Arial_MSFontService,sans-serif" font-weight="400" font-size="46" transform="matrix(0.707107 -0.707107 0.707107 0.707107 2959.41 1227)">607.cactuBSSN_s-3477B</text></g><g><text font-family="Arial,Arial_MSFontService,sans-serif" font-weight="400" font-size="46" transform="matrix(0.707107 -0.707107 0.707107 0.707107 3032.49 1227)">607.cactuBSSN_s-4004B</text></g><g><text font-family="Arial,Arial_MSFontService,sans-serif" font-weight="400" font-size="46" transform="matrix(0.707107 -0.707107 0.707107 0.707107 3219.07 1113)">619.lbm_s-2676B</text></g><g><text font-family="Arial,Arial_MSFontService,sans-serif" font-weight="400" font-size="46" transform="matrix(0.707107 -0.707107 0.707107 0.707107 3292.15 1113)">619.lbm_s-2677B</text></g><g><text font-family="Arial,Arial_MSFontService,sans-serif" font-weight="400" font-size="46" transform="matrix(0.707107 -0.707107 0.707107 0.707107 3365.23 1113)">619.lbm_s-3766B</text></g><g><text font-family="Arial,Arial_MSFontService,sans-serif" font-weight="400" font-size="46" transform="matrix(0.707107 -0.707107 0.707107 0.707107 3438.31 1113)">619.lbm_s-4268B</text></g><g><text font-family="Arial,Arial_MSFontService,sans-serif" font-weight="400" font-size="46" transform="matrix(0.707107 -0.707107 0.707107 0.707107 3455.52 1169)">620.omnetpp_s-141B</text></g><g><text font-family="Arial,Arial_MSFontService,sans-serif" font-weight="400" font-size="46" transform="matrix(0.707107 -0.707107 0.707107 0.707107 3528.6 1169)">620.omnetpp_s-874B</text></g><g><text font-family="Arial,Arial_MSFontService,sans-serif" font-weight="400" font-size="46" transform="matrix(0.707107 -0.707107 0.707107 0.707107 3666.57 1104)">621.wrf_s-6673B</text></g><g><text font-family="Arial,Arial_MSFontService,sans-serif" font-weight="400" font-size="46" transform="matrix(0.707107 -0.707107 0.707107 0.707107 3739.65 1104)">621.wrf_s-8065B</text></g><g><text font-family="Arial,Arial_MSFontService,sans-serif" font-weight="400" font-size="46" transform="matrix(0.707107 -0.707107 0.707107 0.707107 3737.09 1180)">623.xalancbmk_s-10B</text></g><g><text font-family="Arial,Arial_MSFontService,sans-serif" font-weight="400" font-size="46" transform="matrix(0.707107 -0.707107 0.707107 0.707107 3792.15 1198)">623.xalancbmk_s-165B</text></g><g><text font-family="Arial,Arial_MSFontService,sans-serif" font-weight="400" font-size="46" transform="matrix(0.707107 -0.707107 0.707107 0.707107 3865.23 1198)">623.xalancbmk_s-202B</text></g><g><text font-family="Arial,Arial_MSFontService,sans-serif" font-weight="400" font-size="46" transform="matrix(0.707107 -0.707107 0.707107 0.707107 4039.14 1097)">628.pop2_s-17B</text></g><g><text font-family="Arial,Arial_MSFontService,sans-serif" font-weight="400" font-size="46" transform="matrix(0.707107 -0.707107 0.707107 0.707107 4079.81 1130)">641.leela_s-1083B</text></g><g><text font-family="Arial,Arial_MSFontService,sans-serif" font-weight="400" font-size="46" transform="matrix(0.707107 -0.707107 0.707107 0.707107 4071.81 1211)">649.fotonik3d_s-10881B</text></g><g><text font-family="Arial,Arial_MSFontService,sans-serif" font-weight="400" font-size="46" transform="matrix(0.707107 -0.707107 0.707107 0.707107 4162.91 1193)">649.fotonik3d_s-1176B</text></g><g><text font-family="Arial,Arial_MSFontService,sans-serif" font-weight="400" font-size="46" transform="matrix(0.707107 -0.707107 0.707107 0.707107 4235.99 1193)">649.fotonik3d_s-7084B</text></g><g><text font-family="Arial,Arial_MSFontService,sans-serif" font-weight="400" font-size="46" transform="matrix(0.707107 -0.707107 0.707107 0.707107 4309.07 1193)">649.fotonik3d_s-8225B</text></g><g><text font-family="Arial,Arial_MSFontService,sans-serif" font-weight="400" font-size="46" transform="matrix(0.707107 -0.707107 0.707107 0.707107 4441.66 1133)">654.roms_s-1007B</text></g><g><text font-family="Arial,Arial_MSFontService,sans-serif" font-weight="400" font-size="46" transform="matrix(0.707107 -0.707107 0.707107 0.707107 4514.74 1133)">654.roms_s-1070B</text></g><g><text font-family="Arial,Arial_MSFontService,sans-serif" font-weight="400" font-size="46" transform="matrix(0.707107 -0.707107 0.707107 0.707107 4587.82 1133)">654.roms_s-1390B</text></g><g><text font-family="Arial,Arial_MSFontService,sans-serif" font-weight="400" font-size="46" transform="matrix(0.707107 -0.707107 0.707107 0.707107 4660.9 1133)">654.roms_s-1613B</text></g><g><text font-family="Arial,Arial_MSFontService,sans-serif" font-weight="400" font-size="46" transform="matrix(0.707107 -0.707107 0.707107 0.707107 4752 1115)">654.roms_s-293B</text></g><g><text font-family="Arial,Arial_MSFontService,sans-serif" font-weight="400" font-size="46" transform="matrix(0.707107 -0.707107 0.707107 0.707107 4825.08 1115)">654.roms_s-294B</text></g><g><text font-family="Arial,Arial_MSFontService,sans-serif" font-weight="400" font-size="46" transform="matrix(0.707107 -0.707107 0.707107 0.707107 4898.17 1115)">654.roms_s-523B</text></g><g><text font-family="Arial,Arial_MSFontService,sans-serif" font-weight="400" font-size="46" transform="matrix(0.707107 -0.707107 0.707107 0.707107 4992.83 1094)">657.xz_s-2302B</text></g><g><text font-family="Arial,Arial_MSFontService,sans-serif" font-weight="400" font-size="46" transform="matrix(0.707107 -0.707107 0.707107 0.707107 5157.79 1002)">Geomean</text></g><g><text font-family="Arial,Arial_MSFontService,sans-serif" font-weight="400" font-size="46" transform="matrix(6.12323e-17 -1 1 6.12323e-17 1787.54 647)">Speedup</text></g><g><rect x="3154.5" y="204.5" width="23" height="24.0001" stroke="#000000" stroke-width="3.4375" stroke-linejoin="round" stroke-miterlimit="10" fill="#F2F2F2"/></g><g><text font-family="Arial,Arial_MSFontService,sans-serif" font-weight="400" font-size="46" transform="matrix(1 0 0 1 3187.35 232)">Berti-S</text></g><g><rect x="3409.5" y="204.5" width="22.9998" height="24.0001" stroke="#000000" stroke-width="3.4375" stroke-linejoin="round" stroke-miterlimit="10" fill="#7F7F7F"/></g><g><text font-family="Arial,Arial_MSFontService,sans-serif" font-weight="400" font-size="46" transform="matrix(1 0 0 1 3442.44 232)">Berti-SH</text></g><g><rect x="3697.5" y="204.5" width="23" height="24.0001" stroke="#000000" stroke-width="3.4375" stroke-linejoin="round" stroke-miterlimit="10" fill="#AFABAB"/></g><g><text font-family="Arial,Arial_MSFontService,sans-serif" font-weight="400" font-size="46" transform="matrix(1 0 0 1 3730.63 232)">Berti-SH + Filter</text></g><g><text font-family="Calibri,Calibri_MSFontService,sans-serif" font-weight="400" font-size="37" transform="matrix(1 0 0 1 2191.05 214)">7.4</text></g><g><path d="M0 0 49.8281 44.7478" stroke="#000000" stroke-width="2.29167" stroke-miterlimit="8" fill="none" fill-rule="evenodd" transform="matrix(-1 0 0 1 2214.83 220)"/></g><g><text font-family="Calibri,Calibri_MSFontService,sans-serif" font-weight="400" font-size="37" transform="matrix(1 0 0 1 2058.25 214)">6.4</text></g><g><path d="M2082 222 2128.55 263.481" stroke="#000000" stroke-width="2.29167" stroke-miterlimit="8" fill="none" fill-rule="evenodd"/></g><g><text font-family="Calibri,Calibri_MSFontService,sans-serif" font-weight="400" font-size="37" transform="matrix(1 0 0 1 2123.55 227)">6.4</text></g><g><path d="M0 0 0.418996 24.1747" stroke="#000000" stroke-width="2.29167" stroke-miterlimit="8" fill="none" fill-rule="evenodd" transform="matrix(-1 0 0 1 2148.42 240)"/></g><g><path d="M1964.5 752.5 5324.62 759.023" stroke="#FF0000" stroke-width="3.4375" stroke-miterlimit="8" fill="none" fill-rule="evenodd"/></g></g></svg>