<svg width="3814" height="1174" xmlns="http://www.w3.org/2000/svg" xmlns:xlink="http://www.w3.org/1999/xlink" xml:space="preserve" overflow="hidden"><defs><clipPath id="clip0"><rect x="1189" y="206" width="3814" height="1174"/></clipPath></defs><g clip-path="url(#clip0)" transform="translate(-1189 -206)"><rect x="1189" y="206" width="3814" height="1174" fill="#FFFFFF"/><g><path d="M1590.5 748.525 4956.5 748.525M1590.5 726.524 4956.5 726.524M1590.5 703.523 4956.5 703.523M1590.5 657.522 4956.5 657.522M1590.5 634.521 4956.5 634.521M1590.5 611.52 4956.5 611.52M1590.5 565.519 4956.5 565.519M1590.5 542.518 4956.5 542.518M1590.5 520.517 4956.5 520.517M1590.5 474.516 4956.5 474.516M1590.5 451.515 4956.5 451.515M1590.5 428.514 4956.5 428.514M1590.5 382.513 4956.5 382.513M1590.5 359.512 4956.5 359.512M1590.5 336.511 4956.5 336.511" stroke="#F2F2F2" stroke-width="3.4375" stroke-linejoin="round" stroke-miterlimit="10" fill="none"/></g><g><path d="M1590.5 680.522 4956.5 680.522M1590.5 588.519 4956.5 588.519M1590.5 497.516 4956.5 497.516M1590.5 405.513 4956.5 405.513M1590.5 314.5 4956.5 314.5" stroke="#D9D9D9" stroke-width="3.4375" stroke-linejoin="round" stroke-miterlimit="10" fill="none"/></g><g><rect x="1590.5" y="314.5" width="3366" height="457" stroke="#000000" stroke-width="3.4375" stroke-linejoin="round" stroke-miterlimit="10" fill="none"/></g><g><path d="M1602.55 624.521 1626.55 624.521 1626.55 771.5 1602.55 771.5ZM1675.56 601.52 1699.56 601.52 1699.56 771.5 1675.56 771.5ZM1748.56 454.515 1772.56 454.515 1772.56 771.5 1748.56 771.5ZM1821.56 519.517 1846.56 519.517 1846.56 771.5 1821.56 771.5ZM1894.56 342.511 1919.56 342.511 1919.56 771.5 1894.56 771.5ZM1968.56 341.511 1992.57 341.511 1992.57 771.5 1968.56 771.5ZM2041.57 597.52 2065.57 597.52 2065.57 771.5 2041.57 771.5ZM2114.57 593.52 2138.57 593.52 2138.57 771.5 2114.57 771.5ZM2187.57 538.518 2211.57 538.518 2211.57 771.5 2187.57 771.5ZM2260.57 701.523 2285.58 701.523 2285.58 771.5 2260.57 771.5ZM2333.58 419.514 2358.58 419.514 2358.58 771.5 2333.58 771.5ZM2407.58 585.519 2431.58 585.519 2431.58 771.5 2407.58 771.5ZM2480.58 506.517 2504.58 506.517 2504.58 771.5 2480.58 771.5ZM2553.58 511.517 2577.58 511.517 2577.58 771.5 2553.58 771.5ZM2626.59 531.518 2650.59 531.518 2650.59 771.5 2626.59 771.5ZM2699.59 510.517 2724.59 510.517 2724.59 771.5 2699.59 771.5ZM2772.59 525.517 2797.59 525.517 2797.59 771.5 2772.59 771.5ZM2846.59 639.521 2870.59 639.521 2870.59 771.5 2846.59 771.5ZM2919.6 556.518 2943.6 556.518 2943.6 771.5 2919.6 771.5ZM2992.6 556.518 3016.6 556.518 3016.6 771.5 2992.6 771.5ZM3065.6 712.524 3089.6 712.524 3089.6 771.5 3065.6 771.5ZM3138.6 693.523 3163.6 693.523 3163.6 771.5 3138.6 771.5ZM3212.61 699.523 3236.61 699.523 3236.61 771.5 3212.61 771.5ZM3285.61 696.523 3309.61 696.523 3309.61 771.5 3285.61 771.5ZM3358.61 599.52 3382.61 599.52 3382.61 771.5 3358.61 771.5ZM3431.61 598.52 3455.61 598.52 3455.61 771.5 3431.61 771.5ZM3504.62 526.517 3529.62 526.517 3529.62 771.5 3504.62 771.5ZM3577.62 524.517 3602.62 524.517 3602.62 771.5 3577.62 771.5ZM3651.62 690.523 3675.62 690.523 3675.62 771.5 3651.62 771.5ZM3724.62 596.52 3748.62 596.52 3748.62 771.5 3724.62 771.5ZM3797.62 588.519 3821.63 588.519 3821.63 771.5 3797.62 771.5ZM3870.63 604.52 3894.63 604.52 3894.63 771.5 3870.63 771.5ZM3943.63 621.521 3968.63 621.521 3968.63 771.5 3943.63 771.5ZM4016.63 453.515 4041.63 453.515 4041.63 771.5 4016.63 771.5ZM4090.63 546.518 4114.63 546.518 4114.63 771.5 4090.63 771.5ZM4163.64 471.516 4187.64 471.516 4187.64 771.5 4163.64 771.5ZM4236.64 546.518 4260.64 546.518 4260.64 771.5 4236.64 771.5ZM4309.64 616.52 4333.64 616.52 4333.64 771.5 4309.64 771.5ZM4382.64 503.517 4407.64 503.517 4407.64 771.5 4382.64 771.5ZM4455.65 498.517 4480.65 498.517 4480.65 771.5 4455.65 771.5ZM4529.65 651.522 4553.65 651.522 4553.65 771.5 4529.65 771.5ZM4602.65 506.517 4626.65 506.517 4626.65 771.5 4602.65 771.5ZM4675.65 485.516 4699.65 485.516 4699.65 771.5 4675.65 771.5ZM4748.66 502.517 4772.66 502.517 4772.66 771.5 4748.66 771.5ZM4821.66 678.522 4846.66 678.522 4846.66 771.5 4821.66 771.5ZM4894.66 561.519 4919.66 561.519 4919.66 771.5 4894.66 771.5Z" stroke="#000000" stroke-width="3.4375" stroke-linejoin="round" stroke-miterlimit="10" fill="#F2F2F2"/></g><g><path d="M1626.55 690.523 1651.55 690.523 1651.55 771.5 1626.55 771.5ZM1699.56 677.522 1724.56 677.522 1724.56 771.5 1699.56 771.5ZM1773.56 566.519 1797.56 566.519 1797.56 771.5 1773.56 771.5ZM1846.56 654.522 1870.56 654.522 1870.56 771.5 1846.56 771.5ZM1919.56 494.516 1943.56 494.516 1943.56 771.5 1919.56 771.5ZM1992.57 492.516 2016.57 492.516 2016.57 771.5 1992.57 771.5ZM2065.57 614.52 2090.57 614.52 2090.57 771.5 2065.57 771.5ZM2138.57 615.52 2163.57 615.52 2163.57 771.5 2138.57 771.5ZM2212.57 613.52 2236.57 613.52 2236.57 771.5 2212.57 771.5ZM2285.58 737.524 2309.58 737.524 2309.58 771.5 2285.58 771.5ZM2358.58 535.518 2382.58 535.518 2382.58 771.5 2358.58 771.5ZM2431.58 620.521 2455.58 620.521 2455.58 771.5 2431.58 771.5ZM2504.58 611.52 2529.58 611.52 2529.58 771.5 2504.58 771.5ZM2578.58 618.521 2602.59 618.521 2602.59 771.5 2578.58 771.5ZM2651.59 618.521 2675.59 618.521 2675.59 771.5 2651.59 771.5ZM2724.59 598.52 2748.59 598.52 2748.59 771.5 2724.59 771.5ZM2797.59 623.521 2821.59 623.521 2821.59 771.5 2797.59 771.5ZM2870.59 679.522 2895.6 679.522 2895.6 771.5 2870.59 771.5ZM2943.6 662.522 2968.6 662.522 2968.6 771.5 2943.6 771.5ZM3017.6 662.522 3041.6 662.522 3041.6 771.5 3017.6 771.5ZM3090.6 723.524 3114.6 723.524 3114.6 771.5 3090.6 771.5ZM3163.6 714.524 3187.6 714.524 3187.6 771.5 3163.6 771.5ZM3236.61 717.524 3260.61 717.524 3260.61 771.5 3236.61 771.5ZM3309.61 715.524 3334.61 715.524 3334.61 771.5 3309.61 771.5ZM3382.61 662.522 3407.61 662.522 3407.61 771.5 3382.61 771.5ZM3456.61 662.522 3480.61 662.522 3480.61 771.5 3456.61 771.5ZM3529.62 661.522 3553.62 661.522 3553.62 771.5 3529.62 771.5ZM3602.62 662.522 3626.62 662.522 3626.62 771.5 3602.62 771.5ZM3675.62 755.525 3699.62 755.525 3699.62 771.5 3675.62 771.5ZM3748.62 726.524 3773.62 726.524 3773.62 771.5 3748.62 771.5ZM3821.63 726.524 3846.63 726.524 3846.63 771.5 3821.63 771.5ZM3895.63 713.524 3919.63 713.524 3919.63 771.5 3895.63 771.5ZM3968.63 677.522 3992.63 677.522 3992.63 771.5 3968.63 771.5ZM4041.63 662.522 4065.63 662.522 4065.63 771.5 4041.63 771.5ZM4114.63 677.522 4138.64 677.522 4138.64 771.5 4114.63 771.5ZM4187.64 606.52 4212.64 606.52 4212.64 771.5 4187.64 771.5ZM4260.64 675.522 4285.64 675.522 4285.64 771.5 4260.64 771.5ZM4334.64 674.522 4358.64 674.522 4358.64 771.5 4334.64 771.5ZM4407.64 646.521 4431.65 646.521 4431.65 771.5 4407.64 771.5ZM4480.65 616.52 4504.65 616.52 4504.65 771.5 4480.65 771.5ZM4553.65 707.523 4577.65 707.523 4577.65 771.5 4553.65 771.5ZM4626.65 648.521 4651.65 648.521 4651.65 771.5 4626.65 771.5ZM4700.65 623.521 4724.66 623.521 4724.66 771.5 4700.65 771.5ZM4773.66 616.52 4797.66 616.52 4797.66 771.5 4773.66 771.5ZM4846.66 746.525 4870.66 746.525 4870.66 771.5 4846.66 771.5ZM4919.66 653.522 4943.66 653.522 4943.66 771.5 4919.66 771.5Z" stroke="#000000" stroke-width="3.4375" stroke-linejoin="round" stroke-miterlimit="10" fill="#7F7F7F"/></g><g><path d="M0 0 0.000360892 457" stroke="#000000" stroke-width="3.4375" stroke-linejoin="round" stroke-miterlimit="10" fill="none" fill-rule="evenodd" transform="matrix(1 0 0 -1 1590.5 771.5)"/></g><g><path d="M1576.5 771.5 1590.5 771.5M1576.5 680.522 1590.5 680.522M1576.5 588.519 1590.5 588.519M1576.5 497.516 1590.5 497.516M1576.5 405.513 1590.5 405.513M1576.5 314.5 1590.5 314.5" stroke="#000000" stroke-width="3.4375" stroke-linejoin="round" stroke-miterlimit="10" fill="none"/></g><g><path d="M1590.5 771.5 4956.5 771.5" stroke="#000000" stroke-width="3.4375" stroke-linejoin="round" stroke-miterlimit="10" fill="none" fill-rule="evenodd"/></g><g><text font-family="Arial,Arial_MSFontService,sans-serif" font-weight="400" font-size="46" transform="matrix(1 0 0 1 1474.22 787)">200</text></g><g><text font-family="Arial,Arial_MSFontService,sans-serif" font-weight="400" font-size="46" transform="matrix(1 0 0 1 1474.22 695)">400</text></g><g><text font-family="Arial,Arial_MSFontService,sans-serif" font-weight="400" font-size="46" transform="matrix(1 0 0 1 1474.22 604)">600</text></g><g><text font-family="Arial,Arial_MSFontService,sans-serif" font-weight="400" font-size="46" transform="matrix(1 0 0 1 1474.22 512)">800</text></g><g><text font-family="Arial,Arial_MSFontService,sans-serif" font-weight="400" font-size="46" transform="matrix(1 0 0 1 1448.73 421)">1000</text></g><g><text font-family="Arial,Arial_MSFontService,sans-serif" font-weight="400" font-size="46" transform="matrix(1 0 0 1 1448.73 329)">1200</text></g><g><text font-family="Arial,Arial_MSFontService,sans-serif" font-weight="400" font-size="46" transform="matrix(0.707107 -0.707107 0.707107 0.707107 1312.22 1155)">600.perlbench_s-570B</text></g><g><text font-family="Arial,Arial_MSFontService,sans-serif" font-weight="400" font-size="46" transform="matrix(0.707107 -0.707107 0.707107 0.707107 1459.26 1081)">602.gcc_s-1850B</text></g><g><text font-family="Arial,Arial_MSFontService,sans-serif" font-weight="400" font-size="46" transform="matrix(0.707107 -0.707107 0.707107 0.707107 1532.43 1081)">602.gcc_s-2226B</text></g><g><text font-family="Arial,Arial_MSFontService,sans-serif" font-weight="400" font-size="46" transform="matrix(0.707107 -0.707107 0.707107 0.707107 1623.62 1063)">602.gcc_s-734B</text></g><g><text font-family="Arial,Arial_MSFontService,sans-serif" font-weight="400" font-size="46" transform="matrix(0.707107 -0.707107 0.707107 0.707107 1619.34 1141)">603.bwaves_s-1740B</text></g><g><text font-family="Arial,Arial_MSFontService,sans-serif" font-weight="400" font-size="46" transform="matrix(0.707107 -0.707107 0.707107 0.707107 1692.52 1141)">603.bwaves_s-2609B</text></g><g><text font-family="Arial,Arial_MSFontService,sans-serif" font-weight="400" font-size="46" transform="matrix(0.707107 -0.707107 0.707107 0.707107 1765.69 1141)">603.bwaves_s-2931B</text></g><g><text font-family="Arial,Arial_MSFontService,sans-serif" font-weight="400" font-size="46" transform="matrix(0.707107 -0.707107 0.707107 0.707107 1856.89 1123)">603.bwaves_s-891B</text></g><g><text font-family="Arial,Arial_MSFontService,sans-serif" font-weight="400" font-size="46" transform="matrix(0.707107 -0.707107 0.707107 0.707107 1969.7 1083)">605.mcf_s-1152B</text></g><g><text font-family="Arial,Arial_MSFontService,sans-serif" font-weight="400" font-size="46" transform="matrix(0.707107 -0.707107 0.707107 0.707107 2042.87 1083)">605.mcf_s-1536B</text></g><g><text font-family="Arial,Arial_MSFontService,sans-serif" font-weight="400" font-size="46" transform="matrix(0.707107 -0.707107 0.707107 0.707107 2116.05 1083)">605.mcf_s-1554B</text></g><g><text font-family="Arial,Arial_MSFontService,sans-serif" font-weight="400" font-size="46" transform="matrix(0.707107 -0.707107 0.707107 0.707107 2189.22 1083)">605.mcf_s-1644B</text></g><g><text font-family="Arial,Arial_MSFontService,sans-serif" font-weight="400" font-size="46" transform="matrix(0.707107 -0.707107 0.707107 0.707107 2280.42 1065)">605.mcf_s-472B</text></g><g><text font-family="Arial,Arial_MSFontService,sans-serif" font-weight="400" font-size="46" transform="matrix(0.707107 -0.707107 0.707107 0.707107 2353.59 1065)">605.mcf_s-484B</text></g><g><text font-family="Arial,Arial_MSFontService,sans-serif" font-weight="400" font-size="46" transform="matrix(0.707107 -0.707107 0.707107 0.707107 2426.77 1065)">605.mcf_s-665B</text></g><g><text font-family="Arial,Arial_MSFontService,sans-serif" font-weight="400" font-size="46" transform="matrix(0.707107 -0.707107 0.707107 0.707107 2499.94 1065)">605.mcf_s-782B</text></g><g><text font-family="Arial,Arial_MSFontService,sans-serif" font-weight="400" font-size="46" transform="matrix(0.707107 -0.707107 0.707107 0.707107 2573.12 1065)">605.mcf_s-994B</text></g><g><text font-family="Arial,Arial_MSFontService,sans-serif" font-weight="400" font-size="46" transform="matrix(0.707107 -0.707107 0.707107 0.707107 2514.77 1197)">607.cactuBSSN_s-2421B</text></g><g><text font-family="Arial,Arial_MSFontService,sans-serif" font-weight="400" font-size="46" transform="matrix(0.707107 -0.707107 0.707107 0.707107 2587.95 1197)">607.cactuBSSN_s-3477B</text></g><g><text font-family="Arial,Arial_MSFontService,sans-serif" font-weight="400" font-size="46" transform="matrix(0.707107 -0.707107 0.707107 0.707107 2661.12 1197)">607.cactuBSSN_s-4004B</text></g><g><text font-family="Arial,Arial_MSFontService,sans-serif" font-weight="400" font-size="46" transform="matrix(0.707107 -0.707107 0.707107 0.707107 2847.79 1083)">619.lbm_s-2676B</text></g><g><text font-family="Arial,Arial_MSFontService,sans-serif" font-weight="400" font-size="46" transform="matrix(0.707107 -0.707107 0.707107 0.707107 2920.97 1083)">619.lbm_s-2677B</text></g><g><text font-family="Arial,Arial_MSFontService,sans-serif" font-weight="400" font-size="46" transform="matrix(0.707107 -0.707107 0.707107 0.707107 2994.14 1083)">619.lbm_s-3766B</text></g><g><text font-family="Arial,Arial_MSFontService,sans-serif" font-weight="400" font-size="46" transform="matrix(0.707107 -0.707107 0.707107 0.707107 3067.32 1083)">619.lbm_s-4268B</text></g><g><text font-family="Arial,Arial_MSFontService,sans-serif" font-weight="400" font-size="46" transform="matrix(0.707107 -0.707107 0.707107 0.707107 3084.62 1139)">620.omnetpp_s-141B</text></g><g><text font-family="Arial,Arial_MSFontService,sans-serif" font-weight="400" font-size="46" transform="matrix(0.707107 -0.707107 0.707107 0.707107 3157.8 1139)">620.omnetpp_s-874B</text></g><g><text font-family="Arial,Arial_MSFontService,sans-serif" font-weight="400" font-size="46" transform="matrix(0.707107 -0.707107 0.707107 0.707107 3295.85 1074)">621.wrf_s-6673B</text></g><g><text font-family="Arial,Arial_MSFontService,sans-serif" font-weight="400" font-size="46" transform="matrix(0.707107 -0.707107 0.707107 0.707107 3369.03 1074)">621.wrf_s-8065B</text></g><g><text font-family="Arial,Arial_MSFontService,sans-serif" font-weight="400" font-size="46" transform="matrix(0.707107 -0.707107 0.707107 0.707107 3366.56 1150)">623.xalancbmk_s-10B</text></g><g><text font-family="Arial,Arial_MSFontService,sans-serif" font-weight="400" font-size="46" transform="matrix(0.707107 -0.707107 0.707107 0.707107 3421.72 1168)">623.xalancbmk_s-165B</text></g><g><text font-family="Arial,Arial_MSFontService,sans-serif" font-weight="400" font-size="46" transform="matrix(0.707107 -0.707107 0.707107 0.707107 3494.89 1168)">623.xalancbmk_s-202B</text></g><g><text font-family="Arial,Arial_MSFontService,sans-serif" font-weight="400" font-size="46" transform="matrix(0.707107 -0.707107 0.707107 0.707107 3668.89 1067)">628.pop2_s-17B</text></g><g><text font-family="Arial,Arial_MSFontService,sans-serif" font-weight="400" font-size="46" transform="matrix(0.707107 -0.707107 0.707107 0.707107 3709.66 1099)">641.leela_s-1083B</text></g><g><text font-family="Arial,Arial_MSFontService,sans-serif" font-weight="400" font-size="46" transform="matrix(0.707107 -0.707107 0.707107 0.707107 3701.74 1181)">649.fotonik3d_s-10881B</text></g><g><text font-family="Arial,Arial_MSFontService,sans-serif" font-weight="400" font-size="46" transform="matrix(0.707107 -0.707107 0.707107 0.707107 3792.94 1163)">649.fotonik3d_s-1176B</text></g><g><text font-family="Arial,Arial_MSFontService,sans-serif" font-weight="400" font-size="46" transform="matrix(0.707107 -0.707107 0.707107 0.707107 3866.11 1163)">649.fotonik3d_s-7084B</text></g><g><text font-family="Arial,Arial_MSFontService,sans-serif" font-weight="400" font-size="46" transform="matrix(0.707107 -0.707107 0.707107 0.707107 3939.29 1163)">649.fotonik3d_s-8225B</text></g><g><text font-family="Arial,Arial_MSFontService,sans-serif" font-weight="400" font-size="46" transform="matrix(0.707107 -0.707107 0.707107 0.707107 4071.97 1103)">654.roms_s-1007B</text></g><g><text font-family="Arial,Arial_MSFontService,sans-serif" font-weight="400" font-size="46" transform="matrix(0.707107 -0.707107 0.707107 0.707107 4145.14 1103)">654.roms_s-1070B</text></g><g><text font-family="Arial,Arial_MSFontService,sans-serif" font-weight="400" font-size="46" transform="matrix(0.707107 -0.707107 0.707107 0.707107 4218.31 1103)">654.roms_s-1390B</text></g><g><text font-family="Arial,Arial_MSFontService,sans-serif" font-weight="400" font-size="46" transform="matrix(0.707107 -0.707107 0.707107 0.707107 4291.49 1103)">654.roms_s-1613B</text></g><g><text font-family="Arial,Arial_MSFontService,sans-serif" font-weight="400" font-size="46" transform="matrix(0.707107 -0.707107 0.707107 0.707107 4382.68 1085)">654.roms_s-293B</text></g><g><text font-family="Arial,Arial_MSFontService,sans-serif" font-weight="400" font-size="46" transform="matrix(0.707107 -0.707107 0.707107 0.707107 4455.86 1085)">654.roms_s-294B</text></g><g><text font-family="Arial,Arial_MSFontService,sans-serif" font-weight="400" font-size="46" transform="matrix(0.707107 -0.707107 0.707107 0.707107 4529.03 1085)">654.roms_s-523B</text></g><g><text font-family="Arial,Arial_MSFontService,sans-serif" font-weight="400" font-size="46" transform="matrix(0.707107 -0.707107 0.707107 0.707107 4623.79 1063)">657.xz_s-2302B</text></g><g><text font-family="Arial,Arial_MSFontService,sans-serif" font-weight="400" font-size="46" transform="matrix(0.707107 -0.707107 0.707107 0.707107 4850.1 910)">Mean</text></g><g><text font-family="Arial,Arial_MSFontService,sans-serif" font-weight="400" font-size="46" transform="matrix(6.12323e-17 -1 1 6.12323e-17 1345.35 718)">L0 </text></g><g><text font-family="Arial,Arial_MSFontService,sans-serif" font-weight="400" font-size="46" transform="matrix(6.12323e-17 -1 1 6.12323e-17 1345.35 655)">-</text></g><g><text font-family="Arial,Arial_MSFontService,sans-serif" font-weight="400" font-size="46" transform="matrix(6.12323e-17 -1 1 6.12323e-17 1345.35 627)">L1 Traffic per </text></g><g><text font-family="Arial,Arial_MSFontService,sans-serif" font-weight="400" font-size="46" transform="matrix(6.12323e-17 -1 1 6.12323e-17 1398.35 694)">kilo instructions</text></g><g><rect x="2942.5" y="250.5" width="23" height="23" stroke="#000000" stroke-width="3.4375" stroke-linejoin="round" stroke-miterlimit="10" fill="#F2F2F2"/></g><g><text font-family="Arial,Arial_MSFontService,sans-serif" font-weight="400" font-size="46" transform="matrix(1 0 0 1 2975.38 277)">Filter OFF</text></g><g><rect x="3235.5" y="250.5" width="23" height="23" stroke="#000000" stroke-width="3.4375" stroke-linejoin="round" stroke-miterlimit="10" fill="#7F7F7F"/></g><g><text font-family="Arial,Arial_MSFontService,sans-serif" font-weight="400" font-size="46" transform="matrix(1 0 0 1 3267.93 277)">Filter ON</text></g></g></svg>