<svg width="3822" height="1131" xmlns="http://www.w3.org/2000/svg" xmlns:xlink="http://www.w3.org/1999/xlink" xml:space="preserve" overflow="hidden"><defs><clipPath id="clip0"><rect x="1174" y="180" width="3822" height="1131"/></clipPath></defs><g clip-path="url(#clip0)" transform="translate(-1174 -180)"><rect x="1174" y="180" width="3822" height="1131" fill="#FFFFFF"/><g><path d="M1575.5 703.523 4948.5 703.523M1575.5 681.523 4948.5 681.523M1575.5 659.522 4948.5 659.522M1575.5 614.52 4948.5 614.52M1575.5 592.52 4948.5 592.52M1575.5 570.519 4948.5 570.519M1575.5 526.517 4948.5 526.517M1575.5 504.517 4948.5 504.517M1575.5 482.516 4948.5 482.516M1575.5 438.515 4948.5 438.515M1575.5 416.514 4948.5 416.514M1575.5 394.513 4948.5 394.513M1575.5 350.512 4948.5 350.512M1575.5 328.511 4948.5 328.511M1575.5 306.51 4948.5 306.51" stroke="#F2F2F2" stroke-width="3.4375" stroke-linejoin="round" stroke-miterlimit="10" fill="none"/></g><g><path d="M1575.5 637.521 4948.5 637.521M1575.5 548.518 4948.5 548.518M1575.5 460.515 4948.5 460.515M1575.5 372.512 4948.5 372.512M1575.5 284.5 4948.5 284.5" stroke="#D9D9D9" stroke-width="3.4375" stroke-linejoin="round" stroke-miterlimit="10" fill="none"/></g><g><rect x="1575.5" y="284.5" width="3373" height="441" stroke="#000000" stroke-width="3.4375" stroke-linejoin="round" stroke-miterlimit="10" fill="none"/></g><g><path d="M1588.55 284.509 1612.55 284.509 1612.55 725.5 1588.55 725.5ZM1661.55 284.509 1685.56 284.509 1685.56 725.5 1661.55 725.5ZM1734.56 284.509 1759.56 284.509 1759.56 725.5 1734.56 725.5ZM1807.56 284.509 1832.56 284.509 1832.56 725.5 1807.56 725.5ZM1881.56 285.51 1905.56 285.51 1905.56 725.5 1881.56 725.5ZM1954.56 285.51 1978.57 285.51 1978.57 725.5 1954.56 725.5ZM2027.57 287.51 2052.57 287.51 2052.57 725.5 2027.57 725.5ZM2101.57 284.509 2125.57 284.509 2125.57 725.5 2101.57 725.5ZM2174.57 297.51 2198.57 297.51 2198.57 725.5 2174.57 725.5ZM2247.57 284.509 2272.57 284.509 2272.57 725.5 2247.57 725.5ZM2321.58 299.51 2345.58 299.51 2345.58 725.5 2321.58 725.5ZM2394.58 290.51 2418.58 290.51 2418.58 725.5 2394.58 725.5ZM2467.58 289.51 2492.58 289.51 2492.58 725.5 2467.58 725.5ZM2541.58 286.51 2565.58 286.51 2565.58 725.5 2541.58 725.5ZM2614.59 287.51 2638.59 287.51 2638.59 725.5 2614.59 725.5ZM2687.59 308.51 2712.59 308.51 2712.59 725.5 2687.59 725.5ZM2761.59 288.51 2785.59 288.51 2785.59 725.5 2761.59 725.5ZM2834.59 340.511 2858.59 340.511 2858.59 725.5 2834.59 725.5ZM2907.6 347.512 2932.6 347.512 2932.6 725.5 2907.6 725.5ZM2981.6 346.512 3005.6 346.512 3005.6 725.5 2981.6 725.5ZM3054.6 286.51 3078.6 286.51 3078.6 725.5 3054.6 725.5ZM3127.6 293.51 3152.6 293.51 3152.6 725.5 3127.6 725.5ZM3200.6 290.51 3225.61 290.51 3225.61 725.5 3200.6 725.5ZM3274.61 293.51 3298.61 293.51 3298.61 725.5 3274.61 725.5ZM3347.61 284.509 3371.61 284.509 3371.61 725.5 3347.61 725.5ZM3420.61 285.51 3445.61 285.51 3445.61 725.5 3420.61 725.5ZM3494.61 286.51 3518.62 286.51 3518.62 725.5 3494.61 725.5ZM3567.62 285.51 3591.62 285.51 3591.62 725.5 3567.62 725.5ZM3640.62 284.509 3665.62 284.509 3665.62 725.5 3640.62 725.5ZM3714.62 284.509 3738.62 284.509 3738.62 725.5 3714.62 725.5ZM3787.62 284.509 3811.62 284.509 3811.62 725.5 3787.62 725.5ZM3860.63 285.51 3885.63 285.51 3885.63 725.5 3860.63 725.5ZM3934.63 285.51 3958.63 285.51 3958.63 725.5 3934.63 725.5ZM4007.63 286.51 4031.63 286.51 4031.63 725.5 4007.63 725.5ZM4080.63 284.509 4105.63 284.509 4105.63 725.5 4080.63 725.5ZM4154.64 284.509 4178.64 284.509 4178.64 725.5 4154.64 725.5ZM4227.64 284.509 4251.64 284.509 4251.64 725.5 4227.64 725.5ZM4300.64 284.509 4325.64 284.509 4325.64 725.5 4300.64 725.5ZM4374.64 284.509 4398.64 284.509 4398.64 725.5 4374.64 725.5ZM4447.65 285.51 4471.65 285.51 4471.65 725.5 4447.65 725.5ZM4520.65 284.509 4544.65 284.509 4544.65 725.5 4520.65 725.5ZM4593.65 284.509 4618.65 284.509 4618.65 725.5 4593.65 725.5ZM4667.65 284.509 4691.65 284.509 4691.65 725.5 4667.65 725.5ZM4740.66 284.509 4764.66 284.509 4764.66 725.5 4740.66 725.5ZM4813.66 285.51 4838.66 285.51 4838.66 725.5 4813.66 725.5ZM4887.66 290.51 4911.66 290.51 4911.66 725.5 4887.66 725.5Z" stroke="#000000" stroke-width="3.4375" stroke-linejoin="round" stroke-miterlimit="10" fill="#F2F2F2"/></g><g><path d="M1612.55 290.51 1636.55 290.51 1636.55 725.5 1612.55 725.5ZM1685.56 308.51 1710.56 308.51 1710.56 725.5 1685.56 725.5ZM1759.56 293.51 1783.56 293.51 1783.56 725.5 1759.56 725.5ZM1832.56 293.51 1856.56 293.51 1856.56 725.5 1832.56 725.5ZM1905.56 285.51 1930.56 285.51 1930.56 725.5 1905.56 725.5ZM1979.57 285.51 2003.57 285.51 2003.57 725.5 1979.57 725.5ZM2052.57 302.51 2076.57 302.51 2076.57 725.5 2052.57 725.5ZM2125.57 287.51 2150.57 287.51 2150.57 725.5 2125.57 725.5ZM2199.57 361.512 2223.57 361.512 2223.57 725.5 2199.57 725.5ZM2272.57 444.515 2296.58 444.515 2296.58 725.5 2272.57 725.5ZM2345.58 403.513 2370.58 403.513 2370.58 725.5 2345.58 725.5ZM2419.58 374.512 2443.58 374.512 2443.58 725.5 2419.58 725.5ZM2492.58 346.512 2516.58 346.512 2516.58 725.5 2492.58 725.5ZM2565.58 314.51 2590.59 314.51 2590.59 725.5 2565.58 725.5ZM2639.59 311.51 2663.59 311.51 2663.59 725.5 2639.59 725.5ZM2712.59 486.516 2736.59 486.516 2736.59 725.5 2712.59 725.5ZM2785.59 332.511 2810.59 332.511 2810.59 725.5 2785.59 725.5ZM2858.59 572.519 2883.59 572.519 2883.59 725.5 2858.59 725.5ZM2932.6 390.513 2956.6 390.513 2956.6 725.5 2932.6 725.5ZM3005.6 391.513 3029.6 391.513 3029.6 725.5 3005.6 725.5ZM3078.6 339.511 3103.6 339.511 3103.6 725.5 3078.6 725.5ZM3152.6 374.512 3176.6 374.512 3176.6 725.5 3152.6 725.5ZM3225.61 357.512 3249.61 357.512 3249.61 725.5 3225.61 725.5ZM3298.61 374.512 3323.61 374.512 3323.61 725.5 3298.61 725.5ZM3372.61 334.511 3396.61 334.511 3396.61 725.5 3372.61 725.5ZM3445.61 333.511 3469.61 333.511 3469.61 725.5 3445.61 725.5ZM3518.62 296.51 3543.62 296.51 3543.62 725.5 3518.62 725.5ZM3592.62 291.51 3616.62 291.51 3616.62 725.5 3592.62 725.5ZM3665.62 363.512 3689.62 363.512 3689.62 725.5 3665.62 725.5ZM3738.62 285.51 3763.62 285.51 3763.62 725.5 3738.62 725.5ZM3812.62 285.51 3836.63 285.51 3836.63 725.5 3812.62 725.5ZM3885.63 295.51 3909.63 295.51 3909.63 725.5 3885.63 725.5ZM3958.63 288.51 3983.63 288.51 3983.63 725.5 3958.63 725.5ZM4032.63 303.51 4056.63 303.51 4056.63 725.5 4032.63 725.5ZM4105.63 284.509 4129.64 284.509 4129.64 725.5 4105.63 725.5ZM4178.64 285.51 4203.64 285.51 4203.64 725.5 4178.64 725.5ZM4251.64 284.509 4276.64 284.509 4276.64 725.5 4251.64 725.5ZM4325.64 288.51 4349.64 288.51 4349.64 725.5 4325.64 725.5ZM4398.64 292.51 4422.65 292.51 4422.65 725.5 4398.64 725.5ZM4471.65 298.51 4496.65 298.51 4496.65 725.5 4471.65 725.5ZM4545.65 286.51 4569.65 286.51 4569.65 725.5 4545.65 725.5ZM4618.65 286.51 4642.65 286.51 4642.65 725.5 4618.65 725.5ZM4691.65 286.51 4716.65 286.51 4716.65 725.5 4691.65 725.5ZM4765.66 289.51 4789.66 289.51 4789.66 725.5 4765.66 725.5ZM4838.66 299.51 4862.66 299.51 4862.66 725.5 4838.66 725.5ZM4911.66 328.511 4936.66 328.511 4936.66 725.5 4911.66 725.5Z" stroke="#000000" stroke-width="3.4375" stroke-linejoin="round" stroke-miterlimit="10" fill="#7F7F7F"/></g><g><path d="M0 0 0.000360892 441" stroke="#000000" stroke-width="3.4375" stroke-linejoin="round" stroke-miterlimit="10" fill="none" fill-rule="evenodd" transform="matrix(1 0 0 -1 1575.5 725.5)"/></g><g><path d="M1562.5 725.5 1575.5 725.5M1562.5 637.521 1575.5 637.521M1562.5 548.518 1575.5 548.518M1562.5 460.515 1575.5 460.515M1562.5 372.512 1575.5 372.512M1562.5 284.5 1575.5 284.5" stroke="#000000" stroke-width="3.4375" stroke-linejoin="round" stroke-miterlimit="10" fill="none"/></g><g><path d="M1575.5 725.5 4948.5 725.501" stroke="#000000" stroke-width="3.4375" stroke-linejoin="round" stroke-miterlimit="10" fill="none" fill-rule="evenodd"/></g><g><text font-family="Arial,Arial_MSFontService,sans-serif" font-weight="400" font-size="46" transform="matrix(1 0 0 1 1510.96 740)">0</text></g><g><text font-family="Arial,Arial_MSFontService,sans-serif" font-weight="400" font-size="46" transform="matrix(1 0 0 1 1485.48 652)">20</text></g><g><text font-family="Arial,Arial_MSFontService,sans-serif" font-weight="400" font-size="46" transform="matrix(1 0 0 1 1485.48 564)">40</text></g><g><text font-family="Arial,Arial_MSFontService,sans-serif" font-weight="400" font-size="46" transform="matrix(1 0 0 1 1485.48 476)">60</text></g><g><text font-family="Arial,Arial_MSFontService,sans-serif" font-weight="400" font-size="46" transform="matrix(1 0 0 1 1485.48 388)">80</text></g><g><text font-family="Arial,Arial_MSFontService,sans-serif" font-weight="400" font-size="46" transform="matrix(1 0 0 1 1460 299)">100</text></g><g><text font-family="Arial,Arial_MSFontService,sans-serif" font-weight="400" font-size="46" transform="matrix(0.707107 -0.707107 0.707107 0.707107 1298.07 1109)">600.perlbench_s-570B</text></g><g><text font-family="Arial,Arial_MSFontService,sans-serif" font-weight="400" font-size="46" transform="matrix(0.707107 -0.707107 0.707107 0.707107 1445.25 1035)">602.gcc_s-1850B</text></g><g><text font-family="Arial,Arial_MSFontService,sans-serif" font-weight="400" font-size="46" transform="matrix(0.707107 -0.707107 0.707107 0.707107 1518.57 1035)">602.gcc_s-2226B</text></g><g><text font-family="Arial,Arial_MSFontService,sans-serif" font-weight="400" font-size="46" transform="matrix(0.707107 -0.707107 0.707107 0.707107 1609.91 1017)">602.gcc_s-734B</text></g><g><text font-family="Arial,Arial_MSFontService,sans-serif" font-weight="400" font-size="46" transform="matrix(0.707107 -0.707107 0.707107 0.707107 1605.77 1094)">603.bwaves_s-1740B</text></g><g><text font-family="Arial,Arial_MSFontService,sans-serif" font-weight="400" font-size="46" transform="matrix(0.707107 -0.707107 0.707107 0.707107 1679.08 1094)">603.bwaves_s-2609B</text></g><g><text font-family="Arial,Arial_MSFontService,sans-serif" font-weight="400" font-size="46" transform="matrix(0.707107 -0.707107 0.707107 0.707107 1752.4 1094)">603.bwaves_s-2931B</text></g><g><text font-family="Arial,Arial_MSFontService,sans-serif" font-weight="400" font-size="46" transform="matrix(0.707107 -0.707107 0.707107 0.707107 1843.74 1076)">603.bwaves_s-891B</text></g><g><text font-family="Arial,Arial_MSFontService,sans-serif" font-weight="400" font-size="46" transform="matrix(0.707107 -0.707107 0.707107 0.707107 1956.69 1037)">605.mcf_s-1152B</text></g><g><text font-family="Arial,Arial_MSFontService,sans-serif" font-weight="400" font-size="46" transform="matrix(0.707107 -0.707107 0.707107 0.707107 2030.01 1037)">605.mcf_s-1536B</text></g><g><text font-family="Arial,Arial_MSFontService,sans-serif" font-weight="400" font-size="46" transform="matrix(0.707107 -0.707107 0.707107 0.707107 2103.33 1037)">605.mcf_s-1554B</text></g><g><text font-family="Arial,Arial_MSFontService,sans-serif" font-weight="400" font-size="46" transform="matrix(0.707107 -0.707107 0.707107 0.707107 2176.65 1037)">605.mcf_s-1644B</text></g><g><text font-family="Arial,Arial_MSFontService,sans-serif" font-weight="400" font-size="46" transform="matrix(0.707107 -0.707107 0.707107 0.707107 2267.99 1019)">605.mcf_s-472B</text></g><g><text font-family="Arial,Arial_MSFontService,sans-serif" font-weight="400" font-size="46" transform="matrix(0.707107 -0.707107 0.707107 0.707107 2341.3 1019)">605.mcf_s-484B</text></g><g><text font-family="Arial,Arial_MSFontService,sans-serif" font-weight="400" font-size="46" transform="matrix(0.707107 -0.707107 0.707107 0.707107 2414.62 1019)">605.mcf_s-665B</text></g><g><text font-family="Arial,Arial_MSFontService,sans-serif" font-weight="400" font-size="46" transform="matrix(0.707107 -0.707107 0.707107 0.707107 2487.94 1019)">605.mcf_s-782B</text></g><g><text font-family="Arial,Arial_MSFontService,sans-serif" font-weight="400" font-size="46" transform="matrix(0.707107 -0.707107 0.707107 0.707107 2561.26 1019)">605.mcf_s-994B</text></g><g><text font-family="Arial,Arial_MSFontService,sans-serif" font-weight="400" font-size="46" transform="matrix(0.707107 -0.707107 0.707107 0.707107 2503.06 1150)">607.cactuBSSN_s-2421B</text></g><g><text font-family="Arial,Arial_MSFontService,sans-serif" font-weight="400" font-size="46" transform="matrix(0.707107 -0.707107 0.707107 0.707107 2576.38 1150)">607.cactuBSSN_s-3477B</text></g><g><text font-family="Arial,Arial_MSFontService,sans-serif" font-weight="400" font-size="46" transform="matrix(0.707107 -0.707107 0.707107 0.707107 2649.7 1150)">607.cactuBSSN_s-4004B</text></g><g><text font-family="Arial,Arial_MSFontService,sans-serif" font-weight="400" font-size="46" transform="matrix(0.707107 -0.707107 0.707107 0.707107 2836.51 1037)">619.lbm_s-2676B</text></g><g><text font-family="Arial,Arial_MSFontService,sans-serif" font-weight="400" font-size="46" transform="matrix(0.707107 -0.707107 0.707107 0.707107 2909.83 1037)">619.lbm_s-2677B</text></g><g><text font-family="Arial,Arial_MSFontService,sans-serif" font-weight="400" font-size="46" transform="matrix(0.707107 -0.707107 0.707107 0.707107 2983.15 1037)">619.lbm_s-3766B</text></g><g><text font-family="Arial,Arial_MSFontService,sans-serif" font-weight="400" font-size="46" transform="matrix(0.707107 -0.707107 0.707107 0.707107 3056.46 1037)">619.lbm_s-4268B</text></g><g><text font-family="Arial,Arial_MSFontService,sans-serif" font-weight="400" font-size="46" transform="matrix(0.707107 -0.707107 0.707107 0.707107 3073.91 1092)">620.omnetpp_s-141B</text></g><g><text font-family="Arial,Arial_MSFontService,sans-serif" font-weight="400" font-size="46" transform="matrix(0.707107 -0.707107 0.707107 0.707107 3147.23 1092)">620.omnetpp_s-874B</text></g><g><text font-family="Arial,Arial_MSFontService,sans-serif" font-weight="400" font-size="46" transform="matrix(0.707107 -0.707107 0.707107 0.707107 3285.43 1028)">621.wrf_s-6673B</text></g><g><text font-family="Arial,Arial_MSFontService,sans-serif" font-weight="400" font-size="46" transform="matrix(0.707107 -0.707107 0.707107 0.707107 3358.74 1028)">621.wrf_s-8065B</text></g><g><text font-family="Arial,Arial_MSFontService,sans-serif" font-weight="400" font-size="46" transform="matrix(0.707107 -0.707107 0.707107 0.707107 3356.42 1103)">623.xalancbmk_s-10B</text></g><g><text font-family="Arial,Arial_MSFontService,sans-serif" font-weight="400" font-size="46" transform="matrix(0.707107 -0.707107 0.707107 0.707107 3411.72 1121)">623.xalancbmk_s-165B</text></g><g><text font-family="Arial,Arial_MSFontService,sans-serif" font-weight="400" font-size="46" transform="matrix(0.707107 -0.707107 0.707107 0.707107 3485.04 1121)">623.xalancbmk_s-202B</text></g><g><text font-family="Arial,Arial_MSFontService,sans-serif" font-weight="400" font-size="46" transform="matrix(0.707107 -0.707107 0.707107 0.707107 3659.18 1020)">628.pop2_s-17B</text></g><g><text font-family="Arial,Arial_MSFontService,sans-serif" font-weight="400" font-size="46" transform="matrix(0.707107 -0.707107 0.707107 0.707107 3700.09 1053)">641.leela_s-1083B</text></g><g><text font-family="Arial,Arial_MSFontService,sans-serif" font-weight="400" font-size="46" transform="matrix(0.707107 -0.707107 0.707107 0.707107 3692.32 1134)">649.fotonik3d_s-10881B</text></g><g><text font-family="Arial,Arial_MSFontService,sans-serif" font-weight="400" font-size="46" transform="matrix(0.707107 -0.707107 0.707107 0.707107 3783.66 1116)">649.fotonik3d_s-1176B</text></g><g><text font-family="Arial,Arial_MSFontService,sans-serif" font-weight="400" font-size="46" transform="matrix(0.707107 -0.707107 0.707107 0.707107 3856.97 1116)">649.fotonik3d_s-7084B</text></g><g><text font-family="Arial,Arial_MSFontService,sans-serif" font-weight="400" font-size="46" transform="matrix(0.707107 -0.707107 0.707107 0.707107 3930.29 1116)">649.fotonik3d_s-8225B</text></g><g><text font-family="Arial,Arial_MSFontService,sans-serif" font-weight="400" font-size="46" transform="matrix(0.707107 -0.707107 0.707107 0.707107 4063.11 1056)">654.roms_s-1007B</text></g><g><text font-family="Arial,Arial_MSFontService,sans-serif" font-weight="400" font-size="46" transform="matrix(0.707107 -0.707107 0.707107 0.707107 4136.43 1056)">654.roms_s-1070B</text></g><g><text font-family="Arial,Arial_MSFontService,sans-serif" font-weight="400" font-size="46" transform="matrix(0.707107 -0.707107 0.707107 0.707107 4209.75 1056)">654.roms_s-1390B</text></g><g><text font-family="Arial,Arial_MSFontService,sans-serif" font-weight="400" font-size="46" transform="matrix(0.707107 -0.707107 0.707107 0.707107 4283.07 1056)">654.roms_s-1613B</text></g><g><text font-family="Arial,Arial_MSFontService,sans-serif" font-weight="400" font-size="46" transform="matrix(0.707107 -0.707107 0.707107 0.707107 4374.4 1038)">654.roms_s-293B</text></g><g><text font-family="Arial,Arial_MSFontService,sans-serif" font-weight="400" font-size="46" transform="matrix(0.707107 -0.707107 0.707107 0.707107 4447.72 1038)">654.roms_s-294B</text></g><g><text font-family="Arial,Arial_MSFontService,sans-serif" font-weight="400" font-size="46" transform="matrix(0.707107 -0.707107 0.707107 0.707107 4521.04 1038)">654.roms_s-523B</text></g><g><text font-family="Arial,Arial_MSFontService,sans-serif" font-weight="400" font-size="46" transform="matrix(0.707107 -0.707107 0.707107 0.707107 4615.94 1017)">657.xz_s-2302B</text></g><g><text font-family="Arial,Arial_MSFontService,sans-serif" font-weight="400" font-size="46" transform="matrix(0.707107 -0.707107 0.707107 0.707107 4842.39 864)">Mean</text></g><g><text font-family="Arial,Arial_MSFontService,sans-serif" font-weight="400" font-size="46" transform="matrix(6.12323e-17 -1 1 6.12323e-17 1413.15 621)">Hit Rate(%)</text></g><g><rect x="2859.5" y="222.5" width="22.9998" height="23" stroke="#000000" stroke-width="3.4375" stroke-linejoin="round" stroke-miterlimit="10" fill="#F2F2F2"/></g><g><text font-family="Arial,Arial_MSFontService,sans-serif" font-weight="400" font-size="46" transform="matrix(1 0 0 1 2891.9 249)">L1D Commit Load</text></g><g><rect x="3353.5" y="222.5" width="23" height="23" stroke="#000000" stroke-width="3.4375" stroke-linejoin="round" stroke-miterlimit="10" fill="#7F7F7F"/></g><g><text font-family="Arial,Arial_MSFontService,sans-serif" font-weight="400" font-size="46" transform="matrix(1 0 0 1 3385.95 249)">L1D Commit Write</text></g></g></svg>