<svg width="3822" height="1131" xmlns="http://www.w3.org/2000/svg" xmlns:xlink="http://www.w3.org/1999/xlink" xml:space="preserve" overflow="hidden"><defs><clipPath id="clip0"><rect x="1131" y="183" width="3822" height="1131"/></clipPath></defs><g clip-path="url(#clip0)" transform="translate(-1131 -183)"><rect x="1131" y="183" width="3822" height="1131" fill="#FFFFFF"/><g><path d="M1532.5 705.523 4905.5 705.523M1532.5 683.523 4905.5 683.523M1532.5 661.522 4905.5 661.522M1532.5 639.521 4905.5 639.521M1532.5 595.52 4905.5 595.52M1532.5 573.519 4905.5 573.519M1532.5 551.518 4905.5 551.518M1532.5 529.518 4905.5 529.518M1532.5 485.516 4905.5 485.516M1532.5 463.515 4905.5 463.515M1532.5 441.515 4905.5 441.515M1532.5 419.514 4905.5 419.514M1532.5 375.513 4905.5 375.513M1532.5 353.512 4905.5 353.512M1532.5 331.511 4905.5 331.511M1532.5 309.51 4905.5 309.51" stroke="#F2F2F2" stroke-width="3.4375" stroke-linejoin="round" stroke-miterlimit="10" fill="none"/></g><g><path d="M1532.5 617.52 4905.5 617.52M1532.5 507.517 4905.5 507.517M1532.5 397.513 4905.5 397.513M1532.5 286.5 4905.5 286.5" stroke="#D9D9D9" stroke-width="3.4375" stroke-linejoin="round" stroke-miterlimit="10" fill="none"/></g><g><rect x="1532.5" y="286.5" width="3373" height="441" stroke="#000000" stroke-width="3.4375" stroke-linejoin="round" stroke-miterlimit="10" fill="none"/></g><g><path d="M1618.55 674.522 1642.55 674.522 1642.55 727.5 1618.55 727.5ZM1691.56 573.519 1715.56 573.519 1715.56 727.5 1691.56 727.5ZM1764.56 687.523 1789.56 687.523 1789.56 727.5 1764.56 727.5ZM1838.56 684.523 1862.56 684.523 1862.56 727.5 1838.56 727.5ZM1911.56 684.523 1935.56 684.523 1935.56 727.5 1911.56 727.5ZM1984.57 704.523 2009.57 704.523 2009.57 727.5 1984.57 727.5ZM2058.57 682.523 2082.57 682.523 2082.57 727.5 2058.57 727.5ZM2131.57 580.519 2155.57 580.519 2155.57 727.5 2131.57 727.5ZM2204.57 611.52 2229.57 611.52 2229.57 727.5 2204.57 727.5ZM2278.57 371.512 2302.58 371.512 2302.58 727.5 2278.57 727.5ZM2351.58 620.521 2375.58 620.521 2375.58 727.5 2351.58 727.5ZM2424.58 615.52 2449.58 615.52 2449.58 727.5 2424.58 727.5ZM2497.58 672.522 2522.58 672.522 2522.58 727.5 2497.58 727.5ZM2571.58 659.522 2595.59 659.522 2595.59 727.5 2571.58 727.5ZM2644.59 386.513 2668.59 386.513 2668.59 727.5 2644.59 727.5ZM2717.59 651.522 2742.59 651.522 2742.59 727.5 2717.59 727.5ZM2791.59 490.516 2815.59 490.516 2815.59 727.5 2791.59 727.5ZM2864.59 568.519 2888.59 568.519 2888.59 727.5 2864.59 727.5ZM2937.6 568.519 2962.6 568.519 2962.6 727.5 2937.6 727.5ZM3011.6 713.524 3035.6 713.524 3035.6 727.5 3011.6 727.5ZM3084.6 701.523 3108.6 701.523 3108.6 727.5 3084.6 727.5ZM3157.6 706.523 3182.6 706.523 3182.6 727.5 3157.6 727.5ZM3231.61 701.523 3255.61 701.523 3255.61 727.5 3231.61 727.5ZM3304.61 691.523 3328.61 691.523 3328.61 727.5 3304.61 727.5ZM3377.61 692.523 3402.61 692.523 3402.61 727.5 3377.61 727.5ZM3451.61 695.523 3475.61 695.523 3475.61 727.5 3451.61 727.5ZM3524.62 702.523 3548.62 702.523 3548.62 727.5 3524.62 727.5ZM3597.62 669.522 3622.62 669.522 3622.62 727.5 3597.62 727.5ZM3671.62 683.523 3695.62 683.523 3695.62 727.5 3671.62 727.5ZM3744.62 672.522 3768.62 672.522 3768.62 727.5 3744.62 727.5ZM3817.63 705.523 3842.63 705.523 3842.63 727.5 3817.63 727.5ZM3890.63 718.524 3915.63 718.524 3915.63 727.5 3890.63 727.5ZM3964.63 683.523 3988.63 683.523 3988.63 727.5 3964.63 727.5ZM4037.63 696.523 4061.63 696.523 4061.63 727.5 4037.63 727.5ZM4110.63 691.523 4135.64 691.523 4135.64 727.5 4110.63 727.5ZM4184.64 696.523 4208.64 696.523 4208.64 727.5 4184.64 727.5ZM4257.64 719.524 4281.64 719.524 4281.64 727.5 4257.64 727.5ZM4330.64 689.523 4355.64 689.523 4355.64 727.5 4330.64 727.5ZM4404.64 676.522 4428.65 676.522 4428.65 727.5 4404.64 727.5ZM4477.65 724.524 4501.65 724.524 4501.65 727.5 4477.65 727.5ZM4550.65 704.523 4575.65 704.523 4575.65 727.5 4550.65 727.5ZM4624.65 698.523 4648.65 698.523 4648.65 727.5 4624.65 727.5ZM4697.65 691.523 4721.65 691.523 4721.65 727.5 4697.65 727.5ZM4770.66 717.524 4795.66 717.524 4795.66 727.5 4770.66 727.5ZM4844.66 659.522 4868.66 659.522 4868.66 727.5 4844.66 727.5Z" stroke="#000000" stroke-width="3.4375" stroke-linejoin="round" stroke-miterlimit="10" fill="#F2F2F2"/></g><g><path d="M1569.55 722.524 1593.55 722.524 1593.55 727.5 1569.55 727.5ZM1642.55 715.524 1667.55 715.524 1667.55 727.5 1642.55 727.5ZM1716.56 717.524 1740.56 717.524 1740.56 727.5 1716.56 727.5ZM1789.56 722.524 1813.56 722.524 1813.56 727.5 1789.56 727.5ZM1862.56 725.524 1887.56 725.524 1887.56 727.5 1862.56 727.5ZM1936.56 725.524 1960.56 725.524 1960.56 727.5 1936.56 727.5ZM2009.57 716.524 2033.57 716.524 2033.57 727.5 2009.57 727.5ZM2082.57 726.524 2107.57 726.524 2107.57 727.5 2082.57 727.5ZM2156.57 620.521 2180.57 620.521 2180.57 727.5 2156.57 727.5ZM2229.57 611.52 2253.57 611.52 2253.57 727.5 2229.57 727.5ZM2302.58 552.518 2326.58 552.518 2326.58 727.5 2302.58 727.5ZM2375.58 677.522 2400.58 677.522 2400.58 727.5 2375.58 727.5ZM2449.58 661.522 2473.58 661.522 2473.58 727.5 2449.58 727.5ZM2522.58 697.523 2546.58 697.523 2546.58 727.5 2522.58 727.5ZM2595.59 674.522 2620.59 674.522 2620.59 727.5 2595.59 727.5ZM2669.59 488.516 2693.59 488.516 2693.59 727.5 2669.59 727.5ZM2742.59 652.522 2766.59 652.522 2766.59 727.5 2742.59 727.5ZM2815.59 491.516 2840.59 491.516 2840.59 727.5 2815.59 727.5ZM2889.59 567.519 2913.6 567.519 2913.6 727.5 2889.59 727.5ZM2962.6 567.519 2986.6 567.519 2986.6 727.5 2962.6 727.5ZM3035.6 713.524 3060.6 713.524 3060.6 727.5 3035.6 727.5ZM3109.6 701.523 3133.6 701.523 3133.6 727.5 3109.6 727.5ZM3182.6 706.523 3206.61 706.523 3206.61 727.5 3182.6 727.5ZM3255.61 701.523 3280.61 701.523 3280.61 727.5 3255.61 727.5ZM3329.61 691.523 3353.61 691.523 3353.61 727.5 3329.61 727.5ZM3402.61 692.523 3426.61 692.523 3426.61 727.5 3402.61 727.5ZM3475.61 716.524 3500.61 716.524 3500.61 727.5 3475.61 727.5ZM3549.62 721.524 3573.62 721.524 3573.62 727.5 3549.62 727.5ZM3622.62 670.522 3646.62 670.522 3646.62 727.5 3622.62 727.5ZM3695.62 726.524 3719.62 726.524 3719.62 727.5 3695.62 727.5ZM3768.62 726.524 3793.62 726.524 3793.62 727.5 3768.62 727.5ZM3842.63 719.524 3866.63 719.524 3866.63 727.5 3842.63 727.5ZM3915.63 721.524 3939.63 721.524 3939.63 727.5 3915.63 727.5ZM3988.63 702.523 4013.63 702.523 4013.63 727.5 3988.63 727.5ZM4062.63 726.524 4086.63 726.524 4086.63 727.5 4062.63 727.5ZM4135.64 726.524 4159.64 726.524 4159.64 727.5 4135.64 727.5ZM4208.64 726.524 4233.64 726.524 4233.64 727.5 4208.64 727.5ZM4282.64 725.524 4306.64 725.524 4306.64 727.5 4282.64 727.5ZM4355.64 721.524 4379.64 721.524 4379.64 727.5 4355.64 727.5ZM4428.65 715.524 4453.65 715.524 4453.65 727.5 4428.65 727.5ZM4502.65 726.524 4526.65 726.524 4526.65 727.5 4502.65 727.5ZM4575.65 725.524 4599.65 725.524 4599.65 727.5 4575.65 727.5ZM4648.65 725.524 4673.65 725.524 4673.65 727.5 4648.65 727.5ZM4722.66 722.524 4746.66 722.524 4746.66 727.5 4722.66 727.5ZM4795.66 717.524 4819.66 717.524 4819.66 727.5 4795.66 727.5ZM4868.66 686.523 4893.66 686.523 4893.66 727.5 4868.66 727.5Z" stroke="#000000" stroke-width="3.4375" stroke-linejoin="round" stroke-miterlimit="10" fill="#7F7F7F"/></g><g><path d="M0 0 0.000360892 441" stroke="#000000" stroke-width="3.4375" stroke-linejoin="round" stroke-miterlimit="10" fill="none" fill-rule="evenodd" transform="matrix(1 0 0 -1 1532.5 727.5)"/></g><g><path d="M1518.5 727.5 1532.5 727.5M1518.5 617.52 1532.5 617.52M1518.5 507.517 1532.5 507.517M1518.5 397.513 1532.5 397.513M1518.5 286.5 1532.5 286.5" stroke="#000000" stroke-width="3.4375" stroke-linejoin="round" stroke-miterlimit="10" fill="none"/></g><g><path d="M1532.5 727.5 4905.5 727.5" stroke="#000000" stroke-width="3.4375" stroke-linejoin="round" stroke-miterlimit="10" fill="none" fill-rule="evenodd"/></g><g><text font-family="Arial,Arial_MSFontService,sans-serif" font-weight="400" font-size="46" transform="matrix(1 0 0 1 1467.83 743)">0</text></g><g><text font-family="Arial,Arial_MSFontService,sans-serif" font-weight="400" font-size="46" transform="matrix(1 0 0 1 1442.34 633)">50</text></g><g><text font-family="Arial,Arial_MSFontService,sans-serif" font-weight="400" font-size="46" transform="matrix(1 0 0 1 1416.86 522)">100</text></g><g><text font-family="Arial,Arial_MSFontService,sans-serif" font-weight="400" font-size="46" transform="matrix(1 0 0 1 1416.86 412)">150</text></g><g><text font-family="Arial,Arial_MSFontService,sans-serif" font-weight="400" font-size="46" transform="matrix(1 0 0 1 1416.86 302)">200</text></g><g><text font-family="Arial,Arial_MSFontService,sans-serif" font-weight="400" font-size="46" transform="matrix(0.707107 -0.707107 0.707107 0.707107 1254.94 1111)">600.perlbench_s-570B</text></g><g><text font-family="Arial,Arial_MSFontService,sans-serif" font-weight="400" font-size="46" transform="matrix(0.707107 -0.707107 0.707107 0.707107 1402.11 1038)">602.gcc_s-1850B</text></g><g><text font-family="Arial,Arial_MSFontService,sans-serif" font-weight="400" font-size="46" transform="matrix(0.707107 -0.707107 0.707107 0.707107 1475.43 1038)">602.gcc_s-2226B</text></g><g><text font-family="Arial,Arial_MSFontService,sans-serif" font-weight="400" font-size="46" transform="matrix(0.707107 -0.707107 0.707107 0.707107 1566.77 1019)">602.gcc_s-734B</text></g><g><text font-family="Arial,Arial_MSFontService,sans-serif" font-weight="400" font-size="46" transform="matrix(0.707107 -0.707107 0.707107 0.707107 1562.63 1097)">603.bwaves_s-1740B</text></g><g><text font-family="Arial,Arial_MSFontService,sans-serif" font-weight="400" font-size="46" transform="matrix(0.707107 -0.707107 0.707107 0.707107 1635.95 1097)">603.bwaves_s-2609B</text></g><g><text font-family="Arial,Arial_MSFontService,sans-serif" font-weight="400" font-size="46" transform="matrix(0.707107 -0.707107 0.707107 0.707107 1709.26 1097)">603.bwaves_s-2931B</text></g><g><text font-family="Arial,Arial_MSFontService,sans-serif" font-weight="400" font-size="46" transform="matrix(0.707107 -0.707107 0.707107 0.707107 1800.6 1079)">603.bwaves_s-891B</text></g><g><text font-family="Arial,Arial_MSFontService,sans-serif" font-weight="400" font-size="46" transform="matrix(0.707107 -0.707107 0.707107 0.707107 1913.56 1039)">605.mcf_s-1152B</text></g><g><text font-family="Arial,Arial_MSFontService,sans-serif" font-weight="400" font-size="46" transform="matrix(0.707107 -0.707107 0.707107 0.707107 1986.88 1039)">605.mcf_s-1536B</text></g><g><text font-family="Arial,Arial_MSFontService,sans-serif" font-weight="400" font-size="46" transform="matrix(0.707107 -0.707107 0.707107 0.707107 2060.19 1039)">605.mcf_s-1554B</text></g><g><text font-family="Arial,Arial_MSFontService,sans-serif" font-weight="400" font-size="46" transform="matrix(0.707107 -0.707107 0.707107 0.707107 2133.51 1039)">605.mcf_s-1644B</text></g><g><text font-family="Arial,Arial_MSFontService,sans-serif" font-weight="400" font-size="46" transform="matrix(0.707107 -0.707107 0.707107 0.707107 2224.85 1021)">605.mcf_s-472B</text></g><g><text font-family="Arial,Arial_MSFontService,sans-serif" font-weight="400" font-size="46" transform="matrix(0.707107 -0.707107 0.707107 0.707107 2298.17 1021)">605.mcf_s-484B</text></g><g><text font-family="Arial,Arial_MSFontService,sans-serif" font-weight="400" font-size="46" transform="matrix(0.707107 -0.707107 0.707107 0.707107 2371.48 1021)">605.mcf_s-665B</text></g><g><text font-family="Arial,Arial_MSFontService,sans-serif" font-weight="400" font-size="46" transform="matrix(0.707107 -0.707107 0.707107 0.707107 2444.8 1021)">605.mcf_s-782B</text></g><g><text font-family="Arial,Arial_MSFontService,sans-serif" font-weight="400" font-size="46" transform="matrix(0.707107 -0.707107 0.707107 0.707107 2518.12 1021)">605.mcf_s-994B</text></g><g><text font-family="Arial,Arial_MSFontService,sans-serif" font-weight="400" font-size="46" transform="matrix(0.707107 -0.707107 0.707107 0.707107 2459.92 1153)">607.cactuBSSN_s-2421B</text></g><g><text font-family="Arial,Arial_MSFontService,sans-serif" font-weight="400" font-size="46" transform="matrix(0.707107 -0.707107 0.707107 0.707107 2533.24 1153)">607.cactuBSSN_s-3477B</text></g><g><text font-family="Arial,Arial_MSFontService,sans-serif" font-weight="400" font-size="46" transform="matrix(0.707107 -0.707107 0.707107 0.707107 2606.56 1153)">607.cactuBSSN_s-4004B</text></g><g><text font-family="Arial,Arial_MSFontService,sans-serif" font-weight="400" font-size="46" transform="matrix(0.707107 -0.707107 0.707107 0.707107 2793.37 1039)">619.lbm_s-2676B</text></g><g><text font-family="Arial,Arial_MSFontService,sans-serif" font-weight="400" font-size="46" transform="matrix(0.707107 -0.707107 0.707107 0.707107 2866.69 1039)">619.lbm_s-2677B</text></g><g><text font-family="Arial,Arial_MSFontService,sans-serif" font-weight="400" font-size="46" transform="matrix(0.707107 -0.707107 0.707107 0.707107 2940.01 1039)">619.lbm_s-3766B</text></g><g><text font-family="Arial,Arial_MSFontService,sans-serif" font-weight="400" font-size="46" transform="matrix(0.707107 -0.707107 0.707107 0.707107 3013.33 1039)">619.lbm_s-4268B</text></g><g><text font-family="Arial,Arial_MSFontService,sans-serif" font-weight="400" font-size="46" transform="matrix(0.707107 -0.707107 0.707107 0.707107 3030.77 1095)">620.omnetpp_s-141B</text></g><g><text font-family="Arial,Arial_MSFontService,sans-serif" font-weight="400" font-size="46" transform="matrix(0.707107 -0.707107 0.707107 0.707107 3104.09 1095)">620.omnetpp_s-874B</text></g><g><text font-family="Arial,Arial_MSFontService,sans-serif" font-weight="400" font-size="46" transform="matrix(0.707107 -0.707107 0.707107 0.707107 3242.29 1030)">621.wrf_s-6673B</text></g><g><text font-family="Arial,Arial_MSFontService,sans-serif" font-weight="400" font-size="46" transform="matrix(0.707107 -0.707107 0.707107 0.707107 3315.61 1030)">621.wrf_s-8065B</text></g><g><text font-family="Arial,Arial_MSFontService,sans-serif" font-weight="400" font-size="46" transform="matrix(0.707107 -0.707107 0.707107 0.707107 3313.28 1106)">623.xalancbmk_s-10B</text></g><g><text font-family="Arial,Arial_MSFontService,sans-serif" font-weight="400" font-size="46" transform="matrix(0.707107 -0.707107 0.707107 0.707107 3368.58 1124)">623.xalancbmk_s-165B</text></g><g><text font-family="Arial,Arial_MSFontService,sans-serif" font-weight="400" font-size="46" transform="matrix(0.707107 -0.707107 0.707107 0.707107 3441.9 1124)">623.xalancbmk_s-202B</text></g><g><text font-family="Arial,Arial_MSFontService,sans-serif" font-weight="400" font-size="46" transform="matrix(0.707107 -0.707107 0.707107 0.707107 3616.04 1023)">628.pop2_s-17B</text></g><g><text font-family="Arial,Arial_MSFontService,sans-serif" font-weight="400" font-size="46" transform="matrix(0.707107 -0.707107 0.707107 0.707107 3656.95 1056)">641.leela_s-1083B</text></g><g><text font-family="Arial,Arial_MSFontService,sans-serif" font-weight="400" font-size="46" transform="matrix(0.707107 -0.707107 0.707107 0.707107 3649.18 1137)">649.fotonik3d_s-10881B</text></g><g><text font-family="Arial,Arial_MSFontService,sans-serif" font-weight="400" font-size="46" transform="matrix(0.707107 -0.707107 0.707107 0.707107 3740.52 1119)">649.fotonik3d_s-1176B</text></g><g><text font-family="Arial,Arial_MSFontService,sans-serif" font-weight="400" font-size="46" transform="matrix(0.707107 -0.707107 0.707107 0.707107 3813.84 1119)">649.fotonik3d_s-7084B</text></g><g><text font-family="Arial,Arial_MSFontService,sans-serif" font-weight="400" font-size="46" transform="matrix(0.707107 -0.707107 0.707107 0.707107 3887.15 1119)">649.fotonik3d_s-8225B</text></g><g><text font-family="Arial,Arial_MSFontService,sans-serif" font-weight="400" font-size="46" transform="matrix(0.707107 -0.707107 0.707107 0.707107 4019.98 1059)">654.roms_s-1007B</text></g><g><text font-family="Arial,Arial_MSFontService,sans-serif" font-weight="400" font-size="46" transform="matrix(0.707107 -0.707107 0.707107 0.707107 4093.29 1059)">654.roms_s-1070B</text></g><g><text font-family="Arial,Arial_MSFontService,sans-serif" font-weight="400" font-size="46" transform="matrix(0.707107 -0.707107 0.707107 0.707107 4166.61 1059)">654.roms_s-1390B</text></g><g><text font-family="Arial,Arial_MSFontService,sans-serif" font-weight="400" font-size="46" transform="matrix(0.707107 -0.707107 0.707107 0.707107 4239.93 1059)">654.roms_s-1613B</text></g><g><text font-family="Arial,Arial_MSFontService,sans-serif" font-weight="400" font-size="46" transform="matrix(0.707107 -0.707107 0.707107 0.707107 4331.27 1041)">654.roms_s-293B</text></g><g><text font-family="Arial,Arial_MSFontService,sans-serif" font-weight="400" font-size="46" transform="matrix(0.707107 -0.707107 0.707107 0.707107 4404.59 1041)">654.roms_s-294B</text></g><g><text font-family="Arial,Arial_MSFontService,sans-serif" font-weight="400" font-size="46" transform="matrix(0.707107 -0.707107 0.707107 0.707107 4477.9 1041)">654.roms_s-523B</text></g><g><text font-family="Arial,Arial_MSFontService,sans-serif" font-weight="400" font-size="46" transform="matrix(0.707107 -0.707107 0.707107 0.707107 4572.81 1019)">657.xz_s-2302B</text></g><g><text font-family="Arial,Arial_MSFontService,sans-serif" font-weight="400" font-size="46" transform="matrix(0.707107 -0.707107 0.707107 0.707107 4799.26 866)">Mean</text></g><g><text font-family="Arial,Arial_MSFontService,sans-serif" font-weight="400" font-size="46" transform="matrix(6.12323e-17 -1 1 6.12323e-17 1351.68 633)">L1D MPKI</text></g><g><rect x="2793.5" y="225.5" width="22.9998" height="23" stroke="#000000" stroke-width="3.4375" stroke-linejoin="round" stroke-miterlimit="10" fill="#F2F2F2"/></g><g><text font-family="Arial,Arial_MSFontService,sans-serif" font-weight="400" font-size="46" transform="matrix(1 0 0 1 2826.47 252)">prefetcher off</text></g><g><rect x="3166.5" y="225.5" width="23" height="23" stroke="#000000" stroke-width="3.4375" stroke-linejoin="round" stroke-miterlimit="10" fill="#7F7F7F"/></g><g><text font-family="Arial,Arial_MSFontService,sans-serif" font-weight="400" font-size="46" transform="matrix(1 0 0 1 3198.95 252)">prefetcher on</text></g></g></svg>