<svg width="1690" height="1376" xmlns="http://www.w3.org/2000/svg" xmlns:xlink="http://www.w3.org/1999/xlink" xml:space="preserve" overflow="hidden"><defs><clipPath id="clip0"><rect x="184" y="429" width="1690" height="1376"/></clipPath></defs><g clip-path="url(#clip0)" transform="translate(-184 -429)"><rect x="184" y="429" width="1690" height="1376" fill="#FFFFFF"/><g><path d="M417.5 1358.54 1795.5 1358.54M417.5 1322.54 1795.5 1322.54M417.5 1287.54 1795.5 1287.54M417.5 1251.54 1795.5 1251.54M417.5 1180.54 1795.5 1180.54M417.5 1144.54 1795.5 1144.54M417.5 1108.54 1795.5 1108.54M417.5 1072.54 1795.5 1072.54M417.5 1001.53 1795.5 1001.53M417.5 965.532 1795.5 965.532M417.5 929.531 1795.5 929.531M417.5 894.53 1795.5 894.53M417.5 822.527 1795.5 822.527M417.5 786.526 1795.5 786.526M417.5 751.525 1795.5 751.525M417.5 715.524 1795.5 715.524M417.5 644.521 1795.5 644.521M417.5 608.52 1795.5 608.52M417.5 572.519 1795.5 572.519M417.5 536.518 1795.5 536.518" stroke="#F2F2F2" stroke-width="3.4375" stroke-linejoin="round" stroke-miterlimit="10" fill="none"/></g><g><path d="M417.5 1215.54 1795.5 1215.54M417.5 1037.53 1795.5 1037.53M417.5 858.528 1795.5 858.528M417.5 679.522 1795.5 679.522M417.5 501.5 1795.5 501.5" stroke="#D9D9D9" stroke-width="3.4375" stroke-linejoin="round" stroke-miterlimit="10" fill="none"/></g><g><rect x="417.5" y="501.5" width="1378" height="893" stroke="#000000" stroke-width="3.4375" stroke-linejoin="round" stroke-miterlimit="10" fill="none"/></g><g><path d="M446.515 783.526 526.517 783.526 526.517 1394.5 446.515 1394.5ZM584.519 814.527 663.522 814.527 663.522 1394.5 584.519 1394.5ZM722.524 882.529 801.526 882.529 801.526 1394.5 722.524 1394.5ZM859.528 915.53 939.531 915.53 939.531 1394.5 859.528 1394.5ZM997.533 1335.54 1077.54 1335.54 1077.54 1394.5 997.533 1394.5ZM1135.54 1356.54 1215.54 1356.54 1215.54 1394.5 1135.54 1394.5ZM1273.54 1349.54 1352.54 1349.54 1352.54 1394.5 1273.54 1394.5ZM1410.55 1355.54 1490.55 1355.54 1490.55 1394.5 1410.55 1394.5ZM1548.55 852.528 1628.55 852.528 1628.55 1394.5 1548.55 1394.5ZM1686.56 879.529 1766.56 879.529 1766.56 1394.5 1686.56 1394.5Z" stroke="#000000" stroke-width="3.4375" stroke-linejoin="round" stroke-miterlimit="10" fill="#404040"/></g><g><path d="M584.519 812.527 663.522 812.527 663.522 814.527 584.519 814.527ZM859.528 906.53 939.531 906.53 939.531 915.53 859.528 915.53ZM1135.54 1348.54 1215.54 1348.54 1215.54 1356.54 1135.54 1356.54ZM1410.55 1340.54 1490.55 1340.54 1490.55 1355.54 1410.55 1355.54ZM1686.56 866.529 1766.56 866.529 1766.56 879.529 1686.56 879.529Z" stroke="#000000" stroke-width="3.4375" stroke-linejoin="round" stroke-miterlimit="10" fill="#FFFFFF"/></g><g><path d="M446.515 730.524 526.517 730.524 526.517 783.526 446.515 783.526ZM584.519 755.525 663.522 755.525 663.522 812.527 584.519 812.527ZM722.524 809.527 801.526 809.527 801.526 882.529 722.524 882.529ZM859.528 810.527 939.531 810.527 939.531 906.53 859.528 906.53ZM997.533 1297.54 1077.54 1297.54 1077.54 1335.54 997.533 1335.54ZM1135.54 1303.54 1215.54 1303.54 1215.54 1348.54 1135.54 1348.54ZM1273.54 1284.54 1352.54 1284.54 1352.54 1349.54 1273.54 1349.54ZM1410.55 1256.54 1490.55 1256.54 1490.55 1340.54 1410.55 1340.54ZM1548.55 825.527 1628.55 825.527 1628.55 852.528 1548.55 852.528ZM1686.56 843.528 1766.56 843.528 1766.56 866.529 1686.56 866.529Z" stroke="#000000" stroke-width="3.4375" stroke-linejoin="round" stroke-miterlimit="10" fill="#A6A6A6"/></g><g><path d="M584.519 693.523 663.522 693.523 663.522 755.525 584.519 755.525ZM859.528 724.524 939.531 724.524 939.531 810.527 859.528 810.527ZM1135.54 1263.54 1215.54 1263.54 1215.54 1303.54 1135.54 1303.54ZM1410.55 1208.54 1490.55 1208.54 1490.55 1256.54 1410.55 1256.54ZM1686.56 803.527 1766.56 803.527 1766.56 843.528 1686.56 843.528Z" stroke="#000000" stroke-width="3.4375" stroke-linejoin="round" stroke-miterlimit="10" fill="#D9D9D9"/></g><g><path d="M0 0 0.000360892 893" stroke="#000000" stroke-width="3.4375" stroke-linejoin="round" stroke-miterlimit="10" fill="none" fill-rule="evenodd" transform="matrix(1 0 0 -1 417.5 1394.5)"/></g><g><path d="M402.5 1394.5 417.5 1394.5M402.5 1215.54 417.5 1215.54M402.5 1037.53 417.5 1037.53M402.5 858.528 417.5 858.528M402.5 679.522 417.5 679.522M402.5 501.5 417.5 501.5" stroke="#000000" stroke-width="3.4375" stroke-linejoin="round" stroke-miterlimit="10" fill="none"/></g><g><path d="M417.5 1394.5 1795.5 1394.5" stroke="#000000" stroke-width="3.4375" stroke-linejoin="round" stroke-miterlimit="10" fill="none" fill-rule="evenodd"/></g><g><path d="M417.5 1394.5 417.5 1638.5M693.523 1394.5 693.523 1638.5M968.532 1394.5 968.532 1638.5M1244.54 1394.5 1244.54 1638.5M1519.55 1394.5 1519.55 1638.5M1795.5 1394.5 1795.5 1638.5" stroke="#000000" stroke-width="3.4375" stroke-linejoin="round" stroke-miterlimit="10" fill="none"/></g><g><path d="M417.5 1638.5 417.5 1726.5M693.523 1638.5 693.523 1726.5M968.532 1638.5 968.532 1726.5M1244.54 1638.5 1244.54 1726.5M1519.55 1638.5 1519.55 1726.5M1795.5 1638.5 1795.5 1726.5" stroke="#000000" stroke-width="3.4375" stroke-linejoin="round" stroke-miterlimit="10" fill="none"/></g><g><text font-family="Calibri,Calibri_MSFontService,sans-serif" font-weight="400" font-size="46" transform="matrix(1 0 0 1 328.493 1408)">20</text></g><g><text font-family="Calibri,Calibri_MSFontService,sans-serif" font-weight="400" font-size="46" transform="matrix(1 0 0 1 328.493 1229)">25</text></g><g><text font-family="Calibri,Calibri_MSFontService,sans-serif" font-weight="400" font-size="46" transform="matrix(1 0 0 1 328.493 1051)">30</text></g><g><text font-family="Calibri,Calibri_MSFontService,sans-serif" font-weight="400" font-size="46" transform="matrix(1 0 0 1 328.493 872)">35</text></g><g><text font-family="Calibri,Calibri_MSFontService,sans-serif" font-weight="400" font-size="46" transform="matrix(1 0 0 1 328.493 693)">40</text></g><g><text font-family="Calibri,Calibri_MSFontService,sans-serif" font-weight="400" font-size="46" transform="matrix(1 0 0 1 328.493 515)">45</text></g><g><text font-family="Calibri,Calibri_MSFontService,sans-serif" font-weight="400" font-size="46" transform="matrix(6.12323e-17 -1 1 6.12323e-17 502.404 1611)">On-access</text></g><g><text font-family="Calibri,Calibri_MSFontService,sans-serif" font-weight="400" font-size="46" transform="matrix(6.12323e-17 -1 1 6.12323e-17 640.187 1635)">On-commit</text></g><g><text font-family="Calibri,Calibri_MSFontService,sans-serif" font-weight="400" font-size="46" transform="matrix(6.12323e-17 -1 1 6.12323e-17 777.97 1611)">On-access</text></g><g><text font-family="Calibri,Calibri_MSFontService,sans-serif" font-weight="400" font-size="46" transform="matrix(6.12323e-17 -1 1 6.12323e-17 915.753 1635)">On-commit</text></g><g><text font-family="Calibri,Calibri_MSFontService,sans-serif" font-weight="400" font-size="46" transform="matrix(6.12323e-17 -1 1 6.12323e-17 1053.54 1611)">On-access</text></g><g><text font-family="Calibri,Calibri_MSFontService,sans-serif" font-weight="400" font-size="46" transform="matrix(6.12323e-17 -1 1 6.12323e-17 1191.32 1635)">On-commit</text></g><g><text font-family="Calibri,Calibri_MSFontService,sans-serif" font-weight="400" font-size="46" transform="matrix(6.12323e-17 -1 1 6.12323e-17 1329.1 1611)">On-access</text></g><g><text font-family="Calibri,Calibri_MSFontService,sans-serif" font-weight="400" font-size="46" transform="matrix(6.12323e-17 -1 1 6.12323e-17 1466.89 1635)">On-commit</text></g><g><text font-family="Calibri,Calibri_MSFontService,sans-serif" font-weight="400" font-size="46" transform="matrix(6.12323e-17 -1 1 6.12323e-17 1604.67 1611)">On-access</text></g><g><text font-family="Calibri,Calibri_MSFontService,sans-serif" font-weight="400" font-size="46" transform="matrix(6.12323e-17 -1 1 6.12323e-17 1742.45 1635)">On-commit</text></g><g><text font-family="Calibri,Calibri_MSFontService,sans-serif" font-weight="400" font-size="46" transform="matrix(1 0 0 1 477.578 1711)">IP Stride</text></g><g><text font-family="Calibri,Calibri_MSFontService,sans-serif" font-weight="400" font-size="46" transform="matrix(1 0 0 1 789.169 1711)">IPCP</text></g><g><text font-family="Calibri,Calibri_MSFontService,sans-serif" font-weight="400" font-size="46" transform="matrix(1 0 0 1 1053.76 1711)">Bingo</text></g><g><text font-family="Calibri,Calibri_MSFontService,sans-serif" font-weight="400" font-size="46" transform="matrix(1 0 0 1 1302.14 1711)">SPP+PPF</text></g><g><text font-family="Calibri,Calibri_MSFontService,sans-serif" font-weight="400" font-size="46" transform="matrix(1 0 0 1 1612.74 1711)">Berti</text></g><g><text font-family="Calibri,Calibri_MSFontService,sans-serif" font-weight="400" font-size="46" transform="matrix(6.12323e-17 -1 1 6.12323e-17 277.714 1117)">L1D/L2C MPKI</text></g><g><rect x="615" y="528" width="970" height="136" fill="#FFFFFF"/></g><g><rect x="645.5" y="549.5" width="25.0001" height="24.9998" stroke="#000000" stroke-width="3.4375" stroke-linejoin="round" stroke-miterlimit="10" fill="#404040"/></g><g><text font-family="Calibri,Calibri_MSFontService,sans-serif" font-weight="400" font-size="46" transform="matrix(1 0 0 1 681.554 576)">Uncovered</text></g><g><rect x="1130.5" y="549.5" width="24.9998" height="24.9998" stroke="#000000" stroke-width="3.4375" stroke-linejoin="round" stroke-miterlimit="10" fill="#FFFFFF"/></g><g><text font-family="Calibri,Calibri_MSFontService,sans-serif" font-weight="400" font-size="46" transform="matrix(1 0 0 1 1166.44 576)">Missed Opportunity</text></g><g><rect x="645.5" y="617.5" width="25.0001" height="25.0001" stroke="#000000" stroke-width="3.4375" stroke-linejoin="round" stroke-miterlimit="10" fill="#A6A6A6"/></g><g><text font-family="Calibri,Calibri_MSFontService,sans-serif" font-weight="400" font-size="46" transform="matrix(1 0 0 1 681.554 644)">Late Prefetch</text></g><g><rect x="1130.5" y="617.5" width="24.9998" height="25.0001" stroke="#000000" stroke-width="3.4375" stroke-linejoin="round" stroke-miterlimit="10" fill="#D9D9D9"/></g><g><text font-family="Calibri,Calibri_MSFontService,sans-serif" font-weight="400" font-size="46" transform="matrix(1 0 0 1 1166.44 644)">Commit Late Prefetch</text></g></g></svg>