<svg width="3822" height="1083" xmlns="http://www.w3.org/2000/svg" xmlns:xlink="http://www.w3.org/1999/xlink" xml:space="preserve" overflow="hidden"><defs><clipPath id="clip0"><rect x="1530" y="277" width="3822" height="1083"/></clipPath></defs><g clip-path="url(#clip0)" transform="translate(-1530 -277)"><rect x="1530" y="277" width="3822" height="1083" fill="#FFFFFF"/><g><path d="M1931.5 781.526 5304.5 781.526M1931.5 765.525 5304.5 765.525M1931.5 748.525 5304.5 748.525M1931.5 731.524 5304.5 731.524M1931.5 697.523 5304.5 697.523M1931.5 680.523 5304.5 680.523M1931.5 663.522 5304.5 663.522M1931.5 646.521 5304.5 646.521M1931.5 613.52 5304.5 613.52M1931.5 596.52 5304.5 596.52M1931.5 579.519 5304.5 579.519M1931.5 562.519 5304.5 562.519M1931.5 528.518 5304.5 528.518M1931.5 511.517 5304.5 511.517M1931.5 495.516 5304.5 495.516M1931.5 478.516 5304.5 478.516M1931.5 444.515 5304.5 444.515M1931.5 427.514 5304.5 427.514M1931.5 410.514 5304.5 410.514M1931.5 393.513 5304.5 393.513" stroke="#F2F2F2" stroke-width="3.4375" stroke-linejoin="round" stroke-miterlimit="10" fill="none"/></g><g><path d="M1931.5 714.524 5304.5 714.524M1931.5 630.521 5304.5 630.521M1931.5 545.518 5304.5 545.518M1931.5 461.515 5304.5 461.515M1931.5 376.5 5304.5 376.5" stroke="#D9D9D9" stroke-width="3.4375" stroke-linejoin="round" stroke-miterlimit="10" fill="none"/></g><g><rect x="1931.5" y="376.5" width="3373" height="422" stroke="#000000" stroke-width="3.4375" stroke-linejoin="round" stroke-miterlimit="10" fill="none"/></g><g><path d="M2017.57 777.526 2041.57 777.526 2041.57 798.5 2017.57 798.5ZM2090.57 685.523 2114.57 685.523 2114.57 798.5 2090.57 798.5ZM2163.57 767.525 2188.57 767.525 2188.57 798.5 2163.57 798.5ZM2237.57 664.522 2261.57 664.522 2261.57 798.5 2237.57 798.5ZM2310.58 663.522 2334.58 663.522 2334.58 798.5 2310.58 798.5ZM2383.58 708.523 2408.58 708.523 2408.58 798.5 2383.58 798.5ZM2457.58 635.521 2481.58 635.521 2481.58 798.5 2457.58 798.5ZM2530.58 740.524 2554.58 740.524 2554.58 798.5 2530.58 798.5ZM2603.59 714.524 2628.59 714.524 2628.59 798.5 2603.59 798.5ZM2677.59 630.521 2701.59 630.521 2701.59 798.5 2677.59 798.5ZM2750.59 723.524 2774.59 723.524 2774.59 798.5 2750.59 798.5ZM2823.59 651.522 2848.59 651.522 2848.59 798.5 2823.59 798.5ZM2896.6 654.522 2921.6 654.522 2921.6 798.5 2896.6 798.5ZM2970.6 752.525 2994.6 752.525 2994.6 798.5 2970.6 798.5ZM3043.6 719.524 3067.6 719.524 3067.6 798.5 3043.6 798.5ZM3116.6 723.524 3141.6 723.524 3141.6 798.5 3116.6 798.5ZM3190.6 774.526 3214.61 774.526 3214.61 798.5 3190.6 798.5ZM3263.61 783.526 3287.61 783.526 3287.61 798.5 3263.61 798.5ZM3336.61 783.526 3361.61 783.526 3361.61 798.5 3336.61 798.5ZM3410.61 665.522 3434.61 665.522 3434.61 798.5 3410.61 798.5ZM3483.61 592.52 3507.62 592.52 3507.62 798.5 3483.61 798.5ZM3556.62 610.52 3581.62 610.52 3581.62 798.5 3556.62 798.5ZM3630.62 593.52 3654.62 593.52 3654.62 798.5 3630.62 798.5ZM3703.62 704.523 3727.62 704.523 3727.62 798.5 3703.62 798.5ZM3776.62 713.524 3801.62 713.524 3801.62 798.5 3776.62 798.5ZM3850.63 678.522 3874.63 678.522 3874.63 798.5 3850.63 798.5ZM3923.63 690.523 3947.63 690.523 3947.63 798.5 3923.63 798.5ZM3996.63 681.523 4021.63 681.523 4021.63 798.5 3996.63 798.5ZM4070.63 769.525 4094.63 769.525 4094.63 798.5 4070.63 798.5ZM4143.64 667.522 4167.64 667.522 4167.64 798.5 4143.64 798.5ZM4216.64 769.525 4241.64 769.525 4241.64 798.5 4216.64 798.5ZM4289.64 764.525 4314.64 764.525 4314.64 798.5 4289.64 798.5ZM4363.64 707.523 4387.64 707.523 4387.64 798.5 4363.64 798.5ZM4436.65 673.522 4460.65 673.522 4460.65 798.5 4436.65 798.5ZM4509.65 611.52 4534.65 611.52 4534.65 798.5 4509.65 798.5ZM4583.65 673.522 4607.65 673.522 4607.65 798.5 4583.65 798.5ZM4656.65 577.519 4680.65 577.519 4680.65 798.5 4656.65 798.5ZM4729.66 585.519 4754.66 585.519 4754.66 798.5 4729.66 798.5ZM4803.66 640.521 4827.66 640.521 4827.66 798.5 4803.66 798.5ZM4876.66 551.518 4900.66 551.518 4900.66 798.5 4876.66 798.5ZM4949.66 699.523 4974.66 699.523 4974.66 798.5 4949.66 798.5ZM5023.67 696.523 5047.67 696.523 5047.67 798.5 5023.67 798.5ZM5096.67 609.52 5120.67 609.52 5120.67 798.5 5096.67 798.5ZM5169.67 755.525 5194.67 755.525 5194.67 798.5 5169.67 798.5ZM5243.67 688.523 5267.67 688.523 5267.67 798.5 5243.67 798.5Z" stroke="#000000" stroke-width="3.4375" stroke-linejoin="round" stroke-miterlimit="10" fill="#F2F2F2"/></g><g><path d="M1968.56 735.524 1992.57 735.524 1992.57 798.5 1968.56 798.5ZM2041.57 775.526 2066.57 775.526 2066.57 798.5 2041.57 798.5ZM2115.57 711.524 2139.57 711.524 2139.57 798.5 2115.57 798.5ZM2188.57 760.525 2212.57 760.525 2212.57 798.5 2188.57 798.5ZM2261.57 669.522 2286.58 669.522 2286.58 798.5 2261.57 798.5ZM2335.58 670.522 2359.58 670.522 2359.58 798.5 2335.58 798.5ZM2408.58 655.522 2432.58 655.522 2432.58 798.5 2408.58 798.5ZM2481.58 637.521 2506.58 637.521 2506.58 798.5 2481.58 798.5ZM2555.58 740.524 2579.58 740.524 2579.58 798.5 2555.58 798.5ZM2628.59 715.524 2652.59 715.524 2652.59 798.5 2628.59 798.5ZM2701.59 578.519 2726.59 578.519 2726.59 798.5 2701.59 798.5ZM2774.59 727.524 2799.59 727.524 2799.59 798.5 2774.59 798.5ZM2848.59 619.521 2872.59 619.521 2872.59 798.5 2848.59 798.5ZM2921.6 628.521 2945.6 628.521 2945.6 798.5 2921.6 798.5ZM2994.6 753.525 3019.6 753.525 3019.6 798.5 2994.6 798.5ZM3068.6 719.524 3092.6 719.524 3092.6 798.5 3068.6 798.5ZM3141.6 723.524 3165.6 723.524 3165.6 798.5 3141.6 798.5ZM3214.61 774.526 3239.61 774.526 3239.61 798.5 3214.61 798.5ZM3288.61 783.526 3312.61 783.526 3312.61 798.5 3288.61 798.5ZM3361.61 783.526 3385.61 783.526 3385.61 798.5 3361.61 798.5ZM3434.61 464.515 3459.61 464.515 3459.61 798.5 3434.61 798.5ZM3508.62 385.513 3532.62 385.513 3532.62 798.5 3508.62 798.5ZM3581.62 408.514 3605.62 408.514 3605.62 798.5 3581.62 798.5ZM3654.62 386.513 3679.62 386.513 3679.62 798.5 3654.62 798.5ZM3728.62 704.523 3752.62 704.523 3752.62 798.5 3728.62 798.5ZM3801.62 713.524 3825.63 713.524 3825.63 798.5 3801.62 798.5ZM3874.63 671.522 3899.63 671.522 3899.63 798.5 3874.63 798.5ZM3948.63 692.523 3972.63 692.523 3972.63 798.5 3948.63 798.5ZM4021.63 666.522 4045.63 666.522 4045.63 798.5 4021.63 798.5ZM4094.63 770.525 4118.64 770.525 4118.64 798.5 4094.63 798.5ZM4167.64 706.523 4192.64 706.523 4192.64 798.5 4167.64 798.5ZM4241.64 767.525 4265.64 767.525 4265.64 798.5 4241.64 798.5ZM4314.64 762.525 4338.64 762.525 4338.64 798.5 4314.64 798.5ZM4387.64 683.523 4412.65 683.523 4412.65 798.5 4387.64 798.5ZM4461.65 685.523 4485.65 685.523 4485.65 798.5 4461.65 798.5ZM4534.65 627.521 4558.65 627.521 4558.65 798.5 4534.65 798.5ZM4607.65 680.523 4632.65 680.523 4632.65 798.5 4607.65 798.5ZM4681.65 582.519 4705.65 582.519 4705.65 798.5 4681.65 798.5ZM4754.66 623.521 4778.66 623.521 4778.66 798.5 4754.66 798.5ZM4827.66 642.521 4852.66 642.521 4852.66 798.5 4827.66 798.5ZM4901.66 642.521 4925.66 642.521 4925.66 798.5 4901.66 798.5ZM4974.66 716.524 4998.66 716.524 4998.66 798.5 4974.66 798.5ZM5047.67 705.523 5072.67 705.523 5072.67 798.5 5047.67 798.5ZM5121.67 601.52 5145.67 601.52 5145.67 798.5 5121.67 798.5ZM5194.67 754.525 5218.67 754.525 5218.67 798.5 5194.67 798.5ZM5267.67 671.522 5292.67 671.522 5292.67 798.5 5267.67 798.5Z" stroke="#000000" stroke-width="3.4375" stroke-linejoin="round" stroke-miterlimit="10" fill="#7F7F7F"/></g><g><path d="M0 0 0.000360892 422" stroke="#000000" stroke-width="3.4375" stroke-linejoin="round" stroke-miterlimit="10" fill="none" fill-rule="evenodd" transform="matrix(1 0 0 -1 1931.5 798.5)"/></g><g><path d="M1917.5 798.5 1931.5 798.5M1917.5 714.524 1931.5 714.524M1917.5 630.521 1931.5 630.521M1917.5 545.518 1931.5 545.518M1917.5 461.515 1931.5 461.515M1917.5 376.5 1931.5 376.5" stroke="#000000" stroke-width="3.4375" stroke-linejoin="round" stroke-miterlimit="10" fill="none"/></g><g><path d="M1931.5 798.5 5304.5 798.5" stroke="#000000" stroke-width="3.4375" stroke-linejoin="round" stroke-miterlimit="10" fill="none" fill-rule="evenodd"/></g><g><text font-family="Arial,Arial_MSFontService,sans-serif" font-weight="400" font-size="46" transform="matrix(1 0 0 1 1866.85 814)">0</text></g><g><text font-family="Arial,Arial_MSFontService,sans-serif" font-weight="400" font-size="46" transform="matrix(1 0 0 1 1815.88 730)">100</text></g><g><text font-family="Arial,Arial_MSFontService,sans-serif" font-weight="400" font-size="46" transform="matrix(1 0 0 1 1815.88 645)">200</text></g><g><text font-family="Arial,Arial_MSFontService,sans-serif" font-weight="400" font-size="46" transform="matrix(1 0 0 1 1815.88 561)">300</text></g><g><text font-family="Arial,Arial_MSFontService,sans-serif" font-weight="400" font-size="46" transform="matrix(1 0 0 1 1815.88 476)">400</text></g><g><text font-family="Arial,Arial_MSFontService,sans-serif" font-weight="400" font-size="46" transform="matrix(1 0 0 1 1815.88 392)">500</text></g><g><text font-family="Arial,Arial_MSFontService,sans-serif" font-weight="400" font-size="46" transform="matrix(0.707107 -0.707107 0.707107 0.707107 1653.96 1182)">600.perlbench_s-570B</text></g><g><text font-family="Arial,Arial_MSFontService,sans-serif" font-weight="400" font-size="46" transform="matrix(0.707107 -0.707107 0.707107 0.707107 1801.13 1108)">602.gcc_s-1850B</text></g><g><text font-family="Arial,Arial_MSFontService,sans-serif" font-weight="400" font-size="46" transform="matrix(0.707107 -0.707107 0.707107 0.707107 1874.45 1108)">602.gcc_s-2226B</text></g><g><text font-family="Arial,Arial_MSFontService,sans-serif" font-weight="400" font-size="46" transform="matrix(0.707107 -0.707107 0.707107 0.707107 1965.79 1090)">602.gcc_s-734B</text></g><g><text font-family="Arial,Arial_MSFontService,sans-serif" font-weight="400" font-size="46" transform="matrix(0.707107 -0.707107 0.707107 0.707107 1961.65 1168)">603.bwaves_s-1740B</text></g><g><text font-family="Arial,Arial_MSFontService,sans-serif" font-weight="400" font-size="46" transform="matrix(0.707107 -0.707107 0.707107 0.707107 2034.97 1168)">603.bwaves_s-2609B</text></g><g><text font-family="Arial,Arial_MSFontService,sans-serif" font-weight="400" font-size="46" transform="matrix(0.707107 -0.707107 0.707107 0.707107 2108.28 1168)">603.bwaves_s-2931B</text></g><g><text font-family="Arial,Arial_MSFontService,sans-serif" font-weight="400" font-size="46" transform="matrix(0.707107 -0.707107 0.707107 0.707107 2199.62 1150)">603.bwaves_s-891B</text></g><g><text font-family="Arial,Arial_MSFontService,sans-serif" font-weight="400" font-size="46" transform="matrix(0.707107 -0.707107 0.707107 0.707107 2312.58 1110)">605.mcf_s-1152B</text></g><g><text font-family="Arial,Arial_MSFontService,sans-serif" font-weight="400" font-size="46" transform="matrix(0.707107 -0.707107 0.707107 0.707107 2385.9 1110)">605.mcf_s-1536B</text></g><g><text font-family="Arial,Arial_MSFontService,sans-serif" font-weight="400" font-size="46" transform="matrix(0.707107 -0.707107 0.707107 0.707107 2459.21 1110)">605.mcf_s-1554B</text></g><g><text font-family="Arial,Arial_MSFontService,sans-serif" font-weight="400" font-size="46" transform="matrix(0.707107 -0.707107 0.707107 0.707107 2532.53 1110)">605.mcf_s-1644B</text></g><g><text font-family="Arial,Arial_MSFontService,sans-serif" font-weight="400" font-size="46" transform="matrix(0.707107 -0.707107 0.707107 0.707107 2623.87 1092)">605.mcf_s-472B</text></g><g><text font-family="Arial,Arial_MSFontService,sans-serif" font-weight="400" font-size="46" transform="matrix(0.707107 -0.707107 0.707107 0.707107 2697.19 1092)">605.mcf_s-484B</text></g><g><text font-family="Arial,Arial_MSFontService,sans-serif" font-weight="400" font-size="46" transform="matrix(0.707107 -0.707107 0.707107 0.707107 2770.5 1092)">605.mcf_s-665B</text></g><g><text font-family="Arial,Arial_MSFontService,sans-serif" font-weight="400" font-size="46" transform="matrix(0.707107 -0.707107 0.707107 0.707107 2843.82 1092)">605.mcf_s-782B</text></g><g><text font-family="Arial,Arial_MSFontService,sans-serif" font-weight="400" font-size="46" transform="matrix(0.707107 -0.707107 0.707107 0.707107 2917.14 1092)">605.mcf_s-994B</text></g><g><text font-family="Arial,Arial_MSFontService,sans-serif" font-weight="400" font-size="46" transform="matrix(0.707107 -0.707107 0.707107 0.707107 2858.94 1224)">607.cactuBSSN_s-2421B</text></g><g><text font-family="Arial,Arial_MSFontService,sans-serif" font-weight="400" font-size="46" transform="matrix(0.707107 -0.707107 0.707107 0.707107 2932.26 1224)">607.cactuBSSN_s-3477B</text></g><g><text font-family="Arial,Arial_MSFontService,sans-serif" font-weight="400" font-size="46" transform="matrix(0.707107 -0.707107 0.707107 0.707107 3005.58 1224)">607.cactuBSSN_s-4004B</text></g><g><text font-family="Arial,Arial_MSFontService,sans-serif" font-weight="400" font-size="46" transform="matrix(0.707107 -0.707107 0.707107 0.707107 3192.39 1110)">619.lbm_s-2676B</text></g><g><text font-family="Arial,Arial_MSFontService,sans-serif" font-weight="400" font-size="46" transform="matrix(0.707107 -0.707107 0.707107 0.707107 3265.71 1110)">619.lbm_s-2677B</text></g><g><text font-family="Arial,Arial_MSFontService,sans-serif" font-weight="400" font-size="46" transform="matrix(0.707107 -0.707107 0.707107 0.707107 3339.03 1110)">619.lbm_s-3766B</text></g><g><text font-family="Arial,Arial_MSFontService,sans-serif" font-weight="400" font-size="46" transform="matrix(0.707107 -0.707107 0.707107 0.707107 3412.35 1110)">619.lbm_s-4268B</text></g><g><text font-family="Arial,Arial_MSFontService,sans-serif" font-weight="400" font-size="46" transform="matrix(0.707107 -0.707107 0.707107 0.707107 3429.79 1166)">620.omnetpp_s-141B</text></g><g><text font-family="Arial,Arial_MSFontService,sans-serif" font-weight="400" font-size="46" transform="matrix(0.707107 -0.707107 0.707107 0.707107 3503.11 1166)">620.omnetpp_s-874B</text></g><g><text font-family="Arial,Arial_MSFontService,sans-serif" font-weight="400" font-size="46" transform="matrix(0.707107 -0.707107 0.707107 0.707107 3641.31 1101)">621.wrf_s-6673B</text></g><g><text font-family="Arial,Arial_MSFontService,sans-serif" font-weight="400" font-size="46" transform="matrix(0.707107 -0.707107 0.707107 0.707107 3714.63 1101)">621.wrf_s-8065B</text></g><g><text font-family="Arial,Arial_MSFontService,sans-serif" font-weight="400" font-size="46" transform="matrix(0.707107 -0.707107 0.707107 0.707107 3712.3 1177)">623.xalancbmk_s-10B</text></g><g><text font-family="Arial,Arial_MSFontService,sans-serif" font-weight="400" font-size="46" transform="matrix(0.707107 -0.707107 0.707107 0.707107 3767.6 1195)">623.xalancbmk_s-165B</text></g><g><text font-family="Arial,Arial_MSFontService,sans-serif" font-weight="400" font-size="46" transform="matrix(0.707107 -0.707107 0.707107 0.707107 3840.92 1195)">623.xalancbmk_s-202B</text></g><g><text font-family="Arial,Arial_MSFontService,sans-serif" font-weight="400" font-size="46" transform="matrix(0.707107 -0.707107 0.707107 0.707107 4015.06 1094)">628.pop2_s-17B</text></g><g><text font-family="Arial,Arial_MSFontService,sans-serif" font-weight="400" font-size="46" transform="matrix(0.707107 -0.707107 0.707107 0.707107 4055.97 1126)">641.leela_s-1083B</text></g><g><text font-family="Arial,Arial_MSFontService,sans-serif" font-weight="400" font-size="46" transform="matrix(0.707107 -0.707107 0.707107 0.707107 4048.2 1208)">649.fotonik3d_s-10881B</text></g><g><text font-family="Arial,Arial_MSFontService,sans-serif" font-weight="400" font-size="46" transform="matrix(0.707107 -0.707107 0.707107 0.707107 4139.54 1190)">649.fotonik3d_s-1176B</text></g><g><text font-family="Arial,Arial_MSFontService,sans-serif" font-weight="400" font-size="46" transform="matrix(0.707107 -0.707107 0.707107 0.707107 4212.86 1190)">649.fotonik3d_s-7084B</text></g><g><text font-family="Arial,Arial_MSFontService,sans-serif" font-weight="400" font-size="46" transform="matrix(0.707107 -0.707107 0.707107 0.707107 4286.17 1190)">649.fotonik3d_s-8225B</text></g><g><text font-family="Arial,Arial_MSFontService,sans-serif" font-weight="400" font-size="46" transform="matrix(0.707107 -0.707107 0.707107 0.707107 4419 1130)">654.roms_s-1007B</text></g><g><text font-family="Arial,Arial_MSFontService,sans-serif" font-weight="400" font-size="46" transform="matrix(0.707107 -0.707107 0.707107 0.707107 4492.31 1130)">654.roms_s-1070B</text></g><g><text font-family="Arial,Arial_MSFontService,sans-serif" font-weight="400" font-size="46" transform="matrix(0.707107 -0.707107 0.707107 0.707107 4565.63 1130)">654.roms_s-1390B</text></g><g><text font-family="Arial,Arial_MSFontService,sans-serif" font-weight="400" font-size="46" transform="matrix(0.707107 -0.707107 0.707107 0.707107 4638.95 1130)">654.roms_s-1613B</text></g><g><text font-family="Arial,Arial_MSFontService,sans-serif" font-weight="400" font-size="46" transform="matrix(0.707107 -0.707107 0.707107 0.707107 4730.29 1112)">654.roms_s-293B</text></g><g><text font-family="Arial,Arial_MSFontService,sans-serif" font-weight="400" font-size="46" transform="matrix(0.707107 -0.707107 0.707107 0.707107 4803.61 1112)">654.roms_s-294B</text></g><g><text font-family="Arial,Arial_MSFontService,sans-serif" font-weight="400" font-size="46" transform="matrix(0.707107 -0.707107 0.707107 0.707107 4876.92 1112)">654.roms_s-523B</text></g><g><text font-family="Arial,Arial_MSFontService,sans-serif" font-weight="400" font-size="46" transform="matrix(0.707107 -0.707107 0.707107 0.707107 4971.83 1090)">657.xz_s-2302B</text></g><g><text font-family="Arial,Arial_MSFontService,sans-serif" font-weight="400" font-size="46" transform="matrix(0.707107 -0.707107 0.707107 0.707107 5198.28 937)">Mean</text></g><g><text font-family="Arial,Arial_MSFontService,sans-serif" font-weight="400" font-size="46" transform="matrix(6.12323e-17 -1 1 6.12323e-17 1718.62 767)">L1D Miss Latency</text></g><g><text font-family="Arial,Arial_MSFontService,sans-serif" font-weight="400" font-size="46" transform="matrix(6.12323e-17 -1 1 6.12323e-17 1771.62 664)">(cycles)</text></g><g><rect x="3173.5" y="317.5" width="23" height="23" stroke="#000000" stroke-width="3.4375" stroke-linejoin="round" stroke-miterlimit="10" fill="#F2F2F2"/></g><g><text font-family="Arial,Arial_MSFontService,sans-serif" font-weight="400" font-size="46" transform="matrix(1 0 0 1 3205.87 344)">On-access</text></g><g><rect x="3474.5" y="317.5" width="23" height="23" stroke="#000000" stroke-width="3.4375" stroke-linejoin="round" stroke-miterlimit="10" fill="#7F7F7F"/></g><g><text font-family="Arial,Arial_MSFontService,sans-serif" font-weight="400" font-size="46" transform="matrix(1 0 0 1 3507.73 344)">On-commit</text></g></g></svg>