<svg width="1689" height="1310" xmlns="http://www.w3.org/2000/svg" xmlns:xlink="http://www.w3.org/1999/xlink" xml:space="preserve" overflow="hidden"><defs><clipPath id="clip0"><rect x="76" y="491" width="1689" height="1310"/></clipPath></defs><g clip-path="url(#clip0)" transform="translate(-76 -491)"><rect x="76" y="491" width="1689" height="1310" fill="#FFFFFF"/><g><path d="M306.5 1333.54 1722.5 1333.54M306.5 1311.54 1722.5 1311.54M306.5 1289.54 1722.5 1289.54M306.5 1267.54 1722.5 1267.54M306.5 1222.54 1722.5 1222.54M306.5 1200.54 1722.5 1200.54M306.5 1178.54 1722.5 1178.54M306.5 1156.54 1722.5 1156.54M306.5 1112.54 1722.5 1112.54M306.5 1089.54 1722.5 1089.54M306.5 1067.54 1722.5 1067.54M306.5 1045.53 1722.5 1045.53M306.5 1001.53 1722.5 1001.53M306.5 979.532 1722.5 979.532M306.5 956.532 1722.5 956.532M306.5 934.531 1722.5 934.531M306.5 890.529 1722.5 890.529M306.5 868.529 1722.5 868.529M306.5 846.528 1722.5 846.528M306.5 823.527 1722.5 823.527M306.5 779.526 1722.5 779.526M306.5 757.525 1722.5 757.525M306.5 735.524 1722.5 735.524M306.5 713.524 1722.5 713.524M306.5 668.522 1722.5 668.522M306.5 646.521 1722.5 646.521M306.5 624.521 1722.5 624.521M306.5 602.52 1722.5 602.52" stroke="#F2F2F2" stroke-width="3.4375" stroke-linejoin="round" stroke-miterlimit="10" fill="none"/></g><g><path d="M306.5 1245.54 1722.5 1245.54M306.5 1134.54 1722.5 1134.54M306.5 1023.53 1722.5 1023.53M306.5 912.53 1722.5 912.53M306.5 801.526 1722.5 801.526M306.5 690.523 1722.5 690.523M306.5 580.5 1722.5 580.5" stroke="#D9D9D9" stroke-width="3.4375" stroke-linejoin="round" stroke-miterlimit="10" fill="none"/></g><g><rect x="306.5" y="580.5" width="1416" height="775" stroke="#000000" stroke-width="3.4375" stroke-linejoin="round" stroke-miterlimit="10" fill="none"/></g><g><path d="M331.511 1134.54 399.513 1134.54 399.513 1355.5 331.511 1355.5ZM449.515 1164.54 517.517 1164.54 517.517 1355.5 449.515 1355.5ZM567.519 1117.54 635.521 1117.54 635.521 1355.5 567.519 1355.5ZM685.523 1150.54 753.525 1150.54 753.525 1355.5 685.523 1355.5ZM803.526 1115.54 871.529 1115.54 871.529 1355.5 803.526 1355.5ZM921.53 1146.54 989.533 1146.54 989.533 1355.5 921.53 1355.5ZM1039.53 1117.54 1107.54 1117.54 1107.54 1355.5 1039.53 1355.5ZM1157.54 1147.54 1225.54 1147.54 1225.54 1355.5 1157.54 1355.5ZM1275.54 1116.54 1343.54 1116.54 1343.54 1355.5 1275.54 1355.5ZM1393.55 1150.54 1461.55 1150.54 1461.55 1355.5 1393.55 1355.5ZM1511.55 1114.54 1579.55 1114.54 1579.55 1355.5 1511.55 1355.5ZM1629.55 1145.54 1697.56 1145.54 1697.56 1355.5 1629.55 1355.5Z" stroke="#000000" stroke-width="3.4375" stroke-linejoin="round" stroke-miterlimit="10" fill="#D9D9D9"/></g><g><path d="M567.519 1079.54 635.521 1079.54 635.521 1117.54 567.519 1117.54ZM685.523 1108.54 753.525 1108.54 753.525 1150.54 685.523 1150.54ZM803.526 1031.53 871.529 1031.53 871.529 1115.54 803.526 1115.54ZM921.53 1052.53 989.533 1052.53 989.533 1146.54 921.53 1146.54ZM1511.55 851.528 1579.55 851.528 1579.55 1114.54 1511.55 1114.54ZM1629.55 862.529 1697.56 862.529 1697.56 1145.54 1629.55 1145.54Z" stroke="#000000" stroke-width="3.4375" stroke-linejoin="round" stroke-miterlimit="10" fill="#A6A6A6"/></g><g><path d="M449.515 940.531 517.517 940.531 517.517 1164.54 449.515 1164.54ZM685.523 878.529 753.525 878.529 753.525 1108.54 685.523 1108.54ZM921.53 822.527 989.533 822.527 989.533 1052.53 921.53 1052.53ZM1157.54 914.53 1225.54 914.53 1225.54 1147.54 1157.54 1147.54ZM1393.55 919.53 1461.55 919.53 1461.55 1150.54 1393.55 1150.54ZM1629.55 631.521 1697.56 631.521 1697.56 862.529 1629.55 862.529Z" stroke="#000000" stroke-width="3.4375" stroke-linejoin="round" stroke-miterlimit="10" fill="#404040"/></g><g><path d="M0 0 0.000360892 775" stroke="#000000" stroke-width="3.4375" stroke-linejoin="round" stroke-miterlimit="10" fill="none" fill-rule="evenodd" transform="matrix(1 0 0 -1 306.5 1355.5)"/></g><g><path d="M291.5 1355.5 306.5 1355.5M291.5 1245.54 306.5 1245.54M291.5 1134.54 306.5 1134.54M291.5 1023.53 306.5 1023.53M291.5 912.53 306.5 912.53M291.5 801.526 306.5 801.526M291.5 690.523 306.5 690.523M291.5 580.5 306.5 580.5" stroke="#000000" stroke-width="3.4375" stroke-linejoin="round" stroke-miterlimit="10" fill="none"/></g><g><path d="M306.5 1355.5 1722.5 1355.5" stroke="#000000" stroke-width="3.4375" stroke-linejoin="round" stroke-miterlimit="10" fill="none" fill-rule="evenodd"/></g><g><path d="M306.5 1355.5 306.5 1606.5M542.518 1355.5 542.518 1606.5M778.526 1355.5 778.526 1606.5M1014.53 1355.5 1014.53 1606.5M1250.54 1355.5 1250.54 1606.5M1486.55 1355.5 1486.55 1606.5M1722.5 1355.5 1722.5 1606.5" stroke="#000000" stroke-width="3.4375" stroke-linejoin="round" stroke-miterlimit="10" fill="none"/></g><g><path d="M306.5 1606.5 306.5 1694.5M542.518 1606.5 542.518 1694.5M778.526 1606.5 778.526 1694.5M1014.53 1606.5 1014.53 1694.5M1250.54 1606.5 1250.54 1694.5M1486.55 1606.5 1486.55 1694.5M1722.5 1606.5 1722.5 1694.5" stroke="#000000" stroke-width="3.4375" stroke-linejoin="round" stroke-miterlimit="10" fill="none"/></g><g><text font-family="Calibri,Calibri_MSFontService,sans-serif" font-weight="400" font-size="46" transform="matrix(1 0 0 1 240.718 1369)">0</text></g><g><text font-family="Calibri,Calibri_MSFontService,sans-serif" font-weight="400" font-size="46" transform="matrix(1 0 0 1 194.243 1259)">100</text></g><g><text font-family="Calibri,Calibri_MSFontService,sans-serif" font-weight="400" font-size="46" transform="matrix(1 0 0 1 194.243 1148)">200</text></g><g><text font-family="Calibri,Calibri_MSFontService,sans-serif" font-weight="400" font-size="46" transform="matrix(1 0 0 1 194.243 1037)">300</text></g><g><text font-family="Calibri,Calibri_MSFontService,sans-serif" font-weight="400" font-size="46" transform="matrix(1 0 0 1 194.243 926)">400</text></g><g><text font-family="Calibri,Calibri_MSFontService,sans-serif" font-weight="400" font-size="46" transform="matrix(1 0 0 1 194.243 815)">500</text></g><g><text font-family="Calibri,Calibri_MSFontService,sans-serif" font-weight="400" font-size="46" transform="matrix(1 0 0 1 194.243 704)">600</text></g><g><text font-family="Calibri,Calibri_MSFontService,sans-serif" font-weight="400" font-size="46" transform="matrix(1 0 0 1 194.243 594)">700</text></g><g><text font-family="Calibri,Calibri_MSFontService,sans-serif" font-weight="400" font-size="46" transform="matrix(6.12323e-17 -1 1 6.12323e-17 381.512 1603)">Non-Secure</text></g><g><text font-family="Calibri,Calibri_MSFontService,sans-serif" font-weight="400" font-size="46" transform="matrix(6.12323e-17 -1 1 6.12323e-17 499.536 1511)">Secure</text></g><g><text font-family="Calibri,Calibri_MSFontService,sans-serif" font-weight="400" font-size="46" transform="matrix(6.12323e-17 -1 1 6.12323e-17 617.56 1603)">Non-Secure</text></g><g><text font-family="Calibri,Calibri_MSFontService,sans-serif" font-weight="400" font-size="46" transform="matrix(6.12323e-17 -1 1 6.12323e-17 735.584 1511)">Secure</text></g><g><text font-family="Calibri,Calibri_MSFontService,sans-serif" font-weight="400" font-size="46" transform="matrix(6.12323e-17 -1 1 6.12323e-17 853.608 1603)">Non-Secure</text></g><g><text font-family="Calibri,Calibri_MSFontService,sans-serif" font-weight="400" font-size="46" transform="matrix(6.12323e-17 -1 1 6.12323e-17 971.632 1511)">Secure</text></g><g><text font-family="Calibri,Calibri_MSFontService,sans-serif" font-weight="400" font-size="46" transform="matrix(6.12323e-17 -1 1 6.12323e-17 1089.66 1603)">Non-Secure</text></g><g><text font-family="Calibri,Calibri_MSFontService,sans-serif" font-weight="400" font-size="46" transform="matrix(6.12323e-17 -1 1 6.12323e-17 1207.68 1511)">Secure</text></g><g><text font-family="Calibri,Calibri_MSFontService,sans-serif" font-weight="400" font-size="46" transform="matrix(6.12323e-17 -1 1 6.12323e-17 1325.7 1603)">Non-Secure</text></g><g><text font-family="Calibri,Calibri_MSFontService,sans-serif" font-weight="400" font-size="46" transform="matrix(6.12323e-17 -1 1 6.12323e-17 1443.73 1511)">Secure</text></g><g><text font-family="Calibri,Calibri_MSFontService,sans-serif" font-weight="400" font-size="46" transform="matrix(6.12323e-17 -1 1 6.12323e-17 1561.75 1603)">Non-Secure</text></g><g><text font-family="Calibri,Calibri_MSFontService,sans-serif" font-weight="400" font-size="46" transform="matrix(6.12323e-17 -1 1 6.12323e-17 1679.78 1511)">Secure</text></g><g><text font-family="Calibri,Calibri_MSFontService,sans-serif" font-weight="400" font-size="46" transform="matrix(1 0 0 1 354.219 1680)">No Pref</text></g><g><text font-family="Calibri,Calibri_MSFontService,sans-serif" font-weight="400" font-size="46" transform="matrix(1 0 0 1 582.854 1680)">IP Stride</text></g><g><text font-family="Calibri,Calibri_MSFontService,sans-serif" font-weight="400" font-size="46" transform="matrix(1 0 0 1 854.928 1680)">IPCP</text></g><g><text font-family="Calibri,Calibri_MSFontService,sans-serif" font-weight="400" font-size="46" transform="matrix(1 0 0 1 1080 1680)">Bingo</text></g><g><text font-family="Calibri,Calibri_MSFontService,sans-serif" font-weight="400" font-size="46" transform="matrix(1 0 0 1 1288.87 1680)">SPP+PPF</text></g><g><text font-family="Calibri,Calibri_MSFontService,sans-serif" font-weight="400" font-size="46" transform="matrix(1 0 0 1 1559.94 1680)">Berti</text></g><g><text font-family="Calibri,Calibri_MSFontService,sans-serif" font-weight="400" font-size="46" transform="matrix(6.12323e-17 -1 1 6.12323e-17 148.785 1110)">L1D traffic</text></g><g><rect x="579" y="606" width="891" height="91.0001" fill="#FFFFFF"/></g><g><rect x="636.5" y="639.5" width="24.9998" height="25.0001" stroke="#000000" stroke-width="3.4375" stroke-linejoin="round" stroke-miterlimit="10" fill="#D9D9D9"/></g><g><text font-family="Calibri,Calibri_MSFontService,sans-serif" font-weight="400" font-size="46" transform="matrix(1 0 0 1 672.123 665)">Load</text></g><g><rect x="817.5" y="639.5" width="25.0001" height="25.0001" stroke="#000000" stroke-width="3.4375" stroke-linejoin="round" stroke-miterlimit="10" fill="#A6A6A6"/></g><g><text font-family="Calibri,Calibri_MSFontService,sans-serif" font-weight="400" font-size="46" transform="matrix(1 0 0 1 853.154 665)">Prefetch</text></g><g><rect x="1066.5" y="639.5" width="24.9998" height="25.0001" stroke="#000000" stroke-width="3.4375" stroke-linejoin="round" stroke-miterlimit="10" fill="#404040"/></g><g><text font-family="Calibri,Calibri_MSFontService,sans-serif" font-weight="400" font-size="46" transform="matrix(1 0 0 1 1102.75 665)">Commit Requests</text></g></g></svg>