<svg width="1683" height="972" xmlns="http://www.w3.org/2000/svg" xmlns:xlink="http://www.w3.org/1999/xlink" xml:space="preserve" overflow="hidden"><defs><clipPath id="clip0"><rect x="2022" y="325" width="1683" height="972"/></clipPath></defs><g clip-path="url(#clip0)" transform="translate(-2022 -325)"><rect x="2022" y="325" width="1683" height="972" fill="#FFFFFF"/><g><path d="M2313.5 1037.53 3585.5 1037.53M2313.5 1010.53 3585.5 1010.53M2313.5 983.532 3585.5 983.532M2313.5 956.532 3585.5 956.532M2313.5 902.53 3585.5 902.53M2313.5 875.529 3585.5 875.529M2313.5 848.528 3585.5 848.528M2313.5 821.527 3585.5 821.527M2313.5 767.525 3585.5 767.525M2313.5 740.524 3585.5 740.524M2313.5 713.524 3585.5 713.524M2313.5 686.523 3585.5 686.523M2313.5 632.521 3585.5 632.521M2313.5 605.52 3585.5 605.52M2313.5 578.519 3585.5 578.519M2313.5 551.518 3585.5 551.518M2313.5 497.517 3585.5 497.517M2313.5 470.516 3585.5 470.516M2313.5 443.515 3585.5 443.515M2313.5 416.514 3585.5 416.514" stroke="#F2F2F2" stroke-width="3.4375" stroke-linejoin="round" stroke-miterlimit="10" fill="none"/></g><g><path d="M2313.5 929.531 3585.5 929.531M2313.5 794.526 3585.5 794.526M2313.5 659.522 3585.5 659.522M2313.5 524.517 3585.5 524.517M2313.5 389.5 3585.5 389.5" stroke="#BFBFBF" stroke-width="3.4375" stroke-linejoin="round" stroke-miterlimit="10" fill="none"/></g><g><rect x="2313.5" y="389.5" width="1272" height="675" stroke="#000000" stroke-width="3.4375" stroke-linejoin="round" stroke-miterlimit="10" fill="none"/></g><g><path d="M2355.58 849.528 2440.58 849.528 2440.58 1064.5 2355.58 1064.5ZM2609.59 911.53 2694.59 911.53 2694.59 1064.5 2609.59 1064.5ZM2864.59 609.52 2948.6 609.52 2948.6 1064.5 2864.59 1064.5ZM3118.6 609.52 3203.61 609.52 3203.61 1064.5 3118.6 1064.5ZM3372.61 924.531 3457.61 924.531 3457.61 1064.5 3372.61 1064.5Z" stroke="#000000" stroke-width="3.4375" stroke-linejoin="round" stroke-miterlimit="10" fill="#D9D9D9"/></g><g><path d="M2440.58 831.527 2524.58 831.527 2524.58 1064.5 2440.58 1064.5ZM2694.59 891.529 2779.59 891.529 2779.59 1064.5 2694.59 1064.5ZM2948.6 581.519 3033.6 581.519 3033.6 1064.5 2948.6 1064.5ZM3203.61 580.519 3288.61 580.519 3288.61 1064.5 3203.61 1064.5ZM3457.61 904.53 3542.62 904.53 3542.62 1064.5 3457.61 1064.5Z" stroke="#000000" stroke-width="3.4375" stroke-linejoin="round" stroke-miterlimit="10" fill="#595959"/></g><g><path d="M0 0 0.000360892 675" stroke="#000000" stroke-width="2.29167" stroke-linejoin="round" stroke-miterlimit="10" fill="none" fill-rule="evenodd" transform="matrix(1 0 0 -1 2313 1064)"/></g><g><path d="M2299 1064 2313 1064M2299 929.03 2313 929.03M2299 794.026 2313 794.026M2299 659.022 2313 659.022M2299 524.017 2313 524.017M2299 389 2313 389" stroke="#000000" stroke-width="2.29167" stroke-linejoin="round" stroke-miterlimit="10" fill="none"/></g><g><path d="M2313.5 1064.5 3585.5 1064.5" stroke="#000000" stroke-width="3.4375" stroke-linejoin="round" stroke-miterlimit="10" fill="none" fill-rule="evenodd"/></g><g><text font-family="Arial,Arial_MSFontService,sans-serif" font-weight="400" font-size="46" transform="matrix(1 0 0 1 2222.6 1079)">30</text></g><g><text font-family="Arial,Arial_MSFontService,sans-serif" font-weight="400" font-size="46" transform="matrix(1 0 0 1 2222.6 944)">35</text></g><g><text font-family="Arial,Arial_MSFontService,sans-serif" font-weight="400" font-size="46" transform="matrix(1 0 0 1 2222.6 809)">40</text></g><g><text font-family="Arial,Arial_MSFontService,sans-serif" font-weight="400" font-size="46" transform="matrix(1 0 0 1 2222.6 674)">45</text></g><g><text font-family="Arial,Arial_MSFontService,sans-serif" font-weight="400" font-size="46" transform="matrix(1 0 0 1 2222.6 539)">50</text></g><g><text font-family="Arial,Arial_MSFontService,sans-serif" font-weight="400" font-size="46" transform="matrix(1 0 0 1 2222.6 404)">55</text></g><g><text font-family="Arial,Arial_MSFontService,sans-serif" font-weight="400" font-size="46" transform="matrix(0.707107 -0.707107 0.707107 0.707107 2325.74 1248)">IP-Stride</text></g><g><text font-family="Arial,Arial_MSFontService,sans-serif" font-weight="400" font-size="46" transform="matrix(0.707107 -0.707107 0.707107 0.707107 2630.59 1197)">IPCP</text></g><g><text font-family="Arial,Arial_MSFontService,sans-serif" font-weight="400" font-size="46" transform="matrix(0.707107 -0.707107 0.707107 0.707107 2877.79 1205)">Bingo</text></g><g><text font-family="Arial,Arial_MSFontService,sans-serif" font-weight="400" font-size="46" transform="matrix(0.707107 -0.707107 0.707107 0.707107 3068.27 1269)">SPP+PPF</text></g><g><text font-family="Arial,Arial_MSFontService,sans-serif" font-weight="400" font-size="46" transform="matrix(0.707107 -0.707107 0.707107 0.707107 3402.87 1188)">Berti</text></g><g><text font-family="Arial,Arial_MSFontService,sans-serif" font-weight="400" font-size="46" transform="matrix(6.12323e-17 -1 1 6.12323e-17 2150.83 903)">L1D Load MPKI</text></g><g><rect x="2337" y="411" width="666" height="106" fill="#FFFFFF"/></g><g><rect x="2389.5" y="425.5" width="24" height="23" stroke="#000000" stroke-width="3.4375" stroke-linejoin="round" stroke-miterlimit="10" fill="#D9D9D9"/></g><g><text font-family="Arial,Arial_MSFontService,sans-serif" font-weight="400" font-size="46" transform="matrix(1 0 0 1 2422.84 452)">Non-secure cache system</text></g><g><rect x="2389.5" y="478.5" width="24" height="23" stroke="#000000" stroke-width="3.4375" stroke-linejoin="round" stroke-miterlimit="10" fill="#595959"/></g><g><text font-family="Arial,Arial_MSFontService,sans-serif" font-weight="400" font-size="46" transform="matrix(1 0 0 1 2422.84 505)">Secure cache system</text></g></g></svg>