<svg width="1689" height="1310" xmlns="http://www.w3.org/2000/svg" xmlns:xlink="http://www.w3.org/1999/xlink" xml:space="preserve" overflow="hidden"><defs><clipPath id="clip0"><rect x="76" y="496" width="1689" height="1310"/></clipPath></defs><g clip-path="url(#clip0)" transform="translate(-76 -496)"><rect x="76" y="496" width="1689" height="1310" fill="#FFFFFF"/><g><path d="M306.5 1332.54 1722.5 1332.54M306.5 1304.54 1722.5 1304.54M306.5 1275.54 1722.5 1275.54M306.5 1247.54 1722.5 1247.54M306.5 1191.54 1722.5 1191.54M306.5 1163.54 1722.5 1163.54M306.5 1134.54 1722.5 1134.54M306.5 1106.54 1722.5 1106.54M306.5 1050.53 1722.5 1050.53M306.5 1021.53 1722.5 1021.53M306.5 993.533 1722.5 993.533M306.5 965.532 1722.5 965.532M306.5 909.53 1722.5 909.53M306.5 880.529 1722.5 880.529M306.5 852.528 1722.5 852.528M306.5 824.527 1722.5 824.527M306.5 768.525 1722.5 768.525M306.5 739.524 1722.5 739.524M306.5 711.523 1722.5 711.523M306.5 683.523 1722.5 683.523M306.5 626.521 1722.5 626.521M306.5 598.5 1722.5 598.5" stroke="#F2F2F2" stroke-width="3.4375" stroke-linejoin="round" stroke-miterlimit="10" fill="none"/></g><g><path d="M306.5 1219.54 1722.5 1219.54M306.5 1078.54 1722.5 1078.54M306.5 937.531 1722.5 937.531M306.5 796.526 1722.5 796.526M306.5 655.5 1722.5 655.5" stroke="#D9D9D9" stroke-width="3.4375" stroke-linejoin="round" stroke-miterlimit="10" fill="none"/></g><g><rect x="306.5" y="584.5" width="1416" height="776" stroke="#000000" stroke-width="3.4375" stroke-linejoin="round" stroke-miterlimit="10" fill="none"/></g><g><path d="M331.511 1143.54 399.513 1143.54 399.513 1360.5 331.511 1360.5ZM449.515 1186.54 517.517 1186.54 517.517 1360.5 449.515 1360.5ZM567.519 1139.54 635.521 1139.54 635.521 1360.5 567.519 1360.5ZM685.523 1187.54 753.525 1187.54 753.525 1360.5 685.523 1360.5ZM803.526 1131.54 871.529 1131.54 871.529 1360.5 803.526 1360.5ZM921.53 1177.54 989.533 1177.54 989.533 1360.5 921.53 1360.5ZM1039.53 1136.54 1107.54 1136.54 1107.54 1360.5 1039.53 1360.5ZM1157.54 1178.54 1225.54 1178.54 1225.54 1360.5 1157.54 1360.5ZM1275.54 1134.54 1343.54 1134.54 1343.54 1360.5 1275.54 1360.5ZM1393.55 1181.54 1461.55 1181.54 1461.55 1360.5 1393.55 1360.5ZM1511.55 1133.54 1579.55 1133.54 1579.55 1360.5 1511.55 1360.5ZM1629.55 1178.54 1697.56 1178.54 1697.56 1360.5 1629.55 1360.5Z" stroke="#000000" stroke-width="3.4375" stroke-linejoin="round" stroke-miterlimit="10" fill="#D9D9D9"/></g><g><path d="M567.519 1080.54 635.521 1080.54 635.521 1139.54 567.519 1139.54ZM685.523 1139.54 753.525 1139.54 753.525 1187.54 685.523 1187.54ZM803.526 903.53 871.529 903.53 871.529 1131.54 803.526 1131.54ZM921.53 968.532 989.533 968.532 989.533 1177.54 921.53 1177.54ZM1511.55 845.528 1579.55 845.528 1579.55 1133.54 1511.55 1133.54ZM1629.55 986.533 1697.56 986.533 1697.56 1178.54 1629.55 1178.54Z" stroke="#000000" stroke-width="3.4375" stroke-linejoin="round" stroke-miterlimit="10" fill="#A6A6A6"/></g><g><path d="M449.515 963.532 517.517 963.532 517.517 1186.54 449.515 1186.54ZM685.523 913.53 753.525 913.53 753.525 1139.54 685.523 1139.54ZM921.53 745.525 989.533 745.525 989.533 968.532 921.53 968.532ZM1157.54 955.531 1225.54 955.531 1225.54 1178.54 1157.54 1178.54ZM1393.55 956.532 1461.55 956.532 1461.55 1181.54 1393.55 1181.54ZM1629.55 762.525 1697.56 762.525 1697.56 986.533 1629.55 986.533Z" stroke="#000000" stroke-width="3.4375" stroke-linejoin="round" stroke-miterlimit="10" fill="#404040"/></g><g><path d="M0 0 0.000360892 776" stroke="#000000" stroke-width="3.4375" stroke-linejoin="round" stroke-miterlimit="10" fill="none" fill-rule="evenodd" transform="matrix(1 0 0 -1 306.5 1360.5)"/></g><g><path d="M291.5 1360.5 306.5 1360.5M291.5 1219.54 306.5 1219.54M291.5 1078.54 306.5 1078.54M291.5 937.531 306.5 937.531M291.5 796.526 306.5 796.526M291.5 655.5 306.5 655.5" stroke="#000000" stroke-width="3.4375" stroke-linejoin="round" stroke-miterlimit="10" fill="none"/></g><g><path d="M306.5 1360.5 1722.5 1360.5" stroke="#000000" stroke-width="3.4375" stroke-linejoin="round" stroke-miterlimit="10" fill="none" fill-rule="evenodd"/></g><g><path d="M306.5 1360.5 306.5 1611.5M542.518 1360.5 542.518 1611.5M778.526 1360.5 778.526 1611.5M1014.53 1360.5 1014.53 1611.5M1250.54 1360.5 1250.54 1611.5M1486.55 1360.5 1486.55 1611.5M1722.5 1360.5 1722.5 1611.5" stroke="#000000" stroke-width="3.4375" stroke-linejoin="round" stroke-miterlimit="10" fill="none"/></g><g><path d="M306.5 1611.5 306.5 1699.5M542.518 1611.5 542.518 1699.5M778.526 1611.5 778.526 1699.5M1014.53 1611.5 1014.53 1699.5M1250.54 1611.5 1250.54 1699.5M1486.55 1611.5 1486.55 1699.5M1722.5 1611.5 1722.5 1699.5" stroke="#000000" stroke-width="3.4375" stroke-linejoin="round" stroke-miterlimit="10" fill="none"/></g><g><text font-family="Calibri,Calibri_MSFontService,sans-serif" font-weight="400" font-size="46" transform="matrix(1 0 0 1 240.718 1374)">0</text></g><g><text font-family="Calibri,Calibri_MSFontService,sans-serif" font-weight="400" font-size="46" transform="matrix(1 0 0 1 194.243 1233)">200</text></g><g><text font-family="Calibri,Calibri_MSFontService,sans-serif" font-weight="400" font-size="46" transform="matrix(1 0 0 1 194.243 1092)">400</text></g><g><text font-family="Calibri,Calibri_MSFontService,sans-serif" font-weight="400" font-size="46" transform="matrix(1 0 0 1 194.243 951)">600</text></g><g><text font-family="Calibri,Calibri_MSFontService,sans-serif" font-weight="400" font-size="46" transform="matrix(1 0 0 1 194.243 810)">800</text></g><g><text font-family="Calibri,Calibri_MSFontService,sans-serif" font-weight="400" font-size="46" transform="matrix(1 0 0 1 171.006 669)">1000</text></g><g><text font-family="Calibri,Calibri_MSFontService,sans-serif" font-weight="400" font-size="46" transform="matrix(6.12323e-17 -1 1 6.12323e-17 381.512 1608)">Non-Secure</text></g><g><text font-family="Calibri,Calibri_MSFontService,sans-serif" font-weight="400" font-size="46" transform="matrix(6.12323e-17 -1 1 6.12323e-17 499.536 1516)">Secure</text></g><g><text font-family="Calibri,Calibri_MSFontService,sans-serif" font-weight="400" font-size="46" transform="matrix(6.12323e-17 -1 1 6.12323e-17 617.56 1608)">Non-Secure</text></g><g><text font-family="Calibri,Calibri_MSFontService,sans-serif" font-weight="400" font-size="46" transform="matrix(6.12323e-17 -1 1 6.12323e-17 735.584 1516)">Secure</text></g><g><text font-family="Calibri,Calibri_MSFontService,sans-serif" font-weight="400" font-size="46" transform="matrix(6.12323e-17 -1 1 6.12323e-17 853.608 1608)">Non-Secure</text></g><g><text font-family="Calibri,Calibri_MSFontService,sans-serif" font-weight="400" font-size="46" transform="matrix(6.12323e-17 -1 1 6.12323e-17 971.632 1516)">Secure</text></g><g><text font-family="Calibri,Calibri_MSFontService,sans-serif" font-weight="400" font-size="46" transform="matrix(6.12323e-17 -1 1 6.12323e-17 1089.66 1608)">Non-Secure</text></g><g><text font-family="Calibri,Calibri_MSFontService,sans-serif" font-weight="400" font-size="46" transform="matrix(6.12323e-17 -1 1 6.12323e-17 1207.68 1516)">Secure</text></g><g><text font-family="Calibri,Calibri_MSFontService,sans-serif" font-weight="400" font-size="46" transform="matrix(6.12323e-17 -1 1 6.12323e-17 1325.7 1608)">Non-Secure</text></g><g><text font-family="Calibri,Calibri_MSFontService,sans-serif" font-weight="400" font-size="46" transform="matrix(6.12323e-17 -1 1 6.12323e-17 1443.73 1516)">Secure</text></g><g><text font-family="Calibri,Calibri_MSFontService,sans-serif" font-weight="400" font-size="46" transform="matrix(6.12323e-17 -1 1 6.12323e-17 1561.75 1608)">Non-Secure</text></g><g><text font-family="Calibri,Calibri_MSFontService,sans-serif" font-weight="400" font-size="46" transform="matrix(6.12323e-17 -1 1 6.12323e-17 1679.78 1516)">Secure</text></g><g><text font-family="Calibri,Calibri_MSFontService,sans-serif" font-weight="400" font-size="46" transform="matrix(1 0 0 1 354.219 1684)">No Pref</text></g><g><text font-family="Calibri,Calibri_MSFontService,sans-serif" font-weight="400" font-size="46" transform="matrix(1 0 0 1 582.854 1684)">IP Stride</text></g><g><text font-family="Calibri,Calibri_MSFontService,sans-serif" font-weight="400" font-size="46" transform="matrix(1 0 0 1 854.928 1684)">IPCP</text></g><g><text font-family="Calibri,Calibri_MSFontService,sans-serif" font-weight="400" font-size="46" transform="matrix(1 0 0 1 1080 1684)">Bingo</text></g><g><text font-family="Calibri,Calibri_MSFontService,sans-serif" font-weight="400" font-size="46" transform="matrix(1 0 0 1 1288.87 1684)">SPP+PPF</text></g><g><text font-family="Calibri,Calibri_MSFontService,sans-serif" font-weight="400" font-size="46" transform="matrix(1 0 0 1 1559.94 1684)">Berti</text></g><g><text font-family="Calibri,Calibri_MSFontService,sans-serif" font-weight="400" font-size="46" transform="matrix(6.12323e-17 -1 1 6.12323e-17 148.785 1115)">L1D traffic</text></g><g><rect x="579" y="611" width="891" height="91.0001" fill="#FFFFFF"/></g><g><rect x="636.5" y="643.5" width="24.9998" height="25.0001" stroke="#000000" stroke-width="3.4375" stroke-linejoin="round" stroke-miterlimit="10" fill="#D9D9D9"/></g><g><text font-family="Calibri,Calibri_MSFontService,sans-serif" font-weight="400" font-size="46" transform="matrix(1 0 0 1 672.123 670)">Load</text></g><g><rect x="817.5" y="643.5" width="25.0001" height="25.0001" stroke="#000000" stroke-width="3.4375" stroke-linejoin="round" stroke-miterlimit="10" fill="#A6A6A6"/></g><g><text font-family="Calibri,Calibri_MSFontService,sans-serif" font-weight="400" font-size="46" transform="matrix(1 0 0 1 853.154 670)">Prefetch</text></g><g><rect x="1066.5" y="643.5" width="24.9998" height="25.0001" stroke="#000000" stroke-width="3.4375" stroke-linejoin="round" stroke-miterlimit="10" fill="#404040"/></g><g><text font-family="Calibri,Calibri_MSFontService,sans-serif" font-weight="400" font-size="46" transform="matrix(1 0 0 1 1102.75 670)">Commit Requests</text></g></g></svg>