<svg width="1689" height="1075" xmlns="http://www.w3.org/2000/svg" xmlns:xlink="http://www.w3.org/1999/xlink" xml:space="preserve" overflow="hidden"><defs><clipPath id="clip0"><rect x="879" y="429" width="1689" height="1075"/></clipPath></defs><g clip-path="url(#clip0)" transform="translate(-879 -429)"><rect x="879" y="429" width="1689" height="1075" fill="#FFFFFF"/><g><path d="M1134.5 1254.54 2438.5 1254.54M1134.5 1239.54 2438.5 1239.54M1134.5 1223.54 2438.5 1223.54M1134.5 1208.54 2438.5 1208.54M1134.5 1192.54 2438.5 1192.54M1134.5 1177.54 2438.5 1177.54M1134.5 1162.54 2438.5 1162.54M1134.5 1146.54 2438.5 1146.54M1134.5 1131.54 2438.5 1131.54M1134.5 1100.54 2438.5 1100.54M1134.5 1085.54 2438.5 1085.54M1134.5 1069.54 2438.5 1069.54M1134.5 1054.53 2438.5 1054.53M1134.5 1038.53 2438.5 1038.53M1134.5 1023.53 2438.5 1023.53M1134.5 1008.53 2438.5 1008.53M1134.5 992.533 2438.5 992.533M1134.5 977.532 2438.5 977.532M1134.5 946.531 2438.5 946.531M1134.5 931.531 2438.5 931.531M1134.5 915.53 2438.5 915.53M1134.5 900.53 2438.5 900.53M1134.5 884.529 2438.5 884.529M1134.5 869.529 2438.5 869.529M1134.5 854.528 2438.5 854.528M1134.5 838.528 2438.5 838.528M1134.5 823.527 2438.5 823.527M1134.5 792.526 2438.5 792.526M1134.5 777.526 2438.5 777.526M1134.5 761.525 2438.5 761.525M1134.5 746.525 2438.5 746.525M1134.5 730.524 2438.5 730.524M1134.5 715.524 2438.5 715.524M1134.5 700.523 2438.5 700.523M1134.5 684.523 2438.5 684.523M1134.5 669.522 2438.5 669.522M1134.5 638.521 2438.5 638.521M1134.5 623.521 2438.5 623.521M1134.5 607.52 2438.5 607.52M1134.5 592.52 2438.5 592.52M1134.5 576.519 2438.5 576.519M1134.5 561.519 2438.5 561.519M1134.5 546.518 2438.5 546.518M1134.5 530.518 2438.5 530.518M1134.5 515.517 2438.5 515.517" stroke="#F2F2F2" stroke-width="3.4375" stroke-linejoin="round" stroke-miterlimit="10" fill="none"/></g><g><path d="M1134.5 1115.54 2438.5 1115.54M1134.5 961.532 2438.5 961.532M1134.5 807.527 2438.5 807.527M1134.5 653.522 2438.5 653.522M1134.5 499.5 2438.5 499.5" stroke="#BFBFBF" stroke-width="3.4375" stroke-linejoin="round" stroke-miterlimit="10" fill="none"/></g><g><rect x="1134.5" y="499.5" width="1304" height="771" stroke="#000000" stroke-width="3.4375" stroke-linejoin="round" stroke-miterlimit="10" fill="none"/></g><g><path d="M1177.54 1081.54 1264.54 1081.54 1264.54 1270.5 1177.54 1270.5ZM1438.55 888.529 1525.55 888.529 1525.55 1270.5 1438.55 1270.5ZM1699.56 1142.54 1786.56 1142.54 1786.56 1270.5 1699.56 1270.5ZM1960.56 1141.54 2047.57 1141.54 2047.57 1270.5 1960.56 1270.5ZM2221.57 826.527 2308.58 826.527 2308.58 1270.5 2221.57 1270.5Z" stroke="#000000" stroke-width="3.4375" stroke-linejoin="round" stroke-miterlimit="10" fill="#D9D9D9"/></g><g><path d="M1264.54 897.53 1351.54 897.53 1351.54 1270.5 1264.54 1270.5ZM1525.55 714.524 1612.55 714.524 1612.55 1270.5 1525.55 1270.5ZM1786.56 944.531 1873.56 944.531 1873.56 1270.5 1786.56 1270.5ZM2047.57 946.531 2134.57 946.531 2134.57 1270.5 2047.57 1270.5ZM2308.58 733.524 2395.58 733.524 2395.58 1270.5 2308.58 1270.5Z" stroke="#000000" stroke-width="3.4375" stroke-linejoin="round" stroke-miterlimit="10" fill="#595959"/></g><g><path d="M0 0 0.000360892 770" stroke="#000000" stroke-width="2.29167" stroke-linejoin="round" stroke-miterlimit="10" fill="none" fill-rule="evenodd" transform="matrix(1 0 0 -1 1135 1270)"/></g><g><path d="M1121 1270 1135 1270M1121 1116.04 1135 1116.04M1121 962.032 1135 962.032M1121 808.026 1135 808.026M1121 654.021 1135 654.021M1121 500 1135 500" stroke="#000000" stroke-width="2.29167" stroke-linejoin="round" stroke-miterlimit="10" fill="none"/></g><g><path d="M1134.5 1270.5 2438.5 1270.5" stroke="#000000" stroke-width="3.4375" stroke-linejoin="round" stroke-miterlimit="10" fill="none" fill-rule="evenodd"/></g><g><text font-family="Arial,Arial_MSFontService,sans-serif" font-weight="400" font-size="46" transform="matrix(1 0 0 1 1018.61 1285)">200</text></g><g><text font-family="Arial,Arial_MSFontService,sans-serif" font-weight="400" font-size="46" transform="matrix(1 0 0 1 1018.61 1131)">400</text></g><g><text font-family="Arial,Arial_MSFontService,sans-serif" font-weight="400" font-size="46" transform="matrix(1 0 0 1 1018.61 977)">600</text></g><g><text font-family="Arial,Arial_MSFontService,sans-serif" font-weight="400" font-size="46" transform="matrix(1 0 0 1 1018.61 823)">800</text></g><g><text font-family="Arial,Arial_MSFontService,sans-serif" font-weight="400" font-size="46" transform="matrix(1 0 0 1 993.128 669)">1000</text></g><g><text font-family="Arial,Arial_MSFontService,sans-serif" font-weight="400" font-size="46" transform="matrix(1 0 0 1 993.128 515)">1200</text></g><g><text font-family="Arial,Arial_MSFontService,sans-serif" font-weight="400" font-size="46" transform="matrix(0.707107 -0.707107 0.707107 0.707107 1150.45 1453)">IP-Stride</text></g><g><text font-family="Arial,Arial_MSFontService,sans-serif" font-weight="400" font-size="46" transform="matrix(0.707107 -0.707107 0.707107 0.707107 1461.74 1403)">IPCP</text></g><g><text font-family="Arial,Arial_MSFontService,sans-serif" font-weight="400" font-size="46" transform="matrix(0.707107 -0.707107 0.707107 0.707107 1715.37 1410)">Bingo</text></g><g><text font-family="Arial,Arial_MSFontService,sans-serif" font-weight="400" font-size="46" transform="matrix(0.707107 -0.707107 0.707107 0.707107 1912.28 1474)">SPP+PPF</text></g><g><text font-family="Arial,Arial_MSFontService,sans-serif" font-weight="400" font-size="46" transform="matrix(0.707107 -0.707107 0.707107 0.707107 2253.32 1394)">Berti</text></g><g><text font-family="Arial,Arial_MSFontService,sans-serif" font-weight="400" font-size="46" transform="matrix(6.12323e-17 -1 1 6.12323e-17 957.79 982)">L1D Traffic </text></g><g><rect x="1739" y="517" width="670" height="109" fill="#FFFFFF"/></g><g><rect x="1801.5" y="532.5" width="23" height="23.0001" stroke="#000000" stroke-width="3.4375" stroke-linejoin="round" stroke-miterlimit="10" fill="#D9D9D9"/></g><g><text font-family="Arial,Arial_MSFontService,sans-serif" font-weight="400" font-size="46" transform="matrix(1 0 0 1 1833.93 560)">Non-secure cache system</text></g><g><rect x="1801.5" y="587.5" width="23" height="23.0001" stroke="#000000" stroke-width="3.4375" stroke-linejoin="round" stroke-miterlimit="10" fill="#595959"/></g><g><text font-family="Arial,Arial_MSFontService,sans-serif" font-weight="400" font-size="46" transform="matrix(1 0 0 1 1833.93 614)">Secure cache system</text></g><g><path d="M1134.5 1148.5 2439.67 1148.5" stroke="#000000" stroke-width="3.4375" stroke-miterlimit="8" fill="none" fill-rule="evenodd"/></g><g><rect x="1738" y="622" width="670" height="107" fill="#FFFFFF"/></g><g><g><text font-family="Arial,Arial_MSFontService,sans-serif" font-weight="400" font-size="46" transform="matrix(1 0 0 1 1834.42 665)">No Pref (Non</text></g></g><g><g><text font-family="Arial,Arial_MSFontService,sans-serif" font-weight="400" font-size="46" transform="matrix(1 0 0 1 2101.86 665)">-</text></g></g><g><g><text font-family="Arial,Arial_MSFontService,sans-serif" font-weight="400" font-size="46" transform="matrix(1 0 0 1 2117.12 665)">secure)</text></g></g><g><g><text font-family="Arial,Arial_MSFontService,sans-serif" font-weight="400" font-size="46" transform="matrix(1 0 0 1 1834.42 718)">No Pref (Secure)</text></g></g><g><path d="M1781.5 644.5 1827.09 644.5" stroke="#000000" stroke-width="3.4375" stroke-miterlimit="8" fill="none" fill-rule="evenodd"/></g><g><path d="M1782.5 695.5 1828.09 695.5" stroke="#FF0000" stroke-width="3.4375" stroke-miterlimit="8" fill="none" fill-rule="evenodd"/></g><g><path d="M1136.5 954.5 2440.47 954.5" stroke="#FF0000" stroke-width="3.4375" stroke-miterlimit="8" fill="none" fill-rule="evenodd"/></g></g></svg>