<svg width="1692" height="958" xmlns="http://www.w3.org/2000/svg" xmlns:xlink="http://www.w3.org/1999/xlink" xml:space="preserve" overflow="hidden"><defs><clipPath id="clip0"><rect x="2028" y="320" width="1692" height="958"/></clipPath></defs><g clip-path="url(#clip0)" transform="translate(-2028 -320)"><rect x="2028" y="320" width="1692" height="958" fill="#FFFFFF"/><g><path d="M2320.5 1037.53 3589.5 1037.53M2320.5 1024.53 3589.5 1024.53M2320.5 1011.53 3589.5 1011.53M2320.5 997.533 3589.5 997.533M2320.5 984.532 3589.5 984.532M2320.5 971.532 3589.5 971.532M2320.5 957.532 3589.5 957.532M2320.5 944.531 3589.5 944.531M2320.5 930.531 3589.5 930.531M2320.5 904.53 3589.5 904.53M2320.5 890.529 3589.5 890.529M2320.5 877.529 3589.5 877.529M2320.5 864.529 3589.5 864.529M2320.5 850.528 3589.5 850.528M2320.5 837.528 3589.5 837.528M2320.5 824.527 3589.5 824.527M2320.5 810.527 3589.5 810.527M2320.5 797.526 3589.5 797.526M2320.5 770.525 3589.5 770.525M2320.5 757.525 3589.5 757.525M2320.5 743.525 3589.5 743.525M2320.5 730.524 3589.5 730.524M2320.5 717.524 3589.5 717.524M2320.5 703.523 3589.5 703.523M2320.5 690.523 3589.5 690.523M2320.5 677.522 3589.5 677.522M2320.5 663.522 3589.5 663.522M2320.5 636.521 3589.5 636.521M2320.5 623.521 3589.5 623.521M2320.5 610.52 3589.5 610.52M2320.5 596.52 3589.5 596.52M2320.5 583.519 3589.5 583.519M2320.5 570.519 3589.5 570.519M2320.5 556.518 3589.5 556.518M2320.5 543.518 3589.5 543.518M2320.5 530.518 3589.5 530.518M2320.5 503.517 3589.5 503.517M2320.5 489.516 3589.5 489.516M2320.5 476.516 3589.5 476.516M2320.5 463.515 3589.5 463.515M2320.5 449.515 3589.5 449.515M2320.5 436.514 3589.5 436.514M2320.5 423.514 3589.5 423.514M2320.5 409.514 3589.5 409.514M2320.5 396.513 3589.5 396.513" stroke="#F2F2F2" stroke-width="3.4375" stroke-linejoin="round" stroke-miterlimit="10" fill="none"/></g><g><path d="M2320.5 917.53 3589.5 917.53M2320.5 783.526 3589.5 783.526M2320.5 650.521 3589.5 650.521M2320.5 516.517 3589.5 516.517M2320.5 383.5 3589.5 383.5" stroke="#BFBFBF" stroke-width="3.4375" stroke-linejoin="round" stroke-miterlimit="10" fill="none"/></g><g><rect x="2320.5" y="383.5" width="1269" height="668" stroke="#000000" stroke-width="3.4375" stroke-linejoin="round" stroke-miterlimit="10" fill="none"/></g><g><path d="M2363.58 892.529 2447.58 892.529 2447.58 1051.5 2363.58 1051.5ZM2616.59 836.528 2701.59 836.528 2701.59 1051.5 2616.59 1051.5ZM2870.59 939.531 2955.6 939.531 2955.6 1051.5 2870.59 1051.5ZM3124.6 938.531 3209.61 938.531 3209.61 1051.5 3124.6 1051.5ZM3378.61 616.52 3462.61 616.52 3462.61 1051.5 3378.61 1051.5Z" stroke="#000000" stroke-width="3.4375" stroke-linejoin="round" stroke-miterlimit="10" fill="#D9D9D9"/></g><g><path d="M2447.58 660.522 2532.58 660.522 2532.58 1051.5 2447.58 1051.5ZM2701.59 599.52 2786.59 599.52 2786.59 1051.5 2701.59 1051.5ZM2955.6 699.523 3039.6 699.523 3039.6 1051.5 2955.6 1051.5ZM3209.61 698.523 3293.61 698.523 3293.61 1051.5 3209.61 1051.5ZM3462.61 471.516 3547.62 471.516 3547.62 1051.5 3462.61 1051.5Z" stroke="#000000" stroke-width="3.4375" stroke-linejoin="round" stroke-miterlimit="10" fill="#595959"/></g><g><path d="M0 0 0.000360892 668" stroke="#000000" stroke-width="2.29167" stroke-linejoin="round" stroke-miterlimit="10" fill="none" fill-rule="evenodd" transform="matrix(1 0 0 -1 2321 1051)"/></g><g><path d="M2307 1051 2321 1051M2307 918.03 2321 918.03M2307 784.026 2321 784.026M2307 650.021 2321 650.021M2307 517.017 2321 517.017M2307 383 2321 383" stroke="#000000" stroke-width="2.29167" stroke-linejoin="round" stroke-miterlimit="10" fill="none"/></g><g><path d="M2320.5 1051.5 3589.5 1051.5" stroke="#000000" stroke-width="3.4375" stroke-linejoin="round" stroke-miterlimit="10" fill="none" fill-rule="evenodd"/></g><g><text font-family="Arial,Arial_MSFontService,sans-serif" font-weight="400" font-size="46" transform="matrix(1 0 0 1 2204.98 1066)">200</text></g><g><text font-family="Arial,Arial_MSFontService,sans-serif" font-weight="400" font-size="46" transform="matrix(1 0 0 1 2204.98 933)">300</text></g><g><text font-family="Arial,Arial_MSFontService,sans-serif" font-weight="400" font-size="46" transform="matrix(1 0 0 1 2204.98 799)">400</text></g><g><text font-family="Arial,Arial_MSFontService,sans-serif" font-weight="400" font-size="46" transform="matrix(1 0 0 1 2204.98 665)">500</text></g><g><text font-family="Arial,Arial_MSFontService,sans-serif" font-weight="400" font-size="46" transform="matrix(1 0 0 1 2204.98 532)">600</text></g><g><text font-family="Arial,Arial_MSFontService,sans-serif" font-weight="400" font-size="46" transform="matrix(1 0 0 1 2204.98 398)">700</text></g><g><text font-family="Arial,Arial_MSFontService,sans-serif" font-weight="400" font-size="46" transform="matrix(0.707107 -0.707107 0.707107 0.707107 2333.3 1235)">IP-Stride</text></g><g><text font-family="Arial,Arial_MSFontService,sans-serif" font-weight="400" font-size="46" transform="matrix(0.707107 -0.707107 0.707107 0.707107 2637.53 1184)">IPCP</text></g><g><text font-family="Arial,Arial_MSFontService,sans-serif" font-weight="400" font-size="46" transform="matrix(0.707107 -0.707107 0.707107 0.707107 2884.11 1192)">Bingo</text></g><g><text font-family="Arial,Arial_MSFontService,sans-serif" font-weight="400" font-size="46" transform="matrix(0.707107 -0.707107 0.707107 0.707107 3073.97 1255)">SPP+PPF</text></g><g><text font-family="Arial,Arial_MSFontService,sans-serif" font-weight="400" font-size="46" transform="matrix(0.707107 -0.707107 0.707107 0.707107 3407.96 1175)">Berti</text></g><g><text font-family="Arial,Arial_MSFontService,sans-serif" font-weight="400" font-size="46" transform="matrix(6.12323e-17 -1 1 6.12323e-17 2134.64 852)">L1D Traffic</text></g><g><rect x="2344" y="407" width="640" height="104" fill="#FFFFFF"/></g><g><rect x="2391.5" y="421.5" width="23" height="23" stroke="#000000" stroke-width="3.4375" stroke-linejoin="round" stroke-miterlimit="10" fill="#D9D9D9"/></g><g><text font-family="Arial,Arial_MSFontService,sans-serif" font-weight="400" font-size="46" transform="matrix(1 0 0 1 2423.86 448)">Non-secure cache system</text></g><g><rect x="2391.5" y="473.5" width="23" height="23" stroke="#000000" stroke-width="3.4375" stroke-linejoin="round" stroke-miterlimit="10" fill="#595959"/></g><g><text font-family="Arial,Arial_MSFontService,sans-serif" font-weight="400" font-size="46" transform="matrix(1 0 0 1 2423.86 500)">Secure cache system</text></g></g></svg>