<svg width="1510" height="1192" xmlns="http://www.w3.org/2000/svg" xmlns:xlink="http://www.w3.org/1999/xlink" xml:space="preserve" overflow="hidden"><defs><clipPath id="clip0"><rect x="89" y="482" width="1510" height="1192"/></clipPath></defs><g clip-path="url(#clip0)" transform="translate(-89 -482)"><rect x="89" y="482" width="1510" height="1192" fill="#FFFFFF"/><g><path d="M356.5 1254.54 1561.5 1254.54M356.5 1239.54 1561.5 1239.54M356.5 1225.54 1561.5 1225.54M356.5 1210.54 1561.5 1210.54M356.5 1182.54 1561.5 1182.54M356.5 1167.54 1561.5 1167.54M356.5 1153.54 1561.5 1153.54M356.5 1138.54 1561.5 1138.54M356.5 1109.54 1561.5 1109.54M356.5 1095.54 1561.5 1095.54M356.5 1080.54 1561.5 1080.54M356.5 1066.54 1561.5 1066.54M356.5 1037.53 1561.5 1037.53M356.5 1022.53 1561.5 1022.53M356.5 1008.53 1561.5 1008.53M356.5 993.533 1561.5 993.533M356.5 964.532 1561.5 964.532M356.5 950.531 1561.5 950.531M356.5 935.531 1561.5 935.531M356.5 921.53 1561.5 921.53M356.5 892.529 1561.5 892.529M356.5 877.529 1561.5 877.529M356.5 863.529 1561.5 863.529M356.5 848.528 1561.5 848.528M356.5 819.527 1561.5 819.527M356.5 805.527 1561.5 805.527M356.5 790.526 1561.5 790.526M356.5 776.526 1561.5 776.526M356.5 747.525 1561.5 747.525M356.5 732.524 1561.5 732.524M356.5 718.524 1561.5 718.524M356.5 703.523 1561.5 703.523M356.5 674.522 1561.5 674.522M356.5 660.522 1561.5 660.522M356.5 645.521 1561.5 645.521M356.5 631.521 1561.5 631.521M356.5 602.52 1561.5 602.52M356.5 588.519 1561.5 588.519M356.5 573.519 1561.5 573.519M356.5 559.519 1561.5 559.519" stroke="#F2F2F2" stroke-width="3.4375" stroke-linejoin="round" stroke-miterlimit="10" fill="none"/></g><g><path d="M356.5 1196.54 1561.5 1196.54M356.5 1124.54 1561.5 1124.54M356.5 1051.53 1561.5 1051.53M356.5 979.532 1561.5 979.532M356.5 906.53 1561.5 906.53M356.5 834.528 1561.5 834.528M356.5 761.525 1561.5 761.525M356.5 689.523 1561.5 689.523M356.5 616.52 1561.5 616.52M356.5 544.5 1561.5 544.5" stroke="#D9D9D9" stroke-width="3.4375" stroke-linejoin="round" stroke-miterlimit="10" fill="none"/></g><g><rect x="356.5" y="544.5" width="1205" height="724" stroke="#000000" stroke-width="3.4375" stroke-linejoin="round" stroke-miterlimit="10" fill="none"/></g><g><path d="M398.513 900.53 514.517 900.53 514.517 1268.5 398.513 1268.5ZM599.52 963.532 715.524 963.532 715.524 1268.5 599.52 1268.5ZM800.526 1100.54 916.53 1100.54 916.53 1268.5 800.526 1268.5ZM1001.53 1166.54 1117.54 1166.54 1117.54 1268.5 1001.53 1268.5ZM1202.54 1039.53 1318.54 1039.53 1318.54 1268.5 1202.54 1268.5ZM1403.55 1093.54 1519.55 1093.54 1519.55 1268.5 1403.55 1268.5Z" stroke="#000000" stroke-width="3.4375" stroke-linejoin="round" stroke-miterlimit="10" fill="#404040"/></g><g><path d="M398.513 791.526 514.517 791.526 514.517 900.53 398.513 900.53ZM599.52 847.528 715.524 847.528 715.524 963.532 599.52 963.532ZM800.526 952.531 916.53 952.531 916.53 1100.54 800.526 1100.54ZM1001.53 971.532 1117.54 971.532 1117.54 1166.54 1001.53 1166.54ZM1202.54 985.532 1318.54 985.532 1318.54 1039.53 1202.54 1039.53ZM1403.55 1046.53 1519.55 1046.53 1519.55 1093.54 1403.55 1093.54Z" stroke="#000000" stroke-width="3.4375" stroke-linejoin="round" stroke-miterlimit="10" fill="#A6A6A6"/></g><g><path d="M599.52 722.524 715.524 722.524 715.524 847.528 599.52 847.528ZM1001.53 798.526 1117.54 798.526 1117.54 971.532 1001.53 971.532ZM1403.55 964.532 1519.55 964.532 1519.55 1046.53 1403.55 1046.53Z" stroke="#000000" stroke-width="3.4375" stroke-linejoin="round" stroke-miterlimit="10" fill="#D9D9D9"/></g><g><path d="M599.52 716.524 715.524 716.524 715.524 722.524 599.52 722.524ZM1001.53 780.526 1117.54 780.526 1117.54 798.526 1001.53 798.526ZM1403.55 939.531 1519.55 939.531 1519.55 964.532 1403.55 964.532Z" stroke="#000000" stroke-width="3.4375" stroke-linejoin="round" stroke-miterlimit="10" fill="#FFFFFF"/></g><g><path d="M0 0 0.000360892 724" stroke="#000000" stroke-width="3.4375" stroke-linejoin="round" stroke-miterlimit="10" fill="none" fill-rule="evenodd" transform="matrix(1 0 0 -1 356.5 1268.5)"/></g><g><path d="M341.5 1268.5 356.5 1268.5M341.5 1196.54 356.5 1196.54M341.5 1124.54 356.5 1124.54M341.5 1051.53 356.5 1051.53M341.5 979.532 356.5 979.532M341.5 906.53 356.5 906.53M341.5 834.528 356.5 834.528M341.5 761.525 356.5 761.525M341.5 689.523 356.5 689.523M341.5 616.52 356.5 616.52M341.5 544.5 356.5 544.5" stroke="#000000" stroke-width="3.4375" stroke-linejoin="round" stroke-miterlimit="10" fill="none"/></g><g><path d="M356.5 1268.5 1561.5 1268.5" stroke="#000000" stroke-width="3.4375" stroke-linejoin="round" stroke-miterlimit="10" fill="none" fill-rule="evenodd"/></g><g><path d="M356.5 1268.5 356.5 1512.5M758.525 1268.5 758.525 1512.5M1159.54 1268.5 1159.54 1512.5M1561.5 1268.5 1561.5 1512.5" stroke="#000000" stroke-width="3.4375" stroke-linejoin="round" stroke-miterlimit="10" fill="none"/></g><g><path d="M356.5 1512.5 356.5 1601.5M758.525 1512.5 758.525 1601.5M1159.54 1512.5 1159.54 1601.5M1561.5 1512.5 1561.5 1601.5" stroke="#000000" stroke-width="3.4375" stroke-linejoin="round" stroke-miterlimit="10" fill="none"/></g><g><text font-family="Calibri,Calibri_MSFontService,sans-serif" font-weight="400" font-size="46" transform="matrix(1 0 0 1 267.334 1282)">32</text></g><g><text font-family="Calibri,Calibri_MSFontService,sans-serif" font-weight="400" font-size="46" transform="matrix(1 0 0 1 267.334 1210)">33</text></g><g><text font-family="Calibri,Calibri_MSFontService,sans-serif" font-weight="400" font-size="46" transform="matrix(1 0 0 1 267.334 1138)">34</text></g><g><text font-family="Calibri,Calibri_MSFontService,sans-serif" font-weight="400" font-size="46" transform="matrix(1 0 0 1 267.334 1065)">35</text></g><g><text font-family="Calibri,Calibri_MSFontService,sans-serif" font-weight="400" font-size="46" transform="matrix(1 0 0 1 267.334 993)">36</text></g><g><text font-family="Calibri,Calibri_MSFontService,sans-serif" font-weight="400" font-size="46" transform="matrix(1 0 0 1 267.334 920)">37</text></g><g><text font-family="Calibri,Calibri_MSFontService,sans-serif" font-weight="400" font-size="46" transform="matrix(1 0 0 1 267.334 848)">38</text></g><g><text font-family="Calibri,Calibri_MSFontService,sans-serif" font-weight="400" font-size="46" transform="matrix(1 0 0 1 267.334 775)">39</text></g><g><text font-family="Calibri,Calibri_MSFontService,sans-serif" font-weight="400" font-size="46" transform="matrix(1 0 0 1 267.334 703)">40</text></g><g><text font-family="Calibri,Calibri_MSFontService,sans-serif" font-weight="400" font-size="46" transform="matrix(1 0 0 1 267.334 631)">41</text></g><g><text font-family="Calibri,Calibri_MSFontService,sans-serif" font-weight="400" font-size="46" transform="matrix(1 0 0 1 267.334 558)">42</text></g><g><text font-family="Calibri,Calibri_MSFontService,sans-serif" font-weight="400" font-size="46" transform="matrix(6.12323e-17 -1 1 6.12323e-17 472.8 1486)">On-access</text></g><g><text font-family="Calibri,Calibri_MSFontService,sans-serif" font-weight="400" font-size="46" transform="matrix(6.12323e-17 -1 1 6.12323e-17 673.692 1509)">On-commit</text></g><g><text font-family="Calibri,Calibri_MSFontService,sans-serif" font-weight="400" font-size="46" transform="matrix(6.12323e-17 -1 1 6.12323e-17 874.585 1486)">On-access</text></g><g><text font-family="Calibri,Calibri_MSFontService,sans-serif" font-weight="400" font-size="46" transform="matrix(6.12323e-17 -1 1 6.12323e-17 1075.48 1509)">On-commit</text></g><g><text font-family="Calibri,Calibri_MSFontService,sans-serif" font-weight="400" font-size="46" transform="matrix(6.12323e-17 -1 1 6.12323e-17 1276.37 1486)">On-access</text></g><g><text font-family="Calibri,Calibri_MSFontService,sans-serif" font-weight="400" font-size="46" transform="matrix(6.12323e-17 -1 1 6.12323e-17 1477.26 1509)">On-commit</text></g><g><text font-family="Calibri,Calibri_MSFontService,sans-serif" font-weight="400" font-size="46" transform="matrix(1 0 0 1 479.528 1586)">IP Stride</text></g><g><text font-family="Calibri,Calibri_MSFontService,sans-serif" font-weight="400" font-size="46" transform="matrix(1 0 0 1 917.338 1586)">IPCP</text></g><g><text font-family="Calibri,Calibri_MSFontService,sans-serif" font-weight="400" font-size="46" transform="matrix(1 0 0 1 1315.99 1586)">Berti</text></g><g><text font-family="Calibri,Calibri_MSFontService,sans-serif" font-weight="400" font-size="46" transform="matrix(6.12323e-17 -1 1 6.12323e-17 194.874 1047)">L1D MPKI</text></g><g><rect x="377" y="584" width="1167" height="94.9999" fill="#FFFFFF"/></g><g><rect x="408.5" y="618.5" width="25.0001" height="25.0001" stroke="#000000" stroke-width="3.4375" stroke-linejoin="round" stroke-miterlimit="10" fill="#404040"/></g><g><text font-family="Calibri,Calibri_MSFontService,sans-serif" font-weight="400" font-size="46" transform="matrix(1 0 0 1 444.274 645)">Uncovered</text></g><g><rect x="676.5" y="618.5" width="25.0001" height="25.0001" stroke="#000000" stroke-width="3.4375" stroke-linejoin="round" stroke-miterlimit="10" fill="#A6A6A6"/></g><g><text font-family="Calibri,Calibri_MSFontService,sans-serif" font-weight="400" font-size="46" transform="matrix(1 0 0 1 712.756 645)">Late</text></g><g><rect x="821.5" y="618.5" width="25.0001" height="25.0001" stroke="#000000" stroke-width="3.4375" stroke-linejoin="round" stroke-miterlimit="10" fill="#D9D9D9"/></g><g><text font-family="Calibri,Calibri_MSFontService,sans-serif" font-weight="400" font-size="46" transform="matrix(1 0 0 1 857.211 645)">Commit Late</text></g><g><rect x="1123.5" y="618.5" width="25.0001" height="25.0001" stroke="#000000" stroke-width="3.4375" stroke-linejoin="round" stroke-miterlimit="10" fill="#FFFFFF"/></g><g><text font-family="Calibri,Calibri_MSFontService,sans-serif" font-weight="400" font-size="46" transform="matrix(1 0 0 1 1159.75 645)">Missed Opportunity</text></g></g></svg>