<svg width="1679" height="1202" xmlns="http://www.w3.org/2000/svg" xmlns:xlink="http://www.w3.org/1999/xlink" xml:space="preserve" overflow="hidden"><defs><clipPath id="clip0"><rect x="854" y="334" width="1679" height="1202"/></clipPath></defs><g clip-path="url(#clip0)" transform="translate(-854 -334)"><rect x="854" y="334" width="1679" height="1202" fill="#FFFFFF"/><g><path d="M1107.5 1256.54 2404.5 1256.54M1107.5 1238.54 2404.5 1238.54M1107.5 1220.54 2404.5 1220.54M1107.5 1203.54 2404.5 1203.54M1107.5 1185.54 2404.5 1185.54M1107.5 1167.54 2404.5 1167.54M1107.5 1149.54 2404.5 1149.54M1107.5 1113.54 2404.5 1113.54M1107.5 1095.54 2404.5 1095.54M1107.5 1077.54 2404.5 1077.54M1107.5 1059.53 2404.5 1059.53M1107.5 1041.53 2404.5 1041.53M1107.5 1023.53 2404.5 1023.53M1107.5 1005.53 2404.5 1005.53M1107.5 969.532 2404.5 969.532M1107.5 951.531 2404.5 951.531M1107.5 933.531 2404.5 933.531M1107.5 915.53 2404.5 915.53M1107.5 898.53 2404.5 898.53M1107.5 880.529 2404.5 880.529M1107.5 862.528 2404.5 862.528M1107.5 826.527 2404.5 826.527M1107.5 808.527 2404.5 808.527M1107.5 790.526 2404.5 790.526M1107.5 772.526 2404.5 772.526M1107.5 754.525 2404.5 754.525M1107.5 736.524 2404.5 736.524M1107.5 718.524 2404.5 718.524M1107.5 682.523 2404.5 682.523M1107.5 664.522 2404.5 664.522M1107.5 646.521 2404.5 646.521M1107.5 628.521 2404.5 628.521M1107.5 610.52 2404.5 610.52M1107.5 592.52 2404.5 592.52M1107.5 575.519 2404.5 575.519M1107.5 539.518 2404.5 539.518M1107.5 521.517 2404.5 521.517M1107.5 503.517 2404.5 503.517M1107.5 485.516 2404.5 485.516M1107.5 467.516 2404.5 467.516M1107.5 449.515 2404.5 449.515M1107.5 431.514 2404.5 431.514" stroke="#F2F2F2" stroke-width="3.4375" stroke-linejoin="round" stroke-miterlimit="10" fill="none"/></g><g><path d="M1107.5 1131.54 2404.5 1131.54M1107.5 987.533 2404.5 987.533M1107.5 844.528 2404.5 844.528M1107.5 700.523 2404.5 700.523M1107.5 557.518 2404.5 557.518M1107.5 413.5 2404.5 413.5" stroke="#BFBFBF" stroke-width="3.4375" stroke-linejoin="round" stroke-miterlimit="10" fill="none"/></g><g><rect x="1107.5" y="413.5" width="1297" height="861" stroke="#000000" stroke-width="3.4375" stroke-linejoin="round" stroke-miterlimit="10" fill="none"/></g><g><path d="M1150.54 859.528 1237.54 859.528 1237.54 1274.5 1150.54 1274.5ZM1410.55 1004.53 1496.55 1004.53 1496.55 1274.5 1410.55 1274.5ZM1669.55 722.524 1756.56 722.524 1756.56 1274.5 1669.55 1274.5ZM1929.56 722.524 2015.57 722.524 2015.57 1274.5 1929.56 1274.5ZM2188.57 1085.54 2274.57 1085.54 2274.57 1274.5 2188.57 1274.5Z" stroke="#000000" stroke-width="3.4375" stroke-linejoin="round" stroke-miterlimit="10" fill="#D9D9D9"/></g><g><path d="M1237.54 824.527 1323.54 824.527 1323.54 1274.5 1237.54 1274.5ZM1496.55 972.532 1583.55 972.532 1583.55 1274.5 1496.55 1274.5ZM1756.56 692.523 1842.56 692.523 1842.56 1274.5 1756.56 1274.5ZM2015.57 687.523 2102.57 687.523 2102.57 1274.5 2015.57 1274.5ZM2274.57 1007.53 2361.58 1007.53 2361.58 1274.5 2274.57 1274.5Z" stroke="#000000" stroke-width="3.4375" stroke-linejoin="round" stroke-miterlimit="10" fill="#595959"/></g><g><path d="M0 0 0.000360892 861" stroke="#000000" stroke-width="2.29167" stroke-linejoin="round" stroke-miterlimit="10" fill="none" fill-rule="evenodd" transform="matrix(1 0 0 -1 1108 1275)"/></g><g><path d="M1094 1275 1108 1275M1094 1131.04 1108 1131.04M1094 988.032 1108 988.032M1094 844.028 1108 844.028M1094 701.023 1108 701.023M1094 557.018 1108 557.018M1094 414 1108 414" stroke="#000000" stroke-width="2.29167" stroke-linejoin="round" stroke-miterlimit="10" fill="none"/></g><g><path d="M1107.5 1274.5 2404.5 1274.5" stroke="#000000" stroke-width="3.4375" stroke-linejoin="round" stroke-miterlimit="10" fill="none" fill-rule="evenodd"/></g><g><text font-family="Arial,Arial_MSFontService,sans-serif" font-weight="400" font-size="46" transform="matrix(1 0 0 1 1042.86 1290)">0</text></g><g><text font-family="Arial,Arial_MSFontService,sans-serif" font-weight="400" font-size="46" transform="matrix(1 0 0 1 1017.37 1146)">40</text></g><g><text font-family="Arial,Arial_MSFontService,sans-serif" font-weight="400" font-size="46" transform="matrix(1 0 0 1 1017.37 1003)">80</text></g><g><text font-family="Arial,Arial_MSFontService,sans-serif" font-weight="400" font-size="46" transform="matrix(1 0 0 1 991.889 859)">120</text></g><g><text font-family="Arial,Arial_MSFontService,sans-serif" font-weight="400" font-size="46" transform="matrix(1 0 0 1 991.889 716)">160</text></g><g><text font-family="Arial,Arial_MSFontService,sans-serif" font-weight="400" font-size="46" transform="matrix(1 0 0 1 991.889 572)">200</text></g><g><text font-family="Arial,Arial_MSFontService,sans-serif" font-weight="400" font-size="46" transform="matrix(1 0 0 1 991.889 429)">240</text></g><g><text font-family="Arial,Arial_MSFontService,sans-serif" font-weight="400" font-size="46" transform="matrix(0.707107 -0.707107 0.707107 0.707107 1123 1458)">IP-Stride</text></g><g><text font-family="Arial,Arial_MSFontService,sans-serif" font-weight="400" font-size="46" transform="matrix(0.707107 -0.707107 0.707107 0.707107 1432.82 1408)">IPCP</text></g><g><text font-family="Arial,Arial_MSFontService,sans-serif" font-weight="400" font-size="46" transform="matrix(0.707107 -0.707107 0.707107 0.707107 1684.99 1415)">Bingo</text></g><g><text font-family="Arial,Arial_MSFontService,sans-serif" font-weight="400" font-size="46" transform="matrix(0.707107 -0.707107 0.707107 0.707107 1880.44 1479)">SPP+PPF</text></g><g><text font-family="Arial,Arial_MSFontService,sans-serif" font-weight="400" font-size="46" transform="matrix(0.707107 -0.707107 0.707107 0.707107 2220.01 1399)">Berti</text></g><g><text font-family="Arial,Arial_MSFontService,sans-serif" font-weight="400" font-size="46" transform="matrix(6.12323e-17 -1 1 6.12323e-17 932.339 1024)">L1D Load MPKI   </text></g><g><rect x="1128" y="428" width="666" height="122" fill="#FFFFFF"/></g><g><rect x="1188.5" y="447.5" width="23" height="23" stroke="#000000" stroke-width="3.4375" stroke-linejoin="round" stroke-miterlimit="10" fill="#D9D9D9"/></g><g><text font-family="Arial,Arial_MSFontService,sans-serif" font-weight="400" font-size="46" transform="matrix(1 0 0 1 1221.01 474)">Non-secure cache system</text></g><g><rect x="1188.5" y="507.5" width="23" height="24.0001" stroke="#000000" stroke-width="3.4375" stroke-linejoin="round" stroke-miterlimit="10" fill="#595959"/></g><g><text font-family="Arial,Arial_MSFontService,sans-serif" font-weight="400" font-size="46" transform="matrix(1 0 0 1 1221.01 535)">Secure cache system</text></g><g><path d="M1106.5 764.5 2404.34 764.5" stroke="#000000" stroke-width="3.4375" stroke-miterlimit="8" fill="none" fill-rule="evenodd"/></g><g><rect x="1125" y="549" width="666" height="120" fill="#FFFFFF"/></g><g><g><text font-family="Arial,Arial_MSFontService,sans-serif" font-weight="400" font-size="46" transform="matrix(1 0 0 1 1221.14 592)">No Pref (Non</text></g></g><g><g><text font-family="Arial,Arial_MSFontService,sans-serif" font-weight="400" font-size="46" transform="matrix(1 0 0 1 1488.58 592)">-</text></g></g><g><g><text font-family="Arial,Arial_MSFontService,sans-serif" font-weight="400" font-size="46" transform="matrix(1 0 0 1 1503.84 592)">secure)</text></g></g><g><g><text font-family="Arial,Arial_MSFontService,sans-serif" font-weight="400" font-size="46" transform="matrix(1 0 0 1 1221.14 645)">No Pref (Secure)</text></g></g><g><path d="M1168.5 574.5 1213.83 574.5" stroke="#000000" stroke-width="3.4375" stroke-miterlimit="8" fill="none" fill-rule="evenodd"/></g><g><path d="M1168.5 630.5 1213.83 630.5" stroke="#FF0000" stroke-width="3.4375" stroke-miterlimit="8" fill="none" fill-rule="evenodd"/></g><g><path d="M1109.5 695.5 2404.59 695.5" stroke="#FF0000" stroke-width="3.4375" stroke-miterlimit="8" fill="none" fill-rule="evenodd"/></g></g></svg>