<svg width="1683" height="1001" xmlns="http://www.w3.org/2000/svg" xmlns:xlink="http://www.w3.org/1999/xlink" xml:space="preserve" overflow="hidden"><defs><clipPath id="clip0"><rect x="2054" y="506" width="1683" height="1001"/></clipPath></defs><g clip-path="url(#clip0)" transform="translate(-2054 -506)"><rect x="2054" y="506" width="1683" height="1001" fill="#FFFFFF"/><g><path d="M2345.5 1250.54 3608.5 1250.54M2345.5 1233.54 3608.5 1233.54M2345.5 1215.54 3608.5 1215.54M2345.5 1198.54 3608.5 1198.54M2345.5 1180.54 3608.5 1180.54M2345.5 1163.54 3608.5 1163.54M2345.5 1146.54 3608.5 1146.54M2345.5 1128.54 3608.5 1128.54M2345.5 1111.54 3608.5 1111.54M2345.5 1076.54 3608.5 1076.54M2345.5 1059.53 3608.5 1059.53M2345.5 1041.53 3608.5 1041.53M2345.5 1024.53 3608.5 1024.53M2345.5 1006.53 3608.5 1006.53M2345.5 989.533 3608.5 989.533M2345.5 972.532 3608.5 972.532M2345.5 954.531 3608.5 954.531M2345.5 937.531 3608.5 937.531M2345.5 902.53 3608.5 902.53M2345.5 885.529 3608.5 885.529M2345.5 867.529 3608.5 867.529M2345.5 850.528 3608.5 850.528M2345.5 832.527 3608.5 832.527M2345.5 815.527 3608.5 815.527M2345.5 798.526 3608.5 798.526M2345.5 780.526 3608.5 780.526M2345.5 763.525 3608.5 763.525M2345.5 728.524 3608.5 728.524M2345.5 711.524 3608.5 711.524M2345.5 693.523 3608.5 693.523M2345.5 676.522 3608.5 676.522M2345.5 658.522 3608.5 658.522M2345.5 641.521 3608.5 641.521M2345.5 624.521 3608.5 624.521M2345.5 606.52 3608.5 606.52M2345.5 589.52 3608.5 589.52" stroke="#F2F2F2" stroke-width="3.4375" stroke-linejoin="round" stroke-miterlimit="10" fill="none"/></g><g><path d="M2345.5 1093.54 3608.5 1093.54M2345.5 919.53 3608.5 919.53M2345.5 745.525 3608.5 745.525M2345.5 571.5 3608.5 571.5" stroke="#BFBFBF" stroke-width="3.4375" stroke-linejoin="round" stroke-miterlimit="10" fill="none"/></g><g><rect x="2345.5" y="571.5" width="1263" height="696" stroke="#000000" stroke-width="3.4375" stroke-linejoin="round" stroke-miterlimit="10" fill="none"/></g><g><path d="M2387.58 1011.53 2471.58 1011.53 2471.58 1267.5 2387.58 1267.5ZM2639.59 945.531 2724.59 945.531 2724.59 1267.5 2639.59 1267.5ZM2892.6 1188.54 2976.6 1188.54 2976.6 1267.5 2892.6 1267.5ZM3145.6 1196.54 3229.61 1196.54 3229.61 1267.5 3145.6 1267.5ZM3397.61 1059.53 3481.61 1059.53 3481.61 1267.5 3397.61 1267.5Z" stroke="#000000" stroke-width="3.4375" stroke-linejoin="round" stroke-miterlimit="10" fill="#D9D9D9"/></g><g><path d="M2471.58 905.53 2555.58 905.53 2555.58 1267.5 2471.58 1267.5ZM2724.59 668.522 2808.59 668.522 2808.59 1267.5 2724.59 1267.5ZM2976.6 1175.54 3060.6 1175.54 3060.6 1267.5 2976.6 1267.5ZM3229.61 1186.54 3313.61 1186.54 3313.61 1267.5 3229.61 1267.5ZM3481.61 942.531 3566.62 942.531 3566.62 1267.5 3481.61 1267.5Z" stroke="#000000" stroke-width="3.4375" stroke-linejoin="round" stroke-miterlimit="10" fill="#595959"/></g><g><path d="M0 0 0.000360892 696" stroke="#000000" stroke-width="2.29167" stroke-linejoin="round" stroke-miterlimit="10" fill="none" fill-rule="evenodd" transform="matrix(1 0 0 -1 2345 1268)"/></g><g><path d="M2332 1268 2345 1268M2332 1094.04 2345 1094.04M2332 920.03 2345 920.03M2332 746.024 2345 746.024M2332 572 2345 572" stroke="#000000" stroke-width="2.29167" stroke-linejoin="round" stroke-miterlimit="10" fill="none"/></g><g><path d="M2345.5 1267.5 3608.5 1267.5" stroke="#000000" stroke-width="3.4375" stroke-linejoin="round" stroke-miterlimit="10" fill="none" fill-rule="evenodd"/></g><g><text font-family="Arial,Arial_MSFontService,sans-serif" font-weight="400" font-size="46" transform="matrix(1 0 0 1 2254.95 1283)">40</text></g><g><text font-family="Arial,Arial_MSFontService,sans-serif" font-weight="400" font-size="46" transform="matrix(1 0 0 1 2254.95 1109)">80</text></g><g><text font-family="Arial,Arial_MSFontService,sans-serif" font-weight="400" font-size="46" transform="matrix(1 0 0 1 2229.46 935)">120</text></g><g><text font-family="Arial,Arial_MSFontService,sans-serif" font-weight="400" font-size="46" transform="matrix(1 0 0 1 2229.46 761)">160</text></g><g><text font-family="Arial,Arial_MSFontService,sans-serif" font-weight="400" font-size="46" transform="matrix(1 0 0 1 2229.46 587)">200</text></g><g><text font-family="Arial,Arial_MSFontService,sans-serif" font-weight="400" font-size="46" transform="matrix(0.707107 -0.707107 0.707107 0.707107 2357.17 1451)">IP-Stride</text></g><g><text font-family="Arial,Arial_MSFontService,sans-serif" font-weight="400" font-size="46" transform="matrix(0.707107 -0.707107 0.707107 0.707107 2660.19 1401)">IPCP</text></g><g><text font-family="Arial,Arial_MSFontService,sans-serif" font-weight="400" font-size="46" transform="matrix(0.707107 -0.707107 0.707107 0.707107 2905.56 1408)">Bingo</text></g><g><text font-family="Arial,Arial_MSFontService,sans-serif" font-weight="400" font-size="46" transform="matrix(0.707107 -0.707107 0.707107 0.707107 3094.21 1472)">SPP+PPF</text></g><g><text font-family="Arial,Arial_MSFontService,sans-serif" font-weight="400" font-size="46" transform="matrix(0.707107 -0.707107 0.707107 0.707107 3426.98 1392)">Berti</text></g><g><text font-family="Arial,Arial_MSFontService,sans-serif" font-weight="400" font-size="46" transform="matrix(6.12323e-17 -1 1 6.12323e-17 2164.85 1233)">L1D Load Miss Latency (Cycles)</text></g><g><rect x="2915" y="601" width="656" height="122" fill="#FFFFFF"/></g><g><rect x="2963.5" y="620.5" width="23" height="23.0001" stroke="#000000" stroke-width="3.4375" stroke-linejoin="round" stroke-miterlimit="10" fill="#D9D9D9"/></g><g><text font-family="Arial,Arial_MSFontService,sans-serif" font-weight="400" font-size="46" transform="matrix(1 0 0 1 2996.03 647)">Non-secure cache system</text></g><g><rect x="2963.5" y="681.5" width="23" height="22.9997" stroke="#000000" stroke-width="3.4375" stroke-linejoin="round" stroke-miterlimit="10" fill="#595959"/></g><g><text font-family="Arial,Arial_MSFontService,sans-serif" font-weight="400" font-size="46" transform="matrix(1 0 0 1 2996.03 708)">Secure cache system</text></g></g></svg>