<svg width="1684" height="1089" xmlns="http://www.w3.org/2000/svg" xmlns:xlink="http://www.w3.org/1999/xlink" xml:space="preserve" overflow="hidden"><defs><clipPath id="clip0"><rect x="666" y="448" width="1684" height="1089"/></clipPath></defs><g clip-path="url(#clip0)" transform="translate(-666 -448)"><rect x="666" y="448" width="1684" height="1089" fill="#FFFFFF"/><g><path d="M921.5 1273.54 2220.5 1273.54M921.5 1247.54 2220.5 1247.54M921.5 1221.54 2220.5 1221.54M921.5 1195.54 2220.5 1195.54M921.5 1143.54 2220.5 1143.54M921.5 1117.54 2220.5 1117.54M921.5 1091.54 2220.5 1091.54M921.5 1065.54 2220.5 1065.54M921.5 1013.53 2220.5 1013.53M921.5 987.533 2220.5 987.533M921.5 961.532 2220.5 961.532M921.5 935.531 2220.5 935.531M921.5 883.529 2220.5 883.529M921.5 857.528 2220.5 857.528M921.5 831.527 2220.5 831.527M921.5 805.527 2220.5 805.527M921.5 753.525 2220.5 753.525M921.5 727.524 2220.5 727.524M921.5 701.523 2220.5 701.523M921.5 675.522 2220.5 675.522M921.5 623.521 2220.5 623.521M921.5 597.52 2220.5 597.52M921.5 571.519 2220.5 571.519M921.5 545.518 2220.5 545.518" stroke="#F2F2F2" stroke-width="3.4375" stroke-linejoin="round" stroke-miterlimit="10" fill="none"/></g><g><path d="M921.5 1169.54 2220.5 1169.54M921.5 1039.53 2220.5 1039.53M921.5 909.53 2220.5 909.53M921.5 779.526 2220.5 779.526M921.5 649.521 2220.5 649.521M921.5 519.5 2220.5 519.5" stroke="#BFBFBF" stroke-width="3.4375" stroke-linejoin="round" stroke-miterlimit="10" fill="none"/></g><g><rect x="921.5" y="519.5" width="1299" height="781" stroke="#000000" stroke-width="3.4375" stroke-linejoin="round" stroke-miterlimit="10" fill="none"/></g><g><path d="M964.532 935.531 1051.53 935.531 1051.53 1300.5 964.532 1300.5ZM1224.54 1073.54 1310.54 1073.54 1310.54 1300.5 1224.54 1300.5ZM1484.55 1184.54 1570.55 1184.54 1570.55 1300.5 1484.55 1300.5ZM1744.56 1120.54 1830.56 1120.54 1830.56 1300.5 1744.56 1300.5ZM2004.57 1226.54 2090.57 1226.54 2090.57 1300.5 2004.57 1300.5Z" stroke="#000000" stroke-width="3.4375" stroke-linejoin="round" stroke-miterlimit="10" fill="#D9D9D9"/></g><g><path d="M1051.53 729.524 1137.54 729.524 1137.54 1300.5 1051.53 1300.5ZM1310.54 586.519 1397.55 586.519 1397.55 1300.5 1310.54 1300.5ZM1570.55 964.532 1657.55 964.532 1657.55 1300.5 1570.55 1300.5ZM1830.56 872.529 1917.56 872.529 1917.56 1300.5 1830.56 1300.5ZM2090.57 780.526 2177.57 780.526 2177.57 1300.5 2090.57 1300.5Z" stroke="#000000" stroke-width="3.4375" stroke-linejoin="round" stroke-miterlimit="10" fill="#595959"/></g><g><path d="M0 0 0.000360892 781" stroke="#000000" stroke-width="2.29167" stroke-linejoin="round" stroke-miterlimit="10" fill="none" fill-rule="evenodd" transform="matrix(1 0 0 -1 921 1300)"/></g><g><path d="M907 1300 921 1300M907 1170.04 921 1170.04M907 1040.03 921 1040.03M907 910.03 921 910.03M907 780.026 921 780.026M907 649.021 921 649.021M907 519 921 519" stroke="#000000" stroke-width="2.29167" stroke-linejoin="round" stroke-miterlimit="10" fill="none"/></g><g><path d="M921.5 1300.5 2220.5 1300.5" stroke="#000000" stroke-width="3.4375" stroke-linejoin="round" stroke-miterlimit="10" fill="none" fill-rule="evenodd"/></g><g><text font-family="Arial,Arial_MSFontService,sans-serif" font-weight="400" font-size="46" transform="matrix(1 0 0 1 856.135 1315)">0</text></g><g><text font-family="Arial,Arial_MSFontService,sans-serif" font-weight="400" font-size="46" transform="matrix(1 0 0 1 830.652 1185)">50</text></g><g><text font-family="Arial,Arial_MSFontService,sans-serif" font-weight="400" font-size="46" transform="matrix(1 0 0 1 805.169 1055)">100</text></g><g><text font-family="Arial,Arial_MSFontService,sans-serif" font-weight="400" font-size="46" transform="matrix(1 0 0 1 805.169 925)">150</text></g><g><text font-family="Arial,Arial_MSFontService,sans-serif" font-weight="400" font-size="46" transform="matrix(1 0 0 1 805.169 795)">200</text></g><g><text font-family="Arial,Arial_MSFontService,sans-serif" font-weight="400" font-size="46" transform="matrix(1 0 0 1 805.169 665)">250</text></g><g><text font-family="Arial,Arial_MSFontService,sans-serif" font-weight="400" font-size="46" transform="matrix(1 0 0 1 805.169 534)">300</text></g><g><text font-family="Arial,Arial_MSFontService,sans-serif" font-weight="400" font-size="46" transform="matrix(0.707107 -0.707107 0.707107 0.707107 936.559 1483)">IP-Stride</text></g><g><text font-family="Arial,Arial_MSFontService,sans-serif" font-weight="400" font-size="46" transform="matrix(0.707107 -0.707107 0.707107 0.707107 1246.95 1433)">IPCP</text></g><g><text font-family="Arial,Arial_MSFontService,sans-serif" font-weight="400" font-size="46" transform="matrix(0.707107 -0.707107 0.707107 0.707107 1499.67 1440)">Bingo</text></g><g><text font-family="Arial,Arial_MSFontService,sans-serif" font-weight="400" font-size="46" transform="matrix(0.707107 -0.707107 0.707107 0.707107 1695.69 1504)">SPP+PPF</text></g><g><text font-family="Arial,Arial_MSFontService,sans-serif" font-weight="400" font-size="46" transform="matrix(0.707107 -0.707107 0.707107 0.707107 2035.82 1424)">Berti</text></g><g><text font-family="Arial,Arial_MSFontService,sans-serif" font-weight="400" font-size="46" transform="matrix(6.12323e-17 -1 1 6.12323e-17 745.13 1136)">L1D Load Miss Latency </text></g><g><rect x="1524" y="537" width="667" height="110" fill="#FFFFFF"/></g><g><rect x="1584.5" y="552.5" width="23" height="23.0001" stroke="#000000" stroke-width="3.4375" stroke-linejoin="round" stroke-miterlimit="10" fill="#D9D9D9"/></g><g><text font-family="Arial,Arial_MSFontService,sans-serif" font-weight="400" font-size="46" transform="matrix(1 0 0 1 1617.25 579)">Non-secure cache system</text></g><g><rect x="1584.5" y="608.5" width="23" height="23.0001" stroke="#000000" stroke-width="3.4375" stroke-linejoin="round" stroke-miterlimit="10" fill="#595959"/></g><g><text font-family="Arial,Arial_MSFontService,sans-serif" font-weight="400" font-size="46" transform="matrix(1 0 0 1 1617.25 635)">Secure cache system</text></g><g><path d="M921.5 927.5 2222.16 927.5" stroke="#000000" stroke-width="3.4375" stroke-miterlimit="8" fill="none" fill-rule="evenodd"/></g><g><rect x="1523" y="643" width="667" height="109" fill="#FFFFFF"/></g><g><g><text font-family="Arial,Arial_MSFontService,sans-serif" font-weight="400" font-size="46" transform="matrix(1 0 0 1 1618.89 686)">No Pref (Non</text></g></g><g><g><text font-family="Arial,Arial_MSFontService,sans-serif" font-weight="400" font-size="46" transform="matrix(1 0 0 1 1886.33 686)">-</text></g></g><g><g><text font-family="Arial,Arial_MSFontService,sans-serif" font-weight="400" font-size="46" transform="matrix(1 0 0 1 1901.59 686)">secure)</text></g></g><g><g><text font-family="Arial,Arial_MSFontService,sans-serif" font-weight="400" font-size="46" transform="matrix(1 0 0 1 1618.89 739)">No Pref (Secure)</text></g></g><g><path d="M1565.5 666.5 1610.93 666.5" stroke="#000000" stroke-width="3.4375" stroke-miterlimit="8" fill="none" fill-rule="evenodd"/></g><g><path d="M1566.5 717.5 1611.93 717.5" stroke="#FF0000" stroke-width="3.4375" stroke-miterlimit="8" fill="none" fill-rule="evenodd"/></g><g><path d="M922.5 980.5 2219.79 980.5" stroke="#FF0000" stroke-width="3.4375" stroke-miterlimit="8" fill="none" fill-rule="evenodd"/></g></g></svg>