<svg width="1687" height="1171" xmlns="http://www.w3.org/2000/svg" xmlns:xlink="http://www.w3.org/1999/xlink" xml:space="preserve" overflow="hidden"><defs><clipPath id="clip0"><rect x="151" y="485" width="1687" height="1171"/></clipPath></defs><g clip-path="url(#clip0)" transform="translate(-151 -485)"><rect x="151" y="485" width="1687" height="1171" fill="#FFFFFF"/><g><path d="M530.5 1381.55 1672.5 1381.55M530.5 1356.54 1672.5 1356.54M530.5 1332.54 1672.5 1332.54M530.5 1307.54 1672.5 1307.54M530.5 1258.54 1672.5 1258.54M530.5 1234.54 1672.5 1234.54M530.5 1209.54 1672.5 1209.54M530.5 1185.54 1672.5 1185.54M530.5 1135.54 1672.5 1135.54M530.5 1111.54 1672.5 1111.54M530.5 1086.54 1672.5 1086.54M530.5 1062.54 1672.5 1062.54M530.5 1013.53 1672.5 1013.53M530.5 988.533 1672.5 988.533M530.5 963.532 1672.5 963.532M530.5 939.531 1672.5 939.531M530.5 890.529 1672.5 890.529M530.5 865.529 1672.5 865.529M530.5 841.528 1672.5 841.528M530.5 816.527 1672.5 816.527M530.5 767.525 1672.5 767.525M530.5 742.525 1672.5 742.525M530.5 718.524 1672.5 718.524M530.5 693.523 1672.5 693.523M530.5 644.521 1672.5 644.521M530.5 620.521 1672.5 620.521M530.5 595.52 1672.5 595.52M530.5 570.519 1672.5 570.519" stroke="#F2F2F2" stroke-width="3.4375" stroke-linejoin="round" stroke-miterlimit="10" fill="none"/></g><g><path d="M530.5 1283.54 1672.5 1283.54M530.5 1160.54 1672.5 1160.54M530.5 1037.53 1672.5 1037.53M530.5 914.53 1672.5 914.53M530.5 792.526 1672.5 792.526M530.5 669.522 1672.5 669.522M530.5 546.5 1672.5 546.5" stroke="#D9D9D9" stroke-width="3.4375" stroke-linejoin="round" stroke-miterlimit="10" fill="none"/></g><g><rect x="530.5" y="546.5" width="1142" height="860" stroke="#000000" stroke-width="3.4375" stroke-linejoin="round" stroke-miterlimit="10" fill="none"/></g><g><path d="M590.52 1204.54 755.525 1204.54 755.525 1406.5 590.52 1406.5ZM876.529 1275.54 1041.53 1275.54 1041.53 1406.5 876.529 1406.5ZM1161.54 1252.54 1326.54 1252.54 1326.54 1406.5 1161.54 1406.5ZM1447.55 1273.54 1612.55 1273.54 1612.55 1406.5 1447.55 1406.5Z" stroke="#000000" stroke-width="3.4375" stroke-linejoin="round" stroke-miterlimit="10" fill="#404040"/></g><g><path d="M590.52 1074.54 755.525 1074.54 755.525 1204.54 590.52 1204.54ZM876.529 1122.54 1041.53 1122.54 1041.53 1275.54 876.529 1275.54ZM1161.54 1026.53 1326.54 1026.53 1326.54 1252.54 1161.54 1252.54ZM1447.55 987.533 1612.55 987.533 1612.55 1273.54 1447.55 1273.54Z" stroke="#000000" stroke-width="3.4375" stroke-linejoin="round" stroke-miterlimit="10" fill="#A6A6A6"/></g><g><path d="M876.529 982.532 1041.53 982.532 1041.53 1122.54 876.529 1122.54ZM1447.55 822.527 1612.55 822.527 1612.55 987.533 1447.55 987.533Z" stroke="#000000" stroke-width="3.4375" stroke-linejoin="round" stroke-miterlimit="10" fill="#D9D9D9"/></g><g><path d="M876.529 954.531 1041.53 954.531 1041.53 982.532 876.529 982.532ZM1447.55 767.525 1612.55 767.525 1612.55 822.527 1447.55 822.527Z" stroke="#000000" stroke-width="3.4375" stroke-linejoin="round" stroke-miterlimit="10" fill="#FFFFFF"/></g><g><path d="M0 0 0.000360892 860" stroke="#000000" stroke-width="3.4375" stroke-linejoin="round" stroke-miterlimit="10" fill="none" fill-rule="evenodd" transform="matrix(1 0 0 -1 530.5 1406.5)"/></g><g><path d="M516.5 1406.5 530.5 1406.5M516.5 1283.54 530.5 1283.54M516.5 1160.54 530.5 1160.54M516.5 1037.53 530.5 1037.53M516.5 914.53 530.5 914.53M516.5 792.526 530.5 792.526M516.5 669.522 530.5 669.522M516.5 546.5 530.5 546.5" stroke="#000000" stroke-width="3.4375" stroke-linejoin="round" stroke-miterlimit="10" fill="none"/></g><g><path d="M530.5 1406.5 1672.5 1406.5" stroke="#000000" stroke-width="3.4375" stroke-linejoin="round" stroke-miterlimit="10" fill="none" fill-rule="evenodd"/></g><g><path d="M530.5 1406.5 530.5 1494.5M1101.54 1406.5 1101.54 1494.5M1672.5 1406.5 1672.5 1494.5" stroke="#000000" stroke-width="3.4375" stroke-linejoin="round" stroke-miterlimit="10" fill="none"/></g><g><path d="M530.5 1494.5 530.5 1583.5M1101.54 1494.5 1101.54 1583.5M1672.5 1494.5 1672.5 1583.5" stroke="#000000" stroke-width="3.4375" stroke-linejoin="round" stroke-miterlimit="10" fill="none"/></g><g><text font-family="Calibri,Calibri_MSFontService,sans-serif" font-weight="400" font-size="46" transform="matrix(1 0 0 1 441.667 1420)">20</text></g><g><text font-family="Calibri,Calibri_MSFontService,sans-serif" font-weight="400" font-size="46" transform="matrix(1 0 0 1 441.667 1297)">21</text></g><g><text font-family="Calibri,Calibri_MSFontService,sans-serif" font-weight="400" font-size="46" transform="matrix(1 0 0 1 441.667 1174)">22</text></g><g><text font-family="Calibri,Calibri_MSFontService,sans-serif" font-weight="400" font-size="46" transform="matrix(1 0 0 1 441.667 1051)">23</text></g><g><text font-family="Calibri,Calibri_MSFontService,sans-serif" font-weight="400" font-size="46" transform="matrix(1 0 0 1 441.667 928)">24</text></g><g><text font-family="Calibri,Calibri_MSFontService,sans-serif" font-weight="400" font-size="46" transform="matrix(1 0 0 1 441.667 806)">25</text></g><g><text font-family="Calibri,Calibri_MSFontService,sans-serif" font-weight="400" font-size="46" transform="matrix(1 0 0 1 441.667 683)">26</text></g><g><text font-family="Calibri,Calibri_MSFontService,sans-serif" font-weight="400" font-size="46" transform="matrix(1 0 0 1 441.667 560)">27</text></g><g><text font-family="Calibri,Calibri_MSFontService,sans-serif" font-weight="400" font-size="46" transform="matrix(1 0 0 1 579.487 1479)">On-access</text></g><g><text font-family="Calibri,Calibri_MSFontService,sans-serif" font-weight="400" font-size="46" transform="matrix(1 0 0 1 853.321 1479)">On-commit</text></g><g><text font-family="Calibri,Calibri_MSFontService,sans-serif" font-weight="400" font-size="46" transform="matrix(1 0 0 1 1150.46 1479)">On-access</text></g><g><text font-family="Calibri,Calibri_MSFontService,sans-serif" font-weight="400" font-size="46" transform="matrix(1 0 0 1 1424.29 1479)">On-commit</text></g><g><text font-family="Calibri,Calibri_MSFontService,sans-serif" font-weight="400" font-size="46" transform="matrix(1 0 0 1 763.504 1568)">Bingo</text></g><g><text font-family="Calibri,Calibri_MSFontService,sans-serif" font-weight="400" font-size="46" transform="matrix(1 0 0 1 1307.3 1568)">SPP+PPF</text></g><g><text font-family="Calibri,Calibri_MSFontService,sans-serif" font-weight="400" font-size="46" transform="matrix(6.12323e-17 -1 1 6.12323e-17 372.915 1039)">L2C MPKI</text></g><g><rect x="549" y="558" width="1110" height="143" fill="#FFFFFF"/></g><g><rect x="614.5" y="580.5" width="24.9998" height="25.9998" stroke="#000000" stroke-width="3.4375" stroke-linejoin="round" stroke-miterlimit="10" fill="#404040"/></g><g><text font-family="Calibri,Calibri_MSFontService,sans-serif" font-weight="400" font-size="46" transform="matrix(1 0 0 1 650.855 607)">Uncovered</text></g><g><rect x="1169.5" y="580.5" width="26.0001" height="25.9998" stroke="#000000" stroke-width="3.4375" stroke-linejoin="round" stroke-miterlimit="10" fill="#A6A6A6"/></g><g><text font-family="Calibri,Calibri_MSFontService,sans-serif" font-weight="400" font-size="46" transform="matrix(1 0 0 1 1205.91 607)">Late Prefetch</text></g><g><rect x="614.5" y="652.5" width="24.9998" height="25.0001" stroke="#000000" stroke-width="3.4375" stroke-linejoin="round" stroke-miterlimit="10" fill="#D9D9D9"/></g><g><text font-family="Calibri,Calibri_MSFontService,sans-serif" font-weight="400" font-size="46" transform="matrix(1 0 0 1 650.855 679)">Commit Late Prefetch</text></g><g><rect x="1169.5" y="652.5" width="26.0001" height="25.0001" stroke="#000000" stroke-width="3.4375" stroke-linejoin="round" stroke-miterlimit="10" fill="#FFFFFF"/></g><g><text font-family="Calibri,Calibri_MSFontService,sans-serif" font-weight="400" font-size="46" transform="matrix(1 0 0 1 1205.91 679)">Missed Opportunity</text></g></g></svg>