<svg width="1689" height="750" xmlns="http://www.w3.org/2000/svg" xmlns:xlink="http://www.w3.org/1999/xlink" xml:space="preserve" overflow="hidden"><defs><clipPath id="clip0"><rect x="1677" y="284" width="1689" height="750"/></clipPath></defs><g clip-path="url(#clip0)" transform="translate(-1677 -284)"><rect x="1677" y="284" width="1689" height="750" fill="#FFFFFF"/><g><path d="M2089.5 897.53 2975.5 897.53M2089.5 857.528 2975.5 857.528M2089.5 817.527 2975.5 817.527M2089.5 776.526 2975.5 776.526M2089.5 696.523 2975.5 696.523M2089.5 655.522 2975.5 655.522M2089.5 615.52 2975.5 615.52M2089.5 575.519 2975.5 575.519M2089.5 494.516 2975.5 494.516M2089.5 454.515 2975.5 454.515M2089.5 414.514 2975.5 414.514M2089.5 373.512 2975.5 373.512" stroke="#F2F2F2" stroke-width="3.4375" stroke-linejoin="round" stroke-miterlimit="10" fill="none"/></g><g><path d="M2089.5 736.524 2975.5 736.524M2089.5 535.518 2975.5 535.518M2089.5 333.5 2975.5 333.5" stroke="#BFBFBF" stroke-width="3.4375" stroke-linejoin="round" stroke-miterlimit="10" fill="none"/></g><g><rect x="2089.5" y="333.5" width="886" height="605" stroke="#000000" stroke-width="3.4375" stroke-linejoin="round" stroke-miterlimit="10" fill="none"/></g><g><path d="M2138.57 522.517 2237.57 522.517 2237.57 938.5 2138.57 938.5ZM2433.58 676.522 2532.58 676.522 2532.58 938.5 2433.58 938.5ZM2729.59 492.516 2827.59 492.516 2827.59 938.5 2729.59 938.5Z" stroke="#000000" stroke-width="3.4375" stroke-linejoin="round" stroke-miterlimit="10" fill="#F2F2F2"/></g><g><path d="M2237.57 669.522 2335.58 669.522 2335.58 938.5 2237.57 938.5ZM2532.58 841.528 2630.59 841.528 2630.59 938.5 2532.58 938.5ZM2827.59 617.52 2925.6 617.52 2925.6 938.5 2827.59 938.5Z" stroke="#000000" stroke-width="3.4375" stroke-linejoin="round" stroke-miterlimit="10" fill="#7F7F7F"/></g><g><path d="M0 0 0.000360892 605" stroke="#000000" stroke-width="3.4375" stroke-linejoin="round" stroke-miterlimit="10" fill="none" fill-rule="evenodd" transform="matrix(1 0 0 -1 2089.5 938.5)"/></g><g><path d="M2075.5 938.5 2089.5 938.5M2075.5 736.524 2089.5 736.524M2075.5 535.518 2089.5 535.518M2075.5 333.5 2089.5 333.5" stroke="#000000" stroke-width="3.4375" stroke-linejoin="round" stroke-miterlimit="10" fill="none"/></g><g><path d="M2089.5 938.5 2975.5 938.5" stroke="#000000" stroke-width="3.4375" stroke-linejoin="round" stroke-miterlimit="10" fill="none" fill-rule="evenodd"/></g><g><text font-family="Arial,Arial_MSFontService,sans-serif" font-weight="400" font-size="46" transform="matrix(1 0 0 1 1999.38 953)">40</text></g><g><text font-family="Arial,Arial_MSFontService,sans-serif" font-weight="400" font-size="46" transform="matrix(1 0 0 1 1999.38 752)">60</text></g><g><text font-family="Arial,Arial_MSFontService,sans-serif" font-weight="400" font-size="46" transform="matrix(1 0 0 1 1999.38 550)">80</text></g><g><text font-family="Arial,Arial_MSFontService,sans-serif" font-weight="400" font-size="46" transform="matrix(1 0 0 1 1973.9 349)">100</text></g><g><text font-family="Arial,Arial_MSFontService,sans-serif" font-weight="400" font-size="46" transform="matrix(1 0 0 1 2149.45 1008)">IP Stride</text></g><g><text font-family="Arial,Arial_MSFontService,sans-serif" font-weight="400" font-size="46" transform="matrix(1 0 0 1 2478.92 1008)">IPCP</text></g><g><text font-family="Arial,Arial_MSFontService,sans-serif" font-weight="400" font-size="46" transform="matrix(1 0 0 1 2780.37 1008)">Berti</text></g><g><text font-family="Arial,Arial_MSFontService,sans-serif" font-weight="400" font-size="46" transform="matrix(6.12323e-17 -1 1 6.12323e-17 1945.13 812)">Prefetch accuracy (%)</text></g><g><rect x="2143.5" y="363.5" width="23" height="24.0001" stroke="#000000" stroke-width="3.4375" stroke-linejoin="round" stroke-miterlimit="10" fill="#F2F2F2"/></g><g><text font-family="Arial,Arial_MSFontService,sans-serif" font-weight="400" font-size="46" transform="matrix(1 0 0 1 2176.79 391)">On-access</text></g><g><rect x="2428.5" y="363.5" width="23" height="24.0001" stroke="#000000" stroke-width="3.4375" stroke-linejoin="round" stroke-miterlimit="10" fill="#7F7F7F"/></g><g><text font-family="Arial,Arial_MSFontService,sans-serif" font-weight="400" font-size="46" transform="matrix(1 0 0 1 2461.05 391)">On-commit</text></g></g></svg>