<svg width="3803" height="1107" xmlns="http://www.w3.org/2000/svg" xmlns:xlink="http://www.w3.org/1999/xlink" xml:space="preserve" overflow="hidden"><defs><clipPath id="clip0"><rect x="1053" y="289" width="3803" height="1107"/></clipPath></defs><g clip-path="url(#clip0)" transform="translate(-1053 -289)"><rect x="1053" y="289" width="3803" height="1107" fill="#FFFFFF"/><g><path d="M1453.5 805.527 4809.5 805.527M1453.5 788.526 4809.5 788.526M1453.5 770.525 4809.5 770.525M1453.5 753.525 4809.5 753.525M1453.5 719.524 4809.5 719.524M1453.5 701.523 4809.5 701.523M1453.5 684.523 4809.5 684.523M1453.5 667.522 4809.5 667.522M1453.5 632.521 4809.5 632.521M1453.5 615.52 4809.5 615.52M1453.5 598.52 4809.5 598.52M1453.5 580.519 4809.5 580.519M1453.5 546.518 4809.5 546.518M1453.5 529.518 4809.5 529.518M1453.5 511.517 4809.5 511.517M1453.5 494.516 4809.5 494.516M1453.5 460.515 4809.5 460.515M1453.5 442.515 4809.5 442.515M1453.5 425.514 4809.5 425.514M1453.5 408.514 4809.5 408.514" stroke="#F2F2F2" stroke-width="3.4375" stroke-linejoin="round" stroke-miterlimit="10" fill="none"/></g><g><path d="M1453.5 736.524 4809.5 736.524M1453.5 650.521 4809.5 650.521M1453.5 563.519 4809.5 563.519M1453.5 477.516 4809.5 477.516M1453.5 391.5 4809.5 391.5" stroke="#D9D9D9" stroke-width="3.4375" stroke-linejoin="round" stroke-miterlimit="10" fill="none"/></g><g><rect x="1453.5" y="391.5" width="3356" height="431" stroke="#000000" stroke-width="3.4375" stroke-linejoin="round" stroke-miterlimit="10" fill="none"/></g><g><path d="M1465.55 517.517 1489.55 517.517 1489.55 822.5 1465.55 822.5ZM1538.55 403.513 1562.55 403.513 1562.55 822.5 1538.55 822.5ZM1611.55 410.514 1635.55 410.514 1635.55 822.5 1611.55 822.5ZM1684.56 423.514 1708.56 423.514 1708.56 822.5 1684.56 822.5ZM1756.56 391.513 1781.56 391.513 1781.56 822.5 1756.56 822.5ZM1829.56 391.513 1854.56 391.513 1854.56 822.5 1829.56 822.5ZM1902.56 392.513 1927.56 392.513 1927.56 822.5 1902.56 822.5ZM1975.56 391.513 2000.57 391.513 2000.57 822.5 1975.56 822.5ZM2048.57 393.513 2073.57 393.513 2073.57 822.5 2048.57 822.5ZM2121.57 598.52 2146.57 598.52 2146.57 822.5 2121.57 822.5ZM2194.57 652.522 2218.57 652.522 2218.57 822.5 2194.57 822.5ZM2267.57 392.513 2291.58 392.513 2291.58 822.5 2267.57 822.5ZM2340.58 584.519 2364.58 584.519 2364.58 822.5 2340.58 822.5ZM2413.58 578.519 2437.58 578.519 2437.58 822.5 2413.58 822.5ZM2486.58 393.513 2510.58 393.513 2510.58 822.5 2486.58 822.5ZM2559.58 391.513 2583.58 391.513 2583.58 822.5 2559.58 822.5ZM2632.59 407.514 2656.59 407.514 2656.59 822.5 2632.59 822.5ZM2705.59 779.526 2729.59 779.526 2729.59 822.5 2705.59 822.5ZM2778.59 772.526 2802.59 772.526 2802.59 822.5 2778.59 822.5ZM2851.59 425.514 2875.59 425.514 2875.59 822.5 2851.59 822.5ZM2924.6 391.513 2948.6 391.513 2948.6 822.5 2924.6 822.5ZM2997.6 398.513 3021.6 398.513 3021.6 822.5 2997.6 822.5ZM3070.6 395.513 3094.6 395.513 3094.6 822.5 3070.6 822.5ZM3143.6 396.513 3167.6 396.513 3167.6 822.5 3143.6 822.5ZM3216.61 612.52 3240.61 612.52 3240.61 822.5 3216.61 822.5ZM3289.61 555.518 3313.61 555.518 3313.61 822.5 3289.61 822.5ZM3362.61 424.514 3386.61 424.514 3386.61 822.5 3362.61 822.5ZM3435.61 415.514 3459.61 415.514 3459.61 822.5 3435.61 822.5ZM3508.62 498.517 3532.62 498.517 3532.62 822.5 3508.62 822.5ZM3581.62 418.514 3605.62 418.514 3605.62 822.5 3581.62 822.5ZM3654.62 404.513 3678.62 404.513 3678.62 822.5 3654.62 822.5ZM3726.62 451.515 3751.62 451.515 3751.62 822.5 3726.62 822.5ZM3799.62 415.514 3824.63 415.514 3824.63 822.5 3799.62 822.5ZM3872.63 410.514 3897.63 410.514 3897.63 822.5 3872.63 822.5ZM3945.63 393.513 3970.63 393.513 3970.63 822.5 3945.63 822.5ZM4018.63 419.514 4043.63 419.514 4043.63 822.5 4018.63 822.5ZM4091.63 393.513 4116.64 393.513 4116.64 822.5 4091.63 822.5ZM4164.64 431.514 4189.64 431.514 4189.64 822.5 4164.64 822.5ZM4237.64 496.516 4261.64 496.516 4261.64 822.5 4237.64 822.5ZM4310.64 439.515 4334.64 439.515 4334.64 822.5 4310.64 822.5ZM4383.64 425.514 4407.65 425.514 4407.65 822.5 4383.64 822.5ZM4456.65 427.514 4480.65 427.514 4480.65 822.5 4456.65 822.5ZM4529.65 434.514 4553.65 434.514 4553.65 822.5 4529.65 822.5ZM4602.65 450.515 4626.65 450.515 4626.65 822.5 4602.65 822.5ZM4675.65 466.515 4699.65 466.515 4699.65 822.5 4675.65 822.5ZM4748.66 459.515 4772.66 459.515 4772.66 822.5 4748.66 822.5Z" stroke="#000000" stroke-width="3.4375" stroke-linejoin="round" stroke-miterlimit="10" fill="#F2F2F2"/></g><g><path d="M1489.55 529.518 1513.55 529.518 1513.55 822.5 1489.55 822.5ZM1562.55 405.513 1586.55 405.513 1586.55 822.5 1562.55 822.5ZM1635.55 412.514 1659.55 412.514 1659.55 822.5 1635.55 822.5ZM1708.56 426.514 1732.56 426.514 1732.56 822.5 1708.56 822.5ZM1781.56 402.513 1805.56 402.513 1805.56 822.5 1781.56 822.5ZM1854.56 402.513 1878.56 402.513 1878.56 822.5 1854.56 822.5ZM1927.56 420.514 1951.56 420.514 1951.56 822.5 1927.56 822.5ZM2000.57 391.513 2024.57 391.513 2024.57 822.5 2000.57 822.5ZM2073.57 403.513 2097.57 403.513 2097.57 822.5 2073.57 822.5ZM2146.57 534.518 2170.57 534.518 2170.57 822.5 2146.57 822.5ZM2219.57 508.517 2243.57 508.517 2243.57 822.5 2219.57 822.5ZM2292.58 393.513 2316.58 393.513 2316.58 822.5 2292.58 822.5ZM2365.58 517.517 2389.58 517.517 2389.58 822.5 2365.58 822.5ZM2438.58 527.517 2462.58 527.517 2462.58 822.5 2438.58 822.5ZM2511.58 397.513 2535.58 397.513 2535.58 822.5 2511.58 822.5ZM2584.58 401.513 2608.59 401.513 2608.59 822.5 2584.58 822.5ZM2657.59 406.514 2681.59 406.514 2681.59 822.5 2657.59 822.5ZM2729.59 685.523 2754.59 685.523 2754.59 822.5 2729.59 822.5ZM2802.59 753.525 2827.59 753.525 2827.59 822.5 2802.59 822.5ZM2875.59 647.521 2900.6 647.521 2900.6 822.5 2875.59 822.5ZM2948.6 809.527 2973.6 809.527 2973.6 822.5 2948.6 822.5ZM3021.6 777.526 3046.6 777.526 3046.6 822.5 3021.6 822.5ZM3094.6 796.526 3119.6 796.526 3119.6 822.5 3094.6 822.5ZM3167.6 773.526 3192.6 773.526 3192.6 822.5 3167.6 822.5ZM3240.61 614.52 3264.61 614.52 3264.61 822.5 3240.61 822.5ZM3313.61 576.519 3337.61 576.519 3337.61 822.5 3313.61 822.5ZM3386.61 465.515 3410.61 465.515 3410.61 822.5 3386.61 822.5ZM3459.61 446.515 3483.61 446.515 3483.61 822.5 3459.61 822.5ZM3532.62 528.518 3556.62 528.518 3556.62 822.5 3532.62 822.5ZM3605.62 426.514 3629.62 426.514 3629.62 822.5 3605.62 822.5ZM3678.62 403.513 3702.62 403.513 3702.62 822.5 3678.62 822.5ZM3751.62 496.516 3775.62 496.516 3775.62 822.5 3751.62 822.5ZM3824.63 597.52 3848.63 597.52 3848.63 822.5 3824.63 822.5ZM3897.63 419.514 3921.63 419.514 3921.63 822.5 3897.63 822.5ZM3970.63 394.513 3994.63 394.513 3994.63 822.5 3970.63 822.5ZM4043.63 419.514 4067.63 419.514 4067.63 822.5 4043.63 822.5ZM4116.64 394.513 4140.64 394.513 4140.64 822.5 4116.64 822.5ZM4189.64 566.519 4213.64 566.519 4213.64 822.5 4189.64 822.5ZM4262.64 554.518 4286.64 554.518 4286.64 822.5 4262.64 822.5ZM4335.64 503.517 4359.64 503.517 4359.64 822.5 4335.64 822.5ZM4408.65 594.52 4432.65 594.52 4432.65 822.5 4408.65 822.5ZM4481.65 480.516 4505.65 480.516 4505.65 822.5 4481.65 822.5ZM4554.65 434.514 4578.65 434.514 4578.65 822.5 4554.65 822.5ZM4627.65 524.517 4651.65 524.517 4651.65 822.5 4627.65 822.5ZM4700.65 499.517 4724.66 499.517 4724.66 822.5 4700.65 822.5ZM4772.66 512.517 4797.66 512.517 4797.66 822.5 4772.66 822.5Z" stroke="#000000" stroke-width="3.4375" stroke-linejoin="round" stroke-miterlimit="10" fill="#7F7F7F"/></g><g><path d="M0 0 0.000360892 431" stroke="#000000" stroke-width="3.4375" stroke-linejoin="round" stroke-miterlimit="10" fill="none" fill-rule="evenodd" transform="matrix(1 0 0 -1 1453.5 822.5)"/></g><g><path d="M1439.5 822.5 1453.5 822.5M1439.5 736.524 1453.5 736.524M1439.5 650.521 1453.5 650.521M1439.5 563.519 1453.5 563.519M1439.5 477.516 1453.5 477.516M1439.5 391.5 1453.5 391.5" stroke="#000000" stroke-width="3.4375" stroke-linejoin="round" stroke-miterlimit="10" fill="none"/></g><g><path d="M1453.5 822.5 4809.5 822.5" stroke="#000000" stroke-width="3.4375" stroke-linejoin="round" stroke-miterlimit="10" fill="none" fill-rule="evenodd"/></g><g><text font-family="Arial,Arial_MSFontService,sans-serif" font-weight="400" font-size="46" transform="matrix(1 0 0 1 1388.11 838)">0</text></g><g><text font-family="Arial,Arial_MSFontService,sans-serif" font-weight="400" font-size="46" transform="matrix(1 0 0 1 1362.63 751)">20</text></g><g><text font-family="Arial,Arial_MSFontService,sans-serif" font-weight="400" font-size="46" transform="matrix(1 0 0 1 1362.63 665)">40</text></g><g><text font-family="Arial,Arial_MSFontService,sans-serif" font-weight="400" font-size="46" transform="matrix(1 0 0 1 1362.63 579)">60</text></g><g><text font-family="Arial,Arial_MSFontService,sans-serif" font-weight="400" font-size="46" transform="matrix(1 0 0 1 1362.63 492)">80</text></g><g><text font-family="Arial,Arial_MSFontService,sans-serif" font-weight="400" font-size="46" transform="matrix(1 0 0 1 1337.15 406)">100</text></g><g><text font-family="Arial,Arial_MSFontService,sans-serif" font-weight="400" font-size="46" transform="matrix(0.707107 -0.707107 0.707107 0.707107 1175.04 1206)">600.perlbench_s-570B</text></g><g><text font-family="Arial,Arial_MSFontService,sans-serif" font-weight="400" font-size="46" transform="matrix(0.707107 -0.707107 0.707107 0.707107 1321.87 1132)">602.gcc_s-1850B</text></g><g><text font-family="Arial,Arial_MSFontService,sans-serif" font-weight="400" font-size="46" transform="matrix(0.707107 -0.707107 0.707107 0.707107 1394.84 1132)">602.gcc_s-2226B</text></g><g><text font-family="Arial,Arial_MSFontService,sans-serif" font-weight="400" font-size="46" transform="matrix(0.707107 -0.707107 0.707107 0.707107 1485.82 1114)">602.gcc_s-734B</text></g><g><text font-family="Arial,Arial_MSFontService,sans-serif" font-weight="400" font-size="46" transform="matrix(0.707107 -0.707107 0.707107 0.707107 1481.33 1192)">603.bwaves_s-1740B</text></g><g><text font-family="Arial,Arial_MSFontService,sans-serif" font-weight="400" font-size="46" transform="matrix(0.707107 -0.707107 0.707107 0.707107 1554.3 1192)">603.bwaves_s-2609B</text></g><g><text font-family="Arial,Arial_MSFontService,sans-serif" font-weight="400" font-size="46" transform="matrix(0.707107 -0.707107 0.707107 0.707107 1627.26 1192)">603.bwaves_s-2931B</text></g><g><text font-family="Arial,Arial_MSFontService,sans-serif" font-weight="400" font-size="46" transform="matrix(0.707107 -0.707107 0.707107 0.707107 1718.25 1174)">603.bwaves_s-891B</text></g><g><text font-family="Arial,Arial_MSFontService,sans-serif" font-weight="400" font-size="46" transform="matrix(0.707107 -0.707107 0.707107 0.707107 1830.85 1134)">605.mcf_s-1152B</text></g><g><text font-family="Arial,Arial_MSFontService,sans-serif" font-weight="400" font-size="46" transform="matrix(0.707107 -0.707107 0.707107 0.707107 1903.82 1134)">605.mcf_s-1536B</text></g><g><text font-family="Arial,Arial_MSFontService,sans-serif" font-weight="400" font-size="46" transform="matrix(0.707107 -0.707107 0.707107 0.707107 1976.78 1134)">605.mcf_s-1554B</text></g><g><text font-family="Arial,Arial_MSFontService,sans-serif" font-weight="400" font-size="46" transform="matrix(0.707107 -0.707107 0.707107 0.707107 2049.75 1134)">605.mcf_s-1644B</text></g><g><text font-family="Arial,Arial_MSFontService,sans-serif" font-weight="400" font-size="46" transform="matrix(0.707107 -0.707107 0.707107 0.707107 2140.74 1116)">605.mcf_s-472B</text></g><g><text font-family="Arial,Arial_MSFontService,sans-serif" font-weight="400" font-size="46" transform="matrix(0.707107 -0.707107 0.707107 0.707107 2213.7 1116)">605.mcf_s-484B</text></g><g><text font-family="Arial,Arial_MSFontService,sans-serif" font-weight="400" font-size="46" transform="matrix(0.707107 -0.707107 0.707107 0.707107 2286.67 1116)">605.mcf_s-665B</text></g><g><text font-family="Arial,Arial_MSFontService,sans-serif" font-weight="400" font-size="46" transform="matrix(0.707107 -0.707107 0.707107 0.707107 2359.64 1116)">605.mcf_s-782B</text></g><g><text font-family="Arial,Arial_MSFontService,sans-serif" font-weight="400" font-size="46" transform="matrix(0.707107 -0.707107 0.707107 0.707107 2432.6 1116)">605.mcf_s-994B</text></g><g><text font-family="Arial,Arial_MSFontService,sans-serif" font-weight="400" font-size="46" transform="matrix(0.707107 -0.707107 0.707107 0.707107 2374.05 1248)">607.cactuBSSN_s-2421B</text></g><g><text font-family="Arial,Arial_MSFontService,sans-serif" font-weight="400" font-size="46" transform="matrix(0.707107 -0.707107 0.707107 0.707107 2447.02 1248)">607.cactuBSSN_s-3477B</text></g><g><text font-family="Arial,Arial_MSFontService,sans-serif" font-weight="400" font-size="46" transform="matrix(0.707107 -0.707107 0.707107 0.707107 2519.98 1248)">607.cactuBSSN_s-4004B</text></g><g><text font-family="Arial,Arial_MSFontService,sans-serif" font-weight="400" font-size="46" transform="matrix(0.707107 -0.707107 0.707107 0.707107 2706.45 1134)">619.lbm_s-2676B</text></g><g><text font-family="Arial,Arial_MSFontService,sans-serif" font-weight="400" font-size="46" transform="matrix(0.707107 -0.707107 0.707107 0.707107 2779.41 1134)">619.lbm_s-2677B</text></g><g><text font-family="Arial,Arial_MSFontService,sans-serif" font-weight="400" font-size="46" transform="matrix(0.707107 -0.707107 0.707107 0.707107 2852.38 1134)">619.lbm_s-3766B</text></g><g><text font-family="Arial,Arial_MSFontService,sans-serif" font-weight="400" font-size="46" transform="matrix(0.707107 -0.707107 0.707107 0.707107 2925.35 1134)">619.lbm_s-4268B</text></g><g><text font-family="Arial,Arial_MSFontService,sans-serif" font-weight="400" font-size="46" transform="matrix(0.707107 -0.707107 0.707107 0.707107 2942.44 1190)">620.omnetpp_s-141B</text></g><g><text font-family="Arial,Arial_MSFontService,sans-serif" font-weight="400" font-size="46" transform="matrix(0.707107 -0.707107 0.707107 0.707107 3015.41 1190)">620.omnetpp_s-874B</text></g><g><text font-family="Arial,Arial_MSFontService,sans-serif" font-weight="400" font-size="46" transform="matrix(0.707107 -0.707107 0.707107 0.707107 3153.25 1125)">621.wrf_s-6673B</text></g><g><text font-family="Arial,Arial_MSFontService,sans-serif" font-weight="400" font-size="46" transform="matrix(0.707107 -0.707107 0.707107 0.707107 3226.22 1125)">621.wrf_s-8065B</text></g><g><text font-family="Arial,Arial_MSFontService,sans-serif" font-weight="400" font-size="46" transform="matrix(0.707107 -0.707107 0.707107 0.707107 3223.54 1201)">623.xalancbmk_s-10B</text></g><g><text font-family="Arial,Arial_MSFontService,sans-serif" font-weight="400" font-size="46" transform="matrix(0.707107 -0.707107 0.707107 0.707107 3278.49 1219)">623.xalancbmk_s-165B</text></g><g><text font-family="Arial,Arial_MSFontService,sans-serif" font-weight="400" font-size="46" transform="matrix(0.707107 -0.707107 0.707107 0.707107 3351.46 1219)">623.xalancbmk_s-202B</text></g><g><text font-family="Arial,Arial_MSFontService,sans-serif" font-weight="400" font-size="46" transform="matrix(0.707107 -0.707107 0.707107 0.707107 3525.25 1118)">628.pop2_s-17B</text></g><g><text font-family="Arial,Arial_MSFontService,sans-serif" font-weight="400" font-size="46" transform="matrix(0.707107 -0.707107 0.707107 0.707107 3565.81 1150)">641.leela_s-1083B</text></g><g><text font-family="Arial,Arial_MSFontService,sans-serif" font-weight="400" font-size="46" transform="matrix(0.707107 -0.707107 0.707107 0.707107 3557.68 1231)">649.fotonik3d_s-10881B</text></g><g><text font-family="Arial,Arial_MSFontService,sans-serif" font-weight="400" font-size="46" transform="matrix(0.707107 -0.707107 0.707107 0.707107 3648.67 1213)">649.fotonik3d_s-1176B</text></g><g><text font-family="Arial,Arial_MSFontService,sans-serif" font-weight="400" font-size="46" transform="matrix(0.707107 -0.707107 0.707107 0.707107 3721.64 1213)">649.fotonik3d_s-7084B</text></g><g><text font-family="Arial,Arial_MSFontService,sans-serif" font-weight="400" font-size="46" transform="matrix(0.707107 -0.707107 0.707107 0.707107 3794.6 1213)">649.fotonik3d_s-8225B</text></g><g><text font-family="Arial,Arial_MSFontService,sans-serif" font-weight="400" font-size="46" transform="matrix(0.707107 -0.707107 0.707107 0.707107 3927.07 1154)">654.roms_s-1007B</text></g><g><text font-family="Arial,Arial_MSFontService,sans-serif" font-weight="400" font-size="46" transform="matrix(0.707107 -0.707107 0.707107 0.707107 4000.04 1154)">654.roms_s-1070B</text></g><g><text font-family="Arial,Arial_MSFontService,sans-serif" font-weight="400" font-size="46" transform="matrix(0.707107 -0.707107 0.707107 0.707107 4073 1154)">654.roms_s-1390B</text></g><g><text font-family="Arial,Arial_MSFontService,sans-serif" font-weight="400" font-size="46" transform="matrix(0.707107 -0.707107 0.707107 0.707107 4145.97 1154)">654.roms_s-1613B</text></g><g><text font-family="Arial,Arial_MSFontService,sans-serif" font-weight="400" font-size="46" transform="matrix(0.707107 -0.707107 0.707107 0.707107 4236.96 1136)">654.roms_s-293B</text></g><g><text font-family="Arial,Arial_MSFontService,sans-serif" font-weight="400" font-size="46" transform="matrix(0.707107 -0.707107 0.707107 0.707107 4309.92 1136)">654.roms_s-294B</text></g><g><text font-family="Arial,Arial_MSFontService,sans-serif" font-weight="400" font-size="46" transform="matrix(0.707107 -0.707107 0.707107 0.707107 4382.89 1136)">654.roms_s-523B</text></g><g><text font-family="Arial,Arial_MSFontService,sans-serif" font-weight="400" font-size="46" transform="matrix(0.707107 -0.707107 0.707107 0.707107 4477.44 1114)">657.xz_s-2302B</text></g><g><text font-family="Arial,Arial_MSFontService,sans-serif" font-weight="400" font-size="46" transform="matrix(0.707107 -0.707107 0.707107 0.707107 4703.54 961)">Mean</text></g><g><text font-family="Arial,Arial_MSFontService,sans-serif" font-weight="400" font-size="46" transform="matrix(6.12323e-17 -1 1 6.12323e-17 1282.48 822)">Prefetch accuracy(%)</text></g><g><rect x="2687.5" y="330.5" width="23" height="23" stroke="#000000" stroke-width="3.4375" stroke-linejoin="round" stroke-miterlimit="10" fill="#F2F2F2"/></g><g><text font-family="Arial,Arial_MSFontService,sans-serif" font-weight="400" font-size="46" transform="matrix(1 0 0 1 2720.42 357)">On-access</text></g><g><rect x="2988.5" y="330.5" width="23" height="23" stroke="#000000" stroke-width="3.4375" stroke-linejoin="round" stroke-miterlimit="10" fill="#7F7F7F"/></g><g><text font-family="Arial,Arial_MSFontService,sans-serif" font-weight="400" font-size="46" transform="matrix(1 0 0 1 3021.24 357)">On-commit</text></g></g></svg>