<svg width="3797" height="1100" xmlns="http://www.w3.org/2000/svg" xmlns:xlink="http://www.w3.org/1999/xlink" xml:space="preserve" overflow="hidden"><defs><clipPath id="clip0"><rect x="1525" y="281" width="3797" height="1100"/></clipPath><clipPath id="clip1"><rect x="1924" y="382" width="3354" height="432"/></clipPath><clipPath id="clip2"><rect x="1924" y="382" width="3354" height="432"/></clipPath><clipPath id="clip3"><rect x="2322" y="281" width="563" height="70"/></clipPath><clipPath id="clip4"><rect x="2472" y="281" width="563" height="66"/></clipPath><clipPath id="clip5"><rect x="2588" y="281" width="563" height="67"/></clipPath></defs><g clip-path="url(#clip0)" transform="translate(-1525 -281)"><rect x="1525" y="281" width="3797" height="1100" fill="#FFFFFF"/><g><path d="M1924.5 790.526 5275.5 790.526M1924.5 770.525 5275.5 770.525M1924.5 749.525 5275.5 749.525M1924.5 729.524 5275.5 729.524M1924.5 688.523 5275.5 688.523M1924.5 668.522 5275.5 668.522M1924.5 647.521 5275.5 647.521M1924.5 627.521 5275.5 627.521M1924.5 586.519 5275.5 586.519M1924.5 566.519 5275.5 566.519M1924.5 545.518 5275.5 545.518M1924.5 525.517 5275.5 525.517M1924.5 484.516 5275.5 484.516M1924.5 464.515 5275.5 464.515M1924.5 443.515 5275.5 443.515M1924.5 423.514 5275.5 423.514M1924.5 382.5 5275.5 382.5" stroke="#F2F2F2" stroke-width="3.4375" stroke-linejoin="round" stroke-miterlimit="10" fill="none"/></g><g><path d="M1924.5 709.523 5275.5 709.523M1924.5 607.52 5275.5 607.52M1924.5 504.517 5275.5 504.517M1924.5 402.5 5275.5 402.5" stroke="#D9D9D9" stroke-width="3.4375" stroke-linejoin="round" stroke-miterlimit="10" fill="none"/></g><g><rect x="1924.5" y="382.5" width="3351" height="429" stroke="#000000" stroke-width="3.4375" stroke-linejoin="round" stroke-miterlimit="10" fill="none"/></g><g clip-path="url(#clip1)"><path d="M2009.57 677.522 2033.57 677.522 2033.57 811.5 2009.57 811.5ZM2082.57 525.518 2106.57 525.518 2106.57 811.5 2082.57 811.5ZM2154.57 698.523 2179.57 698.523 2179.57 811.5 2154.57 811.5ZM2227.57 756.525 2252.57 756.525 2252.57 811.5 2227.57 811.5ZM2300.58 757.525 2324.58 757.525 2324.58 811.5 2300.58 811.5ZM2373.58 758.525 2397.58 758.525 2397.58 811.5 2373.58 811.5ZM2446.58 753.525 2470.58 753.525 2470.58 811.5 2446.58 811.5ZM2519.58 732.524 2543.58 732.524 2543.58 811.5 2519.58 811.5ZM2592.59 623.521 2616.59 623.521 2616.59 811.5 2592.59 811.5ZM2664.59-2977.5 2689.59-2977.5 2689.59 811.5 2664.59 811.5ZM2737.59 739.524 2761.59 739.524 2761.59 811.5 2737.59 811.5ZM2810.59 109.504 2834.59 109.504 2834.59 811.5 2810.59 811.5ZM2883.59 471.516 2907.6 471.516 2907.6 811.5 2883.59 811.5ZM2956.6 760.525 2980.6 760.525 2980.6 811.5 2956.6 811.5ZM3029.6 643.521 3053.6 643.521 3053.6 811.5 3029.6 811.5ZM3101.6 699.523 3126.6 699.523 3126.6 811.5 3101.6 811.5ZM3174.6 805.527 3198.6 805.527 3198.6 811.5 3174.6 811.5ZM3247.61 809.527 3271.61 809.527 3271.61 811.5 3247.61 811.5ZM3320.61 809.527 3344.61 809.527 3344.61 811.5 3320.61 811.5ZM3393.61 741.525 3417.61 741.525 3417.61 811.5 3393.61 811.5ZM3466.61 739.524 3490.61 739.524 3490.61 811.5 3466.61 811.5ZM3538.62 746.525 3563.62 746.525 3563.62 811.5 3538.62 811.5ZM3611.62 740.524 3635.62 740.524 3635.62 811.5 3611.62 811.5ZM3684.62 809.527 3708.62 809.527 3708.62 811.5 3684.62 811.5ZM3757.62 809.527 3781.62 809.527 3781.62 811.5 3757.62 811.5ZM3830.63 693.523 3854.63 693.523 3854.63 811.5 3830.63 811.5ZM3903.63 724.524 3927.63 724.524 3927.63 811.5 3903.63 811.5ZM3975.63 801.527 4000.63 801.527 4000.63 811.5 3975.63 811.5ZM4048.63 739.524 4073.63 739.524 4073.63 811.5 4048.63 811.5ZM4121.64 749.525 4145.64 749.525 4145.64 811.5 4121.64 811.5ZM4194.64 717.524 4218.64 717.524 4218.64 811.5 4194.64 811.5ZM4267.64 794.526 4291.64 794.526 4291.64 811.5 4267.64 811.5ZM4340.64 733.524 4364.64 733.524 4364.64 811.5 4340.64 811.5ZM4413.65 756.525 4437.65 756.525 4437.65 811.5 4413.65 811.5ZM4485.65 732.524 4510.65 732.524 4510.65 811.5 4485.65 811.5ZM4558.65 754.525 4582.65 754.525 4582.65 811.5 4558.65 811.5ZM4631.65 759.525 4655.65 759.525 4655.65 811.5 4631.65 811.5ZM4704.65 700.523 4728.66 700.523 4728.66 811.5 4704.65 811.5ZM4777.66 594.52 4801.66 594.52 4801.66 811.5 4777.66 811.5ZM4850.66 777.526 4874.66 777.526 4874.66 811.5 4850.66 811.5ZM4922.66 750.525 4947.66 750.525 4947.66 811.5 4922.66 811.5ZM4995.66 735.524 5019.67 735.524 5019.67 811.5 4995.66 811.5ZM5068.67 670.522 5092.67 670.522 5092.67 811.5 5068.67 811.5ZM5141.67 809.527 5165.67 809.527 5165.67 811.5 5141.67 811.5ZM5214.67 634.521 5238.67 634.521 5238.67 811.5 5214.67 811.5Z" stroke="#000000" stroke-width="3.4375" stroke-linejoin="round" stroke-miterlimit="10" fill="#F2F2F2"/></g><g clip-path="url(#clip2)"><path d="M1960.56 809.527 1985.57 809.527 1985.57 811.5 1960.56 811.5ZM2033.57 648.521 2057.57 648.521 2057.57 811.5 2033.57 811.5ZM2106.57 400.513 2130.57 400.513 2130.57 811.5 2106.57 811.5ZM2179.57 696.523 2203.57 696.523 2203.57 811.5 2179.57 811.5ZM2252.57 756.525 2276.57 756.525 2276.57 811.5 2252.57 811.5ZM2325.58 756.525 2349.58 756.525 2349.58 811.5 2325.58 811.5ZM2397.58 751.525 2422.58 751.525 2422.58 811.5 2397.58 811.5ZM2470.58 727.524 2494.58 727.524 2494.58 811.5 2470.58 811.5ZM2543.58 729.524 2567.58 729.524 2567.58 811.5 2543.58 811.5ZM2616.59 800.526 2640.59 800.526 2640.59 811.5 2616.59 811.5ZM2689.59-76.5002 2713.59-76.5002 2713.59 811.5 2689.59 811.5ZM2762.59 738.524 2786.59 738.524 2786.59 811.5 2762.59 811.5ZM2834.59 544.518 2859.59 544.518 2859.59 811.5 2834.59 811.5ZM2907.6 648.521 2932.6 648.521 2932.6 811.5 2907.6 811.5ZM2980.6 758.525 3004.6 758.525 3004.6 811.5 2980.6 811.5ZM3053.6 644.521 3077.6 644.521 3077.6 811.5 3053.6 811.5ZM3126.6 738.524 3150.6 738.524 3150.6 811.5 3126.6 811.5ZM3199.6 810.527 3223.61 810.527 3223.61 811.5 3199.6 811.5ZM3272.61 809.527 3296.61 809.527 3296.61 811.5 3272.61 811.5ZM3344.61 809.527 3369.61 809.527 3369.61 811.5 3344.61 811.5ZM3417.61 809.527 3441.61 809.527 3441.61 811.5 3417.61 811.5ZM3490.61 809.527 3514.62 809.527 3514.62 811.5 3490.61 811.5ZM3563.62 809.527 3587.62 809.527 3587.62 811.5 3563.62 811.5ZM3636.62 808.527 3660.62 808.527 3660.62 811.5 3636.62 811.5ZM3709.62 809.527 3733.62 809.527 3733.62 811.5 3709.62 811.5ZM3781.62 808.527 3806.62 808.527 3806.62 811.5 3781.62 811.5ZM3854.63 705.523 3878.63 705.523 3878.63 811.5 3854.63 811.5ZM3927.63 726.524 3951.63 726.524 3951.63 811.5 3927.63 811.5ZM4000.63 797.526 4024.63 797.526 4024.63 811.5 4000.63 811.5ZM4073.63 741.524 4097.63 741.524 4097.63 811.5 4073.63 811.5ZM4146.64 744.525 4170.64 744.525 4170.64 811.5 4146.64 811.5ZM4218.64 694.523 4243.64 694.523 4243.64 811.5 4218.64 811.5ZM4291.64 786.526 4315.64 786.526 4315.64 811.5 4291.64 811.5ZM4364.64 733.524 4388.64 733.524 4388.64 811.5 4364.64 811.5ZM4437.65 751.525 4461.65 751.525 4461.65 811.5 4437.65 811.5ZM4510.65 740.524 4534.65 740.524 4534.65 811.5 4510.65 811.5ZM4583.65 763.525 4607.65 763.525 4607.65 811.5 4583.65 811.5ZM4655.65 752.525 4680.65 752.525 4680.65 811.5 4655.65 811.5ZM4728.66 660.522 4753.66 660.522 4753.66 811.5 4728.66 811.5ZM4801.66 608.52 4825.66 608.52 4825.66 811.5 4801.66 811.5ZM4874.66 772.526 4898.66 772.526 4898.66 811.5 4874.66 811.5ZM4947.66 733.524 4971.66 733.524 4971.66 811.5 4947.66 811.5ZM5020.67 719.524 5044.67 719.524 5044.67 811.5 5020.67 811.5ZM5093.67 629.521 5117.67 629.521 5117.67 811.5 5093.67 811.5ZM5165.67 806.527 5190.67 806.527 5190.67 811.5 5165.67 811.5ZM5238.67 716.524 5262.67 716.524 5262.67 811.5 5238.67 811.5Z" stroke="#000000" stroke-width="3.4375" stroke-linejoin="round" stroke-miterlimit="10" fill="#7F7F7F"/></g><g><path d="M0 0 0.000360892 429" stroke="#000000" stroke-width="3.4375" stroke-linejoin="round" stroke-miterlimit="10" fill="none" fill-rule="evenodd" transform="matrix(1 0 0 -1 1924.5 811.5)"/></g><g><path d="M1910.5 811.5 1924.5 811.5M1910.5 709.523 1924.5 709.523M1910.5 607.52 1924.5 607.52M1910.5 504.517 1924.5 504.517M1910.5 402.5 1924.5 402.5" stroke="#000000" stroke-width="3.4375" stroke-linejoin="round" stroke-miterlimit="10" fill="none"/></g><g><path d="M1924.5 811.5 5275.5 811.5" stroke="#000000" stroke-width="3.4375" stroke-linejoin="round" stroke-miterlimit="10" fill="none" fill-rule="evenodd"/></g><g><text font-family="Arial,Arial_MSFontService,sans-serif" font-weight="400" font-size="46" transform="matrix(1 0 0 1 1859.52 826)">0</text></g><g><text font-family="Arial,Arial_MSFontService,sans-serif" font-weight="400" font-size="46" transform="matrix(1 0 0 1 1834.03 724)">50</text></g><g><text font-family="Arial,Arial_MSFontService,sans-serif" font-weight="400" font-size="46" transform="matrix(1 0 0 1 1808.55 622)">100</text></g><g><text font-family="Arial,Arial_MSFontService,sans-serif" font-weight="400" font-size="46" transform="matrix(1 0 0 1 1808.55 520)">150</text></g><g><text font-family="Arial,Arial_MSFontService,sans-serif" font-weight="400" font-size="46" transform="matrix(1 0 0 1 1808.55 418)">200</text></g><g><text font-family="Arial,Arial_MSFontService,sans-serif" font-weight="400" font-size="46" transform="matrix(0.707107 -0.707107 0.707107 0.707107 1646.39 1195)">600.perlbench_s-570B</text></g><g><text font-family="Arial,Arial_MSFontService,sans-serif" font-weight="400" font-size="46" transform="matrix(0.707107 -0.707107 0.707107 0.707107 1793.09 1121)">602.gcc_s-1850B</text></g><g><text font-family="Arial,Arial_MSFontService,sans-serif" font-weight="400" font-size="46" transform="matrix(0.707107 -0.707107 0.707107 0.707107 1865.93 1121)">602.gcc_s-2226B</text></g><g><text font-family="Arial,Arial_MSFontService,sans-serif" font-weight="400" font-size="46" transform="matrix(0.707107 -0.707107 0.707107 0.707107 1956.79 1103)">602.gcc_s-734B</text></g><g><text font-family="Arial,Arial_MSFontService,sans-serif" font-weight="400" font-size="46" transform="matrix(0.707107 -0.707107 0.707107 0.707107 1952.18 1180)">603.bwaves_s-1740B</text></g><g><text font-family="Arial,Arial_MSFontService,sans-serif" font-weight="400" font-size="46" transform="matrix(0.707107 -0.707107 0.707107 0.707107 2025.02 1180)">603.bwaves_s-2609B</text></g><g><text font-family="Arial,Arial_MSFontService,sans-serif" font-weight="400" font-size="46" transform="matrix(0.707107 -0.707107 0.707107 0.707107 2097.86 1180)">603.bwaves_s-2931B</text></g><g><text font-family="Arial,Arial_MSFontService,sans-serif" font-weight="400" font-size="46" transform="matrix(0.707107 -0.707107 0.707107 0.707107 2188.72 1162)">603.bwaves_s-891B</text></g><g><text font-family="Arial,Arial_MSFontService,sans-serif" font-weight="400" font-size="46" transform="matrix(0.707107 -0.707107 0.707107 0.707107 2301.2 1123)">605.mcf_s-1152B</text></g><g><text font-family="Arial,Arial_MSFontService,sans-serif" font-weight="400" font-size="46" transform="matrix(0.707107 -0.707107 0.707107 0.707107 2374.04 1123)">605.mcf_s-1536B</text></g><g><text font-family="Arial,Arial_MSFontService,sans-serif" font-weight="400" font-size="46" transform="matrix(0.707107 -0.707107 0.707107 0.707107 2446.88 1123)">605.mcf_s-1554B</text></g><g><text font-family="Arial,Arial_MSFontService,sans-serif" font-weight="400" font-size="46" transform="matrix(0.707107 -0.707107 0.707107 0.707107 2519.72 1123)">605.mcf_s-1644B</text></g><g><text font-family="Arial,Arial_MSFontService,sans-serif" font-weight="400" font-size="46" transform="matrix(0.707107 -0.707107 0.707107 0.707107 2610.58 1105)">605.mcf_s-472B</text></g><g><text font-family="Arial,Arial_MSFontService,sans-serif" font-weight="400" font-size="46" transform="matrix(0.707107 -0.707107 0.707107 0.707107 2683.43 1105)">605.mcf_s-484B</text></g><g><text font-family="Arial,Arial_MSFontService,sans-serif" font-weight="400" font-size="46" transform="matrix(0.707107 -0.707107 0.707107 0.707107 2756.27 1105)">605.mcf_s-665B</text></g><g><text font-family="Arial,Arial_MSFontService,sans-serif" font-weight="400" font-size="46" transform="matrix(0.707107 -0.707107 0.707107 0.707107 2829.11 1105)">605.mcf_s-782B</text></g><g><text font-family="Arial,Arial_MSFontService,sans-serif" font-weight="400" font-size="46" transform="matrix(0.707107 -0.707107 0.707107 0.707107 2901.95 1105)">605.mcf_s-994B</text></g><g><text font-family="Arial,Arial_MSFontService,sans-serif" font-weight="400" font-size="46" transform="matrix(0.707107 -0.707107 0.707107 0.707107 2843.28 1236)">607.cactuBSSN_s-2421B</text></g><g><text font-family="Arial,Arial_MSFontService,sans-serif" font-weight="400" font-size="46" transform="matrix(0.707107 -0.707107 0.707107 0.707107 2916.12 1236)">607.cactuBSSN_s-3477B</text></g><g><text font-family="Arial,Arial_MSFontService,sans-serif" font-weight="400" font-size="46" transform="matrix(0.707107 -0.707107 0.707107 0.707107 2988.96 1236)">607.cactuBSSN_s-4004B</text></g><g><text font-family="Arial,Arial_MSFontService,sans-serif" font-weight="400" font-size="46" transform="matrix(0.707107 -0.707107 0.707107 0.707107 3175.3 1123)">619.lbm_s-2676B</text></g><g><text font-family="Arial,Arial_MSFontService,sans-serif" font-weight="400" font-size="46" transform="matrix(0.707107 -0.707107 0.707107 0.707107 3248.14 1123)">619.lbm_s-2677B</text></g><g><text font-family="Arial,Arial_MSFontService,sans-serif" font-weight="400" font-size="46" transform="matrix(0.707107 -0.707107 0.707107 0.707107 3320.98 1123)">619.lbm_s-3766B</text></g><g><text font-family="Arial,Arial_MSFontService,sans-serif" font-weight="400" font-size="46" transform="matrix(0.707107 -0.707107 0.707107 0.707107 3393.82 1123)">619.lbm_s-4268B</text></g><g><text font-family="Arial,Arial_MSFontService,sans-serif" font-weight="400" font-size="46" transform="matrix(0.707107 -0.707107 0.707107 0.707107 3410.79 1178)">620.omnetpp_s-141B</text></g><g><text font-family="Arial,Arial_MSFontService,sans-serif" font-weight="400" font-size="46" transform="matrix(0.707107 -0.707107 0.707107 0.707107 3483.63 1178)">620.omnetpp_s-874B</text></g><g><text font-family="Arial,Arial_MSFontService,sans-serif" font-weight="400" font-size="46" transform="matrix(0.707107 -0.707107 0.707107 0.707107 3621.36 1114)">621.wrf_s-6673B</text></g><g><text font-family="Arial,Arial_MSFontService,sans-serif" font-weight="400" font-size="46" transform="matrix(0.707107 -0.707107 0.707107 0.707107 3694.2 1114)">621.wrf_s-8065B</text></g><g><text font-family="Arial,Arial_MSFontService,sans-serif" font-weight="400" font-size="46" transform="matrix(0.707107 -0.707107 0.707107 0.707107 3691.4 1189)">623.xalancbmk_s-10B</text></g><g><text font-family="Arial,Arial_MSFontService,sans-serif" font-weight="400" font-size="46" transform="matrix(0.707107 -0.707107 0.707107 0.707107 3746.22 1207)">623.xalancbmk_s-165B</text></g><g><text font-family="Arial,Arial_MSFontService,sans-serif" font-weight="400" font-size="46" transform="matrix(0.707107 -0.707107 0.707107 0.707107 3819.06 1207)">623.xalancbmk_s-202B</text></g><g><text font-family="Arial,Arial_MSFontService,sans-serif" font-weight="400" font-size="46" transform="matrix(0.707107 -0.707107 0.707107 0.707107 3992.73 1106)">628.pop2_s-17B</text></g><g><text font-family="Arial,Arial_MSFontService,sans-serif" font-weight="400" font-size="46" transform="matrix(0.707107 -0.707107 0.707107 0.707107 4033.16 1139)">641.leela_s-1083B</text></g><g><text font-family="Arial,Arial_MSFontService,sans-serif" font-weight="400" font-size="46" transform="matrix(0.707107 -0.707107 0.707107 0.707107 4024.92 1220)">649.fotonik3d_s-10881B</text></g><g><text font-family="Arial,Arial_MSFontService,sans-serif" font-weight="400" font-size="46" transform="matrix(0.707107 -0.707107 0.707107 0.707107 4115.78 1202)">649.fotonik3d_s-1176B</text></g><g><text font-family="Arial,Arial_MSFontService,sans-serif" font-weight="400" font-size="46" transform="matrix(0.707107 -0.707107 0.707107 0.707107 4188.62 1202)">649.fotonik3d_s-7084B</text></g><g><text font-family="Arial,Arial_MSFontService,sans-serif" font-weight="400" font-size="46" transform="matrix(0.707107 -0.707107 0.707107 0.707107 4261.46 1202)">649.fotonik3d_s-8225B</text></g><g><text font-family="Arial,Arial_MSFontService,sans-serif" font-weight="400" font-size="46" transform="matrix(0.707107 -0.707107 0.707107 0.707107 4393.81 1142)">654.roms_s-1007B</text></g><g><text font-family="Arial,Arial_MSFontService,sans-serif" font-weight="400" font-size="46" transform="matrix(0.707107 -0.707107 0.707107 0.707107 4466.65 1142)">654.roms_s-1070B</text></g><g><text font-family="Arial,Arial_MSFontService,sans-serif" font-weight="400" font-size="46" transform="matrix(0.707107 -0.707107 0.707107 0.707107 4539.49 1142)">654.roms_s-1390B</text></g><g><text font-family="Arial,Arial_MSFontService,sans-serif" font-weight="400" font-size="46" transform="matrix(0.707107 -0.707107 0.707107 0.707107 4612.33 1142)">654.roms_s-1613B</text></g><g><text font-family="Arial,Arial_MSFontService,sans-serif" font-weight="400" font-size="46" transform="matrix(0.707107 -0.707107 0.707107 0.707107 4703.19 1124)">654.roms_s-293B</text></g><g><text font-family="Arial,Arial_MSFontService,sans-serif" font-weight="400" font-size="46" transform="matrix(0.707107 -0.707107 0.707107 0.707107 4776.03 1124)">654.roms_s-294B</text></g><g><text font-family="Arial,Arial_MSFontService,sans-serif" font-weight="400" font-size="46" transform="matrix(0.707107 -0.707107 0.707107 0.707107 4848.88 1124)">654.roms_s-523B</text></g><g><text font-family="Arial,Arial_MSFontService,sans-serif" font-weight="400" font-size="46" transform="matrix(0.707107 -0.707107 0.707107 0.707107 4943.3 1103)">657.xz_s-2302B</text></g><g><text font-family="Arial,Arial_MSFontService,sans-serif" font-weight="400" font-size="46" transform="matrix(0.707107 -0.707107 0.707107 0.707107 5169.28 950)">Mean</text></g><g><text font-family="Arial,Arial_MSFontService,sans-serif" font-weight="400" font-size="46" transform="matrix(6.12323e-17 -1 1 6.12323e-17 1694.78 819)">Prefetches issued per</text></g><g><text font-family="Arial,Arial_MSFontService,sans-serif" font-weight="400" font-size="46" transform="matrix(6.12323e-17 -1 1 6.12323e-17 1747.78 748)">kilo instructions</text></g><g><rect x="3156.5" y="322.5" width="22.9998" height="23" stroke="#000000" stroke-width="3.4375" stroke-linejoin="round" stroke-miterlimit="10" fill="#F2F2F2"/></g><g><text font-family="Arial,Arial_MSFontService,sans-serif" font-weight="400" font-size="46" transform="matrix(1 0 0 1 3189.44 349)">On-access</text></g><g><rect x="3457.5" y="322.5" width="23" height="23" stroke="#000000" stroke-width="3.4375" stroke-linejoin="round" stroke-miterlimit="10" fill="#7F7F7F"/></g><g><text font-family="Arial,Arial_MSFontService,sans-serif" font-weight="400" font-size="46" transform="matrix(1 0 0 1 3489.9 349)">On-commit</text></g><g><g clip-path="url(#clip3)"><text font-family="Arial,Arial_MSFontService,sans-serif" font-weight="400" font-size="48" transform="matrix(1 0 0 1 2563.46 343)">185</text></g></g><g><path d="M2605 351 2676.12 381.724" stroke="#000000" stroke-width="2.29167" stroke-miterlimit="8" fill="none" fill-rule="evenodd"/></g><g><g clip-path="url(#clip4)"><text font-family="Arial,Arial_MSFontService,sans-serif" font-weight="400" font-size="48" transform="matrix(1 0 0 1 2713.59 343)">434</text></g></g><g><path d="M0 0 50.9551 33.1873" stroke="#000000" stroke-width="2.29167" stroke-miterlimit="8" fill="none" fill-rule="evenodd" transform="matrix(-1 0 0 1 2754.96 347)"/></g><g><g clip-path="url(#clip5)"><text font-family="Arial,Arial_MSFontService,sans-serif" font-weight="400" font-size="48" transform="matrix(1 0 0 1 2829.7 343)">343</text></g></g><g><path d="M0 0 50.9555 33.1873" stroke="#000000" stroke-width="2.29167" stroke-miterlimit="8" fill="none" fill-rule="evenodd" transform="matrix(-1 0 0 1 2870.96 348)"/></g></g></svg>