<svg width="1695" height="1143" xmlns="http://www.w3.org/2000/svg" xmlns:xlink="http://www.w3.org/1999/xlink" xml:space="preserve" overflow="hidden"><defs><clipPath id="clip0"><rect x="47" y="350" width="1695" height="1143"/></clipPath></defs><g clip-path="url(#clip0)" transform="translate(-47 -350)"><rect x="47.0001" y="350" width="1695" height="1143" fill="#FFFFFF"/><g><path d="M303.5 1145.54 1612.5 1145.54M303.5 1093.54 1612.5 1093.54M303.5 1042.53 1612.5 1042.53M303.5 990.533 1612.5 990.533M303.5 888.529 1612.5 888.529M303.5 836.528 1612.5 836.528M303.5 785.526 1612.5 785.526M303.5 733.524 1612.5 733.524M303.5 631.521 1612.5 631.521M303.5 579.519 1612.5 579.519M303.5 528.518 1612.5 528.518M303.5 476.516 1612.5 476.516" stroke="#F2F2F2" stroke-width="3.4375" stroke-linejoin="round" stroke-miterlimit="10" fill="none"/></g><g><path d="M303.5 939.531 1612.5 939.531M303.5 682.523 1612.5 682.523M303.5 425.5 1612.5 425.5" stroke="#BFBFBF" stroke-width="3.4375" stroke-linejoin="round" stroke-miterlimit="10" fill="none"/></g><g><rect x="303.5" y="425.5" width="1309" height="771" stroke="#000000" stroke-width="3.4375" stroke-linejoin="round" stroke-miterlimit="10" fill="none"/></g><g><path d="M347.512 972.532 434.514 972.532 434.514 1196.5 347.512 1196.5ZM608.52 872.529 696.523 872.529 696.523 1196.5 608.52 1196.5ZM870.529 780.526 957.532 780.526 957.532 1196.5 870.529 1196.5ZM1132.54 713.524 1219.54 713.524 1219.54 1196.5 1132.54 1196.5ZM1393.55 783.526 1481.55 783.526 1481.55 1196.5 1393.55 1196.5Z" stroke="#000000" stroke-width="3.4375" stroke-linejoin="round" stroke-miterlimit="10" fill="#F2F2F2"/></g><g><path d="M434.514 843.528 521.517 843.528 521.517 1196.5 434.514 1196.5ZM696.523 710.523 783.526 710.523 783.526 1196.5 696.523 1196.5ZM957.532 613.52 1045.53 613.52 1045.53 1196.5 957.532 1196.5ZM1219.54 574.519 1306.54 574.519 1306.54 1196.5 1219.54 1196.5ZM1481.55 574.519 1568.55 574.519 1568.55 1196.5 1481.55 1196.5Z" stroke="#000000" stroke-width="3.4375" stroke-linejoin="round" stroke-miterlimit="10" fill="#7F7F7F"/></g><g><path d="M0 0 0.000360892 772" stroke="#000000" stroke-width="2.29167" stroke-linejoin="round" stroke-miterlimit="10" fill="none" fill-rule="evenodd" transform="matrix(1 0 0 -1 304 1197)"/></g><g><path d="M290 1197 304 1197M290 940.031 304 940.031M290 683.022 304 683.022M290 425 304 425" stroke="#000000" stroke-width="2.29167" stroke-linejoin="round" stroke-miterlimit="10" fill="none"/></g><g><path d="M303.5 1196.5 1612.5 1196.5" stroke="#000000" stroke-width="3.4375" stroke-linejoin="round" stroke-miterlimit="10" fill="none" fill-rule="evenodd"/></g><g><g><text font-family="Arial,Arial_MSFontService,sans-serif" font-weight="400" font-size="46" transform="matrix(1 0 0 1 333.647 942)">1.29</text></g></g><g><g><text font-family="Arial,Arial_MSFontService,sans-serif" font-weight="400" font-size="46" transform="matrix(1 0 0 1 595.325 842)">1.33</text></g></g><g><g><text font-family="Arial,Arial_MSFontService,sans-serif" font-weight="400" font-size="46" transform="matrix(1 0 0 1 857.003 750)">1.36</text></g></g><g><g><text font-family="Arial,Arial_MSFontService,sans-serif" font-weight="400" font-size="46" transform="matrix(1 0 0 1 1118.68 683)">1.39</text></g></g><g><g><text font-family="Arial,Arial_MSFontService,sans-serif" font-weight="400" font-size="46" transform="matrix(1 0 0 1 1380.36 753)">1.36</text></g></g><g><text font-family="Arial,Arial_MSFontService,sans-serif" font-weight="400" font-size="46" transform="matrix(1 0 0 1 433.487 813)">1.34</text></g><g><text font-family="Arial,Arial_MSFontService,sans-serif" font-weight="400" font-size="46" transform="matrix(1 0 0 1 695.165 680)">1.39</text></g><g><text font-family="Arial,Arial_MSFontService,sans-serif" font-weight="400" font-size="46" transform="matrix(1 0 0 1 956.843 583)">1.43</text></g><g><text font-family="Arial,Arial_MSFontService,sans-serif" font-weight="400" font-size="46" transform="matrix(1 0 0 1 1218.52 544)">1.44</text></g><g><text font-family="Arial,Arial_MSFontService,sans-serif" font-weight="400" font-size="46" transform="matrix(1 0 0 1 1480.2 544)">1.44</text></g><g><text font-family="Arial,Arial_MSFontService,sans-serif" font-weight="400" font-size="46" transform="matrix(1 0 0 1 200.479 1212)">1.2</text></g><g><text font-family="Arial,Arial_MSFontService,sans-serif" font-weight="400" font-size="46" transform="matrix(1 0 0 1 200.479 955)">1.3</text></g><g><text font-family="Arial,Arial_MSFontService,sans-serif" font-weight="400" font-size="46" transform="matrix(1 0 0 1 200.479 698)">1.4</text></g><g><text font-family="Arial,Arial_MSFontService,sans-serif" font-weight="400" font-size="46" transform="matrix(1 0 0 1 200.479 441)">1.5</text></g><g><text font-family="Arial,Arial_MSFontService,sans-serif" font-weight="400" font-size="46" transform="matrix(0.707107 -0.707107 0.707107 0.707107 319.988 1380)">IP-Stride</text></g><g><text font-family="Arial,Arial_MSFontService,sans-serif" font-weight="400" font-size="46" transform="matrix(0.707107 -0.707107 0.707107 0.707107 632.095 1330)">IPCP</text></g><g><text font-family="Arial,Arial_MSFontService,sans-serif" font-weight="400" font-size="46" transform="matrix(0.707107 -0.707107 0.707107 0.707107 886.546 1337)">Bingo</text></g><g><text font-family="Arial,Arial_MSFontService,sans-serif" font-weight="400" font-size="46" transform="matrix(0.707107 -0.707107 0.707107 0.707107 1084.28 1401)">SPP+PPF</text></g><g><text font-family="Arial,Arial_MSFontService,sans-serif" font-weight="400" font-size="46" transform="matrix(0.707107 -0.707107 0.707107 0.707107 1426.14 1321)">Berti</text></g><g><text font-family="Arial,Arial_MSFontService,sans-serif" font-weight="400" font-size="46" transform="matrix(6.12323e-17 -1 1 6.12323e-17 149.256 912)">Speedup </text></g><g><rect x="361.5" y="495.5" width="23" height="23" stroke="#000000" stroke-width="3.4375" stroke-linejoin="round" stroke-miterlimit="10" fill="#F2F2F2"/></g><g><text font-family="Arial,Arial_MSFontService,sans-serif" font-weight="400" font-size="46" transform="matrix(1 0 0 1 394.657 522)">Filter OFF</text></g><g><rect x="652.5" y="495.5" width="23.0001" height="23" stroke="#000000" stroke-width="3.4375" stroke-linejoin="round" stroke-miterlimit="10" fill="#7F7F7F"/></g><g><text font-family="Arial,Arial_MSFontService,sans-serif" font-weight="400" font-size="46" transform="matrix(1 0 0 1 684.991 522)">Filter ON</text></g></g></svg>