<svg width="4056" height="1114" xmlns="http://www.w3.org/2000/svg" xmlns:xlink="http://www.w3.org/1999/xlink" xml:space="preserve" overflow="hidden"><defs><clipPath id="clip0"><rect x="1390" y="227" width="4056" height="1114"/></clipPath><clipPath id="clip1"><rect x="1816" y="329" width="3583" height="438"/></clipPath><clipPath id="clip2"><rect x="1816" y="329" width="3583" height="438"/></clipPath></defs><g clip-path="url(#clip0)" transform="translate(-1390 -227)"><rect x="1390" y="227" width="4056" height="1114" fill="#FFFFFF"/><g><path d="M1816.5 749.525 5396.5 749.525M1816.5 735.524 5396.5 735.524M1816.5 720.524 5396.5 720.524M1816.5 706.523 5396.5 706.523M1816.5 677.522 5396.5 677.522M1816.5 662.522 5396.5 662.522M1816.5 648.521 5396.5 648.521M1816.5 633.521 5396.5 633.521M1816.5 604.52 5396.5 604.52M1816.5 590.52 5396.5 590.52M1816.5 575.519 5396.5 575.519M1816.5 561.519 5396.5 561.519M1816.5 532.518 5396.5 532.518M1816.5 518.517 5396.5 518.517M1816.5 503.517 5396.5 503.517M1816.5 489.516 5396.5 489.516M1816.5 460.515 5396.5 460.515M1816.5 445.515 5396.5 445.515M1816.5 431.514 5396.5 431.514M1816.5 416.514 5396.5 416.514M1816.5 387.513 5396.5 387.513M1816.5 373.512 5396.5 373.512M1816.5 358.512 5396.5 358.512M1816.5 344.511 5396.5 344.511" stroke="#F2F2F2" stroke-width="3.4375" stroke-linejoin="round" stroke-miterlimit="10" fill="none"/></g><g><path d="M1816.5 691.523 5396.5 691.523M1816.5 619.521 5396.5 619.521M1816.5 547.518 5396.5 547.518M1816.5 474.516 5396.5 474.516M1816.5 402.513 5396.5 402.513M1816.5 329.5 5396.5 329.5" stroke="#D9D9D9" stroke-width="3.4375" stroke-linejoin="round" stroke-miterlimit="10" fill="none"/></g><g><rect x="1816.5" y="329.5" width="3580" height="435" stroke="#000000" stroke-width="3.4375" stroke-linejoin="round" stroke-miterlimit="10" fill="none"/></g><g clip-path="url(#clip1)"><path d="M1829.56 689.523 1855.56 689.523 1855.56 764.5 1829.56 764.5ZM1907.56 289.51 1933.56 289.51 1933.56 764.5 1907.56 764.5ZM1985.57-971.5 2011.57-971.5 2011.57 764.5 1985.57 764.5ZM2063.57 533.518 2088.57 533.518 2088.57 764.5 2063.57 764.5ZM2140.57 20.5009 2166.57 20.5009 2166.57 764.5 2140.57 764.5ZM2218.57 19.5008 2244.57 19.5008 2244.57 764.5 2218.57 764.5ZM2296.58 449.515 2322.58 449.515 2322.58 764.5 2296.58 764.5ZM2374.58 419.514 2400.58 419.514 2400.58 764.5 2374.58 764.5ZM2452.58 624.521 2478.58 624.521 2478.58 764.5 2452.58 764.5ZM2529.58 716.524 2555.58 716.524 2555.58 764.5 2529.58 764.5ZM2607.59 655.522 2633.59 655.522 2633.59 764.5 2607.59 764.5ZM2685.59 686.523 2711.59 686.523 2711.59 764.5 2685.59 764.5ZM2763.59 477.516 2789.59 477.516 2789.59 764.5 2763.59 764.5ZM2841.59 540.518 2867.59 540.518 2867.59 764.5 2841.59 764.5ZM2919.6 654.522 2944.6 654.522 2944.6 764.5 2919.6 764.5ZM2996.6 590.52 3022.6 590.52 3022.6 764.5 2996.6 764.5ZM3074.6 684.523 3100.6 684.523 3100.6 764.5 3074.6 764.5ZM3152.6 691.523 3178.6 691.523 3178.6 764.5 3152.6 764.5ZM3230.61 691.523 3256.61 691.523 3256.61 764.5 3230.61 764.5ZM3308.61 691.523 3333.61 691.523 3333.61 764.5 3308.61 764.5ZM3385.61 625.521 3411.61 625.521 3411.61 764.5 3385.61 764.5ZM3463.61 665.522 3489.61 665.522 3489.61 764.5 3463.61 764.5ZM3541.62 654.522 3567.62 654.522 3567.62 764.5 3541.62 764.5ZM3619.62 666.522 3645.62 666.522 3645.62 764.5 3619.62 764.5ZM3697.62 691.523 3723.62 691.523 3723.62 764.5 3697.62 764.5ZM3775.62 691.523 3800.62 691.523 3800.62 764.5 3775.62 764.5ZM3852.63 590.52 3878.63 590.52 3878.63 764.5 3852.63 764.5ZM3930.63 628.521 3956.63 628.521 3956.63 764.5 3930.63 764.5ZM4008.63 687.523 4034.63 687.523 4034.63 764.5 4008.63 764.5ZM4086.63 593.52 4112.64 593.52 4112.64 764.5 4086.63 764.5ZM4164.64 278.509 4189.64 278.509 4189.64 764.5 4164.64 764.5ZM4241.64 671.522 4267.64 671.522 4267.64 764.5 4241.64 764.5ZM4319.64 652.522 4345.64 652.522 4345.64 764.5 4319.64 764.5ZM4397.64 584.519 4423.65 584.519 4423.65 764.5 4397.64 764.5ZM4475.65 529.518 4501.65 529.518 4501.65 764.5 4475.65 764.5ZM4553.65 421.514 4578.65 421.514 4578.65 764.5 4553.65 764.5ZM4630.65 528.518 4656.65 528.518 4656.65 764.5 4630.65 764.5ZM4708.65 631.521 4734.66 631.521 4734.66 764.5 4708.65 764.5ZM4786.66 407.513 4812.66 407.513 4812.66 764.5 4786.66 764.5ZM4864.66 356.512 4890.66 356.512 4890.66 764.5 4864.66 764.5ZM4942.66 655.522 4968.66 655.522 4968.66 764.5 4942.66 764.5ZM5020.67 563.519 5045.67 563.519 5045.67 764.5 5020.67 764.5ZM5097.67 497.517 5123.67 497.517 5123.67 764.5 5097.67 764.5ZM5175.67 385.513 5201.67 385.513 5201.67 764.5 5175.67 764.5ZM5253.67 690.523 5279.67 690.523 5279.67 764.5 5253.67 764.5ZM5331.68 561.519 5357.68 561.519 5357.68 764.5 5331.68 764.5Z" stroke="#000000" stroke-width="3.4375" stroke-linejoin="round" stroke-miterlimit="10" fill="#F2F2F2"/></g><g clip-path="url(#clip2)"><path d="M1855.56 690.523 1881.56 690.523 1881.56 764.5 1855.56 764.5ZM1933.56 291.51 1959.56 291.51 1959.56 764.5 1933.56 764.5ZM2011.57-1286.5 2037.57-1286.5 2037.57 764.5 2011.57 764.5ZM2089.57 538.518 2115.57 538.518 2115.57 764.5 2089.57 764.5ZM2167.57 24.501 2192.57 24.501 2192.57 764.5 2167.57 764.5ZM2244.57 23.501 2270.57 23.501 2270.57 764.5 2244.57 764.5ZM2322.58 569.519 2348.58 569.519 2348.58 764.5 2322.58 764.5ZM2400.58 419.514 2426.58 419.514 2426.58 764.5 2400.58 764.5ZM2478.58 622.521 2504.58 622.521 2504.58 764.5 2478.58 764.5ZM2556.58 696.523 2581.58 696.523 2581.58 764.5 2556.58 764.5ZM2633.59 676.522 2659.59 676.522 2659.59 764.5 2633.59 764.5ZM2711.59 706.523 2737.59 706.523 2737.59 764.5 2711.59 764.5ZM2789.59 510.517 2815.59 510.517 2815.59 764.5 2789.59 764.5ZM2867.59 550.518 2893.6 550.518 2893.6 764.5 2867.59 764.5ZM2945.6 651.522 2971.6 651.522 2971.6 764.5 2945.6 764.5ZM3022.6 582.519 3048.6 582.519 3048.6 764.5 3022.6 764.5ZM3100.6 684.523 3126.6 684.523 3126.6 764.5 3100.6 764.5ZM3178.6 689.523 3204.61 689.523 3204.61 764.5 3178.6 764.5ZM3256.61 693.523 3282.61 693.523 3282.61 764.5 3256.61 764.5ZM3334.61 692.523 3360.61 692.523 3360.61 764.5 3334.61 764.5ZM3412.61 692.523 3437.61 692.523 3437.61 764.5 3412.61 764.5ZM3489.61 691.523 3515.62 691.523 3515.62 764.5 3489.61 764.5ZM3567.62 691.523 3593.62 691.523 3593.62 764.5 3567.62 764.5ZM3645.62 691.523 3671.62 691.523 3671.62 764.5 3645.62 764.5ZM3723.62 691.523 3749.62 691.523 3749.62 764.5 3723.62 764.5ZM3801.62 691.523 3826.63 691.523 3826.63 764.5 3801.62 764.5ZM3878.63 607.52 3904.63 607.52 3904.63 764.5 3878.63 764.5ZM3956.63 636.521 3982.63 636.521 3982.63 764.5 3956.63 764.5ZM4034.63 703.523 4060.63 703.523 4060.63 764.5 4034.63 764.5ZM4112.64 593.52 4138.64 593.52 4138.64 764.5 4112.64 764.5ZM4190.64 211.507 4216.64 211.507 4216.64 764.5 4190.64 764.5ZM4267.64 673.522 4293.64 673.522 4293.64 764.5 4267.64 764.5ZM4345.64 655.522 4371.64 655.522 4371.64 764.5 4345.64 764.5ZM4423.65 619.521 4449.65 619.521 4449.65 764.5 4423.65 764.5ZM4501.65 531.518 4527.65 531.518 4527.65 764.5 4501.65 764.5ZM4579.65 412.514 4605.65 412.514 4605.65 764.5 4579.65 764.5ZM4657.65 530.518 4682.65 530.518 4682.65 764.5 4657.65 764.5ZM4734.66 639.521 4760.66 639.521 4760.66 764.5 4734.66 764.5ZM4812.66 424.514 4838.66 424.514 4838.66 764.5 4812.66 764.5ZM4890.66 407.514 4916.66 407.514 4916.66 764.5 4890.66 764.5ZM4968.66 659.522 4994.66 659.522 4994.66 764.5 4968.66 764.5ZM5046.67 566.519 5071.67 566.519 5071.67 764.5 5046.67 764.5ZM5123.67 498.517 5149.67 498.517 5149.67 764.5 5123.67 764.5ZM5201.67 394.513 5227.67 394.513 5227.67 764.5 5201.67 764.5ZM5279.67 692.523 5305.67 692.523 5305.67 764.5 5279.67 764.5ZM5357.68 570.519 5383.68 570.519 5383.68 764.5 5357.68 764.5Z" stroke="#000000" stroke-width="3.4375" stroke-linejoin="round" stroke-miterlimit="10" fill="#7F7F7F"/></g><g><path d="M0 0 0.000360892 435" stroke="#000000" stroke-width="3.4375" stroke-linejoin="round" stroke-miterlimit="10" fill="none" fill-rule="evenodd" transform="matrix(1 0 0 -1 1816.5 764.5)"/></g><g><path d="M1802.5 764.5 1816.5 764.5M1802.5 691.523 1816.5 691.523M1802.5 619.521 1816.5 619.521M1802.5 547.518 1816.5 547.518M1802.5 474.516 1816.5 474.516M1802.5 402.513 1816.5 402.513M1802.5 329.5 1816.5 329.5" stroke="#000000" stroke-width="3.4375" stroke-linejoin="round" stroke-miterlimit="10" fill="none"/></g><g><path d="M1816.5 764.5 5396.5 764.5" stroke="#000000" stroke-width="3.4375" stroke-linejoin="round" stroke-miterlimit="10" fill="none" fill-rule="evenodd"/></g><g><text font-family="Arial,Arial_MSFontService,sans-serif" font-weight="400" font-size="46" transform="matrix(1 0 0 1 1713.64 779)">0.8</text></g><g><text font-family="Arial,Arial_MSFontService,sans-serif" font-weight="400" font-size="46" transform="matrix(1 0 0 1 1751.86 707)">1</text></g><g><text font-family="Arial,Arial_MSFontService,sans-serif" font-weight="400" font-size="46" transform="matrix(1 0 0 1 1713.64 634)">1.2</text></g><g><text font-family="Arial,Arial_MSFontService,sans-serif" font-weight="400" font-size="46" transform="matrix(1 0 0 1 1713.64 562)">1.4</text></g><g><text font-family="Arial,Arial_MSFontService,sans-serif" font-weight="400" font-size="46" transform="matrix(1 0 0 1 1713.64 490)">1.6</text></g><g><text font-family="Arial,Arial_MSFontService,sans-serif" font-weight="400" font-size="46" transform="matrix(1 0 0 1 1713.64 417)">1.8</text></g><g><text font-family="Arial,Arial_MSFontService,sans-serif" font-weight="400" font-size="46" transform="matrix(1 0 0 1 1751.86 345)">2</text></g><g><text font-family="Arial,Arial_MSFontService,sans-serif" font-weight="400" font-size="46" transform="matrix(0.707107 -0.707107 0.707107 0.707107 1541.22 1148)">600.perlbench_s-570B</text></g><g><text font-family="Arial,Arial_MSFontService,sans-serif" font-weight="400" font-size="46" transform="matrix(0.707107 -0.707107 0.707107 0.707107 1692.9 1074)">602.gcc_s-1850B</text></g><g><text font-family="Arial,Arial_MSFontService,sans-serif" font-weight="400" font-size="46" transform="matrix(0.707107 -0.707107 0.707107 0.707107 1770.71 1074)">602.gcc_s-2226B</text></g><g><text font-family="Arial,Arial_MSFontService,sans-serif" font-weight="400" font-size="46" transform="matrix(0.707107 -0.707107 0.707107 0.707107 1866.55 1056)">602.gcc_s-734B</text></g><g><text font-family="Arial,Arial_MSFontService,sans-serif" font-weight="400" font-size="46" transform="matrix(0.707107 -0.707107 0.707107 0.707107 1866.91 1133)">603.bwaves_s-1740B</text></g><g><text font-family="Arial,Arial_MSFontService,sans-serif" font-weight="400" font-size="46" transform="matrix(0.707107 -0.707107 0.707107 0.707107 1944.72 1133)">603.bwaves_s-2609B</text></g><g><text font-family="Arial,Arial_MSFontService,sans-serif" font-weight="400" font-size="46" transform="matrix(0.707107 -0.707107 0.707107 0.707107 2022.54 1133)">603.bwaves_s-2931B</text></g><g><text font-family="Arial,Arial_MSFontService,sans-serif" font-weight="400" font-size="46" transform="matrix(0.707107 -0.707107 0.707107 0.707107 2118.38 1115)">603.bwaves_s-891B</text></g><g><text font-family="Arial,Arial_MSFontService,sans-serif" font-weight="400" font-size="46" transform="matrix(0.707107 -0.707107 0.707107 0.707107 2235.83 1075)">605.mcf_s-1152B</text></g><g><text font-family="Arial,Arial_MSFontService,sans-serif" font-weight="400" font-size="46" transform="matrix(0.707107 -0.707107 0.707107 0.707107 2313.64 1075)">605.mcf_s-1536B</text></g><g><text font-family="Arial,Arial_MSFontService,sans-serif" font-weight="400" font-size="46" transform="matrix(0.707107 -0.707107 0.707107 0.707107 2391.46 1075)">605.mcf_s-1554B</text></g><g><text font-family="Arial,Arial_MSFontService,sans-serif" font-weight="400" font-size="46" transform="matrix(0.707107 -0.707107 0.707107 0.707107 2469.28 1075)">605.mcf_s-1644B</text></g><g><text font-family="Arial,Arial_MSFontService,sans-serif" font-weight="400" font-size="46" transform="matrix(0.707107 -0.707107 0.707107 0.707107 2565.11 1057)">605.mcf_s-472B</text></g><g><text font-family="Arial,Arial_MSFontService,sans-serif" font-weight="400" font-size="46" transform="matrix(0.707107 -0.707107 0.707107 0.707107 2642.93 1057)">605.mcf_s-484B</text></g><g><text font-family="Arial,Arial_MSFontService,sans-serif" font-weight="400" font-size="46" transform="matrix(0.707107 -0.707107 0.707107 0.707107 2720.75 1057)">605.mcf_s-665B</text></g><g><text font-family="Arial,Arial_MSFontService,sans-serif" font-weight="400" font-size="46" transform="matrix(0.707107 -0.707107 0.707107 0.707107 2798.56 1057)">605.mcf_s-782B</text></g><g><text font-family="Arial,Arial_MSFontService,sans-serif" font-weight="400" font-size="46" transform="matrix(0.707107 -0.707107 0.707107 0.707107 2876.38 1057)">605.mcf_s-994B</text></g><g><text font-family="Arial,Arial_MSFontService,sans-serif" font-weight="400" font-size="46" transform="matrix(0.707107 -0.707107 0.707107 0.707107 2822.68 1189)">607.cactuBSSN_s-2421B</text></g><g><text font-family="Arial,Arial_MSFontService,sans-serif" font-weight="400" font-size="46" transform="matrix(0.707107 -0.707107 0.707107 0.707107 2900.5 1189)">607.cactuBSSN_s-3477B</text></g><g><text font-family="Arial,Arial_MSFontService,sans-serif" font-weight="400" font-size="46" transform="matrix(0.707107 -0.707107 0.707107 0.707107 2978.31 1189)">607.cactuBSSN_s-4004B</text></g><g><text font-family="Arial,Arial_MSFontService,sans-serif" font-weight="400" font-size="46" transform="matrix(0.707107 -0.707107 0.707107 0.707107 3169.62 1075)">619.lbm_s-2676B</text></g><g><text font-family="Arial,Arial_MSFontService,sans-serif" font-weight="400" font-size="46" transform="matrix(0.707107 -0.707107 0.707107 0.707107 3247.44 1075)">619.lbm_s-2677B</text></g><g><text font-family="Arial,Arial_MSFontService,sans-serif" font-weight="400" font-size="46" transform="matrix(0.707107 -0.707107 0.707107 0.707107 3325.26 1075)">619.lbm_s-3766B</text></g><g><text font-family="Arial,Arial_MSFontService,sans-serif" font-weight="400" font-size="46" transform="matrix(0.707107 -0.707107 0.707107 0.707107 3403.07 1075)">619.lbm_s-4268B</text></g><g><text font-family="Arial,Arial_MSFontService,sans-serif" font-weight="400" font-size="46" transform="matrix(0.707107 -0.707107 0.707107 0.707107 3425.02 1131)">620.omnetpp_s-141B</text></g><g><text font-family="Arial,Arial_MSFontService,sans-serif" font-weight="400" font-size="46" transform="matrix(0.707107 -0.707107 0.707107 0.707107 3502.83 1131)">620.omnetpp_s-874B</text></g><g><text font-family="Arial,Arial_MSFontService,sans-serif" font-weight="400" font-size="46" transform="matrix(0.707107 -0.707107 0.707107 0.707107 3645.53 1066)">621.wrf_s-6673B</text></g><g><text font-family="Arial,Arial_MSFontService,sans-serif" font-weight="400" font-size="46" transform="matrix(0.707107 -0.707107 0.707107 0.707107 3723.35 1066)">621.wrf_s-8065B</text></g><g><text font-family="Arial,Arial_MSFontService,sans-serif" font-weight="400" font-size="46" transform="matrix(0.707107 -0.707107 0.707107 0.707107 3725.52 1142)">623.xalancbmk_s-10B</text></g><g><text font-family="Arial,Arial_MSFontService,sans-serif" font-weight="400" font-size="46" transform="matrix(0.707107 -0.707107 0.707107 0.707107 3785.32 1160)">623.xalancbmk_s-165B</text></g><g><text font-family="Arial,Arial_MSFontService,sans-serif" font-weight="400" font-size="46" transform="matrix(0.707107 -0.707107 0.707107 0.707107 3863.14 1160)">623.xalancbmk_s-202B</text></g><g><text font-family="Arial,Arial_MSFontService,sans-serif" font-weight="400" font-size="46" transform="matrix(0.707107 -0.707107 0.707107 0.707107 4041.78 1059)">628.pop2_s-17B</text></g><g><text font-family="Arial,Arial_MSFontService,sans-serif" font-weight="400" font-size="46" transform="matrix(0.707107 -0.707107 0.707107 0.707107 4087.18 1092)">641.leela_s-1083B</text></g><g><text font-family="Arial,Arial_MSFontService,sans-serif" font-weight="400" font-size="46" transform="matrix(0.707107 -0.707107 0.707107 0.707107 4083.91 1173)">649.fotonik3d_s-10881B</text></g><g><text font-family="Arial,Arial_MSFontService,sans-serif" font-weight="400" font-size="46" transform="matrix(0.707107 -0.707107 0.707107 0.707107 4179.75 1155)">649.fotonik3d_s-1176B</text></g><g><text font-family="Arial,Arial_MSFontService,sans-serif" font-weight="400" font-size="46" transform="matrix(0.707107 -0.707107 0.707107 0.707107 4257.56 1155)">649.fotonik3d_s-7084B</text></g><g><text font-family="Arial,Arial_MSFontService,sans-serif" font-weight="400" font-size="46" transform="matrix(0.707107 -0.707107 0.707107 0.707107 4335.38 1155)">649.fotonik3d_s-8225B</text></g><g><text font-family="Arial,Arial_MSFontService,sans-serif" font-weight="400" font-size="46" transform="matrix(0.707107 -0.707107 0.707107 0.707107 4472.7 1095)">654.roms_s-1007B</text></g><g><text font-family="Arial,Arial_MSFontService,sans-serif" font-weight="400" font-size="46" transform="matrix(0.707107 -0.707107 0.707107 0.707107 4550.52 1095)">654.roms_s-1070B</text></g><g><text font-family="Arial,Arial_MSFontService,sans-serif" font-weight="400" font-size="46" transform="matrix(0.707107 -0.707107 0.707107 0.707107 4628.33 1095)">654.roms_s-1390B</text></g><g><text font-family="Arial,Arial_MSFontService,sans-serif" font-weight="400" font-size="46" transform="matrix(0.707107 -0.707107 0.707107 0.707107 4706.15 1095)">654.roms_s-1613B</text></g><g><text font-family="Arial,Arial_MSFontService,sans-serif" font-weight="400" font-size="46" transform="matrix(0.707107 -0.707107 0.707107 0.707107 4801.99 1077)">654.roms_s-293B</text></g><g><text font-family="Arial,Arial_MSFontService,sans-serif" font-weight="400" font-size="46" transform="matrix(0.707107 -0.707107 0.707107 0.707107 4879.8 1077)">654.roms_s-294B</text></g><g><text font-family="Arial,Arial_MSFontService,sans-serif" font-weight="400" font-size="46" transform="matrix(0.707107 -0.707107 0.707107 0.707107 4957.62 1077)">654.roms_s-523B</text></g><g><text font-family="Arial,Arial_MSFontService,sans-serif" font-weight="400" font-size="46" transform="matrix(0.707107 -0.707107 0.707107 0.707107 5057.02 1056)">657.xz_s-2302B</text></g><g><text font-family="Arial,Arial_MSFontService,sans-serif" font-weight="400" font-size="46" transform="matrix(0.707107 -0.707107 0.707107 0.707107 5226.72 964)">Geomean</text></g><g><text font-family="Arial,Arial_MSFontService,sans-serif" font-weight="400" font-size="46" transform="matrix(6.12323e-17 -1 1 6.12323e-17 1658.44 643)">Speedup</text></g><g><rect x="3129.5" y="268.5" width="23" height="23" stroke="#000000" stroke-width="3.4375" stroke-linejoin="round" stroke-miterlimit="10" fill="#F2F2F2"/></g><g><text font-family="Arial,Arial_MSFontService,sans-serif" font-weight="400" font-size="46" transform="matrix(1 0 0 1 3162.49 295)">On-access</text></g><g><rect x="3430.5" y="268.5" width="23" height="23" stroke="#000000" stroke-width="3.4375" stroke-linejoin="round" stroke-miterlimit="10" fill="#7F7F7F"/></g><g><text font-family="Arial,Arial_MSFontService,sans-serif" font-weight="400" font-size="46" transform="matrix(1 0 0 1 3463.17 295)">On-commit</text></g><g><text font-family="Arial,Arial_MSFontService,sans-serif" font-weight="400" font-size="37" transform="matrix(1 0 0 1 1948.46 278)">5.6</text></g><g><path d="M1984 293 1997.06 329.521" stroke="#000000" stroke-width="2.29167" stroke-miterlimit="8" fill="none" fill-rule="evenodd"/></g><g><text font-family="Arial,Arial_MSFontService,sans-serif" font-weight="400" font-size="37" transform="matrix(1 0 0 1 2018.51 289)">6.4</text></g><g><path d="M0 0 30.9494 25.754" stroke="#000000" stroke-width="2.29167" stroke-miterlimit="8" fill="none" fill-rule="evenodd" transform="matrix(-1 0 0 1 2053.95 303)"/></g><g><text font-family="Arial,Arial_MSFontService,sans-serif" font-weight="400" font-size="37" transform="matrix(1 0 0 1 1797.85 278)">2.1</text></g><g><path d="M1829 291 1921.28 329.002" stroke="#000000" stroke-width="2.29167" stroke-miterlimit="8" fill="none" fill-rule="evenodd"/></g><g><text font-family="Arial,Arial_MSFontService,sans-serif" font-weight="400" font-size="37" transform="matrix(1 0 0 1 1869.2 286)">2.1</text></g><g><path d="M1905 300 1946.98 328.705" stroke="#000000" stroke-width="2.29167" stroke-miterlimit="8" fill="none" fill-rule="evenodd"/></g><g><text font-family="Arial,Arial_MSFontService,sans-serif" font-weight="400" font-size="37" transform="matrix(1 0 0 1 2255.07 278)">2.8</text></g><g><path d="M0 0 51.0684 36.5212" stroke="#000000" stroke-width="2.29167" stroke-miterlimit="8" fill="none" fill-rule="evenodd" transform="matrix(-1 0 0 1 2282.07 293)"/></g><g><text font-family="Arial,Arial_MSFontService,sans-serif" font-weight="400" font-size="37" transform="matrix(1 0 0 1 2323.7 287)">2.8</text></g><g><path d="M0 0 96.2962 27.4354" stroke="#000000" stroke-width="2.29167" stroke-miterlimit="8" fill="none" fill-rule="evenodd" transform="matrix(-1 0 0 1 2354.3 302)"/></g><g><text font-family="Arial,Arial_MSFontService,sans-serif" font-weight="400" font-size="37" transform="matrix(1 0 0 1 2113.63 278)">2.8</text></g><g><path d="M2145 291 2150.31 329.002" stroke="#000000" stroke-width="2.29167" stroke-miterlimit="8" fill="none" fill-rule="evenodd"/></g><g><text font-family="Arial,Arial_MSFontService,sans-serif" font-weight="400" font-size="37" transform="matrix(1 0 0 1 2180.03 286)">2.8</text></g><g><path d="M0 0 28.5968 28.4484" stroke="#000000" stroke-width="2.29167" stroke-miterlimit="8" fill="none" fill-rule="evenodd" transform="matrix(-1 0 0 1 2209.6 301)"/></g><g><text font-family="Arial,Arial_MSFontService,sans-serif" font-weight="400" font-size="37" transform="matrix(1 0 0 1 4124.49 278)">2.1</text></g><g><path d="M4160 293 4173.06 329.521" stroke="#000000" stroke-width="2.29167" stroke-miterlimit="8" fill="none" fill-rule="evenodd"/></g><g><text font-family="Arial,Arial_MSFontService,sans-serif" font-weight="400" font-size="37" transform="matrix(1 0 0 1 4194.54 278)">2.3</text></g><g><path d="M0 0 28.0691 36.5212" stroke="#000000" stroke-width="2.29167" stroke-miterlimit="8" fill="none" fill-rule="evenodd" transform="matrix(-1 0 0 1 4230.07 293)"/></g><g><path d="M1818.5 691.5 5396.22 696.11" stroke="#EA4335" stroke-width="3.4375" stroke-miterlimit="8" fill="none" fill-rule="evenodd"/></g></g></svg>