<svg width="1684" height="1097" xmlns="http://www.w3.org/2000/svg" xmlns:xlink="http://www.w3.org/1999/xlink" xml:space="preserve" overflow="hidden"><defs><clipPath id="clip0"><rect x="2415" y="506" width="1684" height="1097"/></clipPath></defs><g clip-path="url(#clip0)" transform="translate(-2415 -506)"><rect x="2415" y="506" width="1684" height="1097" fill="#FFFFFF"/><g><path d="M2669.5 1337.54 3969.5 1337.54M2669.5 1311.54 3969.5 1311.54M2669.5 1285.54 3969.5 1285.54M2669.5 1259.54 3969.5 1259.54M2669.5 1206.54 3969.5 1206.54M2669.5 1180.54 3969.5 1180.54M2669.5 1154.54 3969.5 1154.54M2669.5 1128.54 3969.5 1128.54M2669.5 1075.54 3969.5 1075.54M2669.5 1049.53 3969.5 1049.53M2669.5 1023.53 3969.5 1023.53M2669.5 997.533 3969.5 997.533M2669.5 944.531 3969.5 944.531M2669.5 918.53 3969.5 918.53M2669.5 892.529 3969.5 892.529M2669.5 866.529 3969.5 866.529M2669.5 813.527 3969.5 813.527M2669.5 787.526 3969.5 787.526M2669.5 761.525 3969.5 761.525M2669.5 735.524 3969.5 735.524M2669.5 682.523 3969.5 682.523M2669.5 656.522 3969.5 656.522M2669.5 630.521 3969.5 630.521M2669.5 604.52 3969.5 604.52" stroke="#F2F2F2" stroke-width="3.4375" stroke-linejoin="round" stroke-miterlimit="10" fill="none"/></g><g><path d="M2669.5 1233.54 3969.5 1233.54M2669.5 1102.54 3969.5 1102.54M2669.5 971.532 3969.5 971.532M2669.5 840.528 3969.5 840.528M2669.5 709.523 3969.5 709.523M2669.5 578.5 3969.5 578.5" stroke="#BFBFBF" stroke-width="3.4375" stroke-linejoin="round" stroke-miterlimit="10" fill="none"/></g><g><rect x="2669.5" y="578.5" width="1300" height="786" stroke="#000000" stroke-width="3.4375" stroke-linejoin="round" stroke-miterlimit="10" fill="none"/></g><g><path d="M2702.59 909.53 2767.59 909.53 2767.59 1364.5 2702.59 1364.5ZM2962.6 876.529 3027.6 876.529 3027.6 1364.5 2962.6 1364.5ZM3222.61 848.528 3287.61 848.528 3287.61 1364.5 3222.61 1364.5ZM3482.61 848.528 3547.62 848.528 3547.62 1364.5 3482.61 1364.5ZM3742.62 825.527 3807.62 825.527 3807.62 1364.5 3742.62 1364.5Z" stroke="#000000" stroke-width="3.4375" stroke-linejoin="round" stroke-miterlimit="10" fill="#D9D9D9"/></g><g><path d="M2767.59 992.533 2832.59 992.533 2832.59 1364.5 2767.59 1364.5ZM3027.6 994.533 3092.6 994.533 3092.6 1364.5 3027.6 1364.5ZM3287.61 947.531 3352.61 947.531 3352.61 1364.5 3287.61 1364.5ZM3547.62 918.53 3612.62 918.53 3612.62 1364.5 3547.62 1364.5ZM3807.62 926.531 3871.63 926.531 3871.63 1364.5 3807.62 1364.5Z" stroke="#000000" stroke-width="3.4375" stroke-linejoin="round" stroke-miterlimit="10" fill="#7F7F7F"/></g><g><path d="M2832.59 1028.53 2897.6 1028.53 2897.6 1364.5 2832.59 1364.5ZM3092.6 1036.53 3157.6 1036.53 3157.6 1364.5 3092.6 1364.5ZM3352.61 986.533 3417.61 986.533 3417.61 1364.5 3352.61 1364.5ZM3612.62 1002.53 3677.62 1002.53 3677.62 1364.5 3612.62 1364.5ZM3871.63 961.532 3936.63 961.532 3936.63 1364.5 3871.63 1364.5Z" stroke="#000000" stroke-width="3.4375" stroke-linejoin="round" stroke-miterlimit="10" fill="#404040"/></g><g><path d="M0 0 0.000360892 786" stroke="#000000" stroke-width="2.29167" stroke-linejoin="round" stroke-miterlimit="10" fill="none" fill-rule="evenodd" transform="matrix(1 0 0 -1 2670 1364)"/></g><g><path d="M2656 1364 2670 1364M2656 1233.04 2670 1233.04M2656 1102.04 2670 1102.04M2656 971.032 2670 971.032M2656 840.028 2670 840.028M2656 709.023 2670 709.023M2656 578 2670 578" stroke="#000000" stroke-width="2.29167" stroke-linejoin="round" stroke-miterlimit="10" fill="none"/></g><g><path d="M2669.5 1364.5 3969.5 1364.5" stroke="#000000" stroke-width="3.4375" stroke-linejoin="round" stroke-miterlimit="10" fill="none" fill-rule="evenodd"/></g><g><text font-family="Arial,Arial_MSFontService,sans-serif" font-weight="400" font-size="46" transform="matrix(1 0 0 1 2566.81 1379)">0.9</text></g><g><text font-family="Arial,Arial_MSFontService,sans-serif" font-weight="400" font-size="46" transform="matrix(1 0 0 1 2566.81 1248)">1.0</text></g><g><text font-family="Arial,Arial_MSFontService,sans-serif" font-weight="400" font-size="46" transform="matrix(1 0 0 1 2566.81 1117)">1.1</text></g><g><text font-family="Arial,Arial_MSFontService,sans-serif" font-weight="400" font-size="46" transform="matrix(1 0 0 1 2566.81 986)">1.2</text></g><g><text font-family="Arial,Arial_MSFontService,sans-serif" font-weight="400" font-size="46" transform="matrix(1 0 0 1 2566.81 855)">1.3</text></g><g><text font-family="Arial,Arial_MSFontService,sans-serif" font-weight="400" font-size="46" transform="matrix(1 0 0 1 2566.81 724)">1.4</text></g><g><text font-family="Arial,Arial_MSFontService,sans-serif" font-weight="400" font-size="46" transform="matrix(1 0 0 1 2566.81 593)">1.5</text></g><g><text font-family="Arial,Arial_MSFontService,sans-serif" font-weight="400" font-size="46" transform="matrix(0.707107 -0.707107 0.707107 0.707107 2685.45 1548)">IP-Stride</text></g><g><text font-family="Arial,Arial_MSFontService,sans-serif" font-weight="400" font-size="46" transform="matrix(0.707107 -0.707107 0.707107 0.707107 2995.8 1497)">IPCP</text></g><g><text font-family="Arial,Arial_MSFontService,sans-serif" font-weight="400" font-size="46" transform="matrix(0.707107 -0.707107 0.707107 0.707107 3248.5 1504)">Bingo</text></g><g><text font-family="Arial,Arial_MSFontService,sans-serif" font-weight="400" font-size="46" transform="matrix(0.707107 -0.707107 0.707107 0.707107 3444.48 1568)">SPP+PPF</text></g><g><text font-family="Arial,Arial_MSFontService,sans-serif" font-weight="400" font-size="46" transform="matrix(0.707107 -0.707107 0.707107 0.707107 3784.58 1488)">Berti</text></g><g><text font-family="Arial,Arial_MSFontService,sans-serif" font-weight="400" font-size="46" transform="matrix(6.12323e-17 -1 1 6.12323e-17 2516.96 1076)">Speedup </text></g><g><rect x="2675" y="592" width="864" height="162" fill="#FFFFFF"/></g><g><rect x="2709.5" y="607.5" width="23" height="23.0001" stroke="#000000" stroke-width="3.4375" stroke-linejoin="round" stroke-miterlimit="10" fill="#D9D9D9"/></g><g><text font-family="Arial,Arial_MSFontService,sans-serif" font-weight="400" font-size="46" transform="matrix(1 0 0 1 2742.31 634)">On-access(Non-secure cache system)</text></g><g><rect x="2709.5" y="661.5" width="23" height="23.0001" stroke="#000000" stroke-width="3.4375" stroke-linejoin="round" stroke-miterlimit="10" fill="#7F7F7F"/></g><g><text font-family="Arial,Arial_MSFontService,sans-serif" font-weight="400" font-size="46" transform="matrix(1 0 0 1 2742.31 688)">On-access(Secure cache system)</text></g><g><rect x="2709.5" y="715.5" width="23" height="23.0001" stroke="#000000" stroke-width="3.4375" stroke-linejoin="round" stroke-miterlimit="10" fill="#404040"/></g><g><text font-family="Arial,Arial_MSFontService,sans-serif" font-weight="400" font-size="46" transform="matrix(1 0 0 1 2742.31 742)">On-commit(Secure cache system)</text></g><g><path d="M2670.5 1298.5 3971 1298.5" stroke="#FF0000" stroke-width="3.4375" stroke-miterlimit="8" fill="none" fill-rule="evenodd"/></g></g></svg>