<svg width="1689" height="1007" xmlns="http://www.w3.org/2000/svg" xmlns:xlink="http://www.w3.org/1999/xlink" xml:space="preserve" overflow="hidden"><defs><clipPath id="clip0"><rect x="11" y="268" width="1689" height="1007"/></clipPath></defs><g clip-path="url(#clip0)" transform="translate(-11 -268)"><rect x="11" y="268" width="1689" height="1007" fill="#FFFFFF"/><g><path d="M294.5 955.531 1459.5 955.531M294.5 922.53 1459.5 922.53M294.5 889.529 1459.5 889.529M294.5 857.528 1459.5 857.528M294.5 791.526 1459.5 791.526M294.5 759.525 1459.5 759.525M294.5 726.524 1459.5 726.524M294.5 693.523 1459.5 693.523M294.5 628.521 1459.5 628.521M294.5 595.52 1459.5 595.52M294.5 563.519 1459.5 563.519M294.5 530.518 1459.5 530.518M294.5 464.515 1459.5 464.515M294.5 432.514 1459.5 432.514M294.5 399.513 1459.5 399.513M294.5 366.512 1459.5 366.512" stroke="#F2F2F2" stroke-width="3.4375" stroke-linejoin="round" stroke-miterlimit="10" fill="none"/></g><g><path d="M294.5 824.527 1459.5 824.527M294.5 661.522 1459.5 661.522M294.5 497.517 1459.5 497.517M294.5 334.5 1459.5 334.5" stroke="#BFBFBF" stroke-width="3.4375" stroke-linejoin="round" stroke-miterlimit="10" fill="none"/></g><g><rect x="294.5" y="334.5" width="1165" height="653" stroke="#000000" stroke-width="3.4375" stroke-linejoin="round" stroke-miterlimit="10" fill="none"/></g><g><path d="M333.511 681.523 411.514 681.523 411.514 987.5 333.511 987.5ZM566.519 618.521 644.521 618.521 644.521 987.5 566.519 987.5ZM799.526 559.519 877.529 559.519 877.529 987.5 799.526 987.5ZM1032.53 517.517 1110.54 517.517 1110.54 987.5 1032.53 987.5ZM1265.54 561.519 1343.54 561.519 1343.54 987.5 1265.54 987.5Z" stroke="#000000" stroke-width="3.4375" stroke-linejoin="round" stroke-miterlimit="10" fill="#F2F2F2"/></g><g><path d="M411.514 748.525 489.516 748.525 489.516 987.5 411.514 987.5ZM644.521 656.522 722.524 656.522 722.524 987.5 644.521 987.5ZM877.529 601.52 955.531 601.52 955.531 987.5 877.529 987.5ZM1110.54 668.522 1187.54 668.522 1187.54 987.5 1110.54 987.5ZM1343.54 603.52 1420.55 603.52 1420.55 987.5 1343.54 987.5Z" stroke="#000000" stroke-width="3.4375" stroke-linejoin="round" stroke-miterlimit="10" fill="#7F7F7F"/></g><g><path d="M0 0 0.000360892 653" stroke="#000000" stroke-width="3.4375" stroke-linejoin="round" stroke-miterlimit="10" fill="none" fill-rule="evenodd" transform="matrix(1 0 0 -1 294.5 987.5)"/></g><g><path d="M281.5 987.5 294.5 987.5M281.5 824.527 294.5 824.527M281.5 661.522 294.5 661.522M281.5 497.517 294.5 497.517M281.5 334.5 294.5 334.5" stroke="#000000" stroke-width="3.4375" stroke-linejoin="round" stroke-miterlimit="10" fill="none"/></g><g><path d="M294.5 987.5 1459.5 987.5" stroke="#000000" stroke-width="3.4375" stroke-linejoin="round" stroke-miterlimit="10" fill="none" fill-rule="evenodd"/></g><g><text font-family="Arial,Arial_MSFontService,sans-serif" font-weight="400" font-size="46" transform="matrix(1 0 0 1 328.038 651)">1.29</text></g><g><text font-family="Arial,Arial_MSFontService,sans-serif" font-weight="400" font-size="46" transform="matrix(1 0 0 1 561.001 588)">1.33</text></g><g><text font-family="Arial,Arial_MSFontService,sans-serif" font-weight="400" font-size="46" transform="matrix(1 0 0 1 793.963 529)">1.36</text></g><g><text font-family="Arial,Arial_MSFontService,sans-serif" font-weight="400" font-size="46" transform="matrix(1 0 0 1 1026.93 487)">1.39</text></g><g><text font-family="Arial,Arial_MSFontService,sans-serif" font-weight="400" font-size="46" transform="matrix(1 0 0 1 1259.89 532)">1.36</text></g><g><text font-family="Arial,Arial_MSFontService,sans-serif" font-weight="400" font-size="46" transform="matrix(1 0 0 1 424.389 718)">1.25</text></g><g><text font-family="Arial,Arial_MSFontService,sans-serif" font-weight="400" font-size="46" transform="matrix(1 0 0 1 660.131 627)">1.30</text></g><g><text font-family="Arial,Arial_MSFontService,sans-serif" font-weight="400" font-size="46" transform="matrix(1 0 0 1 897.443 571)">1.34</text></g><g><text font-family="Arial,Arial_MSFontService,sans-serif" font-weight="400" font-size="46" transform="matrix(1 0 0 1 1118.33 638)">1.30</text></g><g><text font-family="Arial,Arial_MSFontService,sans-serif" font-weight="400" font-size="46" transform="matrix(1 0 0 1 1355.88 574)">1.33</text></g><g><text font-family="Arial,Arial_MSFontService,sans-serif" font-weight="400" font-size="46" transform="matrix(1 0 0 1 191.828 1003)">1.1</text></g><g><text font-family="Arial,Arial_MSFontService,sans-serif" font-weight="400" font-size="46" transform="matrix(1 0 0 1 191.828 839)">1.2</text></g><g><text font-family="Arial,Arial_MSFontService,sans-serif" font-weight="400" font-size="46" transform="matrix(1 0 0 1 191.828 676)">1.3</text></g><g><text font-family="Arial,Arial_MSFontService,sans-serif" font-weight="400" font-size="46" transform="matrix(1 0 0 1 191.828 513)">1.4</text></g><g><text font-family="Arial,Arial_MSFontService,sans-serif" font-weight="400" font-size="46" transform="matrix(1 0 0 1 191.828 349)">1.5</text></g><g><text font-family="Arial,Arial_MSFontService,sans-serif" font-weight="400" font-size="46" transform="matrix(0.707107 -0.707107 0.707107 0.707107 296.98 1171)">IP-Stride</text></g><g><text font-family="Arial,Arial_MSFontService,sans-serif" font-weight="400" font-size="46" transform="matrix(0.707107 -0.707107 0.707107 0.707107 580.371 1121)">IPCP</text></g><g><text font-family="Arial,Arial_MSFontService,sans-serif" font-weight="400" font-size="46" transform="matrix(0.707107 -0.707107 0.707107 0.707107 806.107 1128)">Bingo</text></g><g><text font-family="Arial,Arial_MSFontService,sans-serif" font-weight="400" font-size="46" transform="matrix(0.707107 -0.707107 0.707107 0.707107 975.126 1192)">SPP+PPF</text></g><g><text font-family="Arial,Arial_MSFontService,sans-serif" font-weight="400" font-size="46" transform="matrix(0.707107 -0.707107 0.707107 0.707107 1288.27 1112)">Berti</text></g><g><text font-family="Arial,Arial_MSFontService,sans-serif" font-weight="400" font-size="46" transform="matrix(6.12323e-17 -1 1 6.12323e-17 150.18 743)">Speedup </text></g><g><rect x="376.5" y="363.5" width="23" height="23" stroke="#000000" stroke-width="3.4375" stroke-linejoin="round" stroke-miterlimit="10" fill="#F2F2F2"/></g><g><text font-family="Arial,Arial_MSFontService,sans-serif" font-weight="400" font-size="46" transform="matrix(1 0 0 1 409.221 390)">On-access</text></g><g><rect x="660.5" y="363.5" width="23.0001" height="23" stroke="#000000" stroke-width="3.4375" stroke-linejoin="round" stroke-miterlimit="10" fill="#7F7F7F"/></g><g><text font-family="Arial,Arial_MSFontService,sans-serif" font-weight="400" font-size="46" transform="matrix(1 0 0 1 693.486 390)">On-commit</text></g></g></svg>