<svg width="1693" height="1153" xmlns="http://www.w3.org/2000/svg" xmlns:xlink="http://www.w3.org/1999/xlink" xml:space="preserve" overflow="hidden"><defs><clipPath id="clip0"><rect x="11" y="361" width="1693" height="1153"/></clipPath></defs><g clip-path="url(#clip0)" transform="translate(-11 -361)"><rect x="11" y="361" width="1693" height="1153" fill="#FFFFFF"/><g><path d="M267.5 1176.54 1574.5 1176.54M267.5 1137.54 1574.5 1137.54M267.5 1098.54 1574.5 1098.54M267.5 1059.53 1574.5 1059.53M267.5 981.532 1574.5 981.532M267.5 942.531 1574.5 942.531M267.5 903.53 1574.5 903.53M267.5 864.529 1574.5 864.529M267.5 787.526 1574.5 787.526M267.5 748.525 1574.5 748.525M267.5 709.523 1574.5 709.523M267.5 670.522 1574.5 670.522M267.5 592.52 1574.5 592.52M267.5 553.518 1574.5 553.518M267.5 514.517 1574.5 514.517M267.5 475.516 1574.5 475.516" stroke="#F2F2F2" stroke-width="3.4375" stroke-linejoin="round" stroke-miterlimit="10" fill="none"/></g><g><path d="M267.5 1020.53 1574.5 1020.53M267.5 826.527 1574.5 826.527M267.5 631.521 1574.5 631.521M267.5 437.5 1574.5 437.5" stroke="#BFBFBF" stroke-width="3.4375" stroke-linejoin="round" stroke-miterlimit="10" fill="none"/></g><g><rect x="267.5" y="437.5" width="1307" height="778" stroke="#000000" stroke-width="3.4375" stroke-linejoin="round" stroke-miterlimit="10" fill="none"/></g><g><path d="M311.51 930.531 398.513 930.531 398.513 1215.5 311.51 1215.5ZM572.519 821.527 659.522 821.527 659.522 1215.5 572.519 1215.5ZM833.528 755.525 920.53 755.525 920.53 1215.5 833.528 1215.5ZM1095.54 834.528 1182.54 834.528 1182.54 1215.5 1095.54 1215.5ZM1356.54 758.525 1443.55 758.525 1443.55 1215.5 1356.54 1215.5Z" stroke="#000000" stroke-width="3.4375" stroke-linejoin="round" stroke-miterlimit="10" fill="#F2F2F2"/></g><g><path d="M398.513 868.529 485.516 868.529 485.516 1215.5 398.513 1215.5ZM659.522 741.525 746.525 741.525 746.525 1215.5 659.522 1215.5ZM920.53 640.521 1008.53 640.521 1008.53 1215.5 920.53 1215.5ZM1182.54 729.524 1269.54 729.524 1269.54 1215.5 1182.54 1215.5ZM1443.55 708.523 1530.55 708.523 1530.55 1215.5 1443.55 1215.5Z" stroke="#000000" stroke-width="3.4375" stroke-linejoin="round" stroke-miterlimit="10" fill="#7F7F7F"/></g><g><path d="M0 0 0.000360892 778" stroke="#000000" stroke-width="2.29167" stroke-linejoin="round" stroke-miterlimit="10" fill="none" fill-rule="evenodd" transform="matrix(1 0 0 -1 267 1215)"/></g><g><path d="M254 1215 267 1215M254 1021.03 267 1021.03M254 826.027 267 826.027M254 632.021 267 632.021M254 437 267 437" stroke="#000000" stroke-width="2.29167" stroke-linejoin="round" stroke-miterlimit="10" fill="none"/></g><g><path d="M267.5 1215.5 1574.5 1215.5" stroke="#000000" stroke-width="3.4375" stroke-linejoin="round" stroke-miterlimit="10" fill="none" fill-rule="evenodd"/></g><g><g><text font-family="Arial,Arial_MSFontService,sans-serif" font-weight="400" font-size="46" transform="matrix(1 0 0 1 297.401 899)">1.25</text></g></g><g><g><text font-family="Arial,Arial_MSFontService,sans-serif" font-weight="400" font-size="46" transform="matrix(1 0 0 1 558.791 791)">1.30</text></g></g><g><g><text font-family="Arial,Arial_MSFontService,sans-serif" font-weight="400" font-size="46" transform="matrix(1 0 0 1 820.182 725)">1.34</text></g></g><g><g><text font-family="Arial,Arial_MSFontService,sans-serif" font-weight="400" font-size="46" transform="matrix(1 0 0 1 1081.57 804)">1.30</text></g></g><g><g><text font-family="Arial,Arial_MSFontService,sans-serif" font-weight="400" font-size="46" transform="matrix(1 0 0 1 1342.96 727)">1.33</text></g></g><g><text font-family="Arial,Arial_MSFontService,sans-serif" font-weight="400" font-size="46" transform="matrix(1 0 0 1 397.144 838)">1.28</text></g><g><text font-family="Arial,Arial_MSFontService,sans-serif" font-weight="400" font-size="46" transform="matrix(1 0 0 1 658.535 712)">1.34</text></g><g><text font-family="Arial,Arial_MSFontService,sans-serif" font-weight="400" font-size="46" transform="matrix(1 0 0 1 919.926 610)">1.40</text></g><g><text font-family="Arial,Arial_MSFontService,sans-serif" font-weight="400" font-size="46" transform="matrix(1 0 0 1 1181.32 699)">1.35</text></g><g><text font-family="Arial,Arial_MSFontService,sans-serif" font-weight="400" font-size="46" transform="matrix(1 0 0 1 1442.71 678)">1.36</text></g><g><text font-family="Arial,Arial_MSFontService,sans-serif" font-weight="400" font-size="46" transform="matrix(1 0 0 1 164.328 1230)">1.1</text></g><g><text font-family="Arial,Arial_MSFontService,sans-serif" font-weight="400" font-size="46" transform="matrix(1 0 0 1 164.328 1036)">1.2</text></g><g><text font-family="Arial,Arial_MSFontService,sans-serif" font-weight="400" font-size="46" transform="matrix(1 0 0 1 164.328 841)">1.3</text></g><g><text font-family="Arial,Arial_MSFontService,sans-serif" font-weight="400" font-size="46" transform="matrix(1 0 0 1 164.328 647)">1.4</text></g><g><text font-family="Arial,Arial_MSFontService,sans-serif" font-weight="400" font-size="46" transform="matrix(1 0 0 1 164.328 452)">1.5</text></g><g><text font-family="Arial,Arial_MSFontService,sans-serif" font-weight="400" font-size="46" transform="matrix(0.707107 -0.707107 0.707107 0.707107 283.694 1399)">IP-Stride</text></g><g><text font-family="Arial,Arial_MSFontService,sans-serif" font-weight="400" font-size="46" transform="matrix(0.707107 -0.707107 0.707107 0.707107 595.514 1348)">IPCP</text></g><g><text font-family="Arial,Arial_MSFontService,sans-serif" font-weight="400" font-size="46" transform="matrix(0.707107 -0.707107 0.707107 0.707107 849.677 1355)">Bingo</text></g><g><text font-family="Arial,Arial_MSFontService,sans-serif" font-weight="400" font-size="46" transform="matrix(0.707107 -0.707107 0.707107 0.707107 1047.12 1419)">SPP+PPF</text></g><g><text font-family="Arial,Arial_MSFontService,sans-serif" font-weight="400" font-size="46" transform="matrix(0.707107 -0.707107 0.707107 0.707107 1388.7 1339)">Berti</text></g><g><text font-family="Arial,Arial_MSFontService,sans-serif" font-weight="400" font-size="46" transform="matrix(6.12323e-17 -1 1 6.12323e-17 113.33 926)">Speedup </text></g><g><rect x="325.5" y="507.5" width="23" height="23.0001" stroke="#000000" stroke-width="3.4375" stroke-linejoin="round" stroke-miterlimit="10" fill="#F2F2F2"/></g><g><text font-family="Arial,Arial_MSFontService,sans-serif" font-weight="400" font-size="46" transform="matrix(1 0 0 1 358.286 534)">Filter OFF</text></g><g><rect x="615.5" y="507.5" width="22.9997" height="23.0001" stroke="#000000" stroke-width="3.4375" stroke-linejoin="round" stroke-miterlimit="10" fill="#7F7F7F"/></g><g><text font-family="Arial,Arial_MSFontService,sans-serif" font-weight="400" font-size="46" transform="matrix(1 0 0 1 648.402 534)">Filter ON</text></g></g></svg>