<svg width="1689" height="907" xmlns="http://www.w3.org/2000/svg" xmlns:xlink="http://www.w3.org/1999/xlink" xml:space="preserve" overflow="hidden"><defs><clipPath id="clip0"><rect x="61" y="409" width="1689" height="907"/></clipPath></defs><g clip-path="url(#clip0)" transform="translate(-61 -409)"><rect x="60.9998" y="409" width="1689" height="907" fill="#FFFFFF"/><g><path d="M344.5 1062.54 1509.5 1062.54M344.5 1031.53 1509.5 1031.53M344.5 1000.53 1509.5 1000.53M344.5 968.532 1509.5 968.532M344.5 906.53 1509.5 906.53M344.5 875.529 1509.5 875.529M344.5 843.528 1509.5 843.528M344.5 812.527 1509.5 812.527M344.5 749.525 1509.5 749.525M344.5 718.524 1509.5 718.524M344.5 687.523 1509.5 687.523M344.5 656.522 1509.5 656.522M344.5 593.52 1509.5 593.52M344.5 562.519 1509.5 562.519M344.5 531.518 1509.5 531.518M344.5 499.517 1509.5 499.517" stroke="#F2F2F2" stroke-width="3.4375" stroke-linejoin="round" stroke-miterlimit="10" fill="none"/></g><g><path d="M344.5 937.531 1509.5 937.531M344.5 781.526 1509.5 781.526M344.5 624.521 1509.5 624.521M344.5 468.5 1509.5 468.5" stroke="#BFBFBF" stroke-width="3.4375" stroke-linejoin="round" stroke-miterlimit="10" fill="none"/></g><g><rect x="344.5" y="468.5" width="1165" height="625" stroke="#000000" stroke-width="3.4375" stroke-linejoin="round" stroke-miterlimit="10" fill="none"/></g><g><path d="M383.513 802.526 461.515 802.526 461.515 1093.5 383.513 1093.5ZM616.52 720.524 694.523 720.524 694.523 1093.5 616.52 1093.5ZM849.528 696.523 927.531 696.523 927.531 1093.5 849.528 1093.5ZM1082.54 691.523 1160.54 691.523 1160.54 1093.5 1082.54 1093.5ZM1315.54 668.522 1393.55 668.522 1393.55 1093.5 1315.54 1093.5Z" stroke="#000000" stroke-width="3.4375" stroke-linejoin="round" stroke-miterlimit="10" fill="#F2F2F2"/></g><g><path d="M461.515 980.532 539.518 980.532 539.518 1093.5 461.515 1093.5ZM694.523 924.531 772.526 924.531 772.526 1093.5 694.523 1093.5ZM927.531 873.529 1005.53 873.529 1005.53 1093.5 927.531 1093.5ZM1160.54 836.528 1237.54 836.528 1237.54 1093.5 1160.54 1093.5ZM1393.55 875.529 1470.55 875.529 1470.55 1093.5 1393.55 1093.5Z" stroke="#000000" stroke-width="3.4375" stroke-linejoin="round" stroke-miterlimit="10" fill="#7F7F7F"/></g><g><path d="M0 0 0.000360892 625" stroke="#000000" stroke-width="2.29167" stroke-linejoin="round" stroke-miterlimit="10" fill="none" fill-rule="evenodd" transform="matrix(1 0 0 -1 345 1094)"/></g><g><path d="M331 1094 345 1094M331 938.031 345 938.031M331 781.026 345 781.026M331 625.021 345 625.021M331 469 345 469" stroke="#000000" stroke-width="2.29167" stroke-linejoin="round" stroke-miterlimit="10" fill="none"/></g><g><path d="M344.5 1093.5 1509.5 1093.5" stroke="#000000" stroke-width="3.4375" stroke-linejoin="round" stroke-miterlimit="10" fill="none" fill-rule="evenodd"/></g><g><g><text font-family="Arial,Arial_MSFontService,sans-serif" font-weight="400" font-size="46" transform="matrix(1 0 0 1 357.758 772)">1.29</text></g></g><g><g><text font-family="Arial,Arial_MSFontService,sans-serif" font-weight="400" font-size="46" transform="matrix(1 0 0 1 593.499 690)">1.34</text></g></g><g><g><text font-family="Arial,Arial_MSFontService,sans-serif" font-weight="400" font-size="46" transform="matrix(1 0 0 1 830.812 666)">1.35</text></g></g><g><g><text font-family="Arial,Arial_MSFontService,sans-serif" font-weight="400" font-size="46" transform="matrix(1 0 0 1 1051.7 661)">1.36</text></g></g><g><g><text font-family="Arial,Arial_MSFontService,sans-serif" font-weight="400" font-size="46" transform="matrix(1 0 0 1 1289.24 638)">1.37</text></g></g><g><g><text font-family="Arial,Arial_MSFontService,sans-serif" font-weight="400" font-size="46" transform="matrix(1 0 0 1 462.188 949)">1.17</text></g></g><g><g><text font-family="Arial,Arial_MSFontService,sans-serif" font-weight="400" font-size="46" transform="matrix(1 0 0 1 695.151 894)">1.21</text></g></g><g><g><text font-family="Arial,Arial_MSFontService,sans-serif" font-weight="400" font-size="46" transform="matrix(1 0 0 1 928.113 843)">1.24</text></g></g><g><g><text font-family="Arial,Arial_MSFontService,sans-serif" font-weight="400" font-size="46" transform="matrix(1 0 0 1 1161.08 806)">1.26</text></g></g><g><g><text font-family="Arial,Arial_MSFontService,sans-serif" font-weight="400" font-size="46" transform="matrix(1 0 0 1 1394.04 845)">1.24</text></g></g><g><text font-family="Arial,Arial_MSFontService,sans-serif" font-weight="400" font-size="46" transform="matrix(1 0 0 1 241.828 1109)">1.1</text></g><g><text font-family="Arial,Arial_MSFontService,sans-serif" font-weight="400" font-size="46" transform="matrix(1 0 0 1 241.828 953)">1.2</text></g><g><text font-family="Arial,Arial_MSFontService,sans-serif" font-weight="400" font-size="46" transform="matrix(1 0 0 1 241.828 796)">1.3</text></g><g><text font-family="Arial,Arial_MSFontService,sans-serif" font-weight="400" font-size="46" transform="matrix(1 0 0 1 241.828 640)">1.4</text></g><g><text font-family="Arial,Arial_MSFontService,sans-serif" font-weight="400" font-size="46" transform="matrix(1 0 0 1 241.828 484)">1.5</text></g><g><text font-family="Arial,Arial_MSFontService,sans-serif" font-weight="400" font-size="46" transform="matrix(0.707107 -0.707107 0.707107 0.707107 346.98 1277)">IP-Stride</text></g><g><text font-family="Arial,Arial_MSFontService,sans-serif" font-weight="400" font-size="46" transform="matrix(0.707107 -0.707107 0.707107 0.707107 630.371 1227)">IPCP</text></g><g><text font-family="Arial,Arial_MSFontService,sans-serif" font-weight="400" font-size="46" transform="matrix(0.707107 -0.707107 0.707107 0.707107 856.107 1234)">Bingo</text></g><g><text font-family="Arial,Arial_MSFontService,sans-serif" font-weight="400" font-size="46" transform="matrix(0.707107 -0.707107 0.707107 0.707107 1025.13 1298)">SPP+PPF</text></g><g><text font-family="Arial,Arial_MSFontService,sans-serif" font-weight="400" font-size="46" transform="matrix(0.707107 -0.707107 0.707107 0.707107 1338.27 1218)">Berti</text></g><g><text font-family="Arial,Arial_MSFontService,sans-serif" font-weight="400" font-size="46" transform="matrix(6.12323e-17 -1 1 6.12323e-17 200.179 856)">Speedup </text></g><g><rect x="442.5" y="520.5" width="23" height="24.0001" stroke="#000000" stroke-width="3.4375" stroke-linejoin="round" stroke-miterlimit="10" fill="#F2F2F2"/></g><g><text font-family="Arial,Arial_MSFontService,sans-serif" font-weight="400" font-size="46" transform="matrix(1 0 0 1 474.987 548)">Non-secure</text></g><g><rect x="764.5" y="520.5" width="23.0001" height="24.0001" stroke="#000000" stroke-width="3.4375" stroke-linejoin="round" stroke-miterlimit="10" fill="#7F7F7F"/></g><g><text font-family="Arial,Arial_MSFontService,sans-serif" font-weight="400" font-size="46" transform="matrix(1 0 0 1 797.432 548)">Secure</text></g></g></svg>