<svg width="1687" height="1093" xmlns="http://www.w3.org/2000/svg" xmlns:xlink="http://www.w3.org/1999/xlink" xml:space="preserve" overflow="hidden"><defs><clipPath id="clip0"><rect x="1276" y="389" width="1687" height="1093"/></clipPath></defs><g clip-path="url(#clip0)" transform="translate(-1276 -389)"><rect x="1276" y="389" width="1687" height="1093" fill="#FFFFFF"/><g><path d="M1531.5 1217.54 2833.5 1217.54M1531.5 1191.54 2833.5 1191.54M1531.5 1165.54 2833.5 1165.54M1531.5 1139.54 2833.5 1139.54M1531.5 1087.54 2833.5 1087.54M1531.5 1061.54 2833.5 1061.54M1531.5 1035.53 2833.5 1035.53M1531.5 1009.53 2833.5 1009.53M1531.5 956.532 2833.5 956.532M1531.5 930.531 2833.5 930.531M1531.5 904.53 2833.5 904.53M1531.5 878.529 2833.5 878.529M1531.5 826.527 2833.5 826.527M1531.5 800.526 2833.5 800.526M1531.5 774.526 2833.5 774.526M1531.5 748.525 2833.5 748.525M1531.5 695.523 2833.5 695.523M1531.5 669.522 2833.5 669.522M1531.5 643.521 2833.5 643.521M1531.5 617.52 2833.5 617.52M1531.5 565.519 2833.5 565.519M1531.5 539.518 2833.5 539.518M1531.5 513.517 2833.5 513.517M1531.5 487.516 2833.5 487.516" stroke="#F2F2F2" stroke-width="3.4375" stroke-linejoin="round" stroke-miterlimit="10" fill="none"/></g><g><path d="M1531.5 1113.54 2833.5 1113.54M1531.5 983.532 2833.5 983.532M1531.5 852.528 2833.5 852.528M1531.5 722.524 2833.5 722.524M1531.5 591.52 2833.5 591.52M1531.5 461.5 2833.5 461.5" stroke="#BFBFBF" stroke-width="3.4375" stroke-linejoin="round" stroke-miterlimit="10" fill="none"/></g><g><rect x="1531.5" y="461.5" width="1302" height="782" stroke="#000000" stroke-width="3.4375" stroke-linejoin="round" stroke-miterlimit="10" fill="none"/></g><g><path d="M1574.55 991.533 1661.55 991.533 1661.55 1243.5 1574.55 1243.5ZM1834.56 869.529 1921.56 869.529 1921.56 1243.5 1834.56 1243.5ZM2095.57 728.524 2182.57 728.524 2182.57 1243.5 2095.57 1243.5ZM2355.58 856.528 2442.58 856.528 2442.58 1243.5 2355.58 1243.5ZM2616.59 562.519 2703.59 562.519 2703.59 1243.5 2616.59 1243.5Z" stroke="#000000" stroke-width="3.4375" stroke-linejoin="round" stroke-miterlimit="10" fill="#D9D9D9"/></g><g><path d="M1661.55 1159.54 1748.56 1159.54 1748.56 1243.5 1661.55 1243.5ZM1921.56 1162.54 2008.57 1162.54 2008.57 1243.5 1921.56 1243.5ZM2182.57 1091.54 2269.57 1091.54 2269.57 1243.5 2182.57 1243.5ZM2442.58 1134.54 2529.58 1134.54 2529.58 1243.5 2442.58 1243.5ZM2703.59 1101.54 2790.59 1101.54 2790.59 1243.5 2703.59 1243.5Z" stroke="#000000" stroke-width="3.4375" stroke-linejoin="round" stroke-miterlimit="10" fill="#595959"/></g><g><path d="M0 0 0.000360892 783" stroke="#000000" stroke-width="2.29167" stroke-linejoin="round" stroke-miterlimit="10" fill="none" fill-rule="evenodd" transform="matrix(1 0 0 -1 1531 1244)"/></g><g><path d="M1517 1244 1531 1244M1517 1113.04 1531 1113.04M1517 983.032 1531 983.032M1517 853.028 1531 853.028M1517 722.024 1531 722.024M1517 592.019 1531 592.019M1517 461 1531 461" stroke="#000000" stroke-width="2.29167" stroke-linejoin="round" stroke-miterlimit="10" fill="none"/></g><g><path d="M1531.5 1243.5 2833.5 1243.5" stroke="#000000" stroke-width="3.4375" stroke-linejoin="round" stroke-miterlimit="10" fill="none" fill-rule="evenodd"/></g><g><text font-family="Arial,Arial_MSFontService,sans-serif" font-weight="400" font-size="46" transform="matrix(1 0 0 1 1427.93 1259)">0.5</text></g><g><text font-family="Arial,Arial_MSFontService,sans-serif" font-weight="400" font-size="46" transform="matrix(1 0 0 1 1427.93 1129)">1.0</text></g><g><text font-family="Arial,Arial_MSFontService,sans-serif" font-weight="400" font-size="46" transform="matrix(1 0 0 1 1427.93 998)">1.5</text></g><g><text font-family="Arial,Arial_MSFontService,sans-serif" font-weight="400" font-size="46" transform="matrix(1 0 0 1 1427.93 868)">2.0</text></g><g><text font-family="Arial,Arial_MSFontService,sans-serif" font-weight="400" font-size="46" transform="matrix(1 0 0 1 1427.93 737)">2.5</text></g><g><text font-family="Arial,Arial_MSFontService,sans-serif" font-weight="400" font-size="46" transform="matrix(1 0 0 1 1427.93 607)">3.0</text></g><g><text font-family="Arial,Arial_MSFontService,sans-serif" font-weight="400" font-size="46" transform="matrix(1 0 0 1 1427.93 476)">3.5</text></g><g><text font-family="Arial,Arial_MSFontService,sans-serif" font-weight="400" font-size="46" transform="matrix(0.707107 -0.707107 0.707107 0.707107 1546.86 1427)">IP-Stride</text></g><g><text font-family="Arial,Arial_MSFontService,sans-serif" font-weight="400" font-size="46" transform="matrix(0.707107 -0.707107 0.707107 0.707107 1857.81 1377)">IPCP</text></g><g><text font-family="Arial,Arial_MSFontService,sans-serif" font-weight="400" font-size="46" transform="matrix(0.707107 -0.707107 0.707107 0.707107 2111.1 1384)">Bingo</text></g><g><text font-family="Arial,Arial_MSFontService,sans-serif" font-weight="400" font-size="46" transform="matrix(0.707107 -0.707107 0.707107 0.707107 2307.67 1448)">SPP+PPF</text></g><g><text font-family="Arial,Arial_MSFontService,sans-serif" font-weight="400" font-size="46" transform="matrix(0.707107 -0.707107 0.707107 0.707107 2648.37 1368)">Berti</text></g><g><text font-family="Arial,Arial_MSFontService,sans-serif" font-weight="400" font-size="46" transform="matrix(6.12323e-17 -1 1 6.12323e-17 1373.04 953)">Speedup </text></g><g><rect x="1555" y="483" width="668" height="111" fill="#FFFFFF"/></g><g><rect x="1615.5" y="499.5" width="23" height="23" stroke="#000000" stroke-width="3.4375" stroke-linejoin="round" stroke-miterlimit="10" fill="#D9D9D9"/></g><g><text font-family="Arial,Arial_MSFontService,sans-serif" font-weight="400" font-size="46" transform="matrix(1 0 0 1 1648.77 526)">Non-secure cache system</text></g><g><rect x="1615.5" y="554.5" width="23" height="23.0001" stroke="#000000" stroke-width="3.4375" stroke-linejoin="round" stroke-miterlimit="10" fill="#595959"/></g><g><text font-family="Arial,Arial_MSFontService,sans-serif" font-weight="400" font-size="46" transform="matrix(1 0 0 1 1648.77 581)">Secure cache system</text></g><g><rect x="1552" y="593" width="669" height="110" fill="#FFFFFF"/></g><g><g><text font-family="Arial,Arial_MSFontService,sans-serif" font-weight="400" font-size="46" transform="matrix(1 0 0 1 1648 636)">No Pref (Non</text></g></g><g><g><text font-family="Arial,Arial_MSFontService,sans-serif" font-weight="400" font-size="46" transform="matrix(1 0 0 1 1915.44 636)">-</text></g></g><g><g><text font-family="Arial,Arial_MSFontService,sans-serif" font-weight="400" font-size="46" transform="matrix(1 0 0 1 1930.7 636)">secure)</text></g></g><g><g><text font-family="Arial,Arial_MSFontService,sans-serif" font-weight="400" font-size="46" transform="matrix(1 0 0 1 1648 689)">No Pref (Secure)</text></g></g><g><path d="M1595.5 616.5 1641.03 616.5" stroke="#000000" stroke-width="3.4375" stroke-miterlimit="8" fill="none" fill-rule="evenodd"/></g><g><path d="M1595.5 668.5 1641.03 668.5" stroke="#FF0000" stroke-width="3.4375" stroke-miterlimit="8" fill="none" fill-rule="evenodd"/></g><g><path d="M1532.5 1125.5 2835.97 1125.5" stroke="#FF0000" stroke-width="3.4375" stroke-miterlimit="8" fill="none" fill-rule="evenodd"/></g><g><path d="M1531.5 1113.5 2834.97 1113.5" stroke="#000000" stroke-width="3.4375" stroke-miterlimit="8" fill="none" fill-rule="evenodd"/></g></g></svg>