<svg width="756" height="491" xmlns="http://www.w3.org/2000/svg" xmlns:xlink="http://www.w3.org/1999/xlink" overflow="hidden"><g><rect x="0" y="0" width="756" height="490.559" fill="#FFFFFF"/><path d="M153.5 152.197C153.5 147.874 157.007 144.37 161.333 144.37L297.667 144.37C301.993 144.37 305.5 147.874 305.5 152.197L305.5 183.501C305.5 187.824 301.993 191.328 297.667 191.328L161.333 191.328C157.007 191.328 153.5 187.824 153.5 183.501Z" stroke="#000000" stroke-width="1.33363" stroke-miterlimit="8" fill="#D9D9D9" fill-rule="evenodd"/><text font-family="Arial,Arial_MSFontService,sans-serif" font-weight="400" font-size="32" transform="matrix(1 0 0 0.999101 199.53 179)">L1D</text><path d="M232.5 257.935C232.5 253.704 235.932 250.275 240.167 250.275L451.833 250.275C456.068 250.275 459.5 253.704 459.5 257.935L459.5 288.574C459.5 292.804 456.068 296.234 451.833 296.234L240.167 296.234C235.932 296.234 232.5 292.804 232.5 288.574Z" stroke="#000000" stroke-width="1.33363" stroke-miterlimit="8" fill="#D9D9D9" fill-rule="evenodd"/><text font-family="Arial,Arial_MSFontService,sans-serif" font-weight="400" font-size="32" transform="matrix(1 0 0 0.999101 327.769 284)">L2</text><path d="M203.5 347.021C203.5 342.699 207.007 339.195 211.333 339.195L481.667 339.195C485.993 339.195 489.5 342.699 489.5 347.021L489.5 378.326C489.5 382.649 485.993 386.153 481.667 386.153L211.333 386.153C207.007 386.153 203.5 382.649 203.5 378.326Z" stroke="#000000" stroke-width="1.33363" stroke-miterlimit="8" fill="#D9D9D9" fill-rule="evenodd"/><text font-family="Arial,Arial_MSFontService,sans-serif" font-weight="400" font-size="32" transform="matrix(1 0 0 0.999101 316.411 374)">LLC</text><path d="M117.5 425.951C117.5 421.076 121.455 417.125 126.334 417.125L622.666 417.125C627.545 417.125 631.5 421.076 631.5 425.951L631.5 461.251C631.5 466.126 627.545 470.077 622.666 470.077L126.334 470.077C121.455 470.077 117.5 466.126 117.5 461.251Z" stroke="#000000" stroke-width="1.33363" stroke-miterlimit="8" fill="#A6A6A6" fill-rule="evenodd"/><text font-family="Arial,Arial_MSFontService,sans-serif" font-weight="400" font-size="32" transform="matrix(1 0 0 0.999101 326.905 455)">DRAM</text><path d="M170.5 33.6367C170.5 26.3713 176.395 20.4815 183.667 20.4815L356.333 20.4815C363.605 20.4815 369.5 26.3713 369.5 33.6367L369.5 86.2554C369.5 93.5209 363.605 99.4106 356.333 99.4106L183.667 99.4106C176.395 99.4106 170.5 93.5209 170.5 86.2554Z" stroke="#000000" stroke-width="1.33363" stroke-miterlimit="8" fill="#F2F2F2" fill-rule="evenodd"/><text font-family="Arial,Arial_MSFontService,sans-serif" font-weight="400" font-size="32" transform="matrix(1 0 0 0.999101 235.721 71)">CPU</text><path d="M413.5 152.197C413.5 147.874 417.007 144.37 421.333 144.37L525.667 144.37C529.993 144.37 533.5 147.874 533.5 152.197L533.5 183.501C533.5 187.824 529.993 191.328 525.667 191.328L421.333 191.328C417.007 191.328 413.5 187.824 413.5 183.501Z" stroke="#000000" stroke-width="1.33363" stroke-miterlimit="8" fill="#7F7F7F" fill-rule="evenodd"/><text fill="#FFFFFF" font-family="Arial,Arial_MSFontService,sans-serif" font-weight="400" font-size="32" transform="matrix(1 0 0 0.999101 447.201 179)">GM</text><path d="M6.66213-0.999322 22.6513-0.999322 22.6513 0.999322 6.66213 0.999322ZM28.6472-0.999322 44.6364-0.999322 44.6364 0.999322 28.6472 0.999322ZM50.6323-0.999322 66.6214-0.999322 66.6214 0.999322 50.6323 0.999322ZM72.6174-0.999322 88.6065-0.999322 88.6065 0.999322 72.6174 0.999322ZM94.6024-0.999322 106.36-0.999322 106.36 5.23102 104.361 5.23102 104.361 0 105.361 0.999322 94.6024 0.999322ZM106.36 11.2269 106.36 27.2161 104.361 27.2161 104.361 11.2269ZM106.36 33.212 106.36 49.2012 104.361 49.2012 104.361 33.212ZM106.36 55.1971 106.36 71.1862 104.361 71.1862 104.361 55.1971ZM106.36 77.1822 106.36 93.1713 104.361 93.1713 104.361 77.1822ZM106.36 99.1672 106.36 106.525 95.7302 106.525 95.7302 104.527 105.361 104.527 104.361 105.526 104.361 99.1672ZM89.7343 106.525 80.0437 106.525 80.0437 104.527 89.7343 104.527ZM7.99457 3.99729 0 0 7.99457-3.99729ZM81.3761 109.523 73.3816 105.526 81.3761 101.529Z" fill="#0D0D0D" transform="matrix(1.0009 0 0 -1 459 272.376)"/><path d="M6.66218-0.999322 22.6513-0.999322 22.6513 0.999322 6.66218 0.999322ZM28.6473-0.999322 44.6364-0.999322 44.6364 0.999322 28.6473 0.999322ZM50.6323-0.999322 66.6215-0.999322 66.6215 0.999322 50.6323 0.999322ZM72.6174-0.999322 88.6065-0.999322 88.6065 0.999322 72.6174 0.999322ZM94.6025-0.999322 110.592-0.999322 110.592 0.999322 94.6025 0.999322ZM116.588-0.999322 124.761-0.999322 124.761 8.81521 122.762 8.81521 122.762 0 123.761 0.999322 116.588 0.999322ZM124.761 14.8111 124.761 30.8003 122.762 30.8003 122.762 14.8111ZM124.761 36.7962 124.761 52.7854 122.762 52.7854 122.762 36.7962ZM124.761 58.7813 124.761 74.7704 122.762 74.7704 122.762 58.7813ZM124.761 80.7664 124.761 96.7555 122.762 96.7555 122.762 80.7664ZM124.761 102.751 124.761 118.741 122.762 118.741 122.762 102.751ZM124.761 124.737 124.761 140.726 122.762 140.726 122.762 124.737ZM124.761 146.722 124.761 162.711 122.762 162.711 122.762 146.722ZM124.761 168.707 124.761 184.696 122.762 184.696 122.762 168.707ZM124.761 190.692 124.761 195.898 111.979 195.898 111.979 193.899 123.761 193.899 122.762 194.899 122.762 190.692ZM105.983 195.898 89.9942 195.898 89.9942 193.899 105.983 193.899ZM83.9983 195.898 68.0091 195.898 68.0091 193.899 83.9983 193.899ZM62.0132 195.898 50.4777 195.898 50.4777 193.899 62.0132 193.899ZM7.99457 3.99729 0 0 7.99457-3.99729ZM51.8102 198.896 43.8156 194.899 51.8102 190.901Z" fill="#0D0D0D" transform="matrix(1.0009 0 0 -1 489 361.749)"/><path d="M638.259 441.915 654.262 441.915 654.262 443.913 638.259 443.913ZM660.263 441.915 664.938 441.915 663.938 442.914 663.938 431.595 665.938 431.595 665.938 443.913 660.263 443.913ZM663.938 425.599 663.938 409.61 665.938 409.61 665.938 425.599ZM663.938 403.614 663.938 387.625 665.938 387.625 665.938 403.614ZM663.938 381.629 663.938 365.64 665.938 365.64 665.938 381.629ZM663.938 359.644 663.938 343.655 665.938 343.655 665.938 359.644ZM663.938 337.659 663.938 321.67 665.938 321.67 665.938 337.659ZM663.938 315.674 663.938 299.685 665.938 299.685 665.938 315.674ZM663.938 293.689 663.938 277.699 665.938 277.699 665.938 293.689ZM663.938 271.703 663.938 255.714 665.938 255.714 665.938 271.703ZM663.938 249.718 663.938 233.729 665.938 233.729 665.938 249.718ZM663.938 227.733 663.938 211.744 665.938 211.744 665.938 227.733ZM663.938 205.748 663.938 189.759 665.938 189.759 665.938 205.748ZM663.938 183.763 663.938 167.774 665.938 167.774 665.938 183.763ZM659.861 167.849 643.858 167.849 643.858 165.851 659.861 165.851ZM637.857 167.849 621.853 167.849 621.853 165.851 637.857 165.851ZM615.852 167.849 599.848 167.849 599.848 165.851 615.852 165.851ZM593.847 167.849 577.843 167.849 577.843 165.851 593.847 165.851ZM571.842 167.849 555.839 167.849 555.839 165.851 571.842 165.851ZM549.837 167.849 539.668 167.849 539.668 165.851 549.837 165.851ZM639.592 446.911 631.59 442.914 639.592 438.917ZM541.002 170.847 533 166.85 541.002 162.853Z" fill="#0D0D0D"/><path d="M0.00287308-0.999317 101.794-0.706662 101.789 1.29197-0.00287308 0.999317ZM100.471-3.70845 108.454 0.311809 100.448 4.28609Z" fill="#0D0D0D" transform="matrix(-1.0009 0 0 1 413.551 166.85)"/><path d="M0-0.999322 30.2175-0.999322 30.2175 116.548 29.2182 115.549 51.7743 115.549 51.7743 117.548 28.2189 117.548 28.2189 0 29.2182 0.999322 0 0.999322ZM50.4419 112.551 58.4364 116.548 50.4419 120.546Z" fill="#0D0D0D" transform="matrix(1.83862e-16 1 1.0009 -1.83697e-16 229 190.828)"/><path d="M347 295.729 347.192 331.661 345.192 331.672 345 295.739ZM350.185 330.313 346.227 338.329 342.184 330.355Z" fill="#0D0D0D"/><path d="M221.617 275.062 82.184 275.062 82.184 165.85 142.998 165.85 142.998 169.848 84.1844 169.848 86.1849 167.849 86.1849 273.063 84.1844 271.065 221.617 271.065ZM219.617 267.067 231.619 273.063 219.617 279.059ZM140.997 161.853 153 167.849 140.997 173.845Z" fill="#0D0D0D"/><path d="M-9.99321 1.99864-119.205 1.99864-117.206 0-117.206 85.3275-119.205 83.3288 19.1185 83.3288 19.1185 87.3261-121.203 87.3261-121.203-1.99864-9.99321-1.99864ZM-11.9919-5.99593 0 0-11.9919 5.99593ZM17.1198 79.3316 29.1117 85.3275 17.1198 91.3234Z" fill="#0D0D0D" transform="matrix(1.0009 -1.22465e-16 -1.22575e-16 -1 203 366.075)"/><path d="M-9.99321 1.99864-33.7116 1.99864-31.7129 0-31.7129 69.5605-33.7116 67.5619 75.5715 67.5619 75.5715 71.5592-35.7102 71.5592-35.7102-1.99864-9.99321-1.99864ZM-11.9919-5.99593 0 0-11.9919 5.99593ZM73.5728 63.5646 85.5647 69.5605 73.5728 75.5565Z" fill="#0D0D0D" transform="matrix(1.0009 -1.22465e-16 -1.22575e-16 -1 117 443.224)"/><path d="M270.608 105.573 270.608 122.555 269.601 122.555 269.601 120.556 269.608 120.556 268.608 121.555 268.608 105.573ZM263.6 122.555 247.596 122.555 247.596 120.556 263.6 120.556ZM241.595 122.555 229 122.555 230 121.555 230 124.961 228 124.961 228 120.556 241.595 120.556ZM230 130.957 230 137.538 228 137.538 228 130.957ZM265.607 106.906 269.608 98.911 273.609 106.906ZM233.001 136.205 229 144.2 224.999 136.205Z" fill="#0D0D0D"/><path d="M6.66214-0.999322 23.4876-0.999322 23.4876 0.163039 21.4889 0.163039 21.4889 0 22.4882 0.999322 6.66214 0.999322ZM23.4876 6.15897 23.4876 22.1481 21.4889 22.1481 21.4889 6.15897ZM23.4876 28.144 23.4876 44.1332 21.4889 44.1332 21.4889 28.144ZM23.4876 50.1291 23.4876 66.1183 21.4889 66.1183 21.4889 50.1291ZM23.4876 72.1142 23.4876 88.1033 21.4889 88.1033 21.4889 72.1142ZM23.4876 94.0993 23.4876 110.088 21.4889 110.088 21.4889 94.0993ZM23.4876 116.084 23.4876 132.073 21.4889 132.073 21.4889 116.084ZM23.4876 138.069 23.4876 154.059 21.4889 154.059 21.4889 138.069ZM23.4876 160.054 23.4876 176.044 21.4889 176.044 21.4889 160.054ZM23.4876 182.04 23.4876 198.029 21.4889 198.029 21.4889 182.04ZM23.3007 202.213 38.3144 202.213 38.3144 204.211 23.3007 204.211ZM7.99457 3.99729 0 0 7.99457-3.99729ZM36.9819 199.215 44.9765 203.212 36.9819 207.209Z" fill="#0D0D0D" transform="matrix(1.83862e-16 1 1.0009 -1.83697e-16 270 98.911)"/><path d="M431 27.9748 516.262 27.9749" stroke="#000000" stroke-width="2.00044" stroke-miterlimit="8" stroke-dasharray="16.0035 6.00132" fill="none" fill-rule="evenodd"/><text font-family="Arial,Arial_MSFontService,sans-serif" font-weight="400" font-size="27" transform="matrix(1 0 0 0.999101 532.437 37)">Speculative path</text><path d="M430 53.9515 515.262 53.9516" stroke="#000000" stroke-width="2.00044" stroke-miterlimit="8" fill="none" fill-rule="evenodd"/><text font-family="Arial,Arial_MSFontService,sans-serif" font-weight="400" font-size="27" transform="matrix(1 0 0 0.999101 531.168 65)">Commit Write</text><path d="M428 80.9272 515.528 80.9273" stroke="#0D0D0D" stroke-width="4.00088" stroke-miterlimit="8" fill="none" fill-rule="evenodd"/><text font-family="Arial,Arial_MSFontService,sans-serif" font-weight="400" font-size="27" transform="matrix(1 0 0 0.999101 532.049 91)">Commit Load</text><path d="M21 197.323C21 184.355 31.5213 173.844 44.5 173.844 57.4787 173.844 68 184.355 68 197.323 68 210.29 57.4787 220.801 44.5 220.801 31.5213 220.801 21 210.29 21 197.323Z" fill-rule="evenodd"/><text fill="#FFFFFF" font-family="Calibri,Calibri_MSFontService,sans-serif" font-weight="400" font-size="32" transform="matrix(1 0 0 0.999101 28.0405 208)">2b</text><path d="M348 197.323C348 184.355 358.521 173.844 371.5 173.844 384.479 173.844 395 184.355 395 197.323 395 210.29 384.479 220.801 371.5 220.801 358.521 220.801 348 210.29 348 197.323Z" fill-rule="evenodd"/><text fill="#FFFFFF" font-family="Calibri,Calibri_MSFontService,sans-serif" font-weight="400" font-size="32" transform="matrix(1 0 0 0.999101 354.558 208)">2a</text><path d="M684 197.323C684 184.355 694.074 173.844 706.5 173.844 718.926 173.844 729 184.355 729 197.323 729 210.29 718.926 220.801 706.5 220.801 694.074 220.801 684 210.29 684 197.323Z" fill-rule="evenodd"/><text fill="#FFFFFF" font-family="Calibri,Calibri_MSFontService,sans-serif" font-weight="400" font-size="32" transform="matrix(1 0 0 0.999101 697.805 208)">1</text></g></svg>